<svg viewBox="0 0 190 56" fill="none" xmlns="http://www.w3.org/2000/svg">
<path d="M185.63 0C183.967 0 182.439 0.58058 181.259 1.54381V32.9083C182.452 33.8716 183.967 34.4521 185.63 34.4521C187.292 34.4521 188.82 33.8715 190 32.9083V1.55701C188.807 0.58058 187.292 0 185.63 0Z" fill="#F04D23"/>
<path d="M50.9286 8.61632C51.9072 7.44197 52.4971 5.95093 52.4971 4.31475C52.4971 2.67857 51.9072 1.17434 50.9286 0.0131836H30.6189V34.4653H50.9286C51.9072 33.291 52.4971 31.7999 52.4971 30.1637C52.4971 28.5276 51.9072 27.0233 50.9286 25.8622H39.3729V21.5606H50.9286C51.9072 20.3863 52.4971 18.8952 52.4971 17.259C52.4971 15.6229 51.9072 14.1186 50.9286 12.9575H39.3729V8.65591H50.9286V8.61632Z" fill="#F04D23"/>
<path d="M109.378 1.00282V25.849H105.007V1.09518C103.814 0.422239 102.299 0.0131946 100.637 0.0131946C98.9748 0.0131946 97.4466 0.422239 96.2668 1.09518V25.849C97.3929 30.7839 101.857 34.4653 107.206 34.4653C112.555 34.4653 117.019 30.7839 118.145 25.849V1.00282C116.952 0.382655 115.437 0 113.775 0C112.086 -3.14593e-07 110.571 0.382656 109.378 1.00282Z" fill="#F04D23"/>
<path d="M133.213 0C131.551 0 130.023 0.58058 128.843 1.54381L120.089 32.9083C121.282 33.8716 122.797 34.4521 124.459 34.4521C126.122 34.4521 127.65 33.8715 128.83 32.9083L133.2 17.2327L137.57 32.9083C138.763 33.8716 140.278 34.4521 141.941 34.4521C143.603 34.4521 145.131 33.8715 146.311 32.9083L137.557 1.54381C136.404 0.58058 134.876 0 133.213 0Z" fill="#F04D23"/>
<path d="M166.54 1.557V17.2327L163.832 6.5579C162.853 2.70496 159.341 0.0131836 155.306 0.0131836H149.045V32.9215C150.239 33.8847 151.753 34.4653 153.416 34.4653C155.078 34.4653 156.606 33.8847 157.786 32.9215V17.2327L160.494 27.9074C161.473 31.7603 164.985 34.4521 169.02 34.4521H175.28V1.557C174.087 0.593763 172.573 0.0131838 170.91 0.0131838C169.248 0.0131838 167.733 0.580571 166.54 1.557Z" fill="#F04D23"/>
<path d="M76.7616 5.88497L74.3754 12.9311L71.9489 5.75302C70.7826 2.32232 67.525 0.0131966 63.8519 0.0131966H56.8809V32.9215C58.074 33.8847 59.5888 34.4653 61.2511 34.4653C62.9134 34.4653 64.4417 33.8847 65.6214 32.9215V12.9311L69.9917 25.849C71.1848 26.8122 72.6997 27.3928 74.362 27.3928C76.0243 27.3928 77.5525 26.8122 78.7322 25.849L83.1025 12.9311V32.9215C84.2956 33.8847 85.8105 34.4653 87.4728 34.4653C89.1351 34.4653 90.6634 33.8847 91.8431 32.9215V0H85.0061C81.2793 0 77.9547 2.3751 76.7616 5.88497Z" fill="#F04D23"/>
<path d="M17.4947 8.61632H24.6802C25.6588 7.44197 26.2486 5.95093 26.2486 4.31475C26.2486 2.67857 25.6588 1.17434 24.6802 0.0131836H17.6958C8.0168 0.0131836 0.0403707 7.65308 0.000153732 17.1799C-0.0400636 26.7199 7.81571 34.4653 17.4947 34.4653H26.2486V21.6266C26.2486 16.8236 22.2939 12.9311 17.4142 12.9311H14.6929C13.7142 14.1054 13.1244 15.5965 13.1244 17.2327C13.1244 18.8688 13.7142 20.3731 14.6929 21.5342H17.4947V25.8358C12.6686 25.8358 8.74071 21.9828 8.74071 17.2195C8.75412 12.4693 12.6686 8.61632 17.4947 8.61632Z" fill="#F04D23"/>
<path d="M60.7686 43.0685C59.3744 43.0685 58.2349 44.19 58.2349 45.5623V46.3936H59.924V45.5623C59.924 45.1005 60.2993 44.731 60.7686 44.731C61.2378 44.731 61.6131 45.1005 61.6131 45.5623V46.8422C61.6131 47.304 61.2378 47.6735 60.7686 47.6735C59.3744 47.6735 58.2349 48.7951 58.2349 50.1674V53.4925C58.2349 54.8648 59.3744 55.9864 60.7686 55.9864C62.1628 55.9864 63.3022 54.8648 63.3022 53.4925V50.1674C63.3022 49.534 63.0609 48.9402 62.6588 48.5048C63.0609 48.0694 63.3022 47.4756 63.3022 46.8422V45.5623C63.3022 44.19 62.1628 43.0685 60.7686 43.0685ZM61.6131 53.4925C61.6131 53.9543 61.2378 54.3238 60.7686 54.3238C60.2993 54.3238 59.924 53.9543 59.924 53.4925V50.1674C59.924 49.7055 60.2993 49.3361 60.7686 49.3361C61.2378 49.3361 61.6131 49.7055 61.6131 50.1674V53.4925Z" fill="#1F1F1F"/>
<path d="M84.4163 43.0685C83.0221 43.0685 81.8826 44.19 81.8826 45.5623V46.3936H83.5717V45.5623C83.5717 45.1005 83.9471 44.731 84.4163 44.731C84.8855 44.731 85.2608 45.1005 85.2608 45.5623V49.4812C84.9927 49.3889 84.7112 49.3361 84.4163 49.3361C83.0221 49.3361 81.8826 50.4576 81.8826 51.8299V53.4925C81.8826 54.8648 83.0221 55.9864 84.4163 55.9864C85.8105 55.9864 86.9499 54.8648 86.9499 53.4925V51.8299V45.5623C86.9634 44.19 85.8239 43.0685 84.4163 43.0685ZM85.2608 53.4925C85.2608 53.9543 84.8855 54.3238 84.4163 54.3238C83.947 54.3238 83.5717 53.9543 83.5717 53.4925V51.8299C83.5717 51.3681 83.947 50.9986 84.4163 50.9986C84.8855 50.9986 85.2608 51.3681 85.2608 51.8299V53.4925Z" fill="#1F1F1F"/>
<path d="M72.5925 43.0685C71.1983 43.0685 70.0588 44.19 70.0588 45.5623V46.3936H71.748V45.5623C71.748 45.1005 72.1233 44.731 72.5925 44.731C73.0617 44.731 73.4371 45.1005 73.4371 45.5623V53.4925C73.4371 53.9543 73.0617 54.3238 72.5925 54.3238C72.1233 54.3238 71.748 53.9543 71.748 53.4925V50.9986H70.0588V53.4925C70.0588 54.8648 71.1983 55.9864 72.5925 55.9864C73.9867 55.9864 75.1262 54.8648 75.1262 53.4925V45.5623C75.1262 44.19 74.0001 43.0685 72.5925 43.0685Z" fill="#1F1F1F"/>
<path d="M131.739 43.0685C130.345 43.0685 129.205 44.19 129.205 45.5623V55.9864H130.894V45.5623C130.894 45.1005 131.27 44.731 131.739 44.731C132.208 44.731 132.583 45.1005 132.583 45.5623V55.9864H134.272V45.5623C134.272 44.19 133.133 43.0685 131.739 43.0685Z" fill="#1F1F1F"/>
<path d="M109.257 45.404L107.903 44.4011C107.474 44.0845 107.233 43.5963 107.233 43.0685H105.544C105.544 44.1109 106.04 45.1005 106.898 45.7338L108.252 46.7367C108.681 47.0533 108.935 47.5416 108.935 48.0694V53.4793C108.935 53.9279 108.587 54.3106 108.131 54.337C107.648 54.3634 107.246 53.9807 107.246 53.5057V51.0118H105.544V53.4661C105.544 54.8384 106.643 55.9732 108.037 55.9995C109.458 56.0259 110.611 54.8912 110.611 53.5057V48.0694C110.611 47.0138 110.115 46.0241 109.257 45.404Z" fill="#1F1F1F"/>
<path d="M119.942 49.3361C119.633 49.3361 119.338 49.3889 119.07 49.4812V44.731H122.448V43.0685H119.07C118.132 43.0685 117.381 43.8074 117.381 44.731V53.4529C117.381 54.8252 118.48 55.96 119.875 55.9864C121.296 56.0127 122.448 54.878 122.448 53.4925V51.8695C122.435 50.4972 121.336 49.3493 119.942 49.3361ZM120.746 53.4925C120.746 53.9543 120.371 54.3238 119.901 54.3238C119.432 54.3238 119.057 53.9543 119.057 53.4925V51.8299C119.057 51.3681 119.432 50.9986 119.901 50.9986C120.371 50.9986 120.746 51.3681 120.746 51.8299V53.4925Z" fill="#1F1F1F"/>
<path d="M96.468 43.0685C95.905 43.0685 95.3955 43.2664 94.9934 43.5963C94.5912 43.2664 94.0818 43.0685 93.5187 43.0685H92.8887V44.731H93.5187C93.8673 44.731 94.1488 45.0081 94.1488 45.3512V46.3936H95.8379V45.3512C95.8379 45.0081 96.1195 44.731 96.468 44.731C96.8166 44.731 97.0981 45.0081 97.0981 45.3512V53.4925C97.0981 53.9543 96.7227 54.3238 96.2535 54.3238C95.7843 54.3238 95.409 53.9543 95.409 53.4925V50.9986H93.7198V53.4925C93.7198 54.8648 94.8593 55.9863 96.2535 55.9863C97.6477 55.9863 98.7872 54.8648 98.7872 53.4925V45.3512C98.7872 44.0977 97.7416 43.0685 96.468 43.0685Z" fill="#1F1F1F"/>
<path d="M145.399 49.534C145.131 49.3097 144.823 49.1382 144.501 49.0062C144.635 48.6895 144.729 48.3465 144.756 48.0034C144.407 48.0298 144.072 48.1222 143.737 48.2541C143.603 47.9374 143.428 47.6339 143.2 47.37C142.973 47.6339 142.798 47.9374 142.664 48.2541C142.343 48.1222 141.994 48.0298 141.645 48.0034C141.672 48.3465 141.766 48.6763 141.9 49.0062C141.578 49.1382 141.27 49.3097 141.002 49.534C141.27 49.7583 141.578 49.9299 141.9 50.0618C141.766 50.3785 141.672 50.7216 141.645 51.0646C141.994 51.0382 142.329 50.9459 142.664 50.8139C142.798 51.1306 142.973 51.4341 143.2 51.698C143.428 51.4341 143.603 51.1306 143.737 50.8139C144.058 50.9459 144.407 51.0382 144.756 51.0646C144.729 50.7216 144.635 50.3917 144.501 50.0618C144.836 49.9167 145.131 49.7451 145.399 49.534Z" fill="#1F1F1F"/>
<path d="M50.5668 49.0062C50.7008 48.6895 50.7947 48.3465 50.8215 48.0034C50.4729 48.0298 50.1378 48.1221 49.8026 48.2541C49.6686 47.9374 49.4943 47.6339 49.2664 47.37C49.0385 47.6339 48.8642 47.9374 48.7302 48.2541C48.4084 48.1221 48.0599 48.0298 47.7113 48.0034C47.7382 48.3465 47.832 48.6763 47.9661 49.0062C47.6443 49.1381 47.336 49.3097 47.0679 49.534C47.336 49.7583 47.6443 49.9298 47.9661 50.0618C47.832 50.3785 47.7382 50.7216 47.7113 51.0646C48.0599 51.0382 48.395 50.9459 48.7302 50.8139C48.8642 51.1306 49.0385 51.4341 49.2664 51.698C49.4943 51.4341 49.6686 51.1306 49.8026 50.8139C50.1244 50.9459 50.4729 51.0382 50.8215 51.0646C50.7947 50.7216 50.7008 50.3917 50.5668 50.0618C50.8885 49.9298 51.1968 49.7583 51.465 49.534C51.2102 49.3097 50.9019 49.1381 50.5668 49.0062Z" fill="#1F1F1F"/>
</svg>
