<?xml version="1.0" encoding="utf-8"?>
<!-- Generator: Adobe Illustrator 26.0.1, SVG Export Plug-In . SVG Version: 6.00 Build 0)  -->
<svg version="1.1" id="Capa_1" xmlns="http://www.w3.org/2000/svg" xmlns:xlink="http://www.w3.org/1999/xlink" x="0px" y="0px"
	 viewBox="0 0 800 800" style="enable-background:new 0 0 800 800;" xml:space="preserve">
<g>
	<path d="M630.1,95.8H504.6C500.2,42.2,455.2,0,400.4,0c-54.8,0-99.7,42.2-104.1,95.8H170.7c-51.8,0-93.7,42-93.7,93.7v0
		c0,38,22.6,70.7,55.1,85.4v425.5c0,55,40.9,99.5,91.4,99.5h354c50.5,0,91.4-44.6,91.4-99.5V275c32.5-14.7,55.1-47.4,55.1-85.4v0
		C723.8,137.8,681.9,95.8,630.1,95.8z M400.4,50c27.1,0,49.6,19.9,53.8,45.8H346.6C350.8,69.9,373.3,50,400.4,50z M170.7,156.8
		h459.3c18.1,0,32.7,14.7,32.7,32.7c0,18.1-14.7,32.7-32.7,32.7H170.7c-18.1,0-32.7-14.7-32.7-32.7
		C138,171.5,152.7,156.8,170.7,156.8z M608.8,700.5c0,11.5-3.9,22.1-11,29.8c-4.1,4.4-10.9,9.7-20.4,9.7h-354
		c-9.5,0-16.3-5.3-20.4-9.7c-7.1-7.7-11-18.3-11-29.8V284h416.7V700.5z"/>
	<path d="M244.1,665.3L244.1,665.3c4.1,12.7,16.1,21.9,30.1,21.9c17.5,0,31.7-14.2,31.7-31.7v-244c0-17.5-14.2-31.7-31.7-31.7
		c-17.5,0-31.7,14.2-31.7,31.7v244C242.6,659,243.1,662.2,244.1,665.3L244.1,665.3z"/>
	<path d="M400.4,687.2c17.5,0,31.7-14.2,31.7-31.7v-244c0-17.5-14.2-31.7-31.7-31.7s-31.7,14.2-31.7,31.7v244
		C368.7,673,383,687.2,400.4,687.2z"/>
	<path d="M526.6,687.2c17.5,0,31.7-14.2,31.7-31.7v-244c0-17.5-14.2-31.7-31.7-31.7s-31.7,14.2-31.7,31.7v244
		C494.9,673,509.1,687.2,526.6,687.2z"/>
</g>
</svg>
