<?xml version="1.0" encoding="utf-8"?>
<!-- Generator: Adobe Illustrator 24.0.2, SVG Export Plug-In . SVG Version: 6.00 Build 0)  -->
<svg version="1.1" id="Слой_1" xmlns="http://www.w3.org/2000/svg" xmlns:xlink="http://www.w3.org/1999/xlink" x="0px" y="0px"
	 viewBox="0 0 300 200" style="enable-background:new 0 0 300 200;" xml:space="preserve">
<style type="text/css">
	.st0{fill:#FFFFFF;}
	.st1{fill:#FE0002;}
</style>
<rect class="st0" width="300" height="200"/>
<g>
	<g>
		<path class="st1" d="M298.1,80c-42.1,0-84.2,0-126.4,0c-0.5,0-1,0-1.6,0c0-0.5-0.1-0.9-0.1-1.3c0-26.1,0-52.2,0-78.3
			c0-0.1,0-0.3,0-0.4c-13.3,0-26.7,0-40,0c0,16,0,31.9,0,47.9c0,10.1,0,20.2,0,30.3c0,0.5,0,1.1,0,1.7c-0.5,0-0.9,0.1-1.3,0.1
			C86,80,43.3,80,0.6,80c-0.2,0-0.4,0-0.6,0c0,13.3,0,26.7,0,40c0.6,0,1.1,0,1.7,0c42.2,0,84.4,0,126.6,0c0.5,0,1,0,1.6,0
			c0,0.5,0.1,0.9,0.1,1.3c0,26.1,0,52.1,0,78.2c0,0.2,0,0.4,0,0.6c13.3,0,26.7,0,40,0c0-19.8,0-39.6,0-59.4c0-6.2,0-12.5,0-18.7
			c0-0.5,0-1.1,0-1.7c0.5,0,0.9-0.1,1.3-0.1c42.7,0,85.4,0,128.2,0c0.2,0,0.4,0,0.6,0c0-13.3,0-26.7,0-40
			C299.4,80,298.7,80,298.1,80z"/>
		<path class="st1" d="M71,141.4c-4.4,0-8.7,0-13.1,0c0.5,4.6,1.1,9.3,1.6,14.2c-5-0.6-9.6-1.1-14.2-1.6c0,4.4,0,8.8,0,13.1
			c4.6-0.5,9.2-1,14.2-1.6c-0.6,5.1-1.1,9.7-1.6,14.2c4.4,0,8.7,0,13.2,0c-0.1-0.5-0.1-1-0.2-1.6c-0.4-2.9-0.8-5.8-1.1-8.7
			c-0.4-4-0.4-4,3.7-3.6c3.3,0.4,6.7,0.8,10.1,1.2c0-4.4,0-8.8,0-13.1c-4.6,0.5-9.2,1-14.2,1.6C69.9,150.6,70.5,146,71,141.4z"/>
		<path class="st1" d="M229,58.6c4.4,0,8.8,0,13.1,0c-0.5-4.7-1-9.3-1.6-14.2c5,0.6,9.7,1.1,14.2,1.6c0-4.4,0-8.7,0-13.2
			c-2.3,0.3-4.5,0.7-6.8,0.9c-2.3,0.3-4.7,0.4-7.4,0.6c0.6-4.9,1.1-9.6,1.6-14.1c-4.4,0-8.8,0-13.1,0c0.5,4.6,1.1,9.2,1.6,14.2
			c-5-0.6-9.6-1.1-14.2-1.6c0,4.4,0,8.7,0,13c4.6-0.5,9.2-1,14.2-1.6C230.1,49.4,229.5,54,229,58.6z"/>
		<path class="st1" d="M242.1,141.4c-4.3,0-8.7,0-13.1,0c0.5,4.7,1.1,9.3,1.6,14.2c-5-0.6-9.7-1.1-14.2-1.6c0,4.4,0,8.7,0,13.2
			c0.4-0.1,0.8-0.1,1.2-0.2c3.9-0.4,7.7-0.9,11.6-1.3c1-0.1,1.3,0.2,1.2,1.2c-0.3,2.2-0.4,4.4-0.6,6.6c-0.2,2.1-0.6,4.2-0.8,6.1
			c4.5,0,8.9,0,13.3,0c-0.8-4.6-1.5-9.2-1.5-14.2c4.8,0.5,9.4,1.1,13.9,1.6c0-4.3,0-8.7,0-13.1c-4.6,0.5-9.2,1-14.2,1.6
			C241,150.6,241.6,146,242.1,141.4z"/>
		<path class="st1" d="M57.9,58.6c4.4,0,8.7,0,13.1,0c-0.5-4.6-1.1-9.3-1.6-14.2c5,0.6,9.6,1.1,14.2,1.6c0-4.4,0-8.7,0-13.2
			c-0.4,0.1-0.8,0.1-1.1,0.1c-3.9,0.4-7.8,0.9-11.7,1.4c-0.9,0.1-1.3-0.1-1.1-1.1c0.3-2.7,0.5-5.4,0.9-8.1c0.2-1.6,0.4-3.2,0.7-4.7
			c-4.5,0-8.9,0-13.2,0c0.5,4.6,1,9.2,1.6,14.2c-5.1-0.6-9.7-1.1-14.2-1.6c0,4.4,0,8.8,0,13.1c4.6-0.5,9.2-1,14.2-1.6
			C59,49.4,58.4,54,57.9,58.6z"/>
	</g>
</g>
</svg>
