<svg width="967" height="312" viewBox="0 0 967 312" fill="none" xmlns="http://www.w3.org/2000/svg">
<path d="M342.8 233.935H264.8V311.935H342.8V233.935Z" fill="white"/>
<path d="M342.7 311.835H303.7C303.7 290.335 321.1 272.835 342.7 272.835V311.835Z" fill="black"/>
<path d="M264.8 311.835V272.835C286.3 272.835 303.8 290.235 303.8 311.835H264.8Z" fill="#F187B6"/>
<path d="M264.8 233.935H303.8C303.8 255.435 286.4 272.935 264.8 272.935V233.935Z" fill="black"/>
<path d="M342.7 233.935V272.935C321.2 272.935 303.7 255.535 303.7 233.935H342.7Z" fill="#EF4D23"/>
<path d="M108.9 78.0342H30.8999V156.034H108.9V78.0342Z" fill="#F187B6"/>
<path d="M69.8999 116.935L30.8999 155.935H108.9L69.8999 116.935L30.8999 155.935H108.9L69.8999 116.935Z" fill="#EF4D23"/>
<path d="M69.8999 116.934L108.9 78.0342H30.8999L69.8999 116.934L108.9 78.0342H30.8999L69.8999 116.934Z" fill="white"/>
<path d="M69.8999 116.934L108.9 155.934V78.0342L69.8999 116.934L108.9 155.934V78.0342L69.8999 116.934Z" fill="black"/>
<path d="M264.8 233.935H186.8V311.935H264.8V233.935Z" fill="black"/>
<path d="M225.8 311.835C247.339 311.835 264.8 294.374 264.8 272.835C264.8 251.296 247.339 233.835 225.8 233.835C204.261 233.835 186.8 251.296 186.8 272.835C186.8 294.374 204.261 311.835 225.8 311.835Z" fill="black"/>
<path d="M225.8 311.835C247.3 311.835 264.8 294.435 264.8 272.835H186.8C186.8 294.435 204.3 311.835 225.8 311.835Z" fill="#FFC433"/>
<path d="M247.1 284.635C253.617 284.635 258.9 279.352 258.9 272.835C258.9 266.318 253.617 261.035 247.1 261.035C240.583 261.035 235.3 266.318 235.3 272.835C235.3 279.352 240.583 284.635 247.1 284.635Z" fill="white"/>
<path d="M204.6 284.635C211.117 284.635 216.4 279.352 216.4 272.835C216.4 266.318 211.117 261.035 204.6 261.035C198.083 261.035 192.8 266.318 192.8 272.835C192.8 279.352 198.083 284.635 204.6 284.635Z" fill="white"/>
<path d="M225.8 305.935C232.317 305.935 237.6 300.652 237.6 294.135C237.6 287.618 232.317 282.335 225.8 282.335C219.283 282.335 214 287.618 214 294.135C214 300.652 219.283 305.935 225.8 305.935Z" fill="white"/>
<path d="M225.8 263.435C232.317 263.435 237.6 258.152 237.6 251.635C237.6 245.118 232.317 239.835 225.8 239.835C219.283 239.835 214 245.118 214 251.635C214 258.152 219.283 263.435 225.8 263.435Z" fill="white"/>
<path d="M225.8 286.635C233.422 286.635 239.6 280.457 239.6 272.835C239.6 265.214 233.422 259.035 225.8 259.035C218.178 259.035 212 265.214 212 272.835C212 280.457 218.178 286.635 225.8 286.635Z" fill="black"/>
<path d="M225.8 278.835C229.114 278.835 231.8 276.149 231.8 272.835C231.8 269.521 229.114 266.835 225.8 266.835C222.486 266.835 219.8 269.521 219.8 272.835C219.8 276.149 222.486 278.835 225.8 278.835Z" fill="white"/>
<path d="M204.8 255.535C206.844 255.535 208.5 253.878 208.5 251.835C208.5 249.791 206.844 248.135 204.8 248.135C202.757 248.135 201.1 249.791 201.1 251.835C201.1 253.878 202.757 255.535 204.8 255.535Z" fill="white"/>
<path d="M246.8 297.634C248.844 297.634 250.5 295.978 250.5 293.934C250.5 291.891 248.844 290.234 246.8 290.234C244.757 290.234 243.1 291.891 243.1 293.934C243.1 295.978 244.757 297.634 246.8 297.634Z" fill="black"/>
<path d="M246.8 255.535C248.844 255.535 250.5 253.878 250.5 251.835C250.5 249.791 248.844 248.135 246.8 248.135C244.757 248.135 243.1 249.791 243.1 251.835C243.1 253.878 244.757 255.535 246.8 255.535Z" fill="white"/>
<path d="M204.8 297.634C206.844 297.634 208.5 295.978 208.5 293.934C208.5 291.891 206.844 290.234 204.8 290.234C202.757 290.234 201.1 291.891 201.1 293.934C201.1 295.978 202.757 297.634 204.8 297.634Z" fill="black"/>
<path d="M31 233.935H-47V311.935H31V233.935Z" fill="black"/>
<path d="M5.77271 288.811L5.77271 287.411L-7.62729 287.411L-7.62729 288.811L5.77271 288.811Z" fill="#20928F"/>
<path d="M12.5 276.534C15.2 276.534 17.8 277.534 19.8 279.134L31 288.134L19.8 297.134C17.8 298.734 15.3 299.734 12.5 299.734C9.8 299.734 7.2 298.734 5.2 297.134L-6 288.134L5.2 279.134C7.2 277.534 9.7 276.534 12.5 276.534Z" fill="#2DBCBB"/>
<path d="M30.8999 288.135L19.6999 297.135C17.6999 298.735 15.1999 299.735 12.3999 299.735C9.6999 299.735 7.0999 298.735 5.0999 297.135L-6.1001 288.135H30.8999Z" fill="#20928F"/>
<path d="M-22.4001 258.435C-22.4001 254.735 -21.2001 251.435 -19.2001 248.835L-8.10014 233.935L2.99986 248.835C4.99986 251.435 6.19986 254.835 6.19986 258.435C6.19986 262.135 4.99986 265.435 2.99986 268.035L-8.00014 283.035L-19.1001 268.135C-21.2001 265.435 -22.4001 262.135 -22.4001 258.435Z" fill="#2DBCBB"/>
<path d="M-8 233.935L3.1 248.835C5.1 251.435 6.3 254.835 6.3 258.435C6.3 262.135 5.1 265.435 3.1 268.035L-8 283.035V233.935Z" fill="#20928F"/>
<path d="M108.9 233.935H30.8999V311.935H108.9V233.935Z" fill="white"/>
<path d="M94.7 278.035L89.6 272.935L94.7 267.835C100.1 262.435 100.1 253.635 94.7 248.235C89.3 242.835 80.5 242.835 75.1 248.235L70 253.335L64.9 248.235C59.5 242.835 50.7 242.835 45.3 248.235C39.9 253.635 39.9 262.435 45.3 267.835L50.4 272.935L45.3 278.035C39.9 283.435 39.9 292.235 45.3 297.635C50.7 303.035 59.5 303.035 64.9 297.635L70 292.535L75.1 297.635C80.5 303.035 89.3 303.035 94.7 297.635C100.1 292.235 100.1 283.435 94.7 278.035Z" fill="#EF4D23"/>
<path d="M69.9001 285.434C76.8588 285.434 82.5001 279.793 82.5001 272.834C82.5001 265.876 76.8588 260.234 69.9001 260.234C62.9413 260.234 57.3 265.876 57.3 272.834C57.3 279.793 62.9413 285.434 69.9001 285.434Z" fill="white"/>
<path d="M186.9 155.935H108.9V233.935H186.9V155.935Z" fill="white"/>
<path d="M117 186.735C114.1 183.835 112.4 180.235 111.9 176.535L108.9 155.835L129.6 158.835C133.3 159.335 136.9 161.035 139.8 163.935C142.7 166.835 144.4 170.435 144.9 174.135L147.9 194.835L127.2 191.835C123.5 191.435 119.9 189.635 117 186.735Z" fill="#2DBCBB"/>
<path d="M108.9 155.935L129.6 158.935C133.3 159.435 136.9 161.135 139.8 164.035C142.7 166.935 144.4 170.535 144.9 174.235L147.9 194.935L108.9 155.935Z" fill="#20928F"/>
<path d="M178.7 186.735C175.8 189.635 172.2 191.335 168.5 191.835L147.8 194.835L150.8 174.135C151.3 170.435 153 166.835 155.9 163.935C158.8 161.035 162.4 159.335 166.1 158.835L186.8 155.835L183.8 176.535C183.3 180.235 181.6 183.835 178.7 186.735Z" fill="#2DBCBB"/>
<path d="M147.9 194.935L150.9 174.235C151.4 170.535 153.1 166.935 156 164.035C158.9 161.135 162.5 159.435 166.2 158.935L186.9 155.935L147.9 194.935Z" fill="#20928F"/>
<path d="M117 203.035C119.9 200.135 123.5 198.435 127.2 197.935L147.9 194.935L144.9 215.635C144.4 219.335 142.7 222.935 139.8 225.835C136.9 228.735 133.3 230.435 129.6 230.935L108.9 233.935L111.9 213.235C112.4 209.535 114.1 205.935 117 203.035Z" fill="#2DBCBB"/>
<path d="M147.9 194.935L144.9 215.635C144.4 219.335 142.7 222.935 139.8 225.835C136.9 228.735 133.3 230.435 129.6 230.935L108.9 233.935L147.9 194.935Z" fill="#20928F"/>
<path d="M178.7 203.035C181.6 205.935 183.3 209.535 183.8 213.235L186.8 233.935L166.1 230.935C162.4 230.435 158.8 228.735 155.9 225.835C153 222.935 151.3 219.335 150.8 215.635L147.8 194.935L168.5 197.935C172.2 198.435 175.8 200.135 178.7 203.035Z" fill="#2DBCBB"/>
<path d="M186.8 233.935L166.1 230.935C162.4 230.435 158.8 228.735 155.9 225.835C153 222.935 151.3 219.335 150.8 215.635L147.8 194.935L186.8 233.935Z" fill="#20928F"/>
<path d="M420.7 233.935H342.7V311.935H420.7V233.935Z" fill="#F187B6"/>
<path d="M381.7 311.835C403.239 311.835 420.7 294.374 420.7 272.835C420.7 251.296 403.239 233.835 381.7 233.835C360.161 233.835 342.7 251.296 342.7 272.835C342.7 294.374 360.161 311.835 381.7 311.835Z" fill="black"/>
<path d="M390.4 248.035C390.4 243.235 386.5 239.335 381.7 239.335C376.9 239.335 373 243.235 373 248.035V297.635C373 302.435 376.9 306.335 381.7 306.335C386.5 306.335 390.4 302.435 390.4 297.635V248.035Z" fill="white"/>
<path d="M364.6 252.935C360.4 250.535 355.1 251.935 352.7 256.135C350.3 260.335 351.7 265.635 355.9 268.035L398.9 292.835C403.1 295.235 408.4 293.835 410.8 289.635C413.2 285.435 411.8 280.135 407.6 277.735L364.6 252.935Z" fill="white"/>
<path d="M364.6 292.835C360.4 295.235 355.1 293.835 352.7 289.635C350.3 285.435 351.7 280.135 355.9 277.735L398.9 252.935C403.1 250.535 408.4 251.935 410.8 256.135C413.2 260.335 411.8 265.635 407.6 268.035L364.6 292.835Z" fill="white"/>
<path d="M366.6 249.835C368.367 249.835 369.8 248.402 369.8 246.635C369.8 244.867 368.367 243.435 366.6 243.435C364.833 243.435 363.4 244.867 363.4 246.635C363.4 248.402 364.833 249.835 366.6 249.835Z" fill="#EF4D23"/>
<path d="M396.9 302.335C398.667 302.335 400.1 300.902 400.1 299.135C400.1 297.367 398.667 295.935 396.9 295.935C395.133 295.935 393.7 297.367 393.7 299.135C393.7 300.902 395.133 302.335 396.9 302.335Z" fill="#EF4D23"/>
<path d="M351.4 276.035C353.167 276.035 354.6 274.602 354.6 272.835C354.6 271.067 353.167 269.635 351.4 269.635C349.633 269.635 348.2 271.067 348.2 272.835C348.2 274.602 349.633 276.035 351.4 276.035Z" fill="#EF4D23"/>
<path d="M412.1 276.035C413.867 276.035 415.3 274.602 415.3 272.835C415.3 271.067 413.867 269.635 412.1 269.635C410.333 269.635 408.9 271.067 408.9 272.835C408.9 274.602 410.333 276.035 412.1 276.035Z" fill="#EF4D23"/>
<path d="M366.6 302.335C368.367 302.335 369.8 300.902 369.8 299.135C369.8 297.367 368.367 295.935 366.6 295.935C364.833 295.935 363.4 297.367 363.4 299.135C363.4 300.902 364.833 302.335 366.6 302.335Z" fill="#EF4D23"/>
<path d="M396.9 249.835C398.667 249.835 400.1 248.402 400.1 246.635C400.1 244.867 398.667 243.435 396.9 243.435C395.133 243.435 393.7 244.867 393.7 246.635C393.7 248.402 395.133 249.835 396.9 249.835Z" fill="#EF4D23"/>
<path d="M381.7 287.135C389.598 287.135 396 280.733 396 272.835C396 264.937 389.598 258.535 381.7 258.535C373.802 258.535 367.4 264.937 367.4 272.835C367.4 280.733 373.802 287.135 381.7 287.135Z" fill="#EF4D23"/>
<path d="M381.7 280.335C385.842 280.335 389.2 276.977 389.2 272.835C389.2 268.693 385.842 265.335 381.7 265.335C377.558 265.335 374.2 268.693 374.2 272.835C374.2 276.977 377.558 280.335 381.7 280.335Z" fill="black"/>
<path d="M264.8 155.935H186.8V233.935H264.8V155.935Z" fill="white"/>
<path d="M210.6 214.935C214.5 218.835 219.9 220.235 225.2 220.235C225.2 214.935 223.9 209.635 219.9 205.635C216 201.735 210.6 199.935 205.3 200.335C204.9 205.635 206.7 210.935 210.6 214.935Z" fill="#2DBCBB"/>
<path d="M241 214.935C237.1 218.835 231.7 220.235 226.4 220.235C226.4 214.935 227.7 209.635 231.7 205.635C235.6 201.735 241 199.935 246.3 200.335C246.7 205.635 245 210.935 241 214.935Z" fill="#2DBCBB"/>
<path d="M225.8 169.635C224 169.635 222.6 171.035 222.6 172.835C222.6 174.435 223.8 175.735 225.3 176.035V181.335H226.3V176.035C227.8 175.835 229 174.435 229 172.835C229 171.135 227.6 169.635 225.8 169.635Z" fill="black"/>
<path d="M215.3 169.635C213.5 169.635 212.1 171.035 212.1 172.835C212.1 174.435 213.3 175.735 214.8 176.035V181.335H215.8V176.035C217.3 175.835 218.5 174.435 218.5 172.835C218.5 171.135 217.1 169.635 215.3 169.635Z" fill="black"/>
<path d="M236.3 169.635C234.5 169.635 233.1 171.035 233.1 172.835C233.1 174.435 234.3 175.735 235.8 176.035V181.335H236.8V176.035C238.3 175.835 239.5 174.435 239.5 172.835C239.5 171.135 238.1 169.635 236.3 169.635Z" fill="black"/>
<path d="M225.8 199.334C237.2 199.334 246.4 190.134 246.4 178.734H205.3C205.3 190.134 214.5 199.334 225.8 199.334Z" fill="#F187B6"/>
<path d="M342.8 155.935H264.8V233.935H342.8V155.935Z" fill="#FFC433"/>
<path d="M303.8 183.534L310.8 173.234L310.5 185.734L322.2 181.534L314.6 191.434L326.6 194.934L314.6 198.434L322.2 208.334L310.5 204.134L310.8 216.634L303.8 206.334L296.7 216.634L297.1 204.134L285.3 208.334L292.9 198.434L281 194.934L292.9 191.434L285.3 181.534L297.1 185.734L296.7 173.234L303.8 183.534Z" fill="white"/>
<path d="M264.8 78.0342H186.8V156.034H264.8V78.0342Z" fill="#2DBCBB"/>
<path d="M225.8 105.534L232.9 95.2344L232.5 107.734L244.3 103.534L236.7 113.434L248.6 116.934L236.7 120.534L244.3 130.334L232.5 126.234L232.9 138.634L225.8 128.334L218.8 138.634L219.1 126.234L207.4 130.334L215 120.534L203 116.934L215 113.434L207.4 103.534L219.1 107.734L218.8 95.2344L225.8 105.534Z" fill="white"/>
<path d="M108.9 155.935H30.8999V233.935H108.9V155.935Z" fill="white"/>
<path d="M108.9 233.935H69.8999C69.8999 212.435 87.2999 194.935 108.9 194.935V233.935Z" fill="#EF4D23"/>
<path d="M30.8999 233.935V194.935C52.3999 194.935 69.8999 212.335 69.8999 233.935H30.8999Z" fill="#FFC433"/>
<path d="M30.8999 155.935H69.8999C69.8999 177.435 52.4999 194.935 30.8999 194.935V155.935Z" fill="black"/>
<path d="M108.9 155.935V194.935C87.3999 194.935 69.8999 177.535 69.8999 155.935H108.9Z" fill="black"/>
<path d="M108.888 78L108.888 0L30.8879 0L30.8879 78L108.888 78Z" fill="white"/>
<path d="M30.8999 78.0342V39.0342C52.3999 39.0342 69.8999 56.4342 69.8999 78.0342H30.8999Z" fill="black"/>
<path d="M30.8999 0.0341797H69.8999C69.8999 21.5342 52.4999 39.0342 30.8999 39.0342V0.0341797Z" fill="black"/>
<path d="M108.9 0.0341797V39.0342C87.3999 39.0342 69.8999 21.6342 69.8999 0.0341797H108.9Z" fill="black"/>
<path d="M108.9 78.0342H69.8999C69.8999 56.5342 87.2999 39.0342 108.9 39.0342V78.0342Z" fill="black"/>
<path d="M30.8999 39.0342C52.3999 39.0342 69.8999 21.5342 69.8999 0.0341797C48.3999 0.0341797 30.8999 17.5342 30.8999 39.0342Z" fill="#F187B6"/>
<path d="M108.9 39.0342C87.3999 39.0342 69.8999 56.5342 69.8999 78.0342C91.3999 78.0342 108.9 60.5342 108.9 39.0342Z" fill="#EF4D23"/>
<path d="M31 0.0341797H-47V78.0342H31V0.0341797Z" fill="#FFC433"/>
<path d="M-0.29999 25.2342L0.800001 18.8342C1.5 13.3342 -2.79999 8.53418 -8.29999 8.53418C-13.8 8.53418 -18.1 13.4342 -17.4 18.8342L-16.3 24.8342L-8.09999 31.7342L-0.29999 25.2342Z" fill="white"/>
<path d="M-16.2 52.734L-17.4 59.134C-18.1 64.634 -13.8 69.434 -8.29999 69.434C-2.79999 69.434 1.5 64.534 0.800001 59.134L-0.399996 52.334L-8.09999 45.834L-16.2 52.734Z" fill="white"/>
<path d="M7.90015 38.8341L13.9001 36.6341C19.0001 34.5341 21.1001 28.3341 18.3001 23.6341C15.5001 18.8341 9.20014 17.5341 4.80014 20.9341L-0.29985 25.2341L-2.09985 35.3341L7.90015 38.8341Z" fill="white"/>
<path d="M14.0001 41.1346L7.80005 38.9346L-2.19995 42.5346L-0.399948 52.4346L4.90005 56.9346C9.30005 60.3346 15.6001 59.0346 18.4001 54.2346C21.2001 49.3346 19.1001 43.2346 14.0001 41.1346Z" fill="white"/>
<path d="M31 155.935H-47V233.935H31V155.935Z" fill="#F187B6"/>
<path d="M18.911 182.961C29.6894 172.183 35.0712 160.089 30.9317 155.95C26.7922 151.81 14.6989 157.192 3.9205 167.97C-6.85787 178.749 -12.2397 190.842 -8.10021 194.982C-3.96069 199.121 8.13265 193.739 18.911 182.961Z" fill="white"/>
<path d="M30.9488 233.973C35.0883 229.834 29.7065 217.74 18.9281 206.962C8.14975 196.184 -3.94359 190.802 -8.08311 194.941C-12.2226 199.081 -6.84078 211.174 3.93758 221.952C14.7159 232.731 26.8093 238.113 30.9488 233.973Z" fill="white"/>
<path d="M186.9 0.0341797H108.9V78.0342H186.9V0.0341797Z" fill="#2DBCBB"/>
<path d="M147.9 31.1342C160.7 31.1342 171 20.7342 171 8.03418H124.7C124.7 20.7342 135.1 31.1342 147.9 31.1342Z" fill="#EF4D23"/>
<path d="M147.9 25.4344C151.9 25.4344 155.7 26.4344 159 28.2344C160.8 27.2344 162.4 26.0344 163.9 24.6344C159.7 20.6344 154.1 18.2344 147.9 18.2344C141.7 18.2344 136.1 20.6344 131.9 24.6344C133.4 26.0344 135 27.2344 136.8 28.2344C140.1 26.4344 143.8 25.4344 147.9 25.4344Z" fill="white"/>
<path d="M136.8 28.2346C140.1 30.0346 143.9 31.0346 147.9 31.0346C151.9 31.0346 155.7 30.0346 159 28.2346C155.7 26.4346 151.9 25.4346 147.9 25.4346C143.9 25.4346 140.1 26.4346 136.8 28.2346Z" fill="#20928F"/>
<path d="M143.2 36.234C141.8 34.834 140.1 34.134 138.3 33.934L128.2 32.834L129.3 42.934C129.5 44.734 130.3 46.434 131.6 47.834C133 49.234 134.7 49.934 136.5 50.134L146.6 51.234L145.5 41.134C145.4 39.334 144.6 37.634 143.2 36.234Z" fill="white"/>
<path d="M143.2 55.1344C141.8 53.7344 140.1 53.0344 138.3 52.8344L128.2 51.7344L129.3 61.8344C129.5 63.6344 130.3 65.3344 131.6 66.7344C133 68.1344 134.7 68.8344 136.5 69.0344L146.6 70.1344L145.6 60.0344C145.4 58.2344 144.6 56.5344 143.2 55.1344Z" fill="white"/>
<path d="M153.7 36.234C155.1 34.834 156.8 34.134 158.6 33.934L168.7 32.834L167.6 42.934C167.4 44.734 166.6 46.434 165.3 47.834C163.9 49.234 162.2 49.934 160.4 50.134L150.3 51.234L151.4 41.134C151.6 39.334 152.4 37.634 153.7 36.234Z" fill="white"/>
<path d="M153.7 55.1344C155.1 53.7344 156.8 53.0344 158.6 52.8344L168.7 51.7344L167.6 61.8344C167.4 63.6344 166.6 65.3344 165.3 66.7344C163.9 68.1344 162.2 68.8344 160.4 69.0344L150.3 70.0344L151.4 60.0344C151.6 58.2344 152.4 56.5344 153.7 55.1344Z" fill="white"/>
<path d="M420.7 0.0341797H342.7V78.0342H420.7V0.0341797Z" fill="white"/>
<path d="M390.4 14.2342C390.4 9.43418 386.5 5.53418 381.7 5.53418C376.9 5.53418 373 9.43418 373 14.2342V63.8342C373 68.6342 376.9 72.5342 381.7 72.5342C386.5 72.5342 390.4 68.6342 390.4 63.8342V14.2342Z" fill="#2DBCBB"/>
<path d="M364.6 19.0338C360.4 16.6338 355.1 18.0338 352.7 22.2338C350.3 26.4338 351.7 31.7338 355.9 34.1338L398.9 58.9338C403.1 61.3338 408.4 59.9338 410.8 55.7338C413.2 51.5338 411.8 46.2338 407.6 43.8338L364.6 19.0338Z" fill="#2DBCBB"/>
<path d="M364.6 58.9338C360.4 61.3338 355.1 59.9338 352.7 55.7338C350.3 51.5338 351.7 46.2338 355.9 43.8338L398.9 19.0338C403.1 16.6338 408.4 18.0338 410.8 22.2338C413.2 26.4338 411.8 31.7338 407.6 34.1338L364.6 58.9338Z" fill="#2DBCBB"/>
<path d="M366.6 15.9342C368.367 15.9342 369.8 14.5015 369.8 12.7342C369.8 10.9669 368.367 9.53418 366.6 9.53418C364.833 9.53418 363.4 10.9669 363.4 12.7342C363.4 14.5015 364.833 15.9342 366.6 15.9342Z" fill="black"/>
<path d="M396.9 68.4342C398.667 68.4342 400.1 67.0015 400.1 65.2342C400.1 63.4669 398.667 62.0342 396.9 62.0342C395.133 62.0342 393.7 63.4669 393.7 65.2342C393.7 67.0015 395.133 68.4342 396.9 68.4342Z" fill="black"/>
<path d="M351.4 42.234C353.167 42.234 354.6 40.8013 354.6 39.034C354.6 37.2667 353.167 35.834 351.4 35.834C349.633 35.834 348.2 37.2667 348.2 39.034C348.2 40.8013 349.633 42.234 351.4 42.234Z" fill="black"/>
<path d="M412.1 42.234C413.867 42.234 415.3 40.8013 415.3 39.034C415.3 37.2667 413.867 35.834 412.1 35.834C410.333 35.834 408.9 37.2667 408.9 39.034C408.9 40.8013 410.333 42.234 412.1 42.234Z" fill="black"/>
<path d="M366.6 68.4342C368.367 68.4342 369.8 67.0015 369.8 65.2342C369.8 63.4669 368.367 62.0342 366.6 62.0342C364.833 62.0342 363.4 63.4669 363.4 65.2342C363.4 67.0015 364.833 68.4342 366.6 68.4342Z" fill="black"/>
<path d="M396.9 15.9342C398.667 15.9342 400.1 14.5015 400.1 12.7342C400.1 10.9669 398.667 9.53418 396.9 9.53418C395.133 9.53418 393.7 10.9669 393.7 12.7342C393.7 14.5015 395.133 15.9342 396.9 15.9342Z" fill="black"/>
<path d="M381.7 53.3344C389.598 53.3344 396 46.932 396 39.0344C396 31.1367 389.598 24.7344 381.7 24.7344C373.802 24.7344 367.4 31.1367 367.4 39.0344C367.4 46.932 373.802 53.3344 381.7 53.3344Z" fill="white"/>
<path d="M381.7 46.5342C385.842 46.5342 389.2 43.1763 389.2 39.0342C389.2 34.892 385.842 31.5342 381.7 31.5342C377.558 31.5342 374.2 34.892 374.2 39.0342C374.2 43.1763 377.558 46.5342 381.7 46.5342Z" fill="black"/>
<path d="M264.8 0.0341797H186.8V78.0342H264.8V0.0341797Z" fill="#F187B6"/>
<path d="M250.6 44.1342L245.5 39.0342L250.6 33.9342C256 28.5342 256 19.7342 250.6 14.3342C245.2 8.93418 236.4 8.93418 231 14.3342L225.9 19.4342L220.8 14.3342C215.4 8.93418 206.6 8.93418 201.2 14.3342C195.8 19.7342 195.8 28.5342 201.2 33.9342L206.3 39.0342L201.2 44.1342C195.8 49.5342 195.8 58.3342 201.2 63.7342C206.6 69.1342 215.4 69.1342 220.8 63.7342L225.9 58.6342L231 63.7342C236.4 69.1342 245.2 69.1342 250.6 63.7342C256 58.3342 256 49.5342 250.6 44.1342Z" fill="white"/>
<path d="M225.8 52.9338C233.477 52.9338 239.7 46.7105 239.7 39.0338C239.7 31.357 233.477 25.1338 225.8 25.1338C218.123 25.1338 211.9 31.357 211.9 39.0338C211.9 46.7105 218.123 52.9338 225.8 52.9338Z" fill="#F187B6"/>
<path d="M225.8 45.3344C229.279 45.3344 232.1 42.5138 232.1 39.0344C232.1 35.555 229.279 32.7344 225.8 32.7344C222.321 32.7344 219.5 35.555 219.5 39.0344C219.5 42.5138 222.321 45.3344 225.8 45.3344Z" fill="#F8F6E9"/>
<path d="M420.7 78.0342H342.7V156.034H420.7V78.0342Z" fill="#F187B6"/>
<path d="M381.7 155.934L362.2 78.0342L342.7 155.934H381.7Z" fill="black"/>
<path d="M362.2 78.0342L342.7 155.934H362.2V78.0342Z" fill="#2DBCBB"/>
<path d="M420.7 155.934L401.2 78.0342L381.7 155.934H420.7Z" fill="black"/>
<path d="M401.2 78.0342L381.7 155.934H401.2V78.0342Z" fill="#2DBCBB"/>
<path d="M186.9 233.935H108.9V311.935H186.9V233.935Z" fill="white"/>
<path d="M149.2 258.335H146.4V303.835H149.2V258.335Z" fill="#2DBCBB"/>
<path d="M140.1 270.235C138.7 268.835 137 268.135 135.2 267.935L125.1 266.835L126.2 276.935C126.4 278.735 127.2 280.435 128.5 281.835C129.8 283.235 131.6 283.935 133.4 284.135L143.5 285.235L142.4 275.135C142.3 273.335 141.5 271.635 140.1 270.235Z" fill="#2DBCBB"/>
<path d="M155.6 270.235C157 268.835 158.7 268.135 160.5 267.935L170.6 266.835L169.5 276.935C169.3 278.735 168.5 280.435 167.2 281.835C165.8 283.235 164.1 283.935 162.3 284.135L152.2 285.235L153.3 275.135C153.4 273.335 154.2 271.635 155.6 270.235Z" fill="#2DBCBB"/>
<path d="M147.9 264.935C160.7 264.935 171 254.535 171 241.835H124.7C124.7 254.635 135.1 264.935 147.9 264.935Z" fill="#F187B6"/>
<mask id="mask0_113_107" style="mask-type:luminance" maskUnits="userSpaceOnUse" x="124" y="241" width="47" height="24">
<path d="M147.9 264.935C160.7 264.935 171 254.535 171 241.835H124.7C124.7 254.635 135.1 264.935 147.9 264.935Z" fill="white"/>
</mask>
<g mask="url(#mask0_113_107)">
<path d="M159.4 249.735C160.449 249.735 161.3 248.884 161.3 247.835C161.3 246.785 160.449 245.935 159.4 245.935C158.351 245.935 157.5 246.785 157.5 247.835C157.5 248.884 158.351 249.735 159.4 249.735Z" fill="black"/>
<path d="M147.9 249.735C148.949 249.735 149.8 248.884 149.8 247.835C149.8 246.785 148.949 245.935 147.9 245.935C146.851 245.935 146 246.785 146 247.835C146 248.884 146.851 249.735 147.9 249.735Z" fill="black"/>
<path d="M136.3 249.735C137.349 249.735 138.2 248.884 138.2 247.835C138.2 246.785 137.349 245.935 136.3 245.935C135.251 245.935 134.4 246.785 134.4 247.835C134.4 248.884 135.251 249.735 136.3 249.735Z" fill="black"/>
<path d="M124.7 249.735C125.749 249.735 126.6 248.884 126.6 247.835C126.6 246.785 125.749 245.935 124.7 245.935C123.651 245.935 122.8 246.785 122.8 247.835C122.8 248.884 123.651 249.735 124.7 249.735Z" fill="black"/>
<path d="M171 249.735C172.049 249.735 172.9 248.884 172.9 247.835C172.9 246.785 172.049 245.935 171 245.935C169.951 245.935 169.1 246.785 169.1 247.835C169.1 248.884 169.951 249.735 171 249.735Z" fill="black"/>
</g>
<path d="M159.4 241.835C160.2 244.335 162.5 246.035 165.2 246.035C167.9 246.035 170.2 244.235 171 241.835H159.4Z" fill="#EF4D23"/>
<path d="M147.9 241.835C148.7 244.335 151 246.035 153.7 246.035C156.4 246.035 158.7 244.235 159.5 241.835H147.9Z" fill="#EF4D23"/>
<path d="M136.3 241.835C137.1 244.335 139.4 246.035 142.1 246.035C144.8 246.035 147.1 244.235 147.9 241.835H136.3Z" fill="#EF4D23"/>
<path d="M124.7 241.835C125.5 244.335 127.8 246.035 130.5 246.035C133.2 246.035 135.5 244.235 136.3 241.835H124.7Z" fill="#EF4D23"/>
<path d="M186.9 78.0342H108.9V156.034H186.9V78.0342Z" fill="white"/>
<path d="M175.8 119.035C175.8 124.735 174.1 129.935 171.2 134.335C168.9 137.835 165.8 140.735 162.3 142.935C158.2 145.435 153.3 146.935 148.2 146.935C148.1 146.935 148 146.935 147.9 146.935C147.7 146.935 147.5 146.935 147.3 146.935C144.8 146.835 142.3 146.535 140 145.835C137.7 145.135 135.5 144.235 133.5 142.935C132.2 142.135 131 141.335 129.9 140.335C128.3 139.035 126.9 137.535 125.6 135.835C125.2 135.335 124.8 134.735 124.5 134.235C121.6 129.835 119.9 124.535 119.9 118.935C119.9 114.435 120.9 110.235 122.8 106.535C123.1 105.935 123.4 105.335 123.8 104.735C124.5 103.635 125.2 102.635 126 101.635C126.8 100.635 127.6 99.735 128.6 98.835C130.6 100.035 132.4 101.435 134 103.135C135.6 104.735 137.1 106.635 138.2 108.635C140.5 104.735 143.8 101.435 147.7 99.035C151.7 101.435 155.2 104.835 157.5 108.835C159.9 104.835 163.2 101.435 167.2 99.035C172.5 103.935 175.8 111.135 175.8 119.035Z" fill="#EF4D23"/>
<path d="M138.2 94.5346C140.299 94.5346 142 92.8332 142 90.7346C142 88.6359 140.299 86.9346 138.2 86.9346C136.101 86.9346 134.4 88.6359 134.4 90.7346C134.4 92.8332 136.101 94.5346 138.2 94.5346Z" fill="black"/>
<path d="M157.5 94.5346C159.599 94.5346 161.3 92.8332 161.3 90.7346C161.3 88.6359 159.599 86.9346 157.5 86.9346C155.401 86.9346 153.7 88.6359 153.7 90.7346C153.7 92.8332 155.401 94.5346 157.5 94.5346Z" fill="black"/>
<path d="M171.3 134.334C169 137.834 165.9 140.734 162.4 142.934C158.3 145.434 153.4 146.934 148.3 146.934C148.2 146.934 148.1 146.934 148 146.934C147.8 146.934 147.6 146.934 147.4 146.934C144.9 146.834 142.4 146.534 140.1 145.834C137.8 145.134 135.6 144.234 133.6 142.934C132.3 142.134 131.1 141.334 130 140.334C128.4 139.034 127 137.534 125.7 135.834C125.3 135.334 124.9 134.734 124.6 134.234H171.3V134.334Z" fill="#FFC433"/>
<path d="M420.7 155.935H342.7V233.935H420.7V155.935Z" fill="white"/>
<path d="M381.7 155.935C381.7 177.435 364.3 194.935 342.7 194.935C364.2 194.935 381.7 212.335 381.7 233.935C381.7 212.435 399.1 194.935 420.7 194.935C399.2 194.935 381.7 177.435 381.7 155.935Z" fill="#EF4D23"/>
<path d="M31 78.0342H-47V156.034H31V78.0342Z" fill="white"/>
<path d="M-8 155.935C13.5 155.935 31 138.535 31 117.035C9.40001 116.935 -8 134.435 -8 155.935Z" fill="#EF4D23"/>
<path d="M30.9 116.935C30.9 95.4346 13.5 77.9346 -8 77.9346C-8 99.5346 9.4 116.935 30.9 116.935Z" fill="#EF4D23"/>
<path d="M342.8 78.0342H264.8V156.034H342.8V78.0342Z" fill="white"/>
<path d="M303.8 78.0342V156.034C325.3 156.034 342.8 138.534 342.8 117.034C342.8 95.5342 325.3 78.0342 303.8 78.0342Z" fill="white"/>
<path d="M303.8 155.934V78.0342C282.3 78.0342 264.8 95.5342 264.8 117.034C264.8 138.534 282.2 155.934 303.8 155.934Z" fill="#EF4D23"/>
<path d="M303.8 132.334V101.634C295.3 101.634 288.4 108.534 288.4 117.034C288.4 125.534 295.3 132.334 303.8 132.334Z" fill="white"/>
<path d="M303.8 101.634V132.334C312.3 132.334 319.2 125.434 319.2 116.934C319.2 108.434 312.2 101.634 303.8 101.634Z" fill="#EF4D23"/>
<path d="M342.8 0.0341797H264.8V78.0342H342.8V0.0341797Z" fill="white"/>
<path d="M296.1 44.5348C294.7 43.1348 293 42.4348 291.2 42.2348L281.1 41.1348L282.2 51.2348C282.4 53.0348 283.2 54.7348 284.5 56.1348C285.9 57.5348 287.6 58.2348 289.4 58.4348L299.5 59.5348L298.4 49.4348C298.2 47.6348 297.4 45.9348 296.1 44.5348Z" fill="#2DBCBB"/>
<path d="M311.5 44.5348C312.9 43.1348 314.6 42.4348 316.4 42.2348L326.5 41.1348L325.4 51.2348C325.2 53.0348 324.4 54.7348 323.1 56.1348C321.7 57.5348 320 58.2348 318.2 58.4348L308.1 59.5348L309.2 49.4348C309.3 47.6348 310.1 45.9348 311.5 44.5348Z" fill="#2DBCBB"/>
<path d="M305.1 35.4346H302.3V70.0346H305.1V35.4346Z" fill="#2DBCBB"/>
<path d="M335.5 37.8346C335.8 36.7346 336 35.5346 336 34.3346C336 26.7346 329.9 20.6346 322.3 20.6346C321.3 20.6346 320.3 20.7346 319.3 20.9346C318 13.5346 311.5 7.93457 303.8 7.93457C296 7.93457 289.6 13.5346 288.3 20.9346C287.3 20.7346 286.3 20.6346 285.3 20.6346C277.7 20.6346 271.6 26.7346 271.6 34.3346C271.6 35.5346 271.8 36.7346 272.1 37.8346H335.5Z" fill="#EF4D23"/>
<path d="M319.2 37.8342C319.3 37.3342 319.4 36.7342 319.4 36.2342C319.4 32.5342 316.4 29.6342 312.8 29.6342C312.3 29.6342 311.8 29.7342 311.4 29.8342C310.8 26.2342 307.6 23.5342 303.9 23.5342C300.2 23.5342 297 26.2342 296.4 29.8342C295.9 29.7342 295.5 29.6342 295 29.6342C291.3 29.6342 288.4 32.6342 288.4 36.2342C288.4 36.8342 288.5 37.3342 288.6 37.8342H319.2Z" fill="white"/>
<path d="M303.8 31.6344C305.291 31.6344 306.5 30.4255 306.5 28.9344C306.5 27.4432 305.291 26.2344 303.8 26.2344C302.309 26.2344 301.1 27.4432 301.1 28.9344C301.1 30.4255 302.309 31.6344 303.8 31.6344Z" fill="#EF4D23"/>
<path d="M294.8 37.0348C296.291 37.0348 297.5 35.8259 297.5 34.3348C297.5 32.8436 296.291 31.6348 294.8 31.6348C293.309 31.6348 292.1 32.8436 292.1 34.3348C292.1 35.8259 293.309 37.0348 294.8 37.0348Z" fill="#EF4D23"/>
<path d="M312.7 37.0348C314.191 37.0348 315.4 35.8259 315.4 34.3348C315.4 32.8436 314.191 31.6348 312.7 31.6348C311.209 31.6348 310 32.8436 310 34.3348C310 35.8259 311.209 37.0348 312.7 37.0348Z" fill="#EF4D23"/>
<path d="M888.8 233.935H810.8V311.935H888.8V233.935Z" fill="white"/>
<path d="M888.7 311.835H849.7C849.7 290.335 867.1 272.835 888.7 272.835V311.835Z" fill="black"/>
<path d="M810.8 311.835V272.835C832.3 272.835 849.8 290.235 849.8 311.835H810.8Z" fill="#F187B6"/>
<path d="M810.8 233.935H849.8C849.8 255.435 832.4 272.935 810.8 272.935V233.935Z" fill="black"/>
<path d="M888.7 233.935V272.935C867.2 272.935 849.7 255.535 849.7 233.935H888.7Z" fill="#EF4D23"/>
<path d="M654.9 78.0342H576.9V156.034H654.9V78.0342Z" fill="#F187B6"/>
<path d="M615.9 116.935L576.9 155.935H654.9L615.9 116.935L576.9 155.935H654.9L615.9 116.935Z" fill="#EF4D23"/>
<path d="M615.9 116.934L654.9 78.0342H576.9L615.9 116.934L654.9 78.0342H576.9L615.9 116.934Z" fill="white"/>
<path d="M615.9 116.934L654.9 155.934V78.0342L615.9 116.934L654.9 155.934V78.0342L615.9 116.934Z" fill="black"/>
<path d="M810.8 233.935H732.8V311.935H810.8V233.935Z" fill="black"/>
<path d="M771.8 311.835C793.339 311.835 810.8 294.374 810.8 272.835C810.8 251.296 793.339 233.835 771.8 233.835C750.261 233.835 732.8 251.296 732.8 272.835C732.8 294.374 750.261 311.835 771.8 311.835Z" fill="black"/>
<path d="M771.8 311.835C793.3 311.835 810.8 294.435 810.8 272.835H732.8C732.8 294.435 750.3 311.835 771.8 311.835Z" fill="#FFC433"/>
<path d="M793.1 284.635C799.617 284.635 804.9 279.352 804.9 272.835C804.9 266.318 799.617 261.035 793.1 261.035C786.583 261.035 781.3 266.318 781.3 272.835C781.3 279.352 786.583 284.635 793.1 284.635Z" fill="white"/>
<path d="M750.6 284.635C757.117 284.635 762.4 279.352 762.4 272.835C762.4 266.318 757.117 261.035 750.6 261.035C744.083 261.035 738.8 266.318 738.8 272.835C738.8 279.352 744.083 284.635 750.6 284.635Z" fill="white"/>
<path d="M771.8 305.935C778.317 305.935 783.6 300.652 783.6 294.135C783.6 287.618 778.317 282.335 771.8 282.335C765.283 282.335 760 287.618 760 294.135C760 300.652 765.283 305.935 771.8 305.935Z" fill="white"/>
<path d="M771.8 263.435C778.317 263.435 783.6 258.152 783.6 251.635C783.6 245.118 778.317 239.835 771.8 239.835C765.283 239.835 760 245.118 760 251.635C760 258.152 765.283 263.435 771.8 263.435Z" fill="white"/>
<path d="M771.8 286.635C779.422 286.635 785.6 280.457 785.6 272.835C785.6 265.214 779.422 259.035 771.8 259.035C764.178 259.035 758 265.214 758 272.835C758 280.457 764.178 286.635 771.8 286.635Z" fill="black"/>
<path d="M771.8 278.835C775.114 278.835 777.8 276.149 777.8 272.835C777.8 269.521 775.114 266.835 771.8 266.835C768.486 266.835 765.8 269.521 765.8 272.835C765.8 276.149 768.486 278.835 771.8 278.835Z" fill="white"/>
<path d="M750.8 255.535C752.844 255.535 754.5 253.878 754.5 251.835C754.5 249.791 752.844 248.135 750.8 248.135C748.757 248.135 747.1 249.791 747.1 251.835C747.1 253.878 748.757 255.535 750.8 255.535Z" fill="white"/>
<path d="M792.8 297.634C794.844 297.634 796.5 295.978 796.5 293.934C796.5 291.891 794.844 290.234 792.8 290.234C790.757 290.234 789.1 291.891 789.1 293.934C789.1 295.978 790.757 297.634 792.8 297.634Z" fill="black"/>
<path d="M792.8 255.535C794.844 255.535 796.5 253.878 796.5 251.835C796.5 249.791 794.844 248.135 792.8 248.135C790.757 248.135 789.1 249.791 789.1 251.835C789.1 253.878 790.757 255.535 792.8 255.535Z" fill="white"/>
<path d="M750.8 297.634C752.844 297.634 754.5 295.978 754.5 293.934C754.5 291.891 752.844 290.234 750.8 290.234C748.757 290.234 747.1 291.891 747.1 293.934C747.1 295.978 748.757 297.634 750.8 297.634Z" fill="black"/>
<path d="M577 233.935H499V311.935H577V233.935Z" fill="black"/>
<path d="M538.8 269.234H537.1V311.834H538.8V269.234Z" fill="#20928F"/>
<path d="M537.494 288.79V287.39H524.094V288.79H537.494Z" fill="#20928F"/>
<path d="M517.4 276.534C514.7 276.534 512.1 277.534 510.1 279.134L498.9 288.134L510.1 297.134C512.1 298.734 514.6 299.734 517.4 299.734C520.1 299.734 522.7 298.734 524.7 297.134L535.9 288.134L524.7 279.134C522.7 277.534 520.2 276.534 517.4 276.534Z" fill="#2DBCBB"/>
<path d="M499 288.135L510.2 297.135C512.2 298.735 514.7 299.735 517.5 299.735C520.2 299.735 522.8 298.735 524.8 297.135L536 288.135H499Z" fill="#20928F"/>
<path d="M551.773 288.811L551.773 287.411L538.373 287.411L538.373 288.811L551.773 288.811Z" fill="#20928F"/>
<path d="M558.5 276.534C561.2 276.534 563.8 277.534 565.8 279.134L577 288.134L565.8 297.134C563.8 298.734 561.3 299.734 558.5 299.734C555.8 299.734 553.2 298.734 551.2 297.134L540 288.134L551.2 279.134C553.2 277.534 555.7 276.534 558.5 276.534Z" fill="#2DBCBB"/>
<path d="M576.9 288.135L565.7 297.135C563.7 298.735 561.2 299.735 558.4 299.735C555.7 299.735 553.1 298.735 551.1 297.135L539.9 288.135H576.9Z" fill="#20928F"/>
<path d="M523.6 258.435C523.6 254.735 524.8 251.435 526.8 248.835L537.9 233.935L549 248.835C551 251.435 552.2 254.835 552.2 258.435C552.2 262.135 551 265.435 549 268.035L538 283.035L526.9 268.135C524.8 265.435 523.6 262.135 523.6 258.435Z" fill="#2DBCBB"/>
<path d="M538 233.935L549.1 248.835C551.1 251.435 552.3 254.835 552.3 258.435C552.3 262.135 551.1 265.435 549.1 268.035L538 283.035V233.935Z" fill="#20928F"/>
<path d="M654.9 233.935H576.9V311.935H654.9V233.935Z" fill="white"/>
<path d="M640.7 278.035L635.6 272.935L640.7 267.835C646.1 262.435 646.1 253.635 640.7 248.235C635.3 242.835 626.5 242.835 621.1 248.235L616 253.335L610.9 248.235C605.5 242.835 596.7 242.835 591.3 248.235C585.9 253.635 585.9 262.435 591.3 267.835L596.4 272.935L591.3 278.035C585.9 283.435 585.9 292.235 591.3 297.635C596.7 303.035 605.5 303.035 610.9 297.635L616 292.535L621.1 297.635C626.5 303.035 635.3 303.035 640.7 297.635C646.1 292.235 646.1 283.435 640.7 278.035Z" fill="#EF4D23"/>
<path d="M615.9 285.434C622.859 285.434 628.5 279.793 628.5 272.834C628.5 265.876 622.859 260.234 615.9 260.234C608.941 260.234 603.3 265.876 603.3 272.834C603.3 279.793 608.941 285.434 615.9 285.434Z" fill="white"/>
<path d="M499 78.0342H421V156.034H499V78.0342Z" fill="black"/>
<path d="M484.8 122.134L479.7 117.034L484.8 111.934C490.2 106.534 490.2 97.7342 484.8 92.3342C479.4 86.9342 470.6 86.9342 465.2 92.3342L460.1 97.4342L455 92.3342C449.6 86.9342 440.8 86.9342 435.4 92.3342C430 97.7342 430 106.534 435.4 111.934L440.5 117.034L435.4 122.134C430 127.534 430 136.334 435.4 141.734C440.8 147.134 449.6 147.134 455 141.734L460.1 136.634L465.2 141.734C470.6 147.134 479.4 147.134 484.8 141.734C490.2 136.334 490.2 127.534 484.8 122.134Z" fill="white"/>
<path d="M732.9 155.935H654.9V233.935H732.9V155.935Z" fill="white"/>
<path d="M663 186.735C660.1 183.835 658.4 180.235 657.9 176.535L654.9 155.835L675.6 158.835C679.3 159.335 682.9 161.035 685.8 163.935C688.7 166.835 690.4 170.435 690.9 174.135L693.9 194.835L673.2 191.835C669.5 191.435 665.9 189.635 663 186.735Z" fill="#2DBCBB"/>
<path d="M654.9 155.935L675.6 158.935C679.3 159.435 682.9 161.135 685.8 164.035C688.7 166.935 690.4 170.535 690.9 174.235L693.9 194.935L654.9 155.935Z" fill="#20928F"/>
<path d="M724.7 186.735C721.8 189.635 718.2 191.335 714.5 191.835L693.8 194.835L696.8 174.135C697.3 170.435 699 166.835 701.9 163.935C704.8 161.035 708.4 159.335 712.1 158.835L732.8 155.835L729.8 176.535C729.3 180.235 727.6 183.835 724.7 186.735Z" fill="#2DBCBB"/>
<path d="M693.9 194.935L696.9 174.235C697.4 170.535 699.1 166.935 702 164.035C704.9 161.135 708.5 159.435 712.2 158.935L732.9 155.935L693.9 194.935Z" fill="#20928F"/>
<path d="M663 203.035C665.9 200.135 669.5 198.435 673.2 197.935L693.9 194.935L690.9 215.635C690.4 219.335 688.7 222.935 685.8 225.835C682.9 228.735 679.3 230.435 675.6 230.935L654.9 233.935L657.9 213.235C658.4 209.535 660.1 205.935 663 203.035Z" fill="#2DBCBB"/>
<path d="M693.9 194.935L690.9 215.635C690.4 219.335 688.7 222.935 685.8 225.835C682.9 228.735 679.3 230.435 675.6 230.935L654.9 233.935L693.9 194.935Z" fill="#20928F"/>
<path d="M724.7 203.035C727.6 205.935 729.3 209.535 729.8 213.235L732.8 233.935L712.1 230.935C708.4 230.435 704.8 228.735 701.9 225.835C699 222.935 697.3 219.335 696.8 215.635L693.8 194.935L714.5 197.935C718.2 198.435 721.8 200.135 724.7 203.035Z" fill="#2DBCBB"/>
<path d="M732.8 233.935L712.1 230.935C708.4 230.435 704.8 228.735 701.9 225.835C699 222.935 697.3 219.335 696.8 215.635L693.8 194.935L732.8 233.935Z" fill="#20928F"/>
<path d="M966.7 233.935H888.7V311.935H966.7V233.935Z" fill="#F187B6"/>
<path d="M927.7 311.835C949.239 311.835 966.7 294.374 966.7 272.835C966.7 251.296 949.239 233.835 927.7 233.835C906.161 233.835 888.7 251.296 888.7 272.835C888.7 294.374 906.161 311.835 927.7 311.835Z" fill="black"/>
<path d="M936.4 248.035C936.4 243.235 932.5 239.335 927.7 239.335C922.9 239.335 919 243.235 919 248.035V297.635C919 302.435 922.9 306.335 927.7 306.335C932.5 306.335 936.4 302.435 936.4 297.635V248.035Z" fill="white"/>
<path d="M910.6 252.935C906.4 250.535 901.1 251.935 898.7 256.135C896.3 260.335 897.7 265.635 901.9 268.035L944.9 292.835C949.1 295.235 954.4 293.835 956.8 289.635C959.2 285.435 957.8 280.135 953.6 277.735L910.6 252.935Z" fill="white"/>
<path d="M910.6 292.835C906.4 295.235 901.1 293.835 898.7 289.635C896.3 285.435 897.7 280.135 901.9 277.735L944.9 252.935C949.1 250.535 954.4 251.935 956.8 256.135C959.2 260.335 957.8 265.635 953.6 268.035L910.6 292.835Z" fill="white"/>
<path d="M912.6 249.835C914.367 249.835 915.8 248.402 915.8 246.635C915.8 244.867 914.367 243.435 912.6 243.435C910.833 243.435 909.4 244.867 909.4 246.635C909.4 248.402 910.833 249.835 912.6 249.835Z" fill="#EF4D23"/>
<path d="M942.9 302.335C944.667 302.335 946.1 300.902 946.1 299.135C946.1 297.367 944.667 295.935 942.9 295.935C941.133 295.935 939.7 297.367 939.7 299.135C939.7 300.902 941.133 302.335 942.9 302.335Z" fill="#EF4D23"/>
<path d="M897.4 276.035C899.167 276.035 900.6 274.602 900.6 272.835C900.6 271.067 899.167 269.635 897.4 269.635C895.633 269.635 894.2 271.067 894.2 272.835C894.2 274.602 895.633 276.035 897.4 276.035Z" fill="#EF4D23"/>
<path d="M958.1 276.035C959.867 276.035 961.3 274.602 961.3 272.835C961.3 271.067 959.867 269.635 958.1 269.635C956.333 269.635 954.9 271.067 954.9 272.835C954.9 274.602 956.333 276.035 958.1 276.035Z" fill="#EF4D23"/>
<path d="M912.6 302.335C914.367 302.335 915.8 300.902 915.8 299.135C915.8 297.367 914.367 295.935 912.6 295.935C910.833 295.935 909.4 297.367 909.4 299.135C909.4 300.902 910.833 302.335 912.6 302.335Z" fill="#EF4D23"/>
<path d="M942.9 249.835C944.667 249.835 946.1 248.402 946.1 246.635C946.1 244.867 944.667 243.435 942.9 243.435C941.133 243.435 939.7 244.867 939.7 246.635C939.7 248.402 941.133 249.835 942.9 249.835Z" fill="#EF4D23"/>
<path d="M927.7 287.135C935.598 287.135 942 280.733 942 272.835C942 264.937 935.598 258.535 927.7 258.535C919.802 258.535 913.4 264.937 913.4 272.835C913.4 280.733 919.802 287.135 927.7 287.135Z" fill="#EF4D23"/>
<path d="M927.7 280.335C931.842 280.335 935.2 276.977 935.2 272.835C935.2 268.693 931.842 265.335 927.7 265.335C923.558 265.335 920.2 268.693 920.2 272.835C920.2 276.977 923.558 280.335 927.7 280.335Z" fill="black"/>
<path d="M810.8 155.935H732.8V233.935H810.8V155.935Z" fill="white"/>
<path d="M756.6 214.935C760.5 218.835 765.9 220.235 771.2 220.235C771.2 214.935 769.9 209.635 765.9 205.635C762 201.735 756.6 199.935 751.3 200.335C750.9 205.635 752.7 210.935 756.6 214.935Z" fill="#2DBCBB"/>
<path d="M787 214.935C783.1 218.835 777.7 220.235 772.4 220.235C772.4 214.935 773.7 209.635 777.7 205.635C781.6 201.735 787 199.935 792.3 200.335C792.7 205.635 791 210.935 787 214.935Z" fill="#2DBCBB"/>
<path d="M771.8 169.635C770 169.635 768.6 171.035 768.6 172.835C768.6 174.435 769.8 175.735 771.3 176.035V181.335H772.3V176.035C773.8 175.835 775 174.435 775 172.835C775 171.135 773.6 169.635 771.8 169.635Z" fill="black"/>
<path d="M761.3 169.635C759.5 169.635 758.1 171.035 758.1 172.835C758.1 174.435 759.3 175.735 760.8 176.035V181.335H761.8V176.035C763.3 175.835 764.5 174.435 764.5 172.835C764.5 171.135 763.1 169.635 761.3 169.635Z" fill="black"/>
<path d="M782.3 169.635C780.5 169.635 779.1 171.035 779.1 172.835C779.1 174.435 780.3 175.735 781.8 176.035V181.335H782.8V176.035C784.3 175.835 785.5 174.435 785.5 172.835C785.5 171.135 784.1 169.635 782.3 169.635Z" fill="black"/>
<path d="M771.8 199.334C783.2 199.334 792.4 190.134 792.4 178.734H751.3C751.3 190.134 760.5 199.334 771.8 199.334Z" fill="#F187B6"/>
<path d="M499 155.935H421V233.935H499V155.935Z" fill="black"/>
<path d="M460 233.935C481.539 233.935 499 216.474 499 194.935C499 173.395 481.539 155.935 460 155.935C438.461 155.935 421 173.395 421 194.935C421 216.474 438.461 233.935 460 233.935Z" fill="black"/>
<path d="M460 233.935C481.5 233.935 499 216.435 499 194.935H421C421 216.435 438.5 233.935 460 233.935Z" fill="#EF4D23"/>
<path d="M481.2 206.735C487.717 206.735 493 201.452 493 194.935C493 188.418 487.717 183.135 481.2 183.135C474.683 183.135 469.4 188.418 469.4 194.935C469.4 201.452 474.683 206.735 481.2 206.735Z" fill="white"/>
<path d="M438.8 206.735C445.317 206.735 450.6 201.452 450.6 194.935C450.6 188.418 445.317 183.135 438.8 183.135C432.283 183.135 427 188.418 427 194.935C427 201.452 432.283 206.735 438.8 206.735Z" fill="white"/>
<path d="M460 227.935C466.517 227.935 471.8 222.652 471.8 216.135C471.8 209.618 466.517 204.335 460 204.335C453.483 204.335 448.2 209.618 448.2 216.135C448.2 222.652 453.483 227.935 460 227.935Z" fill="white"/>
<path d="M460 185.435C466.517 185.435 471.8 180.152 471.8 173.635C471.8 167.118 466.517 161.835 460 161.835C453.483 161.835 448.2 167.118 448.2 173.635C448.2 180.152 453.483 185.435 460 185.435Z" fill="white"/>
<path d="M460 208.735C467.621 208.735 473.8 202.556 473.8 194.935C473.8 187.313 467.621 181.135 460 181.135C452.378 181.135 446.2 187.313 446.2 194.935C446.2 202.556 452.378 208.735 460 208.735Z" fill="#F187B6"/>
<path d="M460 200.935C463.314 200.935 466 198.248 466 194.935C466 191.621 463.314 188.935 460 188.935C456.686 188.935 454 191.621 454 194.935C454 198.248 456.686 200.935 460 200.935Z" fill="white"/>
<path d="M439 177.634C441.044 177.634 442.7 175.978 442.7 173.934C442.7 171.891 441.044 170.234 439 170.234C436.957 170.234 435.3 171.891 435.3 173.934C435.3 175.978 436.957 177.634 439 177.634Z" fill="#F187B6"/>
<path d="M481 219.634C483.043 219.634 484.7 217.978 484.7 215.934C484.7 213.891 483.043 212.234 481 212.234C478.957 212.234 477.3 213.891 477.3 215.934C477.3 217.978 478.957 219.634 481 219.634Z" fill="black"/>
<path d="M481 177.634C483.043 177.634 484.7 175.978 484.7 173.934C484.7 171.891 483.043 170.234 481 170.234C478.957 170.234 477.3 171.891 477.3 173.934C477.3 175.978 478.957 177.634 481 177.634Z" fill="#F187B6"/>
<path d="M439 219.634C441.044 219.634 442.7 217.978 442.7 215.934C442.7 213.891 441.044 212.234 439 212.234C436.957 212.234 435.3 213.891 435.3 215.934C435.3 217.978 436.957 219.634 439 219.634Z" fill="black"/>
<path d="M888.8 155.935H810.8V233.935H888.8V155.935Z" fill="#FFC433"/>
<path d="M849.8 183.534L856.8 173.234L856.5 185.734L868.2 181.534L860.6 191.434L872.6 194.934L860.6 198.434L868.2 208.334L856.5 204.134L856.8 216.634L849.8 206.334L842.7 216.634L843.1 204.134L831.3 208.334L838.9 198.434L827 194.934L838.9 191.434L831.3 181.534L843.1 185.734L842.7 173.234L849.8 183.534Z" fill="white"/>
<path d="M810.8 78.0342H732.8V156.034H810.8V78.0342Z" fill="#2DBCBB"/>
<path d="M771.8 105.534L778.9 95.2344L778.5 107.734L790.3 103.534L782.7 113.434L794.6 116.934L782.7 120.534L790.3 130.334L778.5 126.234L778.9 138.634L771.8 128.334L764.8 138.634L765.1 126.234L753.4 130.334L761 120.534L749 116.934L761 113.434L753.4 103.534L765.1 107.734L764.8 95.2344L771.8 105.534Z" fill="white"/>
<path d="M499 233.935H421V311.935H499V233.935Z" fill="white"/>
<path d="M481.051 258.419L460.05 237.418L439.049 258.419L460.05 279.42L481.051 258.419Z" fill="black"/>
<path d="M460 282.235C448.4 282.235 439 272.735 439 261.035C439 256.635 439 240.635 439 240.635C449.2 242.535 457.3 250.235 460 260.335V282.235Z" fill="#F187B6"/>
<path d="M460 282.235C471.6 282.235 481 272.735 481 261.035C481 256.635 481 240.635 481 240.635C470.8 242.535 462.7 250.235 460 260.335V282.235Z" fill="#EF4D23"/>
<path d="M431.1 301.835C438.6 309.335 448.7 311.835 458.7 311.835C458.7 301.735 456.2 291.635 448.7 284.235C441.2 276.735 431.1 273.435 421.1 274.235C420.4 284.235 423.7 294.335 431.1 301.835Z" fill="#2DBCBB"/>
<path d="M488.9 301.835C481.4 309.335 471.3 311.835 461.3 311.835C461.3 301.735 463.8 291.635 471.3 284.235C478.8 276.735 488.9 273.435 498.9 274.235C499.6 284.235 496.3 294.335 488.9 301.835Z" fill="#2DBCBB"/>
<path d="M654.9 155.935H576.9V233.935H654.9V155.935Z" fill="white"/>
<path d="M654.9 233.935H615.9C615.9 212.435 633.3 194.935 654.9 194.935V233.935Z" fill="#EF4D23"/>
<path d="M576.9 233.935V194.935C598.4 194.935 615.9 212.335 615.9 233.935H576.9Z" fill="#FFC433"/>
<path d="M576.9 155.935H615.9C615.9 177.435 598.5 194.935 576.9 194.935V155.935Z" fill="black"/>
<path d="M654.9 155.935V194.935C633.4 194.935 615.9 177.535 615.9 155.935H654.9Z" fill="black"/>
<path d="M654.888 78V0L576.888 0V78L654.888 78Z" fill="white"/>
<path d="M576.9 78.0342V39.0342C598.4 39.0342 615.9 56.4342 615.9 78.0342H576.9Z" fill="black"/>
<path d="M576.9 0.0341797H615.9C615.9 21.5342 598.5 39.0342 576.9 39.0342V0.0341797Z" fill="black"/>
<path d="M654.9 0.0341797V39.0342C633.4 39.0342 615.9 21.6342 615.9 0.0341797H654.9Z" fill="black"/>
<path d="M654.9 78.0342H615.9C615.9 56.5342 633.3 39.0342 654.9 39.0342V78.0342Z" fill="black"/>
<path d="M576.9 39.0342C598.4 39.0342 615.9 21.5342 615.9 0.0341797C594.4 0.0341797 576.9 17.5342 576.9 39.0342Z" fill="#F187B6"/>
<path d="M654.9 39.0342C633.4 39.0342 615.9 56.5342 615.9 78.0342C637.4 78.0342 654.9 60.5342 654.9 39.0342Z" fill="#EF4D23"/>
<path d="M577 0.0341797H499V78.0342H577V0.0341797Z" fill="#FFC433"/>
<path d="M545.7 25.2342L546.8 18.8342C547.5 13.3342 543.2 8.53418 537.7 8.53418C532.2 8.53418 527.9 13.4342 528.6 18.8342L529.7 24.8342L537.9 31.7342L545.7 25.2342Z" fill="white"/>
<path d="M522 38.834L515.8 41.034C510.7 43.134 508.6 49.334 511.4 54.034C514.2 58.834 520.5 60.134 524.9 56.734L529.8 52.634L531.7 42.234L522 38.834Z" fill="white"/>
<path d="M529.8 52.734L528.6 59.134C527.9 64.634 532.2 69.434 537.7 69.434C543.2 69.434 547.5 64.534 546.8 59.134L545.6 52.334L537.9 45.834L529.8 52.734Z" fill="white"/>
<path d="M553.9 38.8341L559.9 36.6341C565 34.5341 567.1 28.3341 564.3 23.6341C561.5 18.8341 555.2 17.5341 550.8 20.9341L545.7 25.2341L543.9 35.3341L553.9 38.8341Z" fill="white"/>
<path d="M529.8 24.9337L525.1 21.0337C520.7 17.6337 514.4 18.9337 511.6 23.7337C508.8 28.5337 510.9 34.6337 516 36.7337L522 38.9337L531.6 35.4337L529.8 24.9337Z" fill="white"/>
<path d="M560 41.1346L553.8 38.9346L543.8 42.5346L545.6 52.4346L550.9 56.9346C555.3 60.3346 561.6 59.0346 564.4 54.2346C567.2 49.3346 565.1 43.2346 560 41.1346Z" fill="white"/>
<path d="M543.9 35.334L540.7 34.134L537.9 31.834L535.1 34.134L531.6 35.434L532.3 39.034L531.7 42.334L535.3 43.634L538 45.934L540.6 43.634L543.9 42.434L543.2 39.034L543.9 35.334Z" fill="white"/>
<path d="M577 155.935H499V233.935H577V155.935Z" fill="#F187B6"/>
<path d="M538.01 194.927C542.149 190.788 536.768 178.694 525.989 167.916C515.211 157.138 503.117 151.756 498.978 155.895C494.838 160.035 500.22 172.128 510.999 182.907C521.777 193.685 533.87 199.067 538.01 194.927Z" fill="white"/>
<path d="M564.911 182.961C575.689 172.183 581.071 160.089 576.932 155.95C572.792 151.81 560.699 157.192 549.92 167.97C539.142 178.749 533.76 190.842 537.9 194.982C542.039 199.121 554.133 193.739 564.911 182.961Z" fill="white"/>
<path d="M526.006 221.899C536.785 211.121 542.166 199.028 538.027 194.888C533.887 190.749 521.794 196.13 511.016 206.909C500.237 217.687 494.855 229.781 498.995 233.92C503.135 238.06 515.228 232.678 526.006 221.899Z" fill="white"/>
<path d="M576.949 233.973C581.088 229.834 575.706 217.74 564.928 206.962C554.15 196.184 542.056 190.802 537.917 194.941C533.777 199.081 539.159 211.174 549.938 221.952C560.716 232.731 572.809 238.113 576.949 233.973Z" fill="white"/>
<path d="M732.9 0.0341797H654.9V78.0342H732.9V0.0341797Z" fill="#2DBCBB"/>
<path d="M693.9 31.1342C706.7 31.1342 717 20.7342 717 8.03418H670.7C670.7 20.7342 681.1 31.1342 693.9 31.1342Z" fill="#EF4D23"/>
<path d="M693.9 25.4344C697.9 25.4344 701.7 26.4344 705 28.2344C706.8 27.2344 708.4 26.0344 709.9 24.6344C705.7 20.6344 700.1 18.2344 693.9 18.2344C687.7 18.2344 682.1 20.6344 677.9 24.6344C679.4 26.0344 681 27.2344 682.8 28.2344C686.1 26.4344 689.8 25.4344 693.9 25.4344Z" fill="white"/>
<path d="M682.8 28.2346C686.1 30.0346 689.9 31.0346 693.9 31.0346C697.9 31.0346 701.7 30.0346 705 28.2346C701.7 26.4346 697.9 25.4346 693.9 25.4346C689.9 25.4346 686.1 26.4346 682.8 28.2346Z" fill="#20928F"/>
<path d="M689.2 36.234C687.8 34.834 686.1 34.134 684.3 33.934L674.2 32.834L675.3 42.934C675.5 44.734 676.3 46.434 677.6 47.834C679 49.234 680.7 49.934 682.5 50.134L692.6 51.234L691.5 41.134C691.4 39.334 690.6 37.634 689.2 36.234Z" fill="white"/>
<path d="M689.2 55.1344C687.8 53.7344 686.1 53.0344 684.3 52.8344L674.2 51.7344L675.3 61.8344C675.5 63.6344 676.3 65.3344 677.6 66.7344C679 68.1344 680.7 68.8344 682.5 69.0344L692.6 70.1344L691.6 60.0344C691.4 58.2344 690.6 56.5344 689.2 55.1344Z" fill="white"/>
<path d="M699.7 36.234C701.1 34.834 702.8 34.134 704.6 33.934L714.7 32.834L713.6 42.934C713.4 44.734 712.6 46.434 711.3 47.834C709.9 49.234 708.2 49.934 706.4 50.134L696.3 51.234L697.4 41.134C697.6 39.334 698.4 37.634 699.7 36.234Z" fill="white"/>
<path d="M699.7 55.1344C701.1 53.7344 702.8 53.0344 704.6 52.8344L714.7 51.7344L713.6 61.8344C713.4 63.6344 712.6 65.3344 711.3 66.7344C709.9 68.1344 708.2 68.8344 706.4 69.0344L696.3 70.0344L697.4 60.0344C697.6 58.2344 698.4 56.5344 699.7 55.1344Z" fill="white"/>
<path d="M966.7 0.0341797H888.7V78.0342H966.7V0.0341797Z" fill="white"/>
<path d="M936.4 14.2342C936.4 9.43418 932.5 5.53418 927.7 5.53418C922.9 5.53418 919 9.43418 919 14.2342V63.8342C919 68.6342 922.9 72.5342 927.7 72.5342C932.5 72.5342 936.4 68.6342 936.4 63.8342V14.2342Z" fill="#2DBCBB"/>
<path d="M910.6 19.0338C906.4 16.6338 901.1 18.0338 898.7 22.2338C896.3 26.4338 897.7 31.7338 901.9 34.1338L944.9 58.9338C949.1 61.3338 954.4 59.9338 956.8 55.7338C959.2 51.5338 957.8 46.2338 953.6 43.8338L910.6 19.0338Z" fill="#2DBCBB"/>
<path d="M910.6 58.9338C906.4 61.3338 901.1 59.9338 898.7 55.7338C896.3 51.5338 897.7 46.2338 901.9 43.8338L944.9 19.0338C949.1 16.6338 954.4 18.0338 956.8 22.2338C959.2 26.4338 957.8 31.7338 953.6 34.1338L910.6 58.9338Z" fill="#2DBCBB"/>
<path d="M912.6 15.9342C914.367 15.9342 915.8 14.5015 915.8 12.7342C915.8 10.9669 914.367 9.53418 912.6 9.53418C910.833 9.53418 909.4 10.9669 909.4 12.7342C909.4 14.5015 910.833 15.9342 912.6 15.9342Z" fill="black"/>
<path d="M942.9 68.4342C944.667 68.4342 946.1 67.0015 946.1 65.2342C946.1 63.4669 944.667 62.0342 942.9 62.0342C941.133 62.0342 939.7 63.4669 939.7 65.2342C939.7 67.0015 941.133 68.4342 942.9 68.4342Z" fill="black"/>
<path d="M897.4 42.234C899.167 42.234 900.6 40.8013 900.6 39.034C900.6 37.2667 899.167 35.834 897.4 35.834C895.633 35.834 894.2 37.2667 894.2 39.034C894.2 40.8013 895.633 42.234 897.4 42.234Z" fill="black"/>
<path d="M958.1 42.234C959.867 42.234 961.3 40.8013 961.3 39.034C961.3 37.2667 959.867 35.834 958.1 35.834C956.333 35.834 954.9 37.2667 954.9 39.034C954.9 40.8013 956.333 42.234 958.1 42.234Z" fill="black"/>
<path d="M912.6 68.4342C914.367 68.4342 915.8 67.0015 915.8 65.2342C915.8 63.4669 914.367 62.0342 912.6 62.0342C910.833 62.0342 909.4 63.4669 909.4 65.2342C909.4 67.0015 910.833 68.4342 912.6 68.4342Z" fill="black"/>
<path d="M942.9 15.9342C944.667 15.9342 946.1 14.5015 946.1 12.7342C946.1 10.9669 944.667 9.53418 942.9 9.53418C941.133 9.53418 939.7 10.9669 939.7 12.7342C939.7 14.5015 941.133 15.9342 942.9 15.9342Z" fill="black"/>
<path d="M927.7 53.3344C935.598 53.3344 942 46.932 942 39.0344C942 31.1367 935.598 24.7344 927.7 24.7344C919.802 24.7344 913.4 31.1367 913.4 39.0344C913.4 46.932 919.802 53.3344 927.7 53.3344Z" fill="white"/>
<path d="M927.7 46.5342C931.842 46.5342 935.2 43.1763 935.2 39.0342C935.2 34.892 931.842 31.5342 927.7 31.5342C923.558 31.5342 920.2 34.892 920.2 39.0342C920.2 43.1763 923.558 46.5342 927.7 46.5342Z" fill="black"/>
<path d="M499 0.0341797H421V78.0342H499V0.0341797Z" fill="white"/>
<path d="M441 39.0342H460V19.5342C460 30.1342 451.5 38.7342 441 39.0342Z" fill="#2DBCBB"/>
<path d="M440 0.0341797H421V19.5342C421 8.93418 429.5 0.33418 440 0.0341797Z" fill="#2DBCBB"/>
<path d="M421 19.5342V39.0342H440C429.5 38.7342 421 30.1342 421 19.5342Z" fill="#2DBCBB"/>
<path d="M441 0.0341797C451.5 0.33418 460 8.93418 460 19.5342V0.0341797H441Z" fill="#2DBCBB"/>
<path d="M454.3 5.73418L444.3 10.5342L440.5 0.0341797L436.8 10.5342L426.8 5.73418L431.6 15.7342L421.1 19.4342L431.6 23.1342L426.8 33.1342L436.8 28.3342L440.5 38.8342L444.2 28.3342L454.2 33.1342L449.4 23.1342L459.9 19.4342L449.4 15.7342L454.3 5.73418ZM449.9 19.5342C449.9 24.7342 445.7 28.9342 440.5 28.9342C435.3 28.9342 431.1 24.7342 431.1 19.5342C431.1 14.3342 435.3 10.1342 440.5 10.1342C445.7 10.1342 449.9 14.3342 449.9 19.5342Z" fill="#2DBCBB"/>
<path d="M480 39.0342H499V19.5342C499 30.1342 490.5 38.7342 480 39.0342Z" fill="#2DBCBB"/>
<path d="M479 0.0341797H460V19.5342C460 8.93418 468.5 0.33418 479 0.0341797Z" fill="#2DBCBB"/>
<path d="M460 19.5342V39.0342H479C468.5 38.7342 460 30.1342 460 19.5342Z" fill="#2DBCBB"/>
<path d="M480 0.0341797C490.5 0.33418 499 8.93418 499 19.5342V0.0341797H480Z" fill="#2DBCBB"/>
<path d="M493.2 5.73418L483.2 10.5342L479.5 0.0341797L475.8 10.5342L465.8 5.73418L470.6 15.7342L460.1 19.4342L470.6 23.1342L465.8 33.1342L475.8 28.3342L479.5 38.8342L483.2 28.3342L493.2 33.1342L488.4 23.1342L498.9 19.4342L488.4 15.7342L493.2 5.73418ZM488.9 19.5342C488.9 24.7342 484.7 28.9342 479.5 28.9342C474.3 28.9342 470.1 24.7342 470.1 19.5342C470.1 14.3342 474.3 10.1342 479.5 10.1342C484.7 10.1342 488.9 14.3342 488.9 19.5342Z" fill="#2DBCBB"/>
<path d="M441 77.9342H460V58.5342C460 69.1342 451.5 77.7342 441 77.9342Z" fill="#2DBCBB"/>
<path d="M440 39.0342H421V58.5342C421 47.9342 429.5 39.3342 440 39.0342Z" fill="#2DBCBB"/>
<path d="M421 58.5342V78.0342H440C429.5 77.7342 421 69.1342 421 58.5342Z" fill="#2DBCBB"/>
<path d="M441 39.0342C451.5 39.3342 460 47.9342 460 58.5342V39.0342H441Z" fill="#2DBCBB"/>
<path d="M440.5 78.0337C440.7 78.0337 440.8 78.0337 441 78.0337H440C440.2 77.9337 440.4 78.0337 440.5 78.0337Z" fill="#2DBCBB"/>
<path d="M454.3 44.7342L444.3 49.5342L440.5 39.0342L436.8 49.5342L426.8 44.7342L431.6 54.7342L421.1 58.4342L431.6 62.1342L426.8 72.1342L436.8 67.3342L440.5 77.8342L444.2 67.3342L454.2 72.1342L449.4 62.1342L459.9 58.4342L449.4 54.7342L454.3 44.7342ZM449.9 58.5342C449.9 63.7342 445.7 67.9342 440.5 67.9342C435.3 67.9342 431.1 63.7342 431.1 58.5342C431.1 53.3342 435.3 49.1342 440.5 49.1342C445.7 49.1342 449.9 53.3342 449.9 58.5342Z" fill="#2DBCBB"/>
<path d="M480 77.9342H499V58.5342C499 69.1342 490.5 77.7342 480 77.9342Z" fill="#2DBCBB"/>
<path d="M479 39.0342H460V58.5342C460 47.9342 468.5 39.3342 479 39.0342Z" fill="#2DBCBB"/>
<path d="M460 58.5342V78.0342H479C468.5 77.7342 460 69.1342 460 58.5342Z" fill="#2DBCBB"/>
<path d="M480 39.0342C490.5 39.3342 499 47.9342 499 58.5342V39.0342H480Z" fill="#2DBCBB"/>
<path d="M479.5 78.0337C479.7 78.0337 479.8 78.0337 480 78.0337H479C479.2 77.9337 479.3 78.0337 479.5 78.0337Z" fill="#2DBCBB"/>
<path d="M493.2 44.7342L483.2 49.5342L479.5 39.0342L475.8 49.5342L465.8 44.7342L470.6 54.7342L460.1 58.4342L470.6 62.1342L465.8 72.1342L475.8 67.3342L479.5 77.8342L483.2 67.3342L493.2 72.1342L488.4 62.1342L498.9 58.4342L488.4 54.7342L493.2 44.7342ZM488.9 58.5342C488.9 63.7342 484.7 67.9342 479.5 67.9342C474.3 67.9342 470.1 63.7342 470.1 58.5342C470.1 53.3342 474.3 49.1342 479.5 49.1342C484.7 49.1342 488.9 53.3342 488.9 58.5342Z" fill="#2DBCBB"/>
<path d="M810.8 0.0341797H732.8V78.0342H810.8V0.0341797Z" fill="#F187B6"/>
<path d="M796.6 44.1342L791.5 39.0342L796.6 33.9342C802 28.5342 802 19.7342 796.6 14.3342C791.2 8.93418 782.4 8.93418 777 14.3342L771.9 19.4342L766.8 14.3342C761.4 8.93418 752.6 8.93418 747.2 14.3342C741.8 19.7342 741.8 28.5342 747.2 33.9342L752.3 39.0342L747.2 44.1342C741.8 49.5342 741.8 58.3342 747.2 63.7342C752.6 69.1342 761.4 69.1342 766.8 63.7342L771.9 58.6342L777 63.7342C782.4 69.1342 791.2 69.1342 796.6 63.7342C802 58.3342 802 49.5342 796.6 44.1342Z" fill="white"/>
<path d="M771.8 52.9338C779.477 52.9338 785.7 46.7105 785.7 39.0338C785.7 31.357 779.477 25.1338 771.8 25.1338C764.123 25.1338 757.9 31.357 757.9 39.0338C757.9 46.7105 764.123 52.9338 771.8 52.9338Z" fill="#F187B6"/>
<path d="M771.8 45.3344C775.279 45.3344 778.1 42.5138 778.1 39.0344C778.1 35.555 775.279 32.7344 771.8 32.7344C768.321 32.7344 765.5 35.555 765.5 39.0344C765.5 42.5138 768.321 45.3344 771.8 45.3344Z" fill="#F8F6E9"/>
<path d="M966.7 78.0342H888.7V156.034H966.7V78.0342Z" fill="#F187B6"/>
<path d="M927.7 155.934L908.2 78.0342L888.7 155.934H927.7Z" fill="black"/>
<path d="M908.2 78.0342L888.7 155.934H908.2V78.0342Z" fill="#2DBCBB"/>
<path d="M966.7 155.934L947.2 78.0342L927.7 155.934H966.7Z" fill="black"/>
<path d="M947.2 78.0342L927.7 155.934H947.2V78.0342Z" fill="#2DBCBB"/>
<path d="M732.9 233.935H654.9V311.935H732.9V233.935Z" fill="white"/>
<path d="M695.2 258.335H692.4V303.835H695.2V258.335Z" fill="#2DBCBB"/>
<path d="M686.1 270.235C684.7 268.835 683 268.135 681.2 267.935L671.1 266.835L672.2 276.935C672.4 278.735 673.2 280.435 674.5 281.835C675.8 283.235 677.6 283.935 679.4 284.135L689.5 285.235L688.4 275.135C688.3 273.335 687.5 271.635 686.1 270.235Z" fill="#2DBCBB"/>
<path d="M701.6 270.235C703 268.835 704.7 268.135 706.5 267.935L716.6 266.835L715.5 276.935C715.3 278.735 714.5 280.435 713.2 281.835C711.8 283.235 710.1 283.935 708.3 284.135L698.2 285.235L699.3 275.135C699.4 273.335 700.2 271.635 701.6 270.235Z" fill="#2DBCBB"/>
<path d="M693.9 264.935C706.7 264.935 717 254.535 717 241.835H670.7C670.7 254.635 681.1 264.935 693.9 264.935Z" fill="#F187B6"/>
<mask id="mask1_113_107" style="mask-type:luminance" maskUnits="userSpaceOnUse" x="670" y="241" width="47" height="24">
<path d="M693.9 264.935C706.7 264.935 717 254.535 717 241.835H670.7C670.7 254.635 681.1 264.935 693.9 264.935Z" fill="white"/>
</mask>
<g mask="url(#mask1_113_107)">
<path d="M705.4 249.735C706.449 249.735 707.3 248.884 707.3 247.835C707.3 246.785 706.449 245.935 705.4 245.935C704.351 245.935 703.5 246.785 703.5 247.835C703.5 248.884 704.351 249.735 705.4 249.735Z" fill="black"/>
<path d="M693.9 249.735C694.949 249.735 695.8 248.884 695.8 247.835C695.8 246.785 694.949 245.935 693.9 245.935C692.851 245.935 692 246.785 692 247.835C692 248.884 692.851 249.735 693.9 249.735Z" fill="black"/>
<path d="M682.3 249.735C683.349 249.735 684.2 248.884 684.2 247.835C684.2 246.785 683.349 245.935 682.3 245.935C681.251 245.935 680.4 246.785 680.4 247.835C680.4 248.884 681.251 249.735 682.3 249.735Z" fill="black"/>
<path d="M670.7 249.735C671.749 249.735 672.6 248.884 672.6 247.835C672.6 246.785 671.749 245.935 670.7 245.935C669.651 245.935 668.8 246.785 668.8 247.835C668.8 248.884 669.651 249.735 670.7 249.735Z" fill="black"/>
<path d="M717 249.735C718.049 249.735 718.9 248.884 718.9 247.835C718.9 246.785 718.049 245.935 717 245.935C715.951 245.935 715.1 246.785 715.1 247.835C715.1 248.884 715.951 249.735 717 249.735Z" fill="black"/>
</g>
<path d="M705.4 241.835C706.2 244.335 708.5 246.035 711.2 246.035C713.9 246.035 716.2 244.235 717 241.835H705.4Z" fill="#EF4D23"/>
<path d="M693.9 241.835C694.7 244.335 697 246.035 699.7 246.035C702.4 246.035 704.7 244.235 705.5 241.835H693.9Z" fill="#EF4D23"/>
<path d="M682.3 241.835C683.1 244.335 685.4 246.035 688.1 246.035C690.8 246.035 693.1 244.235 693.9 241.835H682.3Z" fill="#EF4D23"/>
<path d="M670.7 241.835C671.5 244.335 673.8 246.035 676.5 246.035C679.2 246.035 681.5 244.235 682.3 241.835H670.7Z" fill="#EF4D23"/>
<path d="M732.9 78.0342H654.9V156.034H732.9V78.0342Z" fill="white"/>
<path d="M721.8 119.035C721.8 124.735 720.1 129.935 717.2 134.335C714.9 137.835 711.8 140.735 708.3 142.935C704.2 145.435 699.3 146.935 694.2 146.935C694.1 146.935 694 146.935 693.9 146.935C693.7 146.935 693.5 146.935 693.3 146.935C690.8 146.835 688.3 146.535 686 145.835C683.7 145.135 681.5 144.235 679.5 142.935C678.2 142.135 677 141.335 675.9 140.335C674.3 139.035 672.9 137.535 671.6 135.835C671.2 135.335 670.8 134.735 670.5 134.235C667.6 129.835 665.9 124.535 665.9 118.935C665.9 114.435 666.9 110.235 668.8 106.535C669.1 105.935 669.4 105.335 669.8 104.735C670.5 103.635 671.2 102.635 672 101.635C672.8 100.635 673.6 99.735 674.6 98.835C676.6 100.035 678.4 101.435 680 103.135C681.6 104.735 683.1 106.635 684.2 108.635C686.5 104.735 689.8 101.435 693.7 99.035C697.7 101.435 701.2 104.835 703.5 108.835C705.9 104.835 709.2 101.435 713.2 99.035C718.5 103.935 721.8 111.135 721.8 119.035Z" fill="#EF4D23"/>
<path d="M684.2 94.5346C686.299 94.5346 688 92.8332 688 90.7346C688 88.6359 686.299 86.9346 684.2 86.9346C682.101 86.9346 680.4 88.6359 680.4 90.7346C680.4 92.8332 682.101 94.5346 684.2 94.5346Z" fill="black"/>
<path d="M703.5 94.5346C705.599 94.5346 707.3 92.8332 707.3 90.7346C707.3 88.6359 705.599 86.9346 703.5 86.9346C701.401 86.9346 699.7 88.6359 699.7 90.7346C699.7 92.8332 701.401 94.5346 703.5 94.5346Z" fill="black"/>
<path d="M717.3 134.334C715 137.834 711.9 140.734 708.4 142.934C704.3 145.434 699.4 146.934 694.3 146.934C694.2 146.934 694.1 146.934 694 146.934C693.8 146.934 693.6 146.934 693.4 146.934C690.9 146.834 688.4 146.534 686.1 145.834C683.8 145.134 681.6 144.234 679.6 142.934C678.3 142.134 677.1 141.334 676 140.334C674.4 139.034 673 137.534 671.7 135.834C671.3 135.334 670.9 134.734 670.6 134.234H717.3V134.334Z" fill="#FFC433"/>
<path d="M966.7 155.935H888.7V233.935H966.7V155.935Z" fill="white"/>
<path d="M927.7 155.935C927.7 177.435 910.3 194.935 888.7 194.935C910.2 194.935 927.7 212.335 927.7 233.935C927.7 212.435 945.1 194.935 966.7 194.935C945.2 194.935 927.7 177.435 927.7 155.935Z" fill="#EF4D23"/>
<path d="M577 78.0342H499V156.034H577V78.0342Z" fill="white"/>
<path d="M538 155.935C559.5 155.935 577 138.535 577 117.035C555.4 116.935 538 134.435 538 155.935Z" fill="#EF4D23"/>
<path d="M499 116.935C499 138.435 516.4 155.935 537.9 155.935C538 134.435 520.5 116.935 499 116.935Z" fill="#EF4D23"/>
<path d="M538 78.0342C516.5 78.0342 499 95.4342 499 116.934C520.5 116.934 538 99.5342 538 78.0342Z" fill="#EF4D23"/>
<path d="M576.9 116.935C576.9 95.4346 559.5 77.9346 538 77.9346C538 99.5346 555.4 116.935 576.9 116.935Z" fill="#EF4D23"/>
<path d="M888.8 78.0342H810.8V156.034H888.8V78.0342Z" fill="white"/>
<path d="M849.8 78.0342V156.034C871.3 156.034 888.8 138.534 888.8 117.034C888.8 95.5342 871.3 78.0342 849.8 78.0342Z" fill="white"/>
<path d="M849.8 155.934V78.0342C828.3 78.0342 810.8 95.5342 810.8 117.034C810.8 138.534 828.2 155.934 849.8 155.934Z" fill="#EF4D23"/>
<path d="M849.8 132.334V101.634C841.3 101.634 834.4 108.534 834.4 117.034C834.4 125.534 841.3 132.334 849.8 132.334Z" fill="white"/>
<path d="M849.8 101.634V132.334C858.3 132.334 865.2 125.434 865.2 116.934C865.2 108.434 858.2 101.634 849.8 101.634Z" fill="#EF4D23"/>
<path d="M888.8 0.0341797H810.8V78.0342H888.8V0.0341797Z" fill="white"/>
<path d="M842.1 44.5348C840.7 43.1348 839 42.4348 837.2 42.2348L827.1 41.1348L828.2 51.2348C828.4 53.0348 829.2 54.7348 830.5 56.1348C831.9 57.5348 833.6 58.2348 835.4 58.4348L845.5 59.5348L844.4 49.4348C844.2 47.6348 843.4 45.9348 842.1 44.5348Z" fill="#2DBCBB"/>
<path d="M857.5 44.5348C858.9 43.1348 860.6 42.4348 862.4 42.2348L872.5 41.1348L871.4 51.2348C871.2 53.0348 870.4 54.7348 869.1 56.1348C867.7 57.5348 866 58.2348 864.2 58.4348L854.1 59.5348L855.2 49.4348C855.3 47.6348 856.1 45.9348 857.5 44.5348Z" fill="#2DBCBB"/>
<path d="M851.1 35.4346H848.3V70.0346H851.1V35.4346Z" fill="#2DBCBB"/>
<path d="M881.5 37.8346C881.8 36.7346 882 35.5346 882 34.3346C882 26.7346 875.9 20.6346 868.3 20.6346C867.3 20.6346 866.3 20.7346 865.3 20.9346C864 13.5346 857.5 7.93457 849.8 7.93457C842 7.93457 835.6 13.5346 834.3 20.9346C833.3 20.7346 832.3 20.6346 831.3 20.6346C823.7 20.6346 817.6 26.7346 817.6 34.3346C817.6 35.5346 817.8 36.7346 818.1 37.8346H881.5Z" fill="#EF4D23"/>
<path d="M865.2 37.8342C865.3 37.3342 865.4 36.7342 865.4 36.2342C865.4 32.5342 862.4 29.6342 858.8 29.6342C858.3 29.6342 857.8 29.7342 857.4 29.8342C856.8 26.2342 853.6 23.5342 849.9 23.5342C846.2 23.5342 843 26.2342 842.4 29.8342C841.9 29.7342 841.5 29.6342 841 29.6342C837.3 29.6342 834.4 32.6342 834.4 36.2342C834.4 36.8342 834.5 37.3342 834.6 37.8342H865.2Z" fill="white"/>
<path d="M849.8 31.6344C851.291 31.6344 852.5 30.4255 852.5 28.9344C852.5 27.4432 851.291 26.2344 849.8 26.2344C848.309 26.2344 847.1 27.4432 847.1 28.9344C847.1 30.4255 848.309 31.6344 849.8 31.6344Z" fill="#EF4D23"/>
<path d="M840.8 37.0348C842.291 37.0348 843.5 35.8259 843.5 34.3348C843.5 32.8436 842.291 31.6348 840.8 31.6348C839.309 31.6348 838.1 32.8436 838.1 34.3348C838.1 35.8259 839.309 37.0348 840.8 37.0348Z" fill="#EF4D23"/>
<path d="M858.7 37.0348C860.191 37.0348 861.4 35.8259 861.4 34.3348C861.4 32.8436 860.191 31.6348 858.7 31.6348C857.209 31.6348 856 32.8436 856 34.3348C856 35.8259 857.209 37.0348 858.7 37.0348Z" fill="#EF4D23"/>
</svg>
