<?xml version="1.0" encoding="utf-8"?>
<!-- Generator: Adobe Illustrator 26.0.1, SVG Export Plug-In . SVG Version: 6.00 Build 0)  -->
<svg version="1.1" id="Слой_1" xmlns="http://www.w3.org/2000/svg" xmlns:xlink="http://www.w3.org/1999/xlink" x="0px" y="0px"
	 viewBox="0 0 256 80" style="enable-background:new 0 0 256 80;" xml:space="preserve">
<style type="text/css">
	.st0{fill:#4CB2E2;}
	.st1{fill:#FFFFFF;}
</style>
<path class="st0" d="M249,80H7c-3.9,0-7-3.1-7-7V7c0-3.9,3.1-7,7-7h242c3.9,0,7,3.1,7,7v66C256,76.9,252.9,80,249,80z"/>
<g>
	<g>
		<path class="st1" d="M188.3,45.5c0.1-0.9,0.4-1.1,1.3-1.1c2.6,0,5.1-0.1,7.7-0.2c0.7,0,1.6-0.3,2.3-0.6c1.2-0.5,1.8-2.2,1.4-3.3
			c-0.4-1.2-1.5-1.2-2.4-1.3c-3-0.1-6-0.3-9-0.4c0.5-2.7,1-5.1,1.5-7.7c0.3-1.5-0.3-2.7-1.9-2.9c-1.8-0.2-3.6-0.2-5.5-0.2
			c-1.2,0-1.9,0.7-2.1,1.8c-0.2,0.9-0.3,1.7-0.5,2.6c-0.4,2-0.7,3.9-1.2,6c-1.7,0-3.2,0-4.7,0c-1.4,0-1.9,0.4-2.2,1.7
			c-0.2,1-0.3,1.9-0.4,2.9c-0.1,1.7,0.4,2.3,2.1,2.3c1.3,0,2.6,0,3.9,0c-0.3,1.9-0.6,3.8-0.9,5.8c-0.4,3.8-1.1,7.5-3.1,10.8
			c-1.5,2.4-3.1,4.8-5.7,6.2c-3,1.5-5.3,0.1-5.7-3.1c0-0.2-0.1-0.4,0-0.6c0.1-2.9,0.1-5.7,0.5-8.5c0.6-5,1.6-9.9,3.2-14.7
			c1-2.9,2-5.8,2.7-8.8c0.5-2.4,0.9-5,1-7.5c0.1-1.5-0.6-2.3-2-2.4c-1.7-0.2-3.4-0.3-5.1-0.2c-2.6,0.2-3.3,1-3.8,3.5
			c-1.2,6-2.2,12-3.4,18c-0.1,0.4-0.2,1-0.5,1.2c-1.5,1.3-3,2.7-4.6,3.8c-0.9,0.6-1.9,0.7-3,1.2c-0.1-0.9-0.1-1.4-0.2-1.8
			c-0.4-3.4-1.6-6.4-4.5-8.5c-0.5-0.4-0.3-0.7-0.3-1.3c0.1-0.5,0-1.2,0-1.8c-0.6,0.1-1.2,0.2-1.8,0.4c-0.2,0.1-0.4,0.3-0.6,0.4
			c-0.4,0.1-1,0.3-1.3,0.2c-6.4-1.3-12.2,0-17,4.6c-6.8,6.5-8.7,14.7-7.1,23.7c0.9,4.4,3.4,7.5,7.9,8.7c6.8,1.8,13,0.5,18-4.7
			c3.5-3.6,5.2-8.1,6.4-12.9c0.2-0.6,0.5-1,1.1-1.2c1.8-0.9,3.6-1.8,5.3-2.8c0.2-0.1,0.4-0.3,0.7-0.5c-0.1,0.7-0.2,1.4-0.3,1.9
			c-0.6,4.1-1.4,8.2-1.1,12.4c0.3,4.1,2.4,7,6.1,7.9c1.5,0.3,3.1,0.5,4.6,0.4c4.1-0.2,7.3-2.3,10.1-5.3c1-1,1.8-2.1,2.8-3.3
			c0.1,0.4,0.1,0.6,0.2,1c0.7,3.4,2.2,6.2,5.8,7.2c2,0.5,4,0.6,6.1,0.2c5.5-1.3,8.9-5.1,11.4-10c0.3-0.6,0.2-1.2-0.4-1.7
			c-1.5-1.2-2.4-1.1-3.4,0.5c-1.3,1.9-2.7,3.8-4.9,4.6c-2.8,1-5-0.2-5.4-3c-0.1-0.9-0.2-1.7-0.1-2.6
			C186.5,56.9,187.4,51.2,188.3,45.5z M138.3,54.8c-0.6,3.6-1.6,7.1-3.5,10.2c-0.7,1.2-1.6,2.3-2.7,3.2c-2.3,2-5.4,1.4-6.6-1.5
			c-0.7-1.7-0.9-3.7-1.3-5.5c0.5-5.4,1.3-10.6,4.1-15.3c1.2-1.9,2.7-3.3,5-3.6c0.2,0,0.5-0.1,0.7-0.1c1.6,0,1.6,0.2,1.5,1.7
			c-0.2,1.3-0.2,2.7-0.2,3.9c0,2.2,0.9,4.1,2.4,5.7C138.2,53.8,138.4,54.5,138.3,54.8z"/>
		<path class="st1" d="M115.3,25.1c-0.1-1.9-1.3-3-3.2-3.2c-1.8-0.1-3.7-0.1-5.6-0.1c-1.9,0.1-2.6,0.9-2.6,2.8c0,1.4,0.2,2.7,0.2,4
			c0.3,10.1-0.3,20-2.8,29.9c-0.6,2.8-1.5,5.4-3.2,7.8c-1.5,2-3.2,1.9-4.3-0.3c-0.7-1.5-1.3-3.2-1.6-4.9c-1.4-7.4-1.1-15-0.9-22.4
			c0.1-2.4,0.2-5,0.2-7.4c0-1.5-0.4-1.9-1.9-2.1c-1-0.1-1.9-0.1-2.9-0.2c-2.4-0.1-3.9,1.1-4.9,3.4c-3.9,9.2-8.2,18.5-12.3,27.6
			c-1.2,2.6-2.4,5-3.6,7.5c-0.1,0-0.2-0.1-0.3-0.1c-0.2-2-0.4-4-0.5-6.2c-0.4-9,0.5-18.1,2.1-27c0.4-2,0.9-4.1,1.2-6.2
			c0.3-1.7-0.3-2.4-2-2.3c-1.4,0-2.7,0.1-4,0.2c-2.9,0.5-4.4,1.8-4.9,4.7c-1.8,8.9-3,18-2.9,27.1c0,4.4,0.4,8.7,1.4,13.1
			c0.4,2,1.6,3.2,3.6,3.5c1.6,0.2,3.1,0.4,4.7,0.6c3.2,0.4,5.4-0.9,6.9-3.7c3.3-6.6,6.5-13.3,9.8-19.9c0.2-0.3,0.3-0.6,0.6-1.3
			c0.2,2.8,0.3,5.2,0.6,7.7c0.4,3.8,1.1,7.7,2.8,11.2c1.8,3.7,4.7,5.8,8.9,5.8c3.3,0,5.7-1.8,7.9-4c2.9-3.2,4.9-6.9,6.5-10.8
			c3.5-8.3,5.6-17.1,6.7-26.3C115.5,30.8,115.5,27.9,115.3,25.1z"/>
	</g>
</g>
<g>
	<path class="st1" d="M58.3,13.5l-1.2,3.6h-1.5l3.9-11.3h1.8l3.9,11.3h-1.6l-1.2-3.6H58.3z M62,12.3l-1.1-3.3
		c-0.3-0.7-0.4-1.4-0.6-2.1h0c-0.2,0.7-0.4,1.4-0.6,2.1l-1.1,3.3H62z"/>
	<path class="st1" d="M66.9,8.9l1.6,4.6c0.3,0.7,0.5,1.4,0.7,2.1h0.1c0.2-0.7,0.4-1.3,0.7-2.1l1.6-4.6H73l-3.2,8.1h-1.4l-3.1-8.1
		H66.9z"/>
	<path class="st1" d="M78.9,17.1l-0.1-1h-0.1c-0.5,0.6-1.3,1.2-2.5,1.2c-1.6,0-2.5-1.2-2.5-2.3c0-2,1.7-3,4.9-3v-0.2
		c0-0.7-0.2-1.9-1.9-1.9c-0.8,0-1.5,0.2-2.1,0.6l-0.3-1C75,9,76,8.7,77,8.7c2.5,0,3.1,1.7,3.1,3.3v3c0,0.7,0,1.4,0.1,2H78.9z
		 M78.7,12.9c-1.6,0-3.4,0.3-3.4,1.8c0,1,0.6,1.4,1.4,1.4c1.1,0,1.7-0.7,2-1.4c0.1-0.2,0.1-0.3,0.1-0.5V12.9z"/>
	<path class="st1" d="M84.1,6.6c0,0.5-0.4,0.9-0.9,0.9c-0.5,0-0.9-0.4-0.9-0.9c0-0.5,0.4-0.9,0.9-0.9C83.8,5.7,84.1,6.1,84.1,6.6z
		 M82.5,17.1V8.9H84v8.1H82.5z"/>
	<path class="st1" d="M86.4,5.1h1.5v11.9h-1.5V5.1z"/>
	<path class="st1" d="M94.9,17.1l-0.1-1h-0.1c-0.5,0.6-1.3,1.2-2.5,1.2c-1.6,0-2.5-1.2-2.5-2.3c0-2,1.7-3,4.9-3v-0.2
		c0-0.7-0.2-1.9-1.9-1.9c-0.8,0-1.5,0.2-2.1,0.6l-0.3-1C91,9,92,8.7,93,8.7c2.5,0,3.1,1.7,3.1,3.3v3c0,0.7,0,1.4,0.1,2H94.9z
		 M94.7,12.9c-1.6,0-3.4,0.3-3.4,1.8c0,1,0.6,1.4,1.4,1.4c1.1,0,1.7-0.7,2-1.4c0.1-0.2,0.1-0.3,0.1-0.5V12.9z"/>
	<path class="st1" d="M98.4,17.1c0-0.6,0.1-1.4,0.1-2.1V5.1h1.5v5.1h0c0.5-0.9,1.5-1.5,2.8-1.5c2,0,3.4,1.7,3.4,4.2
		c0,2.9-1.8,4.4-3.7,4.4c-1.2,0-2.1-0.5-2.7-1.5h-0.1l-0.1,1.3H98.4z M100,13.8c0,0.2,0,0.4,0.1,0.5c0.3,1,1.1,1.7,2.2,1.7
		c1.5,0,2.5-1.3,2.5-3.1c0-1.6-0.8-3-2.4-3c-1,0-2,0.7-2.3,1.8c0,0.2-0.1,0.4-0.1,0.6V13.8z"/>
	<path class="st1" d="M108.1,5.1h1.5v11.9h-1.5V5.1z"/>
	<path class="st1" d="M112.9,13.3c0,2,1.3,2.8,2.8,2.8c1.1,0,1.7-0.2,2.3-0.4l0.3,1.1c-0.5,0.2-1.4,0.5-2.7,0.5c-2.5,0-4-1.6-4-4.1
		c0-2.5,1.4-4.4,3.8-4.4c2.7,0,3.4,2.3,3.4,3.8c0,0.3,0,0.5-0.1,0.7H112.9z M117.2,12.2c0-0.9-0.4-2.4-2.1-2.4
		c-1.5,0-2.2,1.4-2.3,2.4H117.2z"/>
	<path class="st1" d="M131.4,12.9c0,3-2.1,4.3-4.1,4.3c-2.2,0-3.9-1.6-3.9-4.2c0-2.7,1.8-4.3,4-4.3C129.9,8.7,131.4,10.4,131.4,12.9
		z M125,13c0,1.8,1,3.1,2.5,3.1c1.4,0,2.5-1.3,2.5-3.2c0-1.4-0.7-3.1-2.4-3.1C125.7,9.8,125,11.5,125,13z"/>
	<path class="st1" d="M133.3,11.1c0-0.8,0-1.5-0.1-2.2h1.3l0.1,1.3h0c0.4-0.8,1.3-1.5,2.7-1.5c1.1,0,2.9,0.7,2.9,3.5v4.9h-1.5v-4.7
		c0-1.3-0.5-2.4-1.9-2.4c-1,0-1.7,0.7-2,1.5c-0.1,0.2-0.1,0.4-0.1,0.7v4.9h-1.5V11.1z"/>
</g>
</svg>
