<svg width="57" height="61" viewBox="0 0 57 61" fill="none" xmlns="http://www.w3.org/2000/svg">
<path d="M56.7999 33.035C56.7999 38.735 55.0999 43.935 52.1999 48.335C49.8999 51.835 46.7999 54.735 43.2999 56.935C39.1999 59.435 34.2999 60.935 29.1999 60.935C29.0999 60.935 28.9999 60.935 28.8999 60.935C28.6999 60.935 28.4999 60.935 28.2999 60.935C25.7999 60.835 23.2999 60.535 20.9999 59.835C18.6999 59.135 16.4999 58.235 14.4999 56.935C13.1999 56.135 11.9999 55.335 10.8999 54.335C9.2999 53.035 7.89991 51.535 6.59991 49.835C6.19991 49.335 5.79991 48.735 5.49991 48.235C2.59991 43.835 0.899902 38.535 0.899902 32.935C0.899902 28.435 1.8999 24.235 3.7999 20.535C4.0999 19.935 4.3999 19.335 4.7999 18.735C5.4999 17.635 6.19991 16.635 6.99991 15.635C7.79991 14.635 8.59991 13.735 9.59991 12.835C11.5999 14.035 13.3999 15.435 14.9999 17.135C16.5999 18.735 18.0999 20.635 19.1999 22.635C21.4999 18.735 24.7999 15.435 28.6999 13.035C32.6999 15.435 36.1999 18.835 38.4999 22.835C40.8999 18.835 44.1999 15.435 48.1999 13.035C53.4999 17.935 56.7999 25.135 56.7999 33.035Z" fill="#EF4D23"/>
<path d="M19.1999 8.53457C21.2986 8.53457 22.9999 6.83325 22.9999 4.73457C22.9999 2.63588 21.2986 0.93457 19.1999 0.93457C17.1012 0.93457 15.3999 2.63588 15.3999 4.73457C15.3999 6.83325 17.1012 8.53457 19.1999 8.53457Z" fill="black"/>
<path d="M38.5 8.53457C40.5987 8.53457 42.3 6.83325 42.3 4.73457C42.3 2.63588 40.5987 0.93457 38.5 0.93457C36.4013 0.93457 34.7 2.63588 34.7 4.73457C34.7 6.83325 36.4013 8.53457 38.5 8.53457Z" fill="black"/>
<path d="M52.2998 48.3344C49.9998 51.8344 46.8998 54.7344 43.3998 56.9344C39.2998 59.4344 34.3998 60.9344 29.2998 60.9344C29.1998 60.9344 29.0998 60.9344 28.9998 60.9344C28.7998 60.9344 28.5998 60.9344 28.3998 60.9344C25.8998 60.8344 23.3999 60.5344 21.0999 59.8344C18.7999 59.1344 16.5999 58.2344 14.5999 56.9344C13.2999 56.1344 12.0998 55.3344 10.9998 54.3344C9.39985 53.0344 7.99983 51.5344 6.69983 49.8344C6.29983 49.3344 5.89985 48.7344 5.59985 48.2344H52.2998V48.3344Z" fill="#FFC433"/>
</svg>
