<?xml version="1.0" encoding="utf-8"?>
<!-- Generator: Adobe Illustrator 26.0.1, SVG Export Plug-In . SVG Version: 6.00 Build 0)  -->
<svg version="1.1" id="Слой_1" xmlns="http://www.w3.org/2000/svg" xmlns:xlink="http://www.w3.org/1999/xlink" x="0px" y="0px"
	 viewBox="0 0 256 80" style="enable-background:new 0 0 256 80;" xml:space="preserve">
<style type="text/css">
	.st0{fill:#221F1F;}
	.st1{fill:#FFFFFF;}
	.st2{fill-rule:evenodd;clip-rule:evenodd;fill:#FF9900;}
	.st3{fill-rule:evenodd;clip-rule:evenodd;fill:#FFFFFF;}
</style>
<path class="st0" d="M249,80H7c-3.9,0-7-3.1-7-7V7c0-3.9,3.1-7,7-7h242c3.9,0,7,3.1,7,7v66C256,76.9,252.9,80,249,80z"/>
<g>
	<path class="st1" d="M56.6,13.5l-1.2,3.6h-1.5l3.9-11.3h1.8l3.9,11.3h-1.6l-1.2-3.6H56.6z M60.3,12.3l-1.1-3.3
		c-0.3-0.7-0.4-1.4-0.6-2.1h0c-0.2,0.7-0.4,1.4-0.6,2.1l-1.1,3.3H60.3z"/>
	<path class="st1" d="M65.2,8.9l1.6,4.6c0.3,0.7,0.5,1.4,0.7,2.1h0.1c0.2-0.7,0.4-1.3,0.7-2.1l1.6-4.6h1.5l-3.2,8.1h-1.4l-3.1-8.1
		H65.2z"/>
	<path class="st1" d="M77.2,17.1L77,16H77c-0.5,0.6-1.3,1.2-2.5,1.2c-1.6,0-2.5-1.2-2.5-2.3c0-2,1.7-3,4.9-3v-0.2
		c0-0.7-0.2-1.9-1.9-1.9c-0.8,0-1.5,0.2-2.1,0.6l-0.3-1c0.7-0.4,1.6-0.7,2.7-0.7c2.5,0,3.1,1.7,3.1,3.3v3c0,0.7,0,1.4,0.1,2H77.2z
		 M76.9,12.9c-1.6,0-3.4,0.3-3.4,1.8c0,1,0.6,1.4,1.4,1.4c1.1,0,1.7-0.7,2-1.4c0.1-0.2,0.1-0.3,0.1-0.5V12.9z"/>
	<path class="st1" d="M82.4,6.6c0,0.5-0.4,0.9-0.9,0.9c-0.5,0-0.9-0.4-0.9-0.9c0-0.5,0.4-0.9,0.9-0.9C82.1,5.7,82.4,6.1,82.4,6.6z
		 M80.8,17.1V8.9h1.5v8.1H80.8z"/>
	<path class="st1" d="M84.7,5.1h1.5v11.9h-1.5V5.1z"/>
	<path class="st1" d="M93.2,17.1l-0.1-1H93c-0.5,0.6-1.3,1.2-2.5,1.2c-1.6,0-2.5-1.2-2.5-2.3c0-2,1.7-3,4.9-3v-0.2
		c0-0.7-0.2-1.9-1.9-1.9c-0.8,0-1.5,0.2-2.1,0.6l-0.3-1c0.7-0.4,1.6-0.7,2.7-0.7c2.5,0,3.1,1.7,3.1,3.3v3c0,0.7,0,1.4,0.1,2H93.2z
		 M93,12.9c-1.6,0-3.4,0.3-3.4,1.8c0,1,0.6,1.4,1.4,1.4c1.1,0,1.7-0.7,2-1.4c0.1-0.2,0.1-0.3,0.1-0.5V12.9z"/>
	<path class="st1" d="M96.7,17.1c0-0.6,0.1-1.4,0.1-2.1V5.1h1.5v5.1h0c0.5-0.9,1.5-1.5,2.8-1.5c2,0,3.4,1.7,3.4,4.2
		c0,2.9-1.8,4.4-3.7,4.4c-1.2,0-2.1-0.5-2.7-1.5h-0.1L98,17.1H96.7z M98.3,13.8c0,0.2,0,0.4,0.1,0.5c0.3,1,1.1,1.7,2.2,1.7
		c1.5,0,2.5-1.3,2.5-3.1c0-1.6-0.8-3-2.4-3c-1,0-2,0.7-2.3,1.8c0,0.2-0.1,0.4-0.1,0.6V13.8z"/>
	<path class="st1" d="M106.4,5.1h1.5v11.9h-1.5V5.1z"/>
	<path class="st1" d="M111.2,13.3c0,2,1.3,2.8,2.8,2.8c1.1,0,1.7-0.2,2.3-0.4l0.3,1.1c-0.5,0.2-1.4,0.5-2.7,0.5c-2.5,0-4-1.6-4-4.1
		c0-2.5,1.4-4.4,3.8-4.4c2.7,0,3.4,2.3,3.4,3.8c0,0.3,0,0.5-0.1,0.7H111.2z M115.5,12.2c0-0.9-0.4-2.4-2.1-2.4
		c-1.5,0-2.2,1.4-2.3,2.4H115.5z"/>
	<path class="st1" d="M129.7,12.9c0,3-2.1,4.3-4.1,4.3c-2.2,0-3.9-1.6-3.9-4.2c0-2.7,1.8-4.3,4-4.3C128.1,8.7,129.7,10.4,129.7,12.9
		z M123.3,13c0,1.8,1,3.1,2.5,3.1c1.4,0,2.5-1.3,2.5-3.2c0-1.4-0.7-3.1-2.4-3.1C124,9.8,123.3,11.5,123.3,13z"/>
	<path class="st1" d="M131.6,11.1c0-0.8,0-1.5-0.1-2.2h1.3l0.1,1.3h0c0.4-0.8,1.3-1.5,2.7-1.5c1.1,0,2.9,0.7,2.9,3.5v4.9H137v-4.7
		c0-1.3-0.5-2.4-1.9-2.4c-1,0-1.7,0.7-2,1.5c-0.1,0.2-0.1,0.4-0.1,0.7v4.9h-1.5V11.1z"/>
</g>
<g>
	<path class="st2" d="M148.1,63.3c-9.6,7.1-23.6,10.9-35.7,10.9c-16.9,0-32-6.2-43.5-16.6c-0.9-0.8-0.1-1.9,1-1.3
		c12.4,7.2,27.7,11.6,43.6,11.6c10.7,0,22.4-2.2,33.2-6.8C148.3,60.4,149.7,62.1,148.1,63.3"/>
	<path class="st2" d="M152.1,58.7c-1.2-1.6-8.1-0.7-11.2-0.4c-0.9,0.1-1.1-0.7-0.2-1.3c5.5-3.9,14.5-2.8,15.6-1.5
		c1.1,1.3-0.3,10.4-5.4,14.7c-0.8,0.7-1.6,0.3-1.2-0.6C150.7,66.8,153.3,60.3,152.1,58.7"/>
	<g>
		<path class="st3" d="M159.5,46c-2.9-1.7-6.4-2.1-9.6-2.1l8.7-12.5c0.8-1.1,1.3-1.8,1.3-2.4v-3.1c0-0.6-0.4-1-1-1H142
			c0,0,0,0-0.1,0c-0.5,0-0.9,0.4-0.9,1v3.8l0,0c0,0.6,0.4,0.9,1,0.9h8.8l-10.1,14.5c-0.6,0.9-0.6,2-0.6,2.6v3.8
			c0,0.5,0.6,1.2,1.2,0.9c5.7-3,12.6-2.7,17.8,0c0.6,0.3,1.2-0.3,1.2-0.9v-4C160.3,47,160.1,46.4,159.5,46z"/>
		<path class="st3" d="M100.8,24.5c-3,0-5.8,1.6-7.1,4.9c-1.4-3.3-3.5-4.9-6.7-4.9c-3.2,0-5.5,1.6-6.8,4.9h-0.1v-3.5
			c0-0.5-0.4-0.9-0.9-0.9h-4.8c-0.5,0-1,0.4-1,0.9v26.3c0,0.5,0.4,0.8,0.9,0.9h5.1l0,0c0.5,0,1-0.4,1-1v-14c0-3-0.1-7.3,3.5-7.3
			s3.2,4.3,3.2,7.3v14c0,0.5,0.4,0.9,0.9,1h5.1c0.5,0,1-0.4,1-1v-14c0-1.5-0.1-3.7,0.5-5c0.6-1.3,1.8-2.2,3.1-2.2
			c1.5,0,2.6,0.5,3,2.3c0.2,1.1,0.1,3.8,0.1,4.9v14c0,0.5,0.4,0.9,0.9,1h5.1c0.5,0,1-0.4,1-1V35.5c0-2.8,0.3-6-1.3-8.3
			C105.3,25.4,102.9,24.5,100.8,24.5z"/>
		<path class="st3" d="M174.4,24.5L174.4,24.5c-7.4,0-11.6,6.4-11.6,14.6s4.1,14.7,11.6,14.7c7.2,0,11.7-6.4,11.7-14.4
			C186.1,31,182,24.5,174.4,24.5z M174.4,48.3c-4,0-4-6.9-4-10.1s0.2-8.4,4-8.4l0,0c1.6,0,2.8,0.7,3.4,2.5c0.7,2.1,0.8,4.8,0.8,7
			C178.5,42.8,178.3,48.3,174.4,48.3z"/>
		<path class="st3" d="M196,53.2L196,53.2L196,53.2L196,53.2z"/>
		<path class="st3" d="M209.7,27.6c-1.4-2.3-3.7-3.1-6-3.1c-3.5,0-5.6,1.7-7,5.3h-0.1v-4c-0.1-0.4-0.5-0.7-0.9-0.7h-4.8
			c-0.5,0-0.9,0.4-1,0.9v26.4c0,0.5,0.4,0.9,0.9,1h5.1c0.5,0,1-0.4,1-1V38.1c0-1.8,0.1-3.4,0.8-5c0.6-1.3,1.7-2.1,3-2.1
			c3.5,0,3.2,4.2,3.2,7.1v14.3c0,0.4,0.4,0.8,0.9,0.8h5.1c0.5,0,0.9-0.4,1-0.8V35.8C211,33.2,211,29.7,209.7,27.6z"/>
		<path class="st3" d="M134.8,43.6v-8c0-3.4,0.2-6.5-2.3-8.8c-2-1.9-5.2-2.6-7.7-2.6c-4.9,0-10.3,1.8-11.5,7.9
			c-0.1,0.6,0.3,1,0.8,1.1l5,0.5c0.5,0,0.8-0.5,0.9-0.9c0.4-2.2,2.1-3.2,4.1-3.2c1.1,0,2.3,0.4,2.9,1.3c0.7,1.1,0.6,2.5,0.6,3.7v0.7
			c-3,0.3-6.9,0.6-9.7,1.8c-3.2,1.4-5.5,4.2-5.5,8.4c0,5.3,3.4,8,7.7,8c3.6,0,5.6-0.9,8.5-3.7c0.9,1.3,1.2,2,2.9,3.4
			c0.4,0.2,0.9,0.2,1.2-0.1l0,0l0,0l3.9-3.4c0.4-0.3,0.3-0.9,0-1.4C135.8,47,134.8,46,134.8,43.6z M126.6,46
			c-0.8,1.4-2.1,2.3-3.6,2.3c-2,0-3.1-1.5-3.1-3.7c0-4.4,3.9-5.2,7.6-5.2v1.1l0,0C127.6,42.6,127.6,44.2,126.6,46z"/>
		<path class="st3" d="M67.5,43.6v-8c0-3.4,0.2-6.5-2.3-8.8c-2-1.9-5.2-2.6-7.7-2.6c-4.9,0-10.3,1.8-11.5,7.9
			c-0.1,0.6,0.4,1,0.8,1.1l5,0.5c0.5,0,0.8-0.5,0.9-0.9c0.4-2.1,2.1-3.1,4.1-3.1c1.1,0,2.3,0.4,2.9,1.3c0.7,1.1,0.6,2.5,0.6,3.7v0.7
			c-3,0.3-6.9,0.6-9.7,1.8c-3.2,1.4-5.5,4.2-5.5,8.4c0,5.3,3.4,8,7.7,8c3.7,0,5.6-0.9,8.5-3.7c1,1.3,1.2,2,2.9,3.4
			c0.4,0.2,0.9,0.2,1.2-0.1l0,0l0,0l3.9-3.4c0.4-0.3,0.3-0.9,0-1.4C68.5,47.1,67.5,46,67.5,43.6z M59.3,46c-0.8,1.4-2.1,2.3-3.6,2.3
			c-2,0-3.1-1.5-3.1-3.7c0-4.4,3.9-5.2,7.6-5.2v1.1l0,0C60.3,42.6,60.4,44.3,59.3,46z"/>
	</g>
</g>
</svg>
