<?xml version="1.0" encoding="utf-8"?>
<!-- Generator: Adobe Illustrator 24.0.2, SVG Export Plug-In . SVG Version: 6.00 Build 0)  -->
<svg version="1.1" id="Слой_1" xmlns="http://www.w3.org/2000/svg" xmlns:xlink="http://www.w3.org/1999/xlink" x="0px" y="0px"
	 viewBox="0 0 200 104" style="enable-background:new 0 0 200 104;" xml:space="preserve">
<style type="text/css">
	.st111{fill:#2D5A93;}
</style>
<g>
	<path class="st111" d="M87.4,68c0-0.3,0-0.6,0-0.9c0-0.7,0-1.4-0.1-2.2c0.6-0.2,1.6-0.4,2.1-0.5c0.2,0,0.3-0.1,0.3-0.1l-0.2-1.5
		L86.9,63c-0.2-1-0.6-2-1-2.9c0.6-0.3,1.5-0.8,1.9-1.1c0.1-0.1,0.2-0.1,0.2-0.1l-0.6-1.4l-2.3,0.8c-0.5-0.9-1.1-1.7-1.8-2.5
		c0.5-0.5,1.2-1.2,1.5-1.6C84.9,54,85,54,85,54l-1-1.2l-2,1.5c-0.8-0.7-1.6-1.4-2.4-2c0.3-0.6,0.8-1.5,1-1.9
		c0.1-0.1,0.1-0.2,0.1-0.2l-1.3-0.8l-1.5,2c-0.9-0.5-1.9-0.9-2.9-1.2c0.1-0.6,0.3-1.6,0.4-2.1c0-0.2,0.1-0.3,0.1-0.3L74,47.3
		l-0.9,2.3c-1-0.2-2-0.3-3.1-0.3c-0.1-0.7-0.1-1.7-0.2-2.2c0-0.2,0-0.3,0-0.3h-1.6L68,49.3c-1.1,0.1-2.1,0.3-3.2,0.6
		c-0.2-0.6-0.6-1.6-0.8-2C64,47.7,64,47.6,64,47.6l-1.5,0.4l0.5,2.4c-1,0.4-1.9,0.9-2.8,1.4c-0.4-0.5-1-1.3-1.3-1.7
		c-0.1-0.1-0.2-0.2-0.2-0.2l-1.3,0.8l1.2,2.2C58,53.5,57.5,54,57,54.5c-0.2,0.2-0.4,0.5-0.7,0.7c-0.5-0.4-1.4-1-1.8-1.3
		c-0.1-0.1-0.2-0.2-0.2-0.2l-1,1.2l1.7,1.8c-0.6,0.8-1.1,1.7-1.6,2.7c-0.6-0.2-1.6-0.6-2-0.7c-0.2-0.1-0.2-0.1-0.2-0.1L50.6,60
		l2.2,1.2c-0.3,1-0.6,2-0.8,3c-0.7,0-1.7-0.1-2.2-0.1c-0.2,0-0.3,0-0.3,0l-0.2,1.5l2.4,0.6c0,0.3,0,0.6,0,0.9c0,0.7,0,1.5,0.1,2.2
		c-0.6,0.2-1.6,0.4-2.1,0.5c-0.2,0-0.3,0.1-0.3,0.1l0.2,1.5l2.5-0.1c0.2,1,0.6,2,1,2.9c-0.6,0.3-1.5,0.8-1.9,1.1
		c-0.1,0.1-0.2,0.1-0.2,0.1l0.7,1.4l2.3-0.8c0.5,0.9,1.1,1.7,1.8,2.5c-0.5,0.5-1.2,1.2-1.5,1.6c-0.1,0.1-0.2,0.2-0.2,0.2l1,1.2
		l2-1.5c0.8,0.7,1.6,1.4,2.4,1.9c-0.3,0.6-0.8,1.5-1,1.9c-0.1,0.1-0.1,0.2-0.1,0.2l1.3,0.8l1.5-2c0.9,0.5,1.9,0.9,2.9,1.2
		c-0.1,0.6-0.3,1.6-0.4,2.1c0,0.2-0.1,0.3-0.1,0.3l1.5,0.4l0.9-2.3c1,0.2,2,0.3,3.1,0.3c0.1,0.7,0.2,1.7,0.2,2.2c0,0.2,0,0.3,0,0.3
		l1.6,0l0.2-2.5c1-0.1,2.1-0.3,3.1-0.5c0.2,0.6,0.6,1.6,0.8,2c0.1,0.2,0.1,0.2,0.1,0.2l1.5-0.4l-0.5-2.4c1-0.4,1.9-0.8,2.8-1.4
		c0.4,0.5,1,1.3,1.3,1.7c0.1,0.1,0.2,0.2,0.2,0.2l1.3-0.8l-1.2-2.2c0.6-0.4,1.1-0.9,1.6-1.5c0.2-0.2,0.4-0.4,0.6-0.7
		c0.5,0.4,1.4,1,1.8,1.3c0.1,0.1,0.2,0.2,0.2,0.2l1-1.2l-1.7-1.8c0.6-0.8,1.1-1.7,1.6-2.7c0.6,0.2,1.6,0.6,2,0.7
		c0.2,0.1,0.2,0.1,0.2,0.1l0.6-1.4L86.4,73c0.3-1,0.6-2,0.8-3c0.7,0,1.7,0.1,2.2,0.1c0.2,0,0.3,0,0.3,0l0.2-1.5L87.4,68z M85.6,67.1
		c0,3.7-1.3,7.1-3.3,9.8l-6.8-5.7c0.8-1.1,1.2-2.4,1.3-3.9l8.9-0.7C85.6,66.7,85.6,66.9,85.6,67.1z M69.6,83.1
		c-3.7,0-7.1-1.3-9.9-3.4l5.8-6.8c1.1,0.8,2.4,1.2,3.9,1.3l0.7,8.9C69.9,83.1,69.7,83.1,69.6,83.1z M53.7,69l8.9-0.7
		c0.2,1.4,0.9,2.6,1.8,3.6l-5.8,6.8C56,76.2,54.2,72.8,53.7,69z M53.6,67.1c0-3.7,1.3-7.1,3.4-9.8l6.8,5.8c-0.8,1.1-1.2,2.4-1.3,3.9
		l-8.9,0.7C53.6,67.4,53.6,67.3,53.6,67.1z M69.6,72.4c-2.9,0-5.3-2.4-5.3-5.3s2.4-5.3,5.3-5.3c2.9,0,5.3,2.4,5.3,5.3
		S72.5,72.4,69.6,72.4z M69.6,51.1c3.7,0,7.1,1.3,9.8,3.4l-5.8,6.8c-1.1-0.8-2.4-1.2-3.9-1.3l-0.7-8.9
		C69.2,51.1,69.4,51.1,69.6,51.1z M85.5,65.1l-8.9,0.7c-0.3-1.4-0.9-2.6-1.8-3.6l5.8-6.8C83.2,57.9,85,61.3,85.5,65.1z M67.6,51.2
		l0.7,8.9c-1.4,0.2-2.6,0.9-3.6,1.8l-6.8-5.8C60.4,53.5,63.8,51.7,67.6,51.2z M71.5,83l-0.7-8.9c1.4-0.2,2.7-0.9,3.7-1.9l6.8,5.7
		C78.8,80.7,75.3,82.5,71.5,83z"/>
	<path class="st111" d="M74.5,31c0-0.3,0-0.5,0-0.8c0-0.6-0.1-1.3-0.2-1.9c0.5-0.1,1.4-0.4,1.8-0.5c0.1,0,0.2-0.1,0.2-0.1l-0.2-1.3
		L74,26.7c-0.2-0.9-0.5-1.7-0.9-2.5c0.5-0.3,1.2-0.7,1.6-1c0.1-0.1,0.2-0.1,0.2-0.1l-0.6-1.2l-2,0.8c-0.5-0.8-1-1.5-1.6-2.2
		c0.4-0.4,1-1.1,1.3-1.4c0.1-0.1,0.2-0.2,0.2-0.2l-0.9-1l-1.7,1.3c-0.7-0.6-1.4-1.2-2.1-1.6c0.3-0.5,0.6-1.3,0.8-1.7
		c0.1-0.1,0.1-0.2,0.1-0.2L67.2,15l-1.3,1.7c-0.8-0.4-1.6-0.7-2.5-1c0.1-0.6,0.3-1.4,0.3-1.8c0-0.1,0-0.2,0-0.2l-1.3-0.3l-0.7,2
		c-0.9-0.2-1.8-0.2-2.7-0.2c-0.1-0.6-0.2-1.5-0.2-1.9c0-0.1,0-0.2,0-0.2l-1.3,0l-0.1,2.2c-0.9,0.1-1.8,0.3-2.7,0.6
		c-0.2-0.5-0.6-1.3-0.7-1.7c-0.1-0.1-0.1-0.2-0.1-0.2l-1.3,0.4l0.5,2.1c-0.8,0.4-1.6,0.8-2.4,1.3c-0.4-0.4-0.9-1.1-1.2-1.4
		c-0.1-0.1-0.1-0.2-0.1-0.2l-1.1,0.8l1.1,1.9c-0.5,0.4-0.9,0.8-1.4,1.3c-0.2,0.2-0.4,0.4-0.6,0.6c-0.5-0.3-1.2-0.8-1.6-1.1
		c-0.1-0.1-0.2-0.1-0.2-0.1l-0.9,1l1.5,1.5c-0.5,0.7-0.9,1.5-1.3,2.3c-0.5-0.2-1.4-0.4-1.8-0.6c-0.1,0-0.2-0.1-0.2-0.1l-0.5,1.2
		l1.9,1c-0.3,0.9-0.5,1.7-0.6,2.6c-0.6,0-1.5,0-1.9-0.1c-0.1,0-0.2,0-0.2,0l-0.2,1.3l2.1,0.4c0,0.3,0,0.5,0,0.8
		c0,0.6,0.1,1.3,0.2,1.9c-0.5,0.1-1.4,0.4-1.8,0.5c-0.1,0-0.2,0.1-0.2,0.1l0.2,1.3l2.1-0.2c0.2,0.9,0.5,1.7,0.9,2.5
		c-0.5,0.3-1.2,0.8-1.6,1c-0.1,0.1-0.2,0.1-0.2,0.1l0.6,1.2l2-0.8c0.5,0.8,1,1.5,1.6,2.2c-0.4,0.4-1,1.1-1.3,1.4
		C46,42.2,46,42.3,46,42.3l0.9,1l1.7-1.3c0.7,0.6,1.4,1.2,2.1,1.6c-0.3,0.5-0.6,1.3-0.8,1.7c-0.1,0.1-0.1,0.2-0.1,0.2l1.2,0.7
		l1.3-1.7c0.8,0.4,1.6,0.7,2.5,1c-0.1,0.6-0.2,1.4-0.3,1.8c0,0.1,0,0.2,0,0.2l1.3,0.3l0.7-2c0.9,0.1,1.8,0.2,2.7,0.2
		c0.1,0.6,0.2,1.5,0.2,1.9c0,0.1,0,0.2,0,0.2l1.3,0l0.1-2.2c0.9-0.1,1.8-0.3,2.6-0.5c0.2,0.5,0.6,1.3,0.7,1.7
		c0.1,0.1,0.1,0.2,0.1,0.2l1.3-0.4L65,44.8c0.8-0.3,1.6-0.8,2.4-1.3c0.4,0.4,0.9,1.1,1.2,1.5c0.1,0.1,0.1,0.2,0.1,0.2l1.1-0.8
		l-1.1-1.9c0.5-0.4,1-0.8,1.4-1.3c0.2-0.2,0.4-0.4,0.5-0.6c0.5,0.3,1.2,0.8,1.5,1.1c0.1,0.1,0.2,0.1,0.2,0.1l0.9-1l-1.5-1.5
		c0.5-0.7,1-1.5,1.3-2.3c0.5,0.2,1.4,0.5,1.8,0.6c0.1,0,0.2,0.1,0.2,0.1l0.5-1.2l-1.9-1c0.3-0.9,0.5-1.7,0.6-2.6
		c0.6,0,1.5,0,1.9,0.1c0.1,0,0.2,0,0.2,0l0.2-1.3L74.5,31z M72.9,30.3c0.1,3.2-0.9,6.2-2.7,8.5l-6-4.8c0.6-1,1-2.1,1-3.4l7.7-0.8
		C72.9,29.9,72.9,30.1,72.9,30.3z M59.3,44.4c-3.2,0.1-6.2-1-8.6-2.8l4.9-6c1,0.6,2.1,1,3.4,1l0.8,7.7
		C59.6,44.4,59.5,44.4,59.3,44.4z M45.3,32.6l7.7-0.8c0.2,1.2,0.8,2.3,1.7,3.1l-4.9,6C47.4,38.8,45.8,35.9,45.3,32.6z M45.2,30.9
		c-0.1-3.2,1-6.2,2.7-8.6l6,4.9c-0.6,1-1,2.1-1,3.4l-7.7,0.8C45.2,31.2,45.2,31,45.2,30.9z M59.1,35.2c-2.5,0.1-4.6-2-4.7-4.5
		s2-4.6,4.5-4.7c2.5-0.1,4.6,2,4.7,4.5S61.7,35.1,59.1,35.2z M58.7,16.7c3.2-0.1,6.2,0.9,8.6,2.7l-4.8,6c-1-0.6-2.1-1-3.4-1
		l-0.8-7.7C58.4,16.7,58.6,16.7,58.7,16.7z M72.7,28.5l-7.7,0.8c-0.2-1.2-0.8-2.3-1.7-3.1l4.8-6C70.6,22.3,72.2,25.2,72.7,28.5z
		 M57,16.9l0.8,7.7c-1.2,0.2-2.3,0.8-3.1,1.7l-6-4.9C50.8,19,53.7,17.4,57,16.9z M61,44.3l-0.8-7.7c1.2-0.2,2.3-0.8,3.2-1.7l6,4.8
		C67.3,42.2,64.3,43.8,61,44.3z"/>
	<path class="st111" d="M147.8,55.9c0.1-0.3,0.1-0.5,0.2-0.8c0.1-0.6,0.2-1.2,0.2-1.8c0.5,0,1.4-0.1,1.8-0.1c0.1,0,0.2,0,0.2,0l0-1.3
		l-2-0.2c0-0.9-0.2-1.7-0.4-2.5c0.5-0.2,1.3-0.5,1.7-0.6c0.1,0,0.2-0.1,0.2-0.1l-0.3-1.2l-2,0.3c-0.3-0.8-0.6-1.6-1.1-2.3
		c0.4-0.3,1.1-0.8,1.4-1c0.1-0.1,0.2-0.1,0.2-0.1l-0.7-1.1l-1.8,0.9c-0.5-0.7-1.1-1.3-1.7-1.9c0.3-0.4,0.8-1.1,1.1-1.4
		c0.1-0.1,0.1-0.2,0.1-0.2l-0.9-0.9l-1.5,1.4c-0.7-0.5-1.4-1-2.1-1.4c0.2-0.5,0.5-1.3,0.6-1.7c0-0.1,0.1-0.2,0.1-0.2l-1.1-0.6
		l-1.1,1.7c-0.8-0.3-1.6-0.5-2.5-0.7c0-0.5,0.1-1.4,0.2-1.8c0-0.1,0-0.2,0-0.2l-1.3-0.2l-0.5,2c-0.9-0.1-1.8-0.1-2.6,0
		c-0.1-0.5-0.3-1.4-0.4-1.7c0-0.1,0-0.2,0-0.2l-1.3,0.1l0.1,2c-0.8,0.2-1.7,0.4-2.4,0.7c-0.3-0.5-0.6-1.2-0.8-1.6
		c-0.1-0.1-0.1-0.2-0.1-0.2l-1.2,0.5l0.6,2c-0.5,0.3-1,0.6-1.5,0.9c-0.2,0.2-0.4,0.3-0.6,0.5c-0.4-0.4-1-1-1.2-1.3
		c-0.1-0.1-0.2-0.2-0.2-0.2l-1,0.8l1.2,1.7c-0.6,0.6-1.2,1.2-1.7,1.9c-0.5-0.3-1.2-0.7-1.5-0.9c-0.1-0.1-0.2-0.1-0.2-0.1l-0.7,1.1
		l1.6,1.3c-0.4,0.7-0.8,1.5-1,2.3c-0.5-0.1-1.4-0.3-1.7-0.4c-0.1,0-0.2,0-0.2,0l-0.4,1.2l1.9,0.8c-0.1,0.2-0.1,0.5-0.1,0.7
		c-0.1,0.6-0.2,1.2-0.2,1.8c-0.5,0-1.4,0.1-1.8,0.1c-0.1,0-0.2,0-0.2,0l0,1.3l2,0.2c0,0.9,0.2,1.7,0.4,2.5c-0.5,0.2-1.3,0.5-1.7,0.6
		c-0.1,0-0.2,0.1-0.2,0.1l0.3,1.2l2-0.3c0.3,0.8,0.6,1.6,1.1,2.3c-0.4,0.3-1.1,0.8-1.4,1c-0.1,0.1-0.2,0.1-0.2,0.1l0.7,1.1l1.8-0.9
		c0.5,0.7,1.1,1.3,1.7,1.9c-0.3,0.4-0.8,1.1-1.1,1.4c-0.1,0.1-0.1,0.2-0.1,0.2l0.9,0.9l1.5-1.4c0.7,0.5,1.4,1,2.2,1.4
		c-0.2,0.5-0.5,1.3-0.6,1.7c0,0.1-0.1,0.2-0.1,0.2l1.1,0.6l1.1-1.8c0.8,0.3,1.6,0.5,2.5,0.7c0,0.5-0.1,1.4-0.2,1.8
		c0,0.1,0,0.2,0,0.2l1.3,0.2l0.5-2c0.9,0.1,1.7,0.1,2.6,0c0.1,0.5,0.3,1.4,0.4,1.7c0,0.1,0,0.2,0,0.2l1.3-0.1l-0.1-2
		c0.8-0.2,1.7-0.4,2.4-0.7c0.3,0.5,0.6,1.2,0.8,1.6c0.1,0.1,0.1,0.2,0.1,0.2l1.2-0.5l-0.6-2c0.5-0.3,1-0.6,1.5-0.9
		c0.2-0.1,0.4-0.3,0.6-0.4c0.4,0.4,1,1,1.2,1.3c0.1,0.1,0.2,0.2,0.2,0.2l1-0.8l-1.2-1.7c0.6-0.6,1.2-1.2,1.7-1.9
		c0.5,0.3,1.2,0.7,1.5,0.9c0.1,0.1,0.2,0.1,0.2,0.1l0.7-1.1l-1.6-1.3c0.4-0.7,0.8-1.5,1.1-2.3c0.5,0.1,1.3,0.3,1.7,0.4
		c0.1,0,0.2,0,0.2,0l0.4-1.2L147.8,55.9z M146.5,54.9c-0.5,3-2,5.6-4.1,7.4l-4.7-5.6c0.8-0.8,1.3-1.8,1.6-2.9l7.3,0.7
		C146.5,54.6,146.5,54.7,146.5,54.9z M131.2,65.5c-3-0.5-5.6-2.1-7.5-4.2l5.7-4.6c0.8,0.8,1.8,1.4,2.9,1.6l-0.7,7.3
		C131.4,65.6,131.3,65.6,131.2,65.5z M120.3,51.9l7.3,0.7c0,1.2,0.3,2.3,1,3.2l-5.7,4.6C121.1,58,120.2,55,120.3,51.9z M120.5,50.3
		c0.5-3,2.1-5.6,4.2-7.5l4.6,5.6c-0.8,0.8-1.4,1.8-1.6,2.9l-7.3-0.7C120.5,50.5,120.5,50.4,120.5,50.3z M132.7,56.9
		c-2.4-0.4-3.9-2.7-3.5-5.1c0.4-2.4,2.7-3.9,5.1-3.5c2.4,0.4,3.9,2.7,3.5,5.1C137.4,55.7,135.1,57.3,132.7,56.9z M135.8,39.6
		c3,0.5,5.6,2,7.5,4.1l-5.6,4.7c-0.8-0.8-1.8-1.3-2.9-1.6l0.7-7.3C135.5,39.6,135.7,39.6,135.8,39.6z M146.6,53.2l-7.3-0.7
		c0-1.2-0.4-2.3-1-3.2l5.6-4.7C145.8,47.1,146.8,50.1,146.6,53.2z M134.2,39.4l-0.7,7.3c-1.2,0-2.3,0.4-3.2,1l-4.7-5.6
		C128,40.2,131,39.3,134.2,39.4z M132.7,65.7l0.7-7.3c1.2,0,2.3-0.4,3.3-1l4.7,5.6C139,64.9,135.9,65.9,132.7,65.7z"/>
	<path class="st111" d="M154,84.7c0-0.2,0-0.4,0.1-0.6c0-0.5,0-0.9,0-1.4c0.4-0.1,1.1-0.2,1.4-0.2c0.1,0,0.2,0,0.2,0l-0.1-1l-1.6,0
		c-0.1-0.7-0.3-1.3-0.5-1.9c0.4-0.2,1-0.5,1.2-0.6c0.1,0,0.2-0.1,0.2-0.1l-0.3-0.9l-1.5,0.4c-0.3-0.6-0.6-1.2-1-1.7
		c0.3-0.3,0.8-0.7,1-0.9c0.1-0.1,0.1-0.1,0.1-0.1l-0.6-0.8l-1.4,0.8c-0.4-0.5-0.9-1-1.4-1.4c0.2-0.4,0.6-0.9,0.7-1.2
		c0.1-0.1,0.1-0.1,0.1-0.1l-0.8-0.6l-1.1,1.2c-0.6-0.4-1.1-0.7-1.8-0.9c0.1-0.4,0.3-1,0.4-1.3c0-0.1,0-0.2,0-0.2l-0.9-0.4l-0.7,1.4
		c-0.6-0.2-1.3-0.3-1.9-0.4c0-0.4,0-1.1,0-1.4c0-0.1,0-0.2,0-0.2l-1-0.1l-0.3,1.6c-0.7,0-1.4,0.1-2,0.2c-0.1-0.4-0.3-1-0.4-1.3
		c0-0.1,0-0.2,0-0.2l-1,0.2l0.2,1.6c-0.6,0.2-1.2,0.4-1.8,0.7c-0.2-0.3-0.6-0.9-0.8-1.2c-0.1-0.1-0.1-0.1-0.1-0.1l-0.9,0.5l0.6,1.5
		c-0.4,0.3-0.7,0.5-1.1,0.8c-0.2,0.1-0.3,0.3-0.5,0.4c-0.3-0.3-0.8-0.7-1.1-0.9c-0.1-0.1-0.1-0.1-0.1-0.1l-0.7,0.7l1,1.2
		c-0.4,0.5-0.8,1-1.1,1.6c-0.4-0.2-1-0.4-1.3-0.6c-0.1,0-0.2-0.1-0.2-0.1l-0.5,0.9l1.3,0.9c-0.3,0.6-0.5,1.2-0.6,1.9
		c-0.4-0.1-1.1-0.1-1.4-0.2c-0.1,0-0.2,0-0.2,0l-0.2,1l1.5,0.5c0,0.2,0,0.4-0.1,0.6c0,0.5,0,0.9,0,1.4c-0.4,0.1-1.1,0.2-1.4,0.2
		c-0.1,0-0.2,0-0.2,0l0.1,1l1.6,0c0.1,0.7,0.3,1.3,0.5,1.9c-0.4,0.2-1,0.5-1.2,0.6c-0.1,0-0.2,0.1-0.2,0.1l0.3,0.9l1.5-0.4
		c0.3,0.6,0.6,1.2,1,1.7c-0.3,0.3-0.8,0.7-1,0.9c-0.1,0.1-0.1,0.1-0.1,0.1l0.6,0.8l1.4-0.8c0.4,0.5,0.9,1,1.4,1.4
		c-0.2,0.4-0.6,0.9-0.7,1.2c-0.1,0.1-0.1,0.1-0.1,0.1l0.8,0.6l1.1-1.2c0.6,0.4,1.2,0.7,1.8,0.9c-0.1,0.4-0.3,1-0.4,1.3
		c0,0.1,0,0.2,0,0.2l0.9,0.4l0.7-1.4c0.6,0.2,1.3,0.3,1.9,0.4c0,0.4,0,1.1,0,1.4c0,0.1,0,0.2,0,0.2l1,0.1l0.3-1.6
		c0.7,0,1.3-0.1,2-0.2c0.1,0.4,0.3,1,0.4,1.3c0,0.1,0,0.2,0,0.2l1-0.2l-0.2-1.6c0.6-0.2,1.2-0.4,1.8-0.7c0.2,0.3,0.6,0.9,0.8,1.2
		c0.1,0.1,0.1,0.1,0.1,0.1l0.9-0.5l-0.6-1.5c0.4-0.3,0.8-0.5,1.1-0.8c0.1-0.1,0.3-0.3,0.4-0.4c0.3,0.3,0.8,0.7,1.1,0.9
		c0.1,0.1,0.1,0.1,0.1,0.1l0.7-0.7l-1-1.2c0.4-0.5,0.8-1,1.1-1.6c0.4,0.2,1,0.4,1.3,0.6c0.1,0,0.2,0.1,0.2,0.1l0.5-0.9l-1.3-0.9
		c0.3-0.6,0.5-1.2,0.6-1.9c0.4,0.1,1.1,0.1,1.4,0.2c0.1,0,0.2,0,0.2,0l0.2-1L154,84.7z M152.9,84c-0.2,2.3-1.2,4.4-2.6,6.1l-4-4
		c0.5-0.7,0.9-1.5,1-2.4l5.7,0C153,83.7,152.9,83.9,152.9,84z M141.9,93.3c-2.4-0.2-4.5-1.2-6.1-2.7l4-4c0.7,0.5,1.5,0.9,2.4,1
		l0,5.7C142.1,93.3,142,93.3,141.9,93.3z M132.6,83.6l5.7,0c0.1,0.9,0.4,1.7,1,2.4l-4,4C133.6,88.3,132.7,86,132.6,83.6z
		 M132.6,82.3c0.2-2.4,1.2-4.5,2.7-6.1l4,4c-0.5,0.7-0.9,1.5-1,2.4l-5.7,0C132.6,82.5,132.6,82.4,132.6,82.3z M142.5,86.5
		c-1.9-0.1-3.2-1.8-3.1-3.6c0.1-1.9,1.8-3.2,3.6-3.1c1.9,0.1,3.2,1.8,3.1,3.6C146,85.3,144.3,86.7,142.5,86.5z M143.6,73
		c2.4,0.2,4.5,1.2,6.1,2.6l-4,4c-0.7-0.5-1.5-0.9-2.4-1l0-5.7C143.4,73,143.5,73,143.6,73z M153,82.7l-5.7,0c-0.1-0.9-0.4-1.7-1-2.4
		l4-4C151.9,78,152.9,80.2,153,82.7z M142.3,73l0,5.7c-0.9,0.1-1.7,0.4-2.4,1l-4-4C137.6,74,139.9,73.1,142.3,73z M143.2,93.4l0-5.7
		c0.9-0.1,1.8-0.4,2.4-1l4,4C147.9,92.3,145.6,93.3,143.2,93.4z"/>
	<path class="st111" d="M169.4,53.4c0-0.2,0-0.3,0-0.5c0-0.4,0-0.7,0-1.1c0.3,0,0.8-0.1,1.1-0.2c0.1,0,0.1,0,0.1,0l0-0.8l-1.2,0
		c-0.1-0.5-0.2-1-0.4-1.5c0.3-0.1,0.7-0.3,1-0.4c0.1,0,0.1-0.1,0.1-0.1l-0.3-0.7l-1.2,0.3c-0.2-0.5-0.5-0.9-0.8-1.3
		c0.2-0.2,0.6-0.5,0.8-0.7c0.1-0.1,0.1-0.1,0.1-0.1l-0.5-0.6l-1,0.6c-0.3-0.4-0.7-0.7-1.1-1.1c0.2-0.3,0.4-0.7,0.6-0.9
		c0-0.1,0.1-0.1,0.1-0.1l-0.6-0.5l-0.8,0.9c-0.4-0.3-0.9-0.5-1.4-0.7c0.1-0.3,0.2-0.8,0.3-1c0-0.1,0-0.1,0-0.1l-0.7-0.3l-0.5,1.1
		c-0.5-0.1-1-0.2-1.5-0.3c0-0.3,0-0.8,0-1.1c0-0.1,0-0.1,0-0.1l-0.8-0.1l-0.2,1.2c-0.5,0-1.1,0.1-1.6,0.2c-0.1-0.3-0.2-0.8-0.3-1
		c0-0.1,0-0.1,0-0.1l-0.7,0.2l0.2,1.2c-0.5,0.2-1,0.3-1.4,0.6c-0.2-0.3-0.5-0.7-0.6-0.9c0-0.1-0.1-0.1-0.1-0.1l-0.7,0.4l0.5,1.1
		c-0.3,0.2-0.6,0.4-0.8,0.6c-0.1,0.1-0.2,0.2-0.4,0.3c-0.2-0.2-0.6-0.5-0.8-0.7c-0.1-0.1-0.1-0.1-0.1-0.1l-0.5,0.5l0.8,0.9
		c-0.3,0.4-0.6,0.8-0.9,1.2c-0.3-0.1-0.8-0.3-1-0.4c-0.1,0-0.1-0.1-0.1-0.1l-0.4,0.7l1,0.7c-0.2,0.5-0.4,0.9-0.5,1.4
		c-0.3,0-0.8-0.1-1.1-0.1c-0.1,0-0.1,0-0.1,0l-0.2,0.7l1.2,0.4c0,0.1,0,0.3,0,0.4c0,0.4,0,0.7,0,1.1c-0.3,0-0.8,0.1-1.1,0.2
		c-0.1,0-0.1,0-0.1,0l0.1,0.8l1.2,0c0.1,0.5,0.2,1,0.4,1.5c-0.3,0.1-0.7,0.4-1,0.5c-0.1,0-0.1,0.1-0.1,0.1l0.3,0.7l1.2-0.3
		c0.2,0.5,0.5,0.9,0.8,1.3c-0.2,0.2-0.6,0.5-0.8,0.7c-0.1,0.1-0.1,0.1-0.1,0.1l0.5,0.6l1-0.6c0.3,0.4,0.7,0.7,1.1,1
		c-0.2,0.3-0.4,0.7-0.6,0.9c0,0.1-0.1,0.1-0.1,0.1l0.6,0.5l0.8-0.9c0.4,0.3,0.9,0.5,1.4,0.7c-0.1,0.3-0.2,0.8-0.3,1
		c0,0.1,0,0.1,0,0.1l0.7,0.3l0.5-1.1c0.5,0.1,1,0.2,1.5,0.3c0,0.3,0,0.8,0,1.1c0,0.1,0,0.1,0,0.1l0.8,0.1l0.2-1.2
		c0.5,0,1-0.1,1.5-0.1c0.1,0.3,0.2,0.8,0.3,1c0,0.1,0,0.1,0,0.1l0.7-0.2l-0.1-1.2c0.5-0.1,1-0.3,1.4-0.6c0.2,0.3,0.5,0.7,0.6,0.9
		c0,0.1,0.1,0.1,0.1,0.1l0.7-0.4l-0.5-1.1c0.3-0.2,0.6-0.4,0.9-0.7c0.1-0.1,0.2-0.2,0.3-0.3c0.2,0.2,0.6,0.5,0.8,0.7
		c0.1,0.1,0.1,0.1,0.1,0.1l0.5-0.5l-0.8-0.9c0.3-0.4,0.6-0.8,0.9-1.2c0.3,0.1,0.8,0.3,1,0.4c0.1,0,0.1,0.1,0.1,0.1l0.4-0.7l-1-0.7
		c0.2-0.5,0.4-0.9,0.5-1.4c0.3,0,0.8,0.1,1.1,0.1c0.1,0,0.1,0,0.1,0l0.2-0.7L169.4,53.4z M168.6,52.8c-0.1,1.8-0.9,3.4-2,4.7
		l-3.1-3.1c0.4-0.5,0.7-1.1,0.8-1.8l4.4,0C168.6,52.7,168.6,52.7,168.6,52.8z M160.1,60c-1.8-0.1-3.5-0.9-4.7-2.1l3.1-3.1
		c0.5,0.4,1.1,0.7,1.8,0.8l0,4.4C160.2,60.1,160.2,60.1,160.1,60z M152.9,52.5l4.4,0c0.1,0.7,0.3,1.3,0.8,1.9l-3.1,3.1
		C153.7,56.1,152.9,54.4,152.9,52.5z M152.9,51.6c0.1-1.8,0.9-3.4,2-4.7L158,50c-0.4,0.5-0.7,1.1-0.8,1.8l-4.4,0
		C152.9,51.7,152.9,51.7,152.9,51.6z M160.5,54.8c-1.4-0.1-2.5-1.4-2.4-2.8c0.1-1.4,1.4-2.5,2.8-2.4s2.5,1.4,2.4,2.8
		S161.9,54.9,160.5,54.8z M161.4,44.4c1.8,0.1,3.4,0.9,4.7,2l-3.1,3.1c-0.5-0.4-1.1-0.7-1.8-0.8l0-4.4
		C161.2,44.4,161.3,44.4,161.4,44.4z M168.6,51.8l-4.4,0c-0.1-0.7-0.3-1.3-0.8-1.8l3.1-3.1C167.7,48.2,168.5,50,168.6,51.8z
		 M160.4,44.4l0,4.4c-0.7,0.1-1.3,0.3-1.8,0.8l-3.1-3.1C156.8,45.2,158.5,44.4,160.4,44.4z M161,60.1l0-4.4c0.7-0.1,1.4-0.3,1.9-0.8
		L166,58C164.7,59.2,162.9,60,161,60.1z"/>
	<path class="st111" d="M25.8,12.5c0-0.1,0-0.3,0-0.4c0-0.3,0-0.6,0-0.9c0.3,0,0.7-0.1,0.9-0.1c0.1,0,0.1,0,0.1,0l0-0.7l-1.1,0
		c-0.1-0.4-0.2-0.9-0.3-1.3c0.3-0.1,0.7-0.3,0.8-0.4c0.1,0,0.1,0,0.1,0l-0.2-0.6l-1,0.3C25,7.8,24.8,7.4,24.5,7
		c0.2-0.2,0.5-0.5,0.7-0.6c0.1,0,0.1-0.1,0.1-0.1l-0.4-0.5L24,6.4c-0.3-0.3-0.6-0.6-1-0.9c0.2-0.2,0.4-0.6,0.5-0.8
		c0-0.1,0.1-0.1,0.1-0.1L23,4.2L22.3,5c-0.4-0.2-0.8-0.4-1.2-0.6c0.1-0.3,0.2-0.7,0.3-0.9c0-0.1,0-0.1,0-0.1l-0.6-0.2l-0.5,1
		c-0.4-0.1-0.9-0.2-1.3-0.3c0-0.3,0-0.7,0-0.9c0-0.1,0-0.1,0-0.1l-0.7-0.1l-0.2,1.1c-0.5,0-0.9,0-1.4,0.1c-0.1-0.3-0.2-0.7-0.3-0.9
		c0-0.1,0-0.1,0-0.1L15.8,3l0.1,1.1c-0.4,0.1-0.8,0.3-1.2,0.5c-0.2-0.2-0.4-0.6-0.5-0.8c0-0.1-0.1-0.1-0.1-0.1l-0.6,0.3l0.4,1
		c-0.3,0.2-0.5,0.4-0.7,0.6c-0.1,0.1-0.2,0.2-0.3,0.3c-0.2-0.2-0.6-0.5-0.7-0.6c-0.1,0-0.1-0.1-0.1-0.1l-0.5,0.5l0.7,0.8
		c-0.3,0.3-0.5,0.7-0.8,1.1c-0.3-0.1-0.7-0.3-0.9-0.4c-0.1,0-0.1,0-0.1,0l-0.3,0.6l0.9,0.6c-0.2,0.4-0.3,0.8-0.4,1.3
		c-0.3,0-0.7-0.1-0.9-0.1c-0.1,0-0.1,0-0.1,0l-0.1,0.7l1,0.3c0,0.1,0,0.3,0,0.4c0,0.3,0,0.6,0,1c-0.3,0-0.7,0.1-0.9,0.1
		c-0.1,0-0.1,0-0.1,0l0,0.7l1.1,0c0.1,0.4,0.2,0.9,0.3,1.3c-0.3,0.1-0.7,0.3-0.8,0.4c-0.1,0-0.1,0-0.1,0l0.2,0.6l1-0.3
		c0.2,0.4,0.4,0.8,0.7,1.2c-0.2,0.2-0.5,0.5-0.7,0.6c-0.1,0-0.1,0.1-0.1,0.1l0.4,0.5l0.9-0.6c0.3,0.3,0.6,0.6,1,0.9
		c-0.2,0.2-0.4,0.6-0.5,0.8c0,0.1-0.1,0.1-0.1,0.1l0.5,0.4l0.7-0.8c0.4,0.2,0.8,0.4,1.2,0.6c-0.1,0.3-0.2,0.7-0.3,0.9
		c0,0.1,0,0.1,0,0.1l0.6,0.2l0.5-1c0.4,0.1,0.9,0.2,1.3,0.2c0,0.3,0,0.7,0,0.9c0,0.1,0,0.1,0,0.1l0.7,0.1l0.2-1.1
		c0.5,0,0.9,0,1.3-0.1c0.1,0.3,0.2,0.7,0.3,0.9c0,0.1,0,0.1,0,0.1l0.7-0.1l-0.1-1.1c0.4-0.1,0.8-0.3,1.2-0.5
		c0.2,0.2,0.4,0.6,0.5,0.8c0,0.1,0.1,0.1,0.1,0.1l0.6-0.3l-0.4-1c0.3-0.2,0.5-0.4,0.8-0.6c0.1-0.1,0.2-0.2,0.3-0.3
		c0.2,0.2,0.6,0.5,0.7,0.6c0.1,0,0.1,0.1,0.1,0.1l0.5-0.5l-0.7-0.8c0.3-0.3,0.6-0.7,0.8-1.1c0.3,0.1,0.7,0.3,0.9,0.4
		c0.1,0,0.1,0,0.1,0l0.3-0.6l-0.9-0.6c0.2-0.4,0.3-0.8,0.4-1.3c0.3,0,0.7,0.1,0.9,0.1c0.1,0,0.1,0,0.1,0l0.1-0.7L25.8,12.5z
		 M25.1,12c-0.1,1.6-0.8,3-1.8,4.1l-2.7-2.7c0.4-0.4,0.6-1,0.7-1.6l3.8,0C25.1,11.9,25.1,11.9,25.1,12z M17.7,18.4
		c-1.6-0.1-3-0.8-4.1-1.8l2.7-2.7c0.4,0.4,1,0.6,1.6,0.7l0,3.8C17.8,18.4,17.7,18.4,17.7,18.4z M11.3,11.8l3.8,0
		c0.1,0.6,0.3,1.2,0.7,1.6l-2.7,2.7C12,14.9,11.4,13.4,11.3,11.8z M11.3,10.9c0.1-1.6,0.8-3,1.8-4.1l2.7,2.7c-0.4,0.4-0.6,1-0.7,1.6
		l-3.8,0C11.3,11.1,11.3,11,11.3,10.9z M18,13.7c-1.3-0.1-2.2-1.2-2.1-2.5c0.1-1.3,1.2-2.2,2.5-2.1c1.3,0.1,2.2,1.2,2.1,2.5
		C20.4,12.9,19.3,13.9,18,13.7z M18.8,4.6c1.6,0.1,3,0.8,4.1,1.8l-2.7,2.7c-0.4-0.4-1-0.6-1.6-0.7l0-3.8C18.6,4.6,18.7,4.6,18.8,4.6
		z M25.1,11.2l-3.8,0c-0.1-0.6-0.3-1.2-0.7-1.6l2.7-2.7C24.4,8,25,9.5,25.1,11.2z M17.9,4.6l0,3.8c-0.6,0.1-1.2,0.3-1.6,0.7
		l-2.7-2.7C14.7,5.3,16.3,4.6,17.9,4.6z M18.5,18.4l0-3.8c0.6-0.1,1.2-0.3,1.6-0.7l2.7,2.7C21.7,17.6,20.1,18.3,18.5,18.4z"/>
	<path class="st111" d="M43.4,18.8c0-0.1,0-0.3,0-0.4c0-0.3,0-0.7,0-1c0.3,0,0.8-0.1,1-0.1c0.1,0,0.1,0,0.1,0l0-0.7l-1.1,0
		c-0.1-0.5-0.2-0.9-0.3-1.4c0.3-0.1,0.7-0.3,0.9-0.4c0.1,0,0.1-0.1,0.1-0.1L43.8,14l-1.1,0.3c-0.2-0.4-0.4-0.8-0.7-1.2
		c0.2-0.2,0.6-0.5,0.7-0.6c0.1,0,0.1-0.1,0.1-0.1l-0.4-0.6l-1,0.6c-0.3-0.4-0.6-0.7-1-1c0.2-0.2,0.4-0.6,0.5-0.8
		c0-0.1,0.1-0.1,0.1-0.1l-0.6-0.4l-0.8,0.8c-0.4-0.2-0.8-0.5-1.2-0.6c0.1-0.3,0.2-0.7,0.3-0.9c0-0.1,0-0.1,0-0.1L38.1,9l-0.5,1
		c-0.4-0.1-0.9-0.2-1.4-0.3c0-0.3,0-0.8,0-1c0-0.1,0-0.1,0-0.1l-0.7-0.1l-0.2,1.1c-0.5,0-1,0-1.4,0.1c-0.1-0.3-0.2-0.7-0.3-0.9
		c0-0.1,0-0.1,0-0.1l-0.7,0.1l0.1,1.1c-0.4,0.1-0.9,0.3-1.3,0.5c-0.2-0.2-0.4-0.6-0.5-0.8c0-0.1-0.1-0.1-0.1-0.1L30.5,10l0.4,1
		c-0.3,0.2-0.5,0.4-0.8,0.6c-0.1,0.1-0.2,0.2-0.3,0.3c-0.2-0.2-0.6-0.5-0.7-0.6c-0.1,0-0.1-0.1-0.1-0.1l-0.5,0.5l0.7,0.9
		c-0.3,0.4-0.6,0.7-0.8,1.1c-0.3-0.1-0.7-0.3-0.9-0.4c-0.1,0-0.1,0-0.1,0l-0.3,0.6l0.9,0.6c-0.2,0.4-0.3,0.9-0.4,1.3
		c-0.3,0-0.8-0.1-1-0.1c-0.1,0-0.1,0-0.1,0l-0.2,0.7l1.1,0.3c0,0.1,0,0.3,0,0.4c0,0.3,0,0.7,0,1c-0.3,0-0.7,0.1-1,0.2
		c-0.1,0-0.1,0-0.1,0l0,0.7l1.1,0c0.1,0.5,0.2,0.9,0.3,1.4c-0.3,0.1-0.7,0.3-0.9,0.4c-0.1,0-0.1,0.1-0.1,0.1l0.2,0.7l1.1-0.3
		c0.2,0.4,0.4,0.8,0.7,1.2c-0.2,0.2-0.6,0.5-0.7,0.6c-0.1,0-0.1,0.1-0.1,0.1l0.4,0.6l1-0.6c0.3,0.4,0.7,0.7,1,1
		c-0.2,0.2-0.4,0.6-0.5,0.8c0,0.1-0.1,0.1-0.1,0.1l0.6,0.4l0.8-0.8c0.4,0.2,0.8,0.5,1.2,0.6c-0.1,0.3-0.2,0.7-0.3,0.9
		c0,0.1,0,0.1,0,0.1l0.7,0.2l0.5-1c0.4,0.1,0.9,0.2,1.4,0.3c0,0.3,0,0.8,0,1c0,0.1,0,0.1,0,0.1l0.7,0.1l0.2-1.1c0.5,0,0.9,0,1.4-0.1
		c0.1,0.3,0.2,0.7,0.3,0.9c0,0.1,0,0.1,0,0.1l0.7-0.1l-0.1-1.1c0.4-0.1,0.9-0.3,1.3-0.5c0.2,0.2,0.4,0.6,0.5,0.8
		c0,0.1,0.1,0.1,0.1,0.1l0.6-0.3l-0.4-1c0.3-0.2,0.5-0.4,0.8-0.6c0.1-0.1,0.2-0.2,0.3-0.3c0.2,0.2,0.6,0.5,0.7,0.6
		c0.1,0,0.1,0.1,0.1,0.1l0.5-0.5l-0.7-0.9c0.3-0.4,0.6-0.7,0.8-1.1c0.3,0.1,0.7,0.3,0.9,0.4c0.1,0,0.1,0,0.1,0l0.3-0.6L42.8,21
		c0.2-0.4,0.3-0.9,0.5-1.3c0.3,0,0.8,0.1,1,0.1c0.1,0,0.1,0,0.1,0l0.2-0.7L43.4,18.8z M42.6,18.3c-0.1,1.7-0.8,3.1-1.9,4.3l-2.8-2.8
		c0.4-0.5,0.6-1,0.7-1.7l4,0C42.6,18.1,42.6,18.2,42.6,18.3z M34.9,24.9c-1.7-0.1-3.2-0.8-4.3-1.9l2.8-2.8c0.5,0.4,1,0.6,1.7,0.7
		l0,4C35,24.9,34.9,24.9,34.9,24.9z M28.2,18l4,0c0.1,0.6,0.3,1.2,0.7,1.7l-2.8,2.8C29,21.3,28.3,19.8,28.2,18z M28.3,17.2
		c0.1-1.7,0.8-3.2,1.9-4.3l2.8,2.8c-0.4,0.5-0.6,1-0.7,1.7l-4,0C28.2,17.3,28.2,17.2,28.3,17.2z M35.2,20.1
		c-1.3-0.1-2.3-1.3-2.2-2.6s1.3-2.3,2.6-2.2c1.3,0.1,2.3,1.3,2.2,2.6C37.7,19.2,36.6,20.2,35.2,20.1z M36,10.5
		c1.7,0.1,3.1,0.8,4.3,1.9l-2.8,2.8c-0.5-0.4-1-0.6-1.7-0.7l0-4C35.9,10.5,35.9,10.5,36,10.5z M42.6,17.4l-4,0
		c-0.1-0.6-0.3-1.2-0.7-1.7l2.8-2.8C41.9,14.1,42.6,15.7,42.6,17.4z M35.1,10.5l0,4c-0.6,0.1-1.2,0.3-1.7,0.7l-2.8-2.8
		C31.8,11.3,33.4,10.6,35.1,10.5z M35.7,24.9l0-4c0.6-0.1,1.2-0.3,1.7-0.7l2.8,2.8C39.1,24.2,37.5,24.9,35.7,24.9z"/>
	<path class="st111" d="M186.7,89.1c0-0.1,0-0.3,0-0.4c0-0.3,0-0.7,0-1c0.3,0,0.8-0.1,1-0.2c0.1,0,0.1,0,0.1,0l0-0.7l-1.2,0
		c-0.1-0.5-0.2-1-0.3-1.4c0.3-0.1,0.7-0.3,0.9-0.4c0.1,0,0.1-0.1,0.1-0.1l-0.3-0.7l-1.1,0.3c-0.2-0.4-0.5-0.9-0.7-1.3
		c0.2-0.2,0.6-0.5,0.8-0.7c0.1-0.1,0.1-0.1,0.1-0.1l-0.4-0.6l-1,0.6c-0.3-0.4-0.7-0.7-1.1-1c0.2-0.3,0.4-0.7,0.5-0.9
		c0-0.1,0.1-0.1,0.1-0.1l-0.6-0.4l-0.8,0.9c-0.4-0.3-0.9-0.5-1.3-0.7c0.1-0.3,0.2-0.8,0.3-1c0-0.1,0-0.1,0-0.1l-0.7-0.3l-0.5,1.1
		c-0.5-0.1-1-0.2-1.4-0.3c0-0.3,0-0.8,0-1c0-0.1,0-0.1,0-0.1l-0.7-0.1l-0.2,1.2c-0.5,0-1,0.1-1.5,0.1c-0.1-0.3-0.2-0.8-0.3-1
		c0-0.1,0-0.1,0-0.1l-0.7,0.2l0.1,1.2c-0.5,0.1-0.9,0.3-1.4,0.6c-0.2-0.3-0.4-0.7-0.6-0.9c0-0.1-0.1-0.1-0.1-0.1l-0.6,0.4l0.5,1.1
		c-0.3,0.2-0.6,0.4-0.8,0.6c-0.1,0.1-0.2,0.2-0.3,0.3c-0.2-0.2-0.6-0.5-0.8-0.7c-0.1,0-0.1-0.1-0.1-0.1l-0.5,0.5l0.8,0.9
		c-0.3,0.4-0.6,0.8-0.9,1.2c-0.3-0.1-0.7-0.3-0.9-0.4c-0.1,0-0.1-0.1-0.1-0.1l-0.4,0.6l1,0.7c-0.2,0.4-0.4,0.9-0.5,1.4
		c-0.3,0-0.8-0.1-1-0.1c-0.1,0-0.1,0-0.1,0l-0.2,0.7l1.1,0.4c0,0.1,0,0.3,0,0.4c0,0.4,0,0.7,0,1.1c-0.3,0-0.8,0.1-1,0.2
		c-0.1,0-0.1,0-0.1,0l0,0.7l1.2,0c0.1,0.5,0.2,1,0.4,1.4c-0.3,0.1-0.7,0.3-0.9,0.4c-0.1,0-0.1,0.1-0.1,0.1l0.3,0.7l1.1-0.3
		c0.2,0.4,0.5,0.9,0.7,1.3c-0.2,0.2-0.6,0.5-0.8,0.7c-0.1,0.1-0.1,0.1-0.1,0.1l0.4,0.6l1-0.6c0.3,0.4,0.7,0.7,1.1,1
		c-0.2,0.3-0.4,0.7-0.5,0.9c0,0.1-0.1,0.1-0.1,0.1l0.6,0.4l0.8-0.9c0.4,0.3,0.9,0.5,1.3,0.7c-0.1,0.3-0.2,0.8-0.3,1
		c0,0.1,0,0.1,0,0.1l0.7,0.3l0.5-1.1c0.5,0.1,1,0.2,1.4,0.3c0,0.3,0,0.8,0,1c0,0.1,0,0.1,0,0.1l0.7,0.1l0.2-1.2c0.5,0,1-0.1,1.5-0.1
		c0.1,0.3,0.2,0.8,0.3,1c0,0.1,0,0.1,0,0.1l0.7-0.2l-0.1-1.2c0.5-0.1,0.9-0.3,1.4-0.6c0.2,0.3,0.4,0.7,0.6,0.9
		c0,0.1,0.1,0.1,0.1,0.1l0.6-0.3l-0.5-1.1c0.3-0.2,0.6-0.4,0.8-0.6c0.1-0.1,0.2-0.2,0.3-0.3c0.2,0.2,0.6,0.5,0.8,0.7
		c0.1,0.1,0.1,0.1,0.1,0.1l0.5-0.5l-0.8-0.9c0.3-0.4,0.6-0.8,0.9-1.2c0.3,0.1,0.7,0.3,0.9,0.4c0.1,0,0.1,0.1,0.1,0.1l0.4-0.6l-1-0.7
		c0.2-0.4,0.4-0.9,0.5-1.4c0.3,0,0.8,0.1,1,0.1c0.1,0,0.1,0,0.1,0l0.2-0.7L186.7,89.1z M185.8,88.6c-0.1,1.7-0.9,3.3-2,4.5l-3-3
		c0.4-0.5,0.7-1.1,0.7-1.8l4.2,0C185.8,88.4,185.8,88.5,185.8,88.6z M177.6,95.6c-1.8-0.1-3.3-0.9-4.5-2l3-3
		c0.5,0.4,1.1,0.7,1.8,0.8l0,4.2C177.8,95.6,177.7,95.6,177.6,95.6z M170.7,88.3l4.2,0c0.1,0.7,0.3,1.3,0.7,1.8l-3,3
		C171.4,91.8,170.7,90.1,170.7,88.3z M170.7,87.4c0.1-1.8,0.9-3.3,2-4.5l3,3c-0.4,0.5-0.7,1.1-0.8,1.8l-4.2,0
		C170.7,87.5,170.7,87.5,170.7,87.4z M178.1,90.5c-1.4-0.1-2.4-1.3-2.3-2.7c0.1-1.4,1.3-2.4,2.7-2.3c1.4,0.1,2.4,1.3,2.3,2.7
		S179.4,90.6,178.1,90.5z M178.9,80.4c1.8,0.1,3.3,0.9,4.5,2l-3,3c-0.5-0.4-1.1-0.7-1.8-0.7l0-4.2C178.7,80.4,178.8,80.4,178.9,80.4
		z M185.8,87.6l-4.2,0c-0.1-0.7-0.3-1.3-0.7-1.8l3-3C185,84.2,185.8,85.8,185.8,87.6z M177.9,80.4l0,4.2c-0.7,0.1-1.3,0.3-1.8,0.7
		l-3-3C174.4,81.2,176.1,80.5,177.9,80.4z M178.6,95.6l0-4.2c0.7-0.1,1.3-0.3,1.8-0.7l3,3C182.1,94.8,180.4,95.5,178.6,95.6z"/>
	<path class="st111" d="M173.1,74c0-0.2,0-0.3,0.1-0.5c0-0.4,0-0.7,0-1.1c0.3-0.1,0.9-0.1,1.1-0.2c0.1,0,0.1,0,0.1,0l-0.1-0.8l-1.3,0
		c-0.1-0.5-0.2-1-0.4-1.5c0.3-0.1,0.8-0.4,1-0.5c0.1,0,0.1-0.1,0.1-0.1l-0.3-0.7l-1.2,0.3c-0.2-0.5-0.5-0.9-0.8-1.4
		c0.3-0.2,0.6-0.6,0.8-0.7c0.1-0.1,0.1-0.1,0.1-0.1L172,66l-1.1,0.7c-0.4-0.4-0.7-0.8-1.2-1.1c0.2-0.3,0.5-0.7,0.6-0.9
		c0-0.1,0.1-0.1,0.1-0.1l-0.6-0.5l-0.9,0.9c-0.4-0.3-0.9-0.5-1.4-0.7c0.1-0.3,0.2-0.8,0.3-1.1c0-0.1,0-0.1,0-0.1l-0.7-0.3l-0.6,1.1
		c-0.5-0.1-1-0.2-1.6-0.3c0-0.3,0-0.9,0-1.1c0-0.1,0-0.1,0-0.1l-0.8-0.1l-0.2,1.3c-0.6,0-1.1,0.1-1.6,0.2c-0.1-0.3-0.3-0.8-0.3-1.1
		c0-0.1,0-0.1,0-0.1l-0.8,0.2l0.2,1.3c-0.5,0.2-1,0.4-1.5,0.6c-0.2-0.3-0.5-0.7-0.6-0.9c0-0.1-0.1-0.1-0.1-0.1l-0.7,0.4l0.5,1.2
		c-0.3,0.2-0.6,0.4-0.9,0.7c-0.1,0.1-0.2,0.2-0.4,0.3c-0.3-0.2-0.7-0.6-0.8-0.7c-0.1-0.1-0.1-0.1-0.1-0.1l-0.6,0.6l0.8,1
		c-0.3,0.4-0.7,0.8-0.9,1.3c-0.3-0.1-0.8-0.3-1-0.4c-0.1,0-0.1-0.1-0.1-0.1l-0.4,0.7l1.1,0.7c-0.2,0.5-0.4,1-0.5,1.5
		c-0.3,0-0.9-0.1-1.1-0.1c-0.1,0-0.1,0-0.1,0l-0.2,0.8l1.2,0.4c0,0.1,0,0.3,0,0.5c0,0.4,0,0.8,0,1.1c-0.3,0.1-0.9,0.1-1.1,0.2
		c-0.1,0-0.1,0-0.1,0l0.1,0.8l1.3,0c0.1,0.5,0.2,1,0.4,1.5c-0.3,0.1-0.8,0.4-1,0.5c-0.1,0-0.1,0.1-0.1,0.1l0.3,0.7l1.2-0.3
		c0.2,0.5,0.5,0.9,0.8,1.4c-0.3,0.2-0.6,0.6-0.8,0.7c-0.1,0.1-0.1,0.1-0.1,0.1l0.5,0.6l1.1-0.7c0.4,0.4,0.7,0.8,1.2,1.1
		c-0.2,0.3-0.5,0.7-0.6,0.9c0,0.1-0.1,0.1-0.1,0.1l0.6,0.5l0.9-0.9c0.5,0.3,0.9,0.5,1.4,0.7c-0.1,0.3-0.2,0.8-0.3,1.1
		c0,0.1,0,0.1,0,0.1l0.7,0.3l0.6-1.2c0.5,0.1,1,0.2,1.6,0.3c0,0.3,0,0.9,0,1.1c0,0.1,0,0.1,0,0.1l0.8,0.1l0.2-1.3
		c0.5,0,1.1-0.1,1.6-0.2c0.1,0.3,0.3,0.8,0.3,1.1c0,0.1,0,0.1,0,0.1l0.8-0.2l-0.2-1.3c0.5-0.2,1-0.4,1.5-0.6
		c0.2,0.3,0.5,0.7,0.6,0.9c0,0.1,0.1,0.1,0.1,0.1l0.7-0.4l-0.5-1.2c0.3-0.2,0.6-0.4,0.9-0.7c0.1-0.1,0.2-0.2,0.3-0.3
		c0.3,0.2,0.7,0.6,0.8,0.7c0.1,0.1,0.1,0.1,0.1,0.1l0.6-0.6l-0.8-1c0.3-0.4,0.7-0.8,0.9-1.3c0.3,0.1,0.8,0.4,1,0.5
		c0.1,0,0.1,0.1,0.1,0.1l0.4-0.7l-1.1-0.7c0.2-0.5,0.4-1,0.5-1.5c0.3,0,0.9,0.1,1.1,0.1c0.1,0,0.1,0,0.1,0l0.2-0.8L173.1,74z
		 M172.2,73.4c-0.2,1.9-0.9,3.6-2.1,4.9l-3.2-3.2c0.4-0.5,0.7-1.2,0.8-1.9l4.6,0C172.2,73.2,172.2,73.3,172.2,73.4z M163.4,80.9
		c-1.9-0.2-3.6-0.9-4.9-2.1l3.2-3.2c0.5,0.4,1.2,0.7,1.9,0.8l0,4.6C163.5,80.9,163.4,80.9,163.4,80.9z M155.8,73.1l4.6,0
		c0.1,0.7,0.4,1.4,0.8,1.9l-3.2,3.2C156.7,76.9,155.9,75,155.8,73.1z M155.8,72.1c0.2-1.9,0.9-3.6,2.1-4.9l3.2,3.2
		c-0.4,0.5-0.7,1.2-0.8,1.9l-4.6,0C155.8,72.3,155.8,72.2,155.8,72.1z M163.8,75.4c-1.5-0.1-2.6-1.4-2.5-2.9
		c0.1-1.5,1.4-2.6,2.9-2.5c1.5,0.1,2.6,1.4,2.5,2.9S165.3,75.6,163.8,75.4z M164.7,64.6c1.9,0.2,3.6,0.9,4.9,2.1l-3.2,3.2
		c-0.5-0.4-1.2-0.7-1.9-0.8l0-4.6C164.5,64.5,164.6,64.6,164.7,64.6z M172.2,72.4l-4.6,0c-0.1-0.7-0.4-1.4-0.8-1.9l3.2-3.2
		C171.3,68.6,172.1,70.4,172.2,72.4z M163.7,64.5l0,4.6c-0.7,0.1-1.4,0.4-1.9,0.8l-3.2-3.2C159.9,65.4,161.7,64.6,163.7,64.5z
		 M164.3,80.9l0-4.6c0.7-0.1,1.4-0.4,2-0.8l3.2,3.2C168.2,80.1,166.3,80.9,164.3,80.9z"/>
	<path class="st111" d="M115.4,51.8c0-0.1,0-0.3,0-0.4c0-0.3,0-0.6,0-0.9c0.3,0,0.7-0.1,0.9-0.1c0.1,0,0.1,0,0.1,0l0-0.6l-1,0
		c-0.1-0.4-0.2-0.8-0.3-1.2c0.2-0.1,0.6-0.3,0.8-0.4c0.1,0,0.1,0,0.1,0l-0.2-0.6l-1,0.3c-0.2-0.4-0.4-0.7-0.6-1.1
		c0.2-0.2,0.5-0.4,0.7-0.6c0,0,0.1-0.1,0.1-0.1l-0.4-0.5l-0.9,0.5c-0.3-0.3-0.6-0.6-0.9-0.9c0.1-0.2,0.4-0.6,0.5-0.7
		c0-0.1,0.1-0.1,0.1-0.1l-0.5-0.4l-0.7,0.7c-0.4-0.2-0.7-0.4-1.1-0.6c0.1-0.3,0.2-0.7,0.2-0.8c0-0.1,0-0.1,0-0.1l-0.6-0.2l-0.4,0.9
		c-0.4-0.1-0.8-0.2-1.2-0.2c0-0.3,0-0.7,0-0.9c0-0.1,0-0.1,0-0.1l-0.6,0l-0.2,1c-0.4,0-0.9,0-1.3,0.1c-0.1-0.3-0.2-0.6-0.3-0.8
		c0-0.1,0-0.1,0-0.1L106,43l0.1,1c-0.4,0.1-0.8,0.3-1.2,0.5c-0.1-0.2-0.4-0.6-0.5-0.7c0-0.1-0.1-0.1-0.1-0.1l-0.6,0.3l0.4,0.9
		c-0.2,0.2-0.5,0.3-0.7,0.5c-0.1,0.1-0.2,0.2-0.3,0.3c-0.2-0.2-0.5-0.4-0.7-0.6c-0.1,0-0.1-0.1-0.1-0.1l-0.4,0.4l0.6,0.8
		c-0.3,0.3-0.5,0.7-0.7,1c-0.2-0.1-0.6-0.3-0.8-0.4c-0.1,0-0.1,0-0.1,0l-0.3,0.5l0.8,0.6c-0.2,0.4-0.3,0.8-0.4,1.2
		c-0.3,0-0.7-0.1-0.9-0.1c-0.1,0-0.1,0-0.1,0l-0.1,0.6l1,0.3c0,0.1,0,0.2,0,0.4c0,0.3,0,0.6,0,0.9c-0.3,0-0.7,0.1-0.9,0.1
		c-0.1,0-0.1,0-0.1,0l0,0.6l1,0c0.1,0.4,0.2,0.8,0.3,1.2c-0.2,0.1-0.6,0.3-0.8,0.4c-0.1,0-0.1,0-0.1,0l0.2,0.6l1-0.3
		c0.2,0.4,0.4,0.7,0.6,1.1c-0.2,0.2-0.5,0.5-0.7,0.6c0,0-0.1,0.1-0.1,0.1l0.4,0.5l0.9-0.5c0.3,0.3,0.6,0.6,0.9,0.9
		c-0.1,0.2-0.4,0.6-0.5,0.7c0,0.1-0.1,0.1-0.1,0.1l0.5,0.4l0.7-0.7c0.4,0.2,0.7,0.4,1.1,0.6c-0.1,0.3-0.2,0.7-0.2,0.8
		c0,0.1,0,0.1,0,0.1l0.6,0.2l0.4-0.9c0.4,0.1,0.8,0.2,1.2,0.2c0,0.3,0,0.7,0,0.9c0,0.1,0,0.1,0,0.1l0.6,0l0.2-1c0.4,0,0.8,0,1.2-0.1
		c0.1,0.3,0.2,0.6,0.3,0.8c0,0.1,0,0.1,0,0.1l0.6-0.1l-0.1-1c0.4-0.1,0.8-0.3,1.2-0.5c0.1,0.2,0.4,0.6,0.5,0.7
		c0,0.1,0.1,0.1,0.1,0.1l0.6-0.3l-0.4-0.9c0.2-0.2,0.5-0.3,0.7-0.5c0.1-0.1,0.2-0.2,0.3-0.2c0.2,0.2,0.5,0.4,0.7,0.6
		c0.1,0,0.1,0.1,0.1,0.1l0.4-0.4l-0.6-0.8c0.3-0.3,0.5-0.7,0.7-1c0.2,0.1,0.6,0.3,0.8,0.4c0.1,0,0.1,0,0.1,0l0.3-0.5l-0.8-0.6
		c0.2-0.4,0.3-0.8,0.4-1.2c0.3,0,0.7,0.1,0.9,0.1c0.1,0,0.1,0,0.1,0l0.1-0.6L115.4,51.8z M114.7,51.4c-0.1,1.5-0.7,2.8-1.7,3.8
		l-2.5-2.5c0.3-0.4,0.6-0.9,0.6-1.5l3.6,0C114.7,51.3,114.7,51.3,114.7,51.4z M107.7,57.3c-1.5-0.1-2.8-0.7-3.9-1.7l2.5-2.5
		c0.4,0.3,0.9,0.6,1.5,0.6l0,3.6C107.9,57.3,107.8,57.3,107.7,57.3z M101.8,51.2l3.6,0c0.1,0.6,0.3,1.1,0.6,1.5l-2.5,2.5
		C102.5,54.1,101.9,52.7,101.8,51.2z M101.8,50.4c0.1-1.5,0.7-2.8,1.7-3.9l2.5,2.5c-0.3,0.4-0.6,0.9-0.6,1.5l-3.6,0
		C101.8,50.5,101.8,50.4,101.8,50.4z M108.1,53c-1.2-0.1-2.1-1.1-2-2.3c0.1-1.2,1.1-2.1,2.3-2c1.2,0.1,2.1,1.1,2,2.3
		C110.3,52.2,109.3,53.1,108.1,53z M108.8,44.5c1.5,0.1,2.8,0.7,3.8,1.7l-2.5,2.5c-0.4-0.3-0.9-0.6-1.5-0.6l0-3.6
		C108.6,44.4,108.7,44.4,108.8,44.5z M114.7,50.6l-3.6,0c-0.1-0.6-0.3-1.1-0.6-1.5l2.5-2.5C114,47.6,114.6,49,114.7,50.6z M108,44.4
		l0,3.6c-0.6,0.1-1.1,0.3-1.5,0.6l-2.5-2.5C105,45.1,106.4,44.5,108,44.4z M108.5,57.3l0-3.6c0.6-0.1,1.1-0.3,1.5-0.6l2.5,2.5
		C111.5,56.7,110.1,57.3,108.5,57.3z"/>
	<path class="st111" d="M188.9,72.4c0-0.1,0-0.2,0-0.3c0-0.2,0-0.5,0-0.7c0.2,0,0.6-0.1,0.7-0.1c0.1,0,0.1,0,0.1,0l0-0.5l-0.8,0
		c-0.1-0.3-0.1-0.7-0.2-1c0.2-0.1,0.5-0.2,0.7-0.3c0,0,0.1,0,0.1,0l-0.2-0.5l-0.8,0.2c-0.1-0.3-0.3-0.6-0.5-0.9
		c0.2-0.1,0.4-0.4,0.5-0.5c0,0,0.1-0.1,0.1-0.1l-0.3-0.4l-0.7,0.4c-0.2-0.3-0.5-0.5-0.7-0.7c0.1-0.2,0.3-0.5,0.4-0.6
		c0,0,0-0.1,0-0.1l-0.4-0.3l-0.6,0.6c-0.3-0.2-0.6-0.3-0.9-0.5c0.1-0.2,0.2-0.5,0.2-0.7c0-0.1,0-0.1,0-0.1l-0.5-0.2l-0.4,0.7
		c-0.3-0.1-0.7-0.2-1-0.2c0-0.2,0-0.6,0-0.7c0-0.1,0-0.1,0-0.1l-0.5,0l-0.1,0.8c-0.4,0-0.7,0-1.1,0.1c-0.1-0.2-0.2-0.5-0.2-0.7
		c0-0.1,0-0.1,0-0.1l-0.5,0.1l0.1,0.8c-0.3,0.1-0.6,0.2-1,0.4c-0.1-0.2-0.3-0.5-0.4-0.6c0,0,0-0.1,0-0.1l-0.5,0.2l0.3,0.8
		c-0.2,0.1-0.4,0.3-0.6,0.4c-0.1,0.1-0.2,0.1-0.2,0.2c-0.2-0.1-0.4-0.4-0.6-0.5c0,0-0.1-0.1-0.1-0.1l-0.4,0.4l0.5,0.6
		c-0.2,0.3-0.4,0.5-0.6,0.8c-0.2-0.1-0.5-0.2-0.7-0.3c0,0-0.1,0-0.1,0l-0.2,0.5l0.7,0.5c-0.1,0.3-0.2,0.6-0.3,1
		c-0.2,0-0.6-0.1-0.7-0.1c-0.1,0-0.1,0-0.1,0l-0.1,0.5l0.8,0.2c0,0.1,0,0.2,0,0.3c0,0.2,0,0.5,0,0.7c-0.2,0-0.6,0.1-0.7,0.1
		c-0.1,0-0.1,0-0.1,0l0,0.5l0.8,0c0.1,0.3,0.1,0.7,0.2,1c-0.2,0.1-0.5,0.2-0.7,0.3c0,0-0.1,0-0.1,0l0.2,0.5l0.8-0.2
		c0.1,0.3,0.3,0.6,0.5,0.9c-0.2,0.1-0.4,0.4-0.5,0.5c0,0-0.1,0.1-0.1,0.1l0.3,0.4l0.7-0.4c0.2,0.3,0.5,0.5,0.7,0.7
		c-0.1,0.2-0.3,0.5-0.4,0.6c0,0,0,0.1,0,0.1l0.4,0.3l0.6-0.6c0.3,0.2,0.6,0.3,0.9,0.5c-0.1,0.2-0.2,0.5-0.2,0.7c0,0.1,0,0.1,0,0.1
		l0.5,0.2l0.4-0.7c0.3,0.1,0.7,0.2,1,0.2c0,0.2,0,0.6,0,0.7c0,0.1,0,0.1,0,0.1l0.5,0l0.1-0.8c0.3,0,0.7,0,1-0.1
		c0.1,0.2,0.2,0.5,0.2,0.7c0,0.1,0,0.1,0,0.1l0.5-0.1l-0.1-0.8c0.3-0.1,0.7-0.2,1-0.4c0.1,0.2,0.3,0.5,0.4,0.6c0,0,0,0.1,0,0.1
		l0.5-0.2l-0.3-0.8c0.2-0.1,0.4-0.3,0.6-0.4c0.1-0.1,0.2-0.1,0.2-0.2c0.2,0.1,0.4,0.4,0.6,0.5c0,0,0.1,0.1,0.1,0.1l0.4-0.4l-0.5-0.6
		c0.2-0.3,0.4-0.5,0.6-0.8c0.2,0.1,0.5,0.2,0.7,0.3c0,0,0.1,0,0.1,0l0.3-0.5l-0.7-0.5c0.1-0.3,0.3-0.6,0.3-1c0.2,0,0.6,0.1,0.7,0.1
		c0.1,0,0.1,0,0.1,0l0.1-0.5L188.9,72.4z M188.3,72.1c-0.1,1.2-0.6,2.3-1.4,3.2l-2.1-2.1c0.3-0.3,0.5-0.8,0.5-1.2l3,0
		C188.3,71.9,188.3,72,188.3,72.1z M182.6,77c-1.2-0.1-2.3-0.6-3.2-1.4l2.1-2.1c0.3,0.3,0.8,0.5,1.2,0.5l0,3
		C182.7,77,182.6,77,182.6,77z M177.7,71.9l3,0c0,0.5,0.2,0.9,0.5,1.3l-2.1,2.1C178.2,74.3,177.7,73.1,177.7,71.9z M177.7,71.2
		c0.1-1.2,0.6-2.3,1.4-3.2l2.1,2.1c-0.3,0.3-0.5,0.8-0.5,1.2l-3,0C177.7,71.3,177.7,71.3,177.7,71.2z M182.8,73.4
		c-1-0.1-1.7-0.9-1.6-1.9c0.1-1,0.9-1.7,1.9-1.6c1,0.1,1.7,0.9,1.6,1.9C184.7,72.8,183.8,73.5,182.8,73.4z M183.4,66.3
		c1.2,0.1,2.3,0.6,3.2,1.4l-2.1,2.1c-0.3-0.3-0.8-0.5-1.2-0.5l0-3C183.3,66.3,183.3,66.3,183.4,66.3z M188.3,71.4l-3,0
		c0-0.5-0.2-0.9-0.5-1.3l2.1-2.1C187.7,69,188.2,70.1,188.3,71.4z M182.7,66.3l0,3c-0.5,0-0.9,0.2-1.3,0.5l-2.1-2.1
		C180.3,66.9,181.5,66.4,182.7,66.3z M183.2,77l0-3c0.5,0,0.9-0.2,1.3-0.5l2.1,2.1C185.7,76.4,184.5,76.9,183.2,77z"/>
	<path class="st111" d="M199.2,95.2c0-0.1,0-0.2,0-0.3c0-0.2,0-0.4,0-0.7c0.2,0,0.5-0.1,0.7-0.1c0,0,0.1,0,0.1,0l0-0.5l-0.8,0
		c0-0.3-0.1-0.6-0.2-0.9c0.2-0.1,0.5-0.2,0.6-0.3c0,0,0.1,0,0.1,0l-0.2-0.5l-0.7,0.2c-0.1-0.3-0.3-0.6-0.5-0.8
		c0.2-0.1,0.4-0.3,0.5-0.4c0,0,0.1-0.1,0.1-0.1l-0.3-0.4l-0.7,0.4c-0.2-0.2-0.4-0.5-0.7-0.7c0.1-0.2,0.3-0.4,0.4-0.6
		c0,0,0-0.1,0-0.1l-0.4-0.3l-0.5,0.6c-0.3-0.2-0.6-0.3-0.9-0.4c0.1-0.2,0.1-0.5,0.2-0.6c0,0,0-0.1,0-0.1l-0.4-0.2l-0.3,0.7
		c-0.3-0.1-0.6-0.1-0.9-0.2c0-0.2,0-0.5,0-0.7c0-0.1,0-0.1,0-0.1l-0.5,0l-0.1,0.8c-0.3,0-0.7,0-1,0.1c-0.1-0.2-0.2-0.5-0.2-0.6
		c0,0,0-0.1,0-0.1l-0.5,0.1l0.1,0.8c-0.3,0.1-0.6,0.2-0.9,0.4c-0.1-0.2-0.3-0.4-0.4-0.6c0,0,0-0.1,0-0.1l-0.4,0.2l0.3,0.7
		c-0.2,0.1-0.4,0.3-0.5,0.4c-0.1,0.1-0.1,0.1-0.2,0.2c-0.2-0.1-0.4-0.3-0.5-0.4c0,0-0.1-0.1-0.1-0.1l-0.3,0.3l0.5,0.6
		c-0.2,0.2-0.4,0.5-0.6,0.8c-0.2-0.1-0.5-0.2-0.6-0.3c0,0-0.1,0-0.1,0l-0.2,0.4l0.6,0.4c-0.1,0.3-0.2,0.6-0.3,0.9
		c-0.2,0-0.5-0.1-0.7-0.1c-0.1,0-0.1,0-0.1,0l-0.1,0.5l0.7,0.2c0,0.1,0,0.2,0,0.3c0,0.2,0,0.5,0,0.7c-0.2,0-0.5,0.1-0.7,0.1
		c0,0-0.1,0-0.1,0l0,0.5l0.8,0c0,0.3,0.1,0.6,0.2,0.9c-0.2,0.1-0.5,0.2-0.6,0.3c0,0-0.1,0-0.1,0L188,97l0.7-0.2
		c0.1,0.3,0.3,0.6,0.5,0.8c-0.2,0.1-0.4,0.3-0.5,0.4c0,0-0.1,0.1-0.1,0.1l0.3,0.4l0.7-0.4c0.2,0.2,0.4,0.5,0.7,0.7
		c-0.1,0.2-0.3,0.4-0.4,0.6c0,0,0,0.1,0,0.1l0.4,0.3l0.5-0.6c0.3,0.2,0.6,0.3,0.9,0.4c-0.1,0.2-0.1,0.5-0.2,0.6c0,0,0,0.1,0,0.1
		l0.4,0.2l0.3-0.7c0.3,0.1,0.6,0.1,0.9,0.2c0,0.2,0,0.5,0,0.7c0,0.1,0,0.1,0,0.1l0.5,0l0.1-0.8c0.3,0,0.6,0,1-0.1
		c0.1,0.2,0.2,0.5,0.2,0.6c0,0,0,0.1,0,0.1l0.5-0.1l-0.1-0.8c0.3-0.1,0.6-0.2,0.9-0.4c0.1,0.2,0.3,0.4,0.4,0.6c0,0,0,0.1,0,0.1
		l0.4-0.2l-0.3-0.7c0.2-0.1,0.4-0.3,0.5-0.4c0.1-0.1,0.1-0.1,0.2-0.2c0.2,0.1,0.4,0.3,0.5,0.4c0,0,0.1,0.1,0.1,0.1l0.3-0.3l-0.5-0.6
		c0.2-0.2,0.4-0.5,0.6-0.8c0.2,0.1,0.5,0.2,0.6,0.3c0,0,0.1,0,0.1,0l0.2-0.4l-0.6-0.4c0.1-0.3,0.2-0.6,0.3-0.9
		c0.2,0,0.5,0.1,0.7,0.1c0.1,0,0.1,0,0.1,0l0.1-0.5L199.2,95.2z M198.7,94.8c-0.1,1.1-0.6,2.2-1.3,2.9l-2-1.9
		c0.3-0.3,0.4-0.7,0.5-1.2l2.8,0C198.7,94.7,198.7,94.8,198.7,94.8z M193.3,99.4c-1.1-0.1-2.2-0.6-3-1.3l2-1.9
		c0.3,0.3,0.7,0.4,1.2,0.5l0,2.8C193.4,99.4,193.4,99.4,193.3,99.4z M188.8,94.7l2.8,0c0,0.4,0.2,0.8,0.5,1.2l-2,1.9
		C189.3,96.9,188.8,95.8,188.8,94.7z M188.8,94.1c0.1-1.1,0.6-2.2,1.3-3L192,93c-0.3,0.3-0.4,0.7-0.5,1.2l-2.8,0
		C188.8,94.2,188.8,94.1,188.8,94.1z M193.6,96.1c-0.9-0.1-1.6-0.9-1.5-1.8c0.1-0.9,0.9-1.6,1.8-1.5c0.9,0.1,1.6,0.9,1.5,1.8
		C195.3,95.5,194.5,96.2,193.6,96.1z M194.1,89.5c1.1,0.1,2.2,0.6,2.9,1.3l-1.9,2c-0.3-0.3-0.7-0.4-1.2-0.5l0-2.8
		C194,89.5,194.1,89.5,194.1,89.5z M198.7,94.2l-2.8,0c0-0.4-0.2-0.8-0.5-1.2l1.9-2C198.2,91.9,198.6,93,198.7,94.2z M193.5,89.5
		l0,2.8c-0.4,0-0.8,0.2-1.2,0.5l-1.9-1.9C191.2,90,192.3,89.5,193.5,89.5z M193.9,99.4l0-2.8c0.4,0,0.9-0.2,1.2-0.5l2,1.9
		C196.2,98.9,195.1,99.4,193.9,99.4z"/>
	<path class="st111" d="M100.9,41.4c0-0.2,0-0.4,0.1-0.6c0-0.5,0-1,0-1.4c0.4-0.1,1.1-0.2,1.4-0.2c0.1,0,0.2,0,0.2,0l-0.1-1l-1.6,0
		c-0.1-0.7-0.3-1.3-0.5-2c0.4-0.2,1-0.5,1.3-0.6c0.1,0,0.2-0.1,0.2-0.1l-0.4-1l-1.6,0.4c-0.3-0.6-0.6-1.2-1-1.8
		c0.3-0.3,0.8-0.7,1.1-0.9c0.1-0.1,0.1-0.1,0.1-0.1l-0.6-0.8L98,32c-0.5-0.5-1-1-1.5-1.4c0.2-0.4,0.6-0.9,0.8-1.2
		c0.1-0.1,0.1-0.1,0.1-0.1l-0.8-0.6l-1.1,1.2c-0.6-0.4-1.2-0.7-1.8-0.9c0.1-0.4,0.3-1.1,0.4-1.4c0-0.1,0-0.2,0-0.2l-1-0.4l-0.7,1.5
		c-0.7-0.2-1.3-0.3-2-0.4c0-0.4,0-1.1,0-1.4c0-0.1,0-0.2,0-0.2l-1-0.1L89.1,28c-0.7,0-1.4,0.1-2.1,0.2c-0.1-0.4-0.3-1.1-0.4-1.4
		c0-0.1-0.1-0.2-0.1-0.2l-1,0.2l0.2,1.6c-0.7,0.2-1.3,0.5-1.9,0.8c-0.2-0.4-0.6-0.9-0.8-1.2C83,28,82.9,28,82.9,28L82,28.5l0.7,1.5
		c-0.4,0.3-0.8,0.5-1.1,0.9c-0.2,0.1-0.3,0.3-0.5,0.4c-0.3-0.3-0.9-0.7-1.1-0.9c-0.1-0.1-0.1-0.1-0.1-0.1L79.1,31l1.1,1.3
		c-0.4,0.5-0.8,1.1-1.2,1.7c-0.4-0.2-1-0.4-1.3-0.6c-0.1,0-0.2-0.1-0.2-0.1L77,34.1l1.4,0.9c-0.3,0.6-0.5,1.3-0.7,1.9
		c-0.4-0.1-1.1-0.1-1.4-0.2c-0.1,0-0.2,0-0.2,0l-0.2,1l1.6,0.5c0,0.2,0,0.4-0.1,0.6c0,0.5,0,1,0,1.5c-0.4,0.1-1.1,0.2-1.4,0.2
		c-0.1,0-0.2,0-0.2,0l0.1,1l1.6,0c0.1,0.7,0.3,1.3,0.5,2c-0.4,0.2-1,0.5-1.3,0.6c-0.1,0-0.2,0.1-0.2,0.1l0.4,1l1.6-0.4
		c0.3,0.6,0.6,1.2,1,1.8c-0.3,0.3-0.8,0.7-1.1,1c-0.1,0.1-0.1,0.1-0.1,0.1l0.6,0.8l1.4-0.9c0.5,0.5,1,1,1.5,1.4
		c-0.2,0.4-0.6,0.9-0.8,1.2c-0.1,0.1-0.1,0.1-0.1,0.1l0.8,0.6l1.1-1.2c0.6,0.4,1.2,0.7,1.8,0.9c-0.1,0.4-0.3,1.1-0.4,1.4
		c0,0.1,0,0.2,0,0.2l1,0.4l0.7-1.5c0.7,0.2,1.3,0.3,2,0.4c0,0.4,0,1.1,0,1.4c0,0.1,0,0.2,0,0.2l1,0.1l0.3-1.6c0.7,0,1.4-0.1,2-0.2
		c0.1,0.4,0.3,1.1,0.4,1.4c0,0.1,0.1,0.2,0.1,0.2l1-0.2l-0.2-1.6c0.7-0.2,1.3-0.5,1.9-0.8c0.2,0.4,0.6,0.9,0.8,1.2
		c0.1,0.1,0.1,0.1,0.1,0.1l0.9-0.5l-0.7-1.5c0.4-0.3,0.8-0.6,1.2-0.9c0.2-0.1,0.3-0.3,0.4-0.4c0.3,0.3,0.8,0.7,1.1,0.9
		c0.1,0.1,0.1,0.1,0.1,0.1l0.7-0.7l-1.1-1.3c0.4-0.5,0.8-1.1,1.2-1.7c0.4,0.2,1,0.5,1.3,0.6c0.1,0,0.2,0.1,0.2,0.1l0.5-0.9l-1.4-0.9
		c0.3-0.6,0.5-1.3,0.7-1.9c0.4,0.1,1.1,0.1,1.4,0.2c0.1,0,0.2,0,0.2,0l0.2-1L100.9,41.4z M99.7,40.7c-0.2,2.4-1.2,4.6-2.7,6.3
		l-4.2-4.1c0.6-0.7,0.9-1.5,1-2.5l5.9,0C99.8,40.4,99.8,40.5,99.7,40.7z M88.4,50.4c-2.5-0.2-4.6-1.2-6.3-2.8l4.2-4.1
		c0.7,0.6,1.5,0.9,2.5,1.1l0,5.9C88.5,50.4,88.5,50.4,88.4,50.4z M78.6,40.3l5.9,0c0.1,0.9,0.5,1.8,1,2.5l-4.2,4.1
		C79.7,45.1,78.7,42.8,78.6,40.3z M78.7,39c0.2-2.4,1.2-4.6,2.8-6.3l4.2,4.2c-0.6,0.7-0.9,1.5-1,2.5l-5.9,0
		C78.6,39.2,78.6,39.1,78.7,39z M88.9,43.3c-1.9-0.2-3.4-1.8-3.2-3.8c0.2-1.9,1.8-3.4,3.8-3.2c1.9,0.2,3.4,1.8,3.2,3.8
		S90.8,43.5,88.9,43.3z M90,29.3c2.4,0.2,4.6,1.2,6.3,2.7l-4.1,4.2c-0.7-0.6-1.5-0.9-2.5-1l0-5.9C89.8,29.3,89.9,29.3,90,29.3z
		 M99.8,39.3l-5.9,0c-0.1-0.9-0.5-1.8-1-2.5l4.1-4.2C98.6,34.5,99.7,36.8,99.8,39.3z M88.7,29.2l0,5.9c-0.9,0.1-1.8,0.5-2.5,1
		L82.1,32C83.9,30.4,86.2,29.4,88.7,29.2z M89.6,50.4l0-5.9c0.9-0.1,1.8-0.5,2.5-1l4.2,4.1C94.5,49.3,92.2,50.3,89.6,50.4z"/>
	<path class="st111" d="M127,84.2c0-0.3,0.1-0.7,0.1-1c0.1-0.8,0.1-1.6,0-2.3c0.7-0.1,1.8-0.3,2.3-0.4c0.2,0,0.3,0,0.3,0l-0.1-1.7
		l-2.7,0c-0.2-1.1-0.4-2.2-0.8-3.2c0.6-0.3,1.6-0.8,2.1-1c0.2-0.1,0.3-0.1,0.3-0.1l-0.6-1.6l-2.6,0.7c-0.5-1-1-2-1.7-2.9
		c0.5-0.5,1.4-1.2,1.7-1.6c0.1-0.1,0.2-0.2,0.2-0.2l-1-1.3l-2.3,1.4c-0.8-0.8-1.6-1.6-2.4-2.3c0.4-0.6,1-1.5,1.2-2
		c0.1-0.1,0.1-0.2,0.1-0.2l-1.3-1l-1.8,2c-0.9-0.6-1.9-1.1-3-1.5c0.2-0.7,0.5-1.7,0.6-2.2c0-0.2,0.1-0.3,0.1-0.3l-1.6-0.6l-1.2,2.4
		c-1.1-0.3-2.2-0.5-3.3-0.6c0-0.7,0-1.8,0-2.3c0-0.2,0-0.3,0-0.3l-1.7-0.1l-0.4,2.6c-1.2,0-2.3,0.1-3.4,0.4
		c-0.2-0.7-0.5-1.7-0.7-2.2c-0.1-0.2-0.1-0.3-0.1-0.3l-1.6,0.4l0.4,2.7c-1.1,0.3-2.1,0.8-3.1,1.3c-0.4-0.6-1-1.5-1.3-1.9
		c-0.1-0.1-0.2-0.2-0.2-0.2l-1.5,0.8l1.1,2.5c-0.6,0.4-1.2,0.9-1.8,1.4c-0.3,0.2-0.5,0.5-0.8,0.7c-0.5-0.5-1.4-1.2-1.8-1.5
		c-0.1-0.1-0.2-0.2-0.2-0.2l-1.2,1.2l1.7,2c-0.7,0.9-1.4,1.8-1.9,2.7c-0.6-0.3-1.7-0.7-2.1-0.9c-0.2-0.1-0.3-0.1-0.3-0.1l-0.8,1.5
		l2.2,1.5c-0.4,1-0.8,2.1-1,3.2c-0.7-0.1-1.8-0.2-2.3-0.3c-0.2,0-0.3,0-0.3,0l-0.3,1.6l2.6,0.8c0,0.3-0.1,0.6-0.1,1
		c-0.1,0.8-0.1,1.6,0,2.4c-0.7,0.1-1.8,0.3-2.3,0.4c-0.2,0-0.3,0-0.3,0l0.1,1.7l2.7,0c0.2,1.1,0.5,2.2,0.8,3.2
		c-0.6,0.3-1.6,0.8-2.1,1c-0.2,0.1-0.3,0.1-0.3,0.1l0.6,1.6l2.6-0.7c0.5,1,1.1,2,1.7,2.9c-0.5,0.5-1.3,1.2-1.7,1.6
		c-0.1,0.1-0.2,0.2-0.2,0.2l1,1.3l2.3-1.4c0.8,0.8,1.6,1.6,2.4,2.3c-0.4,0.6-1,1.5-1.2,2c-0.1,0.1-0.1,0.2-0.1,0.2l1.3,1l1.8-2
		c0.9,0.6,1.9,1.1,3,1.5c-0.2,0.7-0.5,1.7-0.6,2.2c0,0.2-0.1,0.3-0.1,0.3l1.6,0.6l1.1-2.4c1.1,0.3,2.2,0.5,3.3,0.6
		c0,0.7,0,1.8,0,2.3c0,0.2,0,0.3,0,0.3l1.7,0.1l0.4-2.7c1.1,0,2.2-0.1,3.3-0.3c0.2,0.7,0.5,1.7,0.7,2.2c0.1,0.2,0.1,0.3,0.1,0.3
		l1.6-0.4l-0.3-2.7c1.1-0.3,2.1-0.8,3.1-1.3c0.4,0.6,1,1.5,1.3,1.9c0.1,0.1,0.2,0.2,0.2,0.2l1.5-0.8l-1.1-2.5
		c0.7-0.4,1.3-0.9,1.9-1.4c0.2-0.2,0.5-0.4,0.7-0.7c0.5,0.5,1.4,1.2,1.8,1.5c0.1,0.1,0.2,0.2,0.2,0.2l1.2-1.2l-1.7-2.1
		c0.7-0.9,1.4-1.8,1.9-2.7c0.6,0.3,1.7,0.7,2.1,0.9c0.2,0.1,0.3,0.1,0.3,0.1l0.8-1.5l-2.2-1.5c0.4-1,0.8-2.1,1.1-3.2
		c0.7,0.1,1.8,0.2,2.3,0.3c0.2,0,0.3,0,0.3,0l0.4-1.6L127,84.2z M125.1,83.1c-0.3,4-1.9,7.5-4.4,10.2l-6.8-6.7
		c0.9-1.1,1.5-2.5,1.7-4l9.6-0.1C125.1,82.7,125.1,82.9,125.1,83.1z M106.7,99c-4-0.3-7.6-1.9-10.3-4.4l6.7-6.8
		c1.1,0.9,2.5,1.5,4,1.7l0,9.6C107,99,106.8,99,106.7,99z M90.7,82.7l9.6-0.1c0.2,1.5,0.8,2.9,1.7,4l-6.7,6.8
		C92.6,90.6,90.9,86.8,90.7,82.7z M90.8,80.6c0.3-4,1.9-7.5,4.4-10.3L102,77c-0.9,1.1-1.5,2.5-1.7,4l-9.6,0.1
		C90.7,80.9,90.7,80.8,90.8,80.6z M107.5,87.5c-3.1-0.2-5.5-3-5.3-6.1s3-5.5,6.1-5.3s5.5,3,5.3,6.1
		C113.4,85.4,110.7,87.8,107.5,87.5z M109.2,64.7c4,0.3,7.5,1.9,10.3,4.4l-6.7,6.8c-1.1-0.9-2.5-1.5-4-1.7l-0.1-9.6
		C108.8,64.6,109,64.6,109.2,64.7z M125.1,80.9l-9.6,0.1c-0.2-1.5-0.8-2.9-1.7-4l6.7-6.8C123.2,73,124.9,76.8,125.1,80.9z
		 M107.1,64.6l0.1,9.6c-1.5,0.2-2.9,0.8-4,1.7l-6.8-6.7C99.2,66.5,102.9,64.8,107.1,64.6z M108.7,99l0-9.6c1.5-0.2,3-0.8,4.1-1.7
		l6.8,6.7C116.7,97.2,112.9,98.8,108.7,99z"/>
	<path class="st111" d="M54.7,84.7c0-0.1,0-0.2,0-0.2c0-0.2,0-0.4,0-0.6c0.2,0,0.4-0.1,0.6-0.1c0,0,0.1,0,0.1,0l0-0.4l-0.6,0
		c0-0.3-0.1-0.5-0.2-0.8c0.2-0.1,0.4-0.2,0.5-0.2c0,0,0.1,0,0.1,0L54.9,82l-0.6,0.2c-0.1-0.2-0.3-0.5-0.4-0.7
		c0.1-0.1,0.3-0.3,0.4-0.4c0,0,0.1,0,0.1,0l-0.2-0.3l-0.5,0.3c-0.2-0.2-0.4-0.4-0.6-0.5c0.1-0.1,0.2-0.4,0.3-0.5c0,0,0-0.1,0-0.1
		l-0.3-0.2l-0.4,0.5c-0.2-0.1-0.5-0.3-0.7-0.4c0-0.2,0.1-0.4,0.1-0.5c0,0,0-0.1,0-0.1l-0.4-0.1l-0.3,0.6c-0.3-0.1-0.5-0.1-0.8-0.1
		c0-0.2,0-0.4,0-0.6c0,0,0-0.1,0-0.1l-0.4,0L50,79.5c-0.3,0-0.6,0-0.8,0.1c-0.1-0.2-0.1-0.4-0.2-0.5c0,0,0-0.1,0-0.1l-0.4,0.1
		l0.1,0.6c-0.3,0.1-0.5,0.2-0.7,0.3c-0.1-0.1-0.2-0.4-0.3-0.5c0,0,0-0.1,0-0.1l-0.4,0.2l0.3,0.6c-0.2,0.1-0.3,0.2-0.4,0.3
		c-0.1,0.1-0.1,0.1-0.2,0.2c-0.1-0.1-0.3-0.3-0.4-0.4c0,0-0.1,0-0.1,0l-0.3,0.3l0.4,0.5c-0.2,0.2-0.3,0.4-0.5,0.7
		c-0.2-0.1-0.4-0.2-0.5-0.2c0,0-0.1,0-0.1,0L45.3,82l0.5,0.4c-0.1,0.2-0.2,0.5-0.3,0.8c-0.2,0-0.4-0.1-0.6-0.1c0,0-0.1,0-0.1,0
		l-0.1,0.4l0.6,0.2c0,0.1,0,0.2,0,0.2c0,0.2,0,0.4,0,0.6c-0.2,0-0.4,0.1-0.6,0.1c0,0-0.1,0-0.1,0l0,0.4l0.6,0c0,0.3,0.1,0.5,0.2,0.8
		c-0.2,0.1-0.4,0.2-0.5,0.2c0,0-0.1,0-0.1,0l0.1,0.4l0.6-0.2c0.1,0.2,0.3,0.5,0.4,0.7c-0.1,0.1-0.3,0.3-0.4,0.4c0,0-0.1,0-0.1,0
		l0.2,0.3l0.5-0.3c0.2,0.2,0.4,0.4,0.6,0.5c-0.1,0.1-0.2,0.4-0.3,0.5c0,0,0,0.1,0,0.1l0.3,0.2l0.4-0.5c0.2,0.1,0.5,0.3,0.7,0.4
		c0,0.2-0.1,0.4-0.1,0.5c0,0,0,0.1,0,0.1l0.4,0.1l0.3-0.6c0.3,0.1,0.5,0.1,0.8,0.1c0,0.2,0,0.4,0,0.6c0,0,0,0.1,0,0.1l0.4,0l0.1-0.6
		c0.3,0,0.5,0,0.8-0.1c0.1,0.2,0.1,0.4,0.2,0.5c0,0,0,0.1,0,0.1l0.4-0.1l-0.1-0.6c0.3-0.1,0.5-0.2,0.7-0.3c0.1,0.1,0.2,0.4,0.3,0.5
		c0,0,0,0.1,0,0.1l0.4-0.2L52.7,88c0.2-0.1,0.3-0.2,0.5-0.3c0.1-0.1,0.1-0.1,0.2-0.2c0.1,0.1,0.3,0.3,0.4,0.4c0,0,0.1,0,0.1,0
		l0.3-0.3l-0.4-0.5c0.2-0.2,0.3-0.4,0.5-0.7c0.2,0.1,0.4,0.2,0.5,0.2c0,0,0.1,0,0.1,0l0.2-0.4L54.3,86c0.1-0.2,0.2-0.5,0.3-0.8
		c0.2,0,0.4,0.1,0.6,0.1c0,0,0.1,0,0.1,0l0.1-0.4L54.7,84.7z M54.2,84.4c-0.1,0.9-0.5,1.8-1,2.5l-1.6-1.6c0.2-0.3,0.4-0.6,0.4-1
		l2.3,0C54.2,84.4,54.2,84.4,54.2,84.4z M49.8,88.3c-1-0.1-1.8-0.5-2.5-1.1l1.6-1.6c0.3,0.2,0.6,0.4,1,0.4l0,2.3
		C49.9,88.3,49.8,88.3,49.8,88.3z M46,84.4l2.3,0c0,0.4,0.2,0.7,0.4,1L47,86.9C46.4,86.3,46,85.3,46,84.4z M46,83.9
		c0.1-1,0.5-1.8,1.1-2.5l1.6,1.6c-0.2,0.3-0.4,0.6-0.4,1L46,84C46,83.9,46,83.9,46,83.9z M50,85.5c-0.8-0.1-1.3-0.7-1.3-1.5
		c0.1-0.8,0.7-1.3,1.5-1.3c0.8,0.1,1.3,0.7,1.3,1.5C51.4,85,50.7,85.6,50,85.5z M50.4,80c1,0.1,1.8,0.5,2.5,1.1l-1.6,1.6
		c-0.3-0.2-0.6-0.4-1-0.4l0-2.3C50.3,80,50.3,80,50.4,80z M54.2,83.9l-2.3,0c0-0.4-0.2-0.7-0.4-1l1.6-1.6
		C53.8,82,54.2,82.9,54.2,83.9z M49.9,80l0,2.3c-0.4,0-0.7,0.2-1,0.4l-1.6-1.6C48,80.5,48.9,80.1,49.9,80z M50.3,88.3l0-2.3
		c0.4,0,0.7-0.2,1-0.4l1.6,1.6C52.2,87.8,51.3,88.2,50.3,88.3z"/>
	<path class="st111" d="M9.8,6.1c0-0.1,0-0.2,0-0.2c0-0.2,0-0.4,0-0.6c0.2,0,0.4-0.1,0.6-0.1c0,0,0.1,0,0.1,0l0-0.4l-0.6,0
		c0-0.3-0.1-0.5-0.2-0.8C9.7,4,10,3.9,10.1,3.8c0,0,0.1,0,0.1,0L10,3.4L9.4,3.6C9.3,3.3,9.1,3.1,9,2.9c0.1-0.1,0.3-0.3,0.4-0.4
		c0,0,0.1,0,0.1,0L9.2,2.1L8.7,2.5C8.5,2.3,8.3,2.1,8.1,1.9c0.1-0.1,0.2-0.4,0.3-0.5c0,0,0-0.1,0-0.1L8.1,1.2L7.7,1.6
		C7.4,1.5,7.2,1.4,6.9,1.3c0-0.2,0.1-0.4,0.1-0.5c0,0,0-0.1,0-0.1L6.7,0.5L6.4,1.1C6.2,1.1,5.9,1,5.7,1c0-0.2,0-0.4,0-0.6
		c0,0,0-0.1,0-0.1l-0.4,0L5.1,1C4.9,1,4.6,1,4.3,1C4.3,0.9,4.2,0.6,4.2,0.5c0,0,0-0.1,0-0.1L3.7,0.5l0.1,0.6
		C3.6,1.3,3.3,1.4,3.1,1.5C3,1.3,2.8,1.1,2.8,1c0,0,0-0.1,0-0.1L2.4,1.2l0.3,0.6C2.5,1.8,2.3,2,2.2,2.1C2.1,2.1,2.1,2.2,2,2.3
		C1.9,2.1,1.7,2,1.6,1.9c0,0-0.1,0-0.1,0L1.3,2.1l0.4,0.5C1.5,2.8,1.3,3.1,1.2,3.3C1.1,3.2,0.8,3.1,0.7,3.1c0,0-0.1,0-0.1,0L0.5,3.4
		L1,3.7C0.9,4,0.8,4.2,0.7,4.5c-0.2,0-0.4-0.1-0.6-0.1c0,0-0.1,0-0.1,0L0,4.8L0.6,5c0,0.1,0,0.2,0,0.2c0,0.2,0,0.4,0,0.6
		c-0.2,0-0.4,0.1-0.6,0.1c0,0-0.1,0-0.1,0l0,0.4l0.6,0c0,0.3,0.1,0.5,0.2,0.8C0.7,7.2,0.5,7.3,0.4,7.3c0,0-0.1,0-0.1,0l0.1,0.4
		l0.6-0.2C1.2,7.8,1.3,8,1.5,8.3C1.4,8.4,1.2,8.6,1.1,8.6c0,0-0.1,0-0.1,0L1.3,9l0.5-0.3C2,8.9,2.2,9,2.4,9.2
		C2.3,9.4,2.2,9.6,2.1,9.7c0,0,0,0.1,0,0.1L2.4,10l0.4-0.5C3,9.6,3.3,9.8,3.5,9.9c0,0.2-0.1,0.4-0.1,0.5c0,0,0,0.1,0,0.1l0.4,0.1
		L4,10c0.3,0.1,0.5,0.1,0.8,0.1c0,0.2,0,0.4,0,0.6c0,0,0,0.1,0,0.1l0.4,0l0.1-0.6c0.3,0,0.5,0,0.8-0.1c0.1,0.2,0.1,0.4,0.2,0.5
		c0,0,0,0.1,0,0.1l0.4-0.1L6.6,10c0.3-0.1,0.5-0.2,0.7-0.3c0.1,0.1,0.2,0.4,0.3,0.5c0,0,0,0.1,0,0.1L8.1,10L7.8,9.4
		c0.2-0.1,0.3-0.2,0.5-0.3C8.3,9,8.4,9,8.4,8.9C8.5,9,8.8,9.2,8.8,9.3c0,0,0.1,0,0.1,0L9.2,9L8.8,8.5c0.2-0.2,0.3-0.4,0.5-0.7
		C9.4,7.9,9.6,8,9.7,8.1c0,0,0.1,0,0.1,0L10,7.8L9.5,7.4c0.1-0.2,0.2-0.5,0.3-0.8c0.2,0,0.4,0.1,0.6,0.1c0,0,0.1,0,0.1,0l0.1-0.4
		L9.8,6.1z M9.4,5.9c-0.1,0.9-0.5,1.8-1,2.5L6.7,6.7c0.2-0.3,0.4-0.6,0.4-1l2.3,0C9.4,5.8,9.4,5.8,9.4,5.9z M4.9,9.7
		C4,9.6,3.1,9.2,2.4,8.6L4.1,7c0.3,0.2,0.6,0.4,1,0.4l0,2.3C5,9.7,5,9.7,4.9,9.7z M1.1,5.8l2.3,0c0,0.4,0.2,0.7,0.4,1L2.2,8.4
		C1.5,7.7,1.1,6.8,1.1,5.8z M1.1,5.3c0.1-1,0.5-1.8,1.1-2.5l1.6,1.6C3.6,4.7,3.4,5,3.4,5.4l-2.3,0C1.1,5.4,1.1,5.3,1.1,5.3z
		 M5.1,6.9C4.4,6.9,3.8,6.2,3.9,5.5c0.1-0.8,0.7-1.3,1.5-1.3s1.3,0.7,1.3,1.5C6.5,6.4,5.9,7,5.1,6.9z M5.5,1.4
		c1,0.1,1.8,0.5,2.5,1.1L6.4,4.1c-0.3-0.2-0.6-0.4-1-0.4l0-2.3C5.4,1.4,5.5,1.4,5.5,1.4z M9.4,5.3l-2.3,0c0-0.4-0.2-0.7-0.4-1
		l1.6-1.6C8.9,3.5,9.3,4.4,9.4,5.3z M5,1.4l0,2.3c-0.4,0-0.7,0.2-1,0.4L2.4,2.5C3.1,1.9,4,1.5,5,1.4z M5.4,9.7l0-2.3
		c0.4,0,0.7-0.2,1-0.4L8,8.6C7.3,9.2,6.4,9.7,5.4,9.7z"/>
	<path class="st111" d="M98,58.8c0-0.1,0-0.2,0-0.2c0-0.2,0-0.3,0-0.5c0.2,0,0.4-0.1,0.5-0.1c0,0,0.1,0,0.1,0l0-0.4l-0.6,0
		c0-0.2-0.1-0.5-0.2-0.7c0.1-0.1,0.4-0.2,0.5-0.2c0,0,0.1,0,0.1,0l-0.1-0.4l-0.6,0.2c-0.1-0.2-0.2-0.4-0.4-0.6
		c0.1-0.1,0.3-0.3,0.4-0.3c0,0,0,0,0,0l-0.2-0.3l-0.5,0.3c-0.2-0.2-0.4-0.4-0.5-0.5c0.1-0.1,0.2-0.3,0.3-0.4c0,0,0-0.1,0-0.1
		l-0.3-0.2L96,54.6c-0.2-0.1-0.4-0.2-0.7-0.3c0-0.2,0.1-0.4,0.1-0.5c0,0,0-0.1,0-0.1l-0.4-0.1l-0.3,0.5C94.6,54,94.3,54,94.1,54
		c0-0.2,0-0.4,0-0.5c0,0,0-0.1,0-0.1l-0.4,0L93.6,54c-0.3,0-0.5,0-0.8,0.1c0-0.2-0.1-0.4-0.2-0.5c0,0,0-0.1,0-0.1l-0.4,0.1l0.1,0.6
		c-0.2,0.1-0.5,0.2-0.7,0.3c-0.1-0.1-0.2-0.3-0.3-0.4c0,0,0-0.1,0-0.1L91,54.1l0.2,0.5c-0.1,0.1-0.3,0.2-0.4,0.3
		c-0.1,0.1-0.1,0.1-0.2,0.2c-0.1-0.1-0.3-0.3-0.4-0.3c0,0,0,0,0,0L90,55.1l0.4,0.5c-0.2,0.2-0.3,0.4-0.4,0.6
		c-0.1-0.1-0.4-0.2-0.5-0.2c0,0-0.1,0-0.1,0l-0.2,0.3l0.5,0.3c-0.1,0.2-0.2,0.5-0.2,0.7c-0.2,0-0.4,0-0.5-0.1c0,0-0.1,0-0.1,0
		l-0.1,0.4l0.6,0.2c0,0.1,0,0.1,0,0.2c0,0.2,0,0.4,0,0.5c-0.2,0-0.4,0.1-0.5,0.1c0,0-0.1,0-0.1,0l0,0.4l0.6,0c0,0.2,0.1,0.5,0.2,0.7
		c-0.1,0.1-0.4,0.2-0.5,0.2c0,0-0.1,0-0.1,0l0.1,0.4l0.6-0.2c0.1,0.2,0.2,0.4,0.4,0.6c-0.1,0.1-0.3,0.3-0.4,0.3c0,0,0,0,0,0l0.2,0.3
		l0.5-0.3c0.2,0.2,0.4,0.4,0.5,0.5c-0.1,0.1-0.2,0.3-0.3,0.4c0,0,0,0.1,0,0.1l0.3,0.2l0.4-0.4c0.2,0.1,0.4,0.2,0.7,0.3
		c0,0.2-0.1,0.4-0.1,0.5c0,0,0,0.1,0,0.1l0.4,0.1l0.3-0.5c0.2,0.1,0.5,0.1,0.7,0.1c0,0.2,0,0.4,0,0.5c0,0,0,0.1,0,0.1l0.4,0l0.1-0.6
		c0.3,0,0.5,0,0.7-0.1c0,0.2,0.1,0.4,0.2,0.5c0,0,0,0.1,0,0.1l0.4-0.1L95,62.4c0.2-0.1,0.5-0.2,0.7-0.3c0.1,0.1,0.2,0.3,0.3,0.4
		c0,0,0,0.1,0,0.1l0.3-0.2l-0.2-0.5c0.1-0.1,0.3-0.2,0.4-0.3c0.1,0,0.1-0.1,0.2-0.1c0.1,0.1,0.3,0.3,0.4,0.3c0,0,0,0,0,0l0.3-0.3
		L97,61c0.2-0.2,0.3-0.4,0.4-0.6c0.1,0.1,0.4,0.2,0.5,0.2c0,0,0.1,0,0.1,0l0.2-0.3L97.6,60c0.1-0.2,0.2-0.5,0.2-0.7
		c0.2,0,0.4,0.1,0.5,0.1c0,0,0.1,0,0.1,0l0.1-0.4L98,58.8z M97.5,58.5c-0.1,0.9-0.4,1.7-1,2.3L95,59.3c0.2-0.3,0.3-0.6,0.4-0.9
		l2.1,0C97.5,58.4,97.5,58.5,97.5,58.5z M93.4,62.1c-0.9-0.1-1.7-0.4-2.3-1l1.5-1.5c0.3,0.2,0.6,0.3,0.9,0.4l0,2.1
		C93.5,62.1,93.4,62.1,93.4,62.1z M89.8,58.4l2.1,0c0,0.3,0.2,0.7,0.4,0.9l-1.5,1.5C90.3,60.2,89.9,59.4,89.8,58.4z M89.8,58
		c0.1-0.9,0.4-1.7,1-2.3l1.5,1.5c-0.2,0.3-0.3,0.6-0.4,0.9l-2.1,0C89.8,58.1,89.8,58,89.8,58z M93.6,59.5c-0.7-0.1-1.2-0.7-1.2-1.4
		c0.1-0.7,0.7-1.2,1.4-1.2c0.7,0.1,1.2,0.7,1.2,1.4C94.9,59,94.3,59.6,93.6,59.5z M94,54.4c0.9,0.1,1.7,0.4,2.3,1l-1.5,1.5
		c-0.3-0.2-0.6-0.3-0.9-0.4l0-2.1C93.9,54.4,93.9,54.4,94,54.4z M97.5,58l-2.1,0c0-0.3-0.2-0.7-0.4-0.9l1.5-1.5
		C97.1,56.3,97.5,57.1,97.5,58z M93.5,54.4l0,2.1c-0.3,0-0.7,0.2-0.9,0.4l-1.5-1.5C91.7,54.8,92.6,54.4,93.5,54.4z M93.9,62.1l0-2.1
		c0.3,0,0.7-0.2,0.9-0.4l1.5,1.5C95.7,61.7,94.8,62.1,93.9,62.1z"/>
	<path class="st111" d="M154.2,67c0-0.1,0-0.2,0-0.2c0-0.2,0-0.3,0-0.5c0.2,0,0.4-0.1,0.5-0.1c0,0,0.1,0,0.1,0l0-0.4l-0.6,0
		c0-0.2-0.1-0.5-0.2-0.7c0.1-0.1,0.4-0.2,0.5-0.2c0,0,0.1,0,0.1,0l-0.1-0.4l-0.6,0.2c-0.1-0.2-0.2-0.4-0.4-0.6
		c0.1-0.1,0.3-0.3,0.4-0.3c0,0,0,0,0,0l-0.2-0.3l-0.5,0.3c-0.2-0.2-0.4-0.4-0.5-0.5c0.1-0.1,0.2-0.3,0.3-0.4c0,0,0-0.1,0-0.1
		l-0.3-0.2l-0.4,0.4c-0.2-0.1-0.4-0.2-0.7-0.3c0-0.2,0.1-0.4,0.1-0.5c0,0,0-0.1,0-0.1l-0.4-0.1l-0.3,0.5c-0.2-0.1-0.5-0.1-0.7-0.1
		c0-0.2,0-0.4,0-0.5c0,0,0-0.1,0-0.1l-0.4,0l-0.1,0.6c-0.3,0-0.5,0-0.8,0.1c0-0.2-0.1-0.4-0.2-0.5c0,0,0-0.1,0-0.1l-0.4,0.1l0.1,0.6
		c-0.2,0.1-0.5,0.2-0.7,0.3c-0.1-0.1-0.2-0.3-0.3-0.4c0,0,0-0.1,0-0.1l-0.3,0.2l0.2,0.5c-0.1,0.1-0.3,0.2-0.4,0.3
		c-0.1,0.1-0.1,0.1-0.2,0.2c-0.1-0.1-0.3-0.3-0.4-0.3c0,0,0,0,0,0l-0.3,0.3l0.4,0.5c-0.2,0.2-0.3,0.4-0.4,0.6
		c-0.1-0.1-0.4-0.2-0.5-0.2c0,0-0.1,0-0.1,0l-0.2,0.3l0.5,0.3c-0.1,0.2-0.2,0.5-0.2,0.7c-0.2,0-0.4,0-0.5-0.1c0,0-0.1,0-0.1,0
		l-0.1,0.4l0.6,0.2c0,0.1,0,0.1,0,0.2c0,0.2,0,0.4,0,0.5c-0.2,0-0.4,0.1-0.5,0.1c0,0-0.1,0-0.1,0l0,0.4l0.6,0c0,0.2,0.1,0.5,0.2,0.7
		c-0.1,0.1-0.4,0.2-0.5,0.2c0,0-0.1,0-0.1,0l0.1,0.4l0.6-0.2c0.1,0.2,0.2,0.4,0.4,0.6c-0.1,0.1-0.3,0.3-0.4,0.3c0,0,0,0,0,0l0.2,0.3
		l0.5-0.3c0.2,0.2,0.4,0.4,0.5,0.5c-0.1,0.1-0.2,0.3-0.3,0.4c0,0,0,0.1,0,0.1l0.3,0.2l0.4-0.4c0.2,0.1,0.4,0.2,0.7,0.3
		c0,0.2-0.1,0.4-0.1,0.5c0,0,0,0.1,0,0.1l0.4,0.1l0.3-0.5c0.2,0.1,0.5,0.1,0.7,0.1c0,0.2,0,0.4,0,0.5c0,0,0,0.1,0,0.1l0.4,0l0.1-0.6
		c0.3,0,0.5,0,0.7-0.1c0,0.2,0.1,0.4,0.2,0.5c0,0,0,0.1,0,0.1l0.4-0.1l-0.1-0.6c0.2-0.1,0.5-0.2,0.7-0.3c0.1,0.1,0.2,0.3,0.3,0.4
		c0,0,0,0.1,0,0.1l0.3-0.2l-0.2-0.5c0.1-0.1,0.3-0.2,0.4-0.3c0.1,0,0.1-0.1,0.2-0.1c0.1,0.1,0.3,0.3,0.4,0.3c0,0,0,0,0,0l0.3-0.3
		l-0.4-0.5c0.2-0.2,0.3-0.4,0.4-0.6c0.1,0.1,0.4,0.2,0.5,0.2c0,0,0.1,0,0.1,0l0.2-0.3l-0.5-0.3c0.1-0.2,0.2-0.5,0.2-0.7
		c0.2,0,0.4,0.1,0.5,0.1c0,0,0.1,0,0.1,0l0.1-0.4L154.2,67z M153.7,66.8c-0.1,0.9-0.4,1.7-1,2.3l-1.5-1.5c0.2-0.3,0.3-0.6,0.4-0.9
		l2.1,0C153.7,66.7,153.7,66.7,153.7,66.8z M149.6,70.3c-0.9-0.1-1.7-0.4-2.3-1l1.5-1.5c0.3,0.2,0.6,0.3,0.9,0.4l0,2.1
		C149.7,70.3,149.6,70.3,149.6,70.3z M146,66.7l2.1,0c0,0.3,0.2,0.7,0.4,0.9l-1.5,1.5C146.4,68.5,146.1,67.6,146,66.7z M146,66.2
		c0.1-0.9,0.4-1.7,1-2.3l1.5,1.5c-0.2,0.3-0.3,0.6-0.4,0.9l-2.1,0C146,66.3,146,66.3,146,66.2z M149.8,67.8
		c-0.7-0.1-1.2-0.7-1.2-1.4c0.1-0.7,0.7-1.2,1.4-1.2s1.2,0.7,1.2,1.4C151.1,67.3,150.5,67.8,149.8,67.8z M150.2,62.6
		c0.9,0.1,1.7,0.4,2.3,1l-1.5,1.5c-0.3-0.2-0.6-0.3-0.9-0.4l0-2.1C150.1,62.6,150.1,62.6,150.2,62.6z M153.7,66.3l-2.1,0
		c0-0.3-0.2-0.7-0.4-0.9l1.5-1.5C153.3,64.5,153.7,65.4,153.7,66.3z M149.7,62.6l0,2.1c-0.3,0-0.7,0.2-0.9,0.4l-1.5-1.5
		C147.9,63.1,148.8,62.7,149.7,62.6z M150.1,70.3l0-2.1c0.3,0,0.7-0.2,0.9-0.4l1.5,1.5C151.9,69.9,151,70.3,150.1,70.3z"/>
	<path class="st111" d="M110.9,38.3c0-0.1,0-0.1,0-0.2c0-0.1,0-0.3,0-0.4c0.1,0,0.3-0.1,0.4-0.1c0,0,0,0,0,0l0-0.3l-0.5,0
		c0-0.2-0.1-0.4-0.1-0.6c0.1-0.1,0.3-0.1,0.4-0.2c0,0,0,0,0,0l-0.1-0.3l-0.5,0.1c-0.1-0.2-0.2-0.3-0.3-0.5c0.1-0.1,0.2-0.2,0.3-0.3
		c0,0,0,0,0,0l-0.2-0.2l-0.4,0.2c-0.1-0.1-0.3-0.3-0.4-0.4c0.1-0.1,0.2-0.3,0.2-0.3c0,0,0,0,0,0l-0.2-0.2l-0.3,0.4
		c-0.2-0.1-0.3-0.2-0.5-0.3c0-0.1,0.1-0.3,0.1-0.4c0,0,0,0,0,0l-0.3-0.1l-0.2,0.4c-0.2-0.1-0.4-0.1-0.6-0.1c0-0.1,0-0.3,0-0.4
		c0,0,0,0,0,0l-0.3,0l-0.1,0.5c-0.2,0-0.4,0-0.6,0.1c0-0.1-0.1-0.3-0.1-0.4c0,0,0,0,0,0l-0.3,0.1l0.1,0.5c-0.2,0.1-0.4,0.1-0.5,0.2
		c-0.1-0.1-0.2-0.3-0.2-0.3c0,0,0,0,0,0l-0.3,0.1l0.2,0.4c-0.1,0.1-0.2,0.2-0.3,0.2c0,0-0.1,0.1-0.1,0.1c-0.1-0.1-0.2-0.2-0.3-0.3
		c0,0,0,0,0,0l-0.2,0.2l0.3,0.4c-0.1,0.2-0.2,0.3-0.3,0.5c-0.1,0-0.3-0.1-0.4-0.2c0,0,0,0,0,0l-0.1,0.3l0.4,0.3
		c-0.1,0.2-0.1,0.4-0.2,0.6c-0.1,0-0.3,0-0.4,0c0,0,0,0,0,0l-0.1,0.3l0.5,0.1c0,0.1,0,0.1,0,0.2c0,0.1,0,0.3,0,0.4
		c-0.1,0-0.3,0.1-0.4,0.1c0,0,0,0,0,0l0,0.3l0.5,0c0,0.2,0.1,0.4,0.1,0.6c-0.1,0.1-0.3,0.1-0.4,0.2c0,0,0,0,0,0l0.1,0.3l0.5-0.1
		c0.1,0.2,0.2,0.3,0.3,0.5c-0.1,0.1-0.2,0.2-0.3,0.3c0,0,0,0,0,0l0.2,0.2l0.4-0.3c0.1,0.1,0.3,0.3,0.4,0.4c-0.1,0.1-0.2,0.3-0.2,0.3
		c0,0,0,0,0,0l0.2,0.2l0.3-0.4c0.2,0.1,0.3,0.2,0.5,0.3c0,0.1-0.1,0.3-0.1,0.4c0,0,0,0,0,0l0.3,0.1l0.2-0.4c0.2,0.1,0.4,0.1,0.6,0.1
		c0,0.1,0,0.3,0,0.4c0,0,0,0,0,0l0.3,0l0.1-0.5c0.2,0,0.4,0,0.6-0.1c0,0.1,0.1,0.3,0.1,0.4c0,0,0,0,0,0l0.3-0.1l-0.1-0.5
		c0.2-0.1,0.4-0.1,0.5-0.2c0.1,0.1,0.2,0.3,0.2,0.3c0,0,0,0,0,0l0.3-0.1l-0.2-0.4c0.1-0.1,0.2-0.2,0.3-0.3c0,0,0.1-0.1,0.1-0.1
		c0.1,0.1,0.2,0.2,0.3,0.3c0,0,0,0,0,0l0.2-0.2l-0.3-0.4c0.1-0.2,0.2-0.3,0.3-0.5c0.1,0,0.3,0.1,0.4,0.2c0,0,0,0,0,0l0.1-0.3
		l-0.4-0.3c0.1-0.2,0.1-0.4,0.2-0.6c0.1,0,0.3,0,0.4,0.1c0,0,0,0,0,0l0.1-0.3L110.9,38.3z M110.6,38.1c0,0.7-0.3,1.3-0.8,1.8
		l-1.2-1.2c0.2-0.2,0.3-0.4,0.3-0.7l1.7,0C110.6,38,110.6,38.1,110.6,38.1z M107.4,40.9c-0.7-0.1-1.3-0.3-1.8-0.8l1.2-1.2
		c0.2,0.2,0.4,0.3,0.7,0.3L107.4,40.9C107.4,40.9,107.4,40.9,107.4,40.9z M104.6,38l1.7,0c0,0.3,0.1,0.5,0.3,0.7l-1.2,1.2
		C104.9,39.4,104.6,38.8,104.6,38z M104.6,37.7c0.1-0.7,0.3-1.3,0.8-1.8l1.2,1.2c-0.2,0.2-0.3,0.4-0.3,0.7L104.6,37.7
		C104.6,37.7,104.6,37.7,104.6,37.7z M107.5,38.9c-0.6,0-1-0.5-0.9-1.1c0-0.6,0.5-1,1.1-0.9c0.6,0,1,0.5,0.9,1.1
		C108.6,38.5,108.1,38.9,107.5,38.9z M107.8,34.9c0.7,0.1,1.3,0.3,1.8,0.8l-1.2,1.2c-0.2-0.2-0.4-0.3-0.7-0.3L107.8,34.9
		C107.7,34.9,107.8,34.9,107.8,34.9z M110.6,37.7l-1.7,0c0-0.3-0.1-0.5-0.3-0.7l1.2-1.2C110.3,36.3,110.6,37,110.6,37.7z
		 M107.4,34.9l0,1.7c-0.3,0-0.5,0.1-0.7,0.3l-1.2-1.2C106.1,35.2,106.7,34.9,107.4,34.9z M107.7,40.9l0-1.7c0.3,0,0.5-0.1,0.7-0.3
		l1.2,1.2C109.1,40.6,108.5,40.9,107.7,40.9z"/>
	<path class="st111" d="M54.3,51.1c0-0.1,0-0.1,0-0.2c0-0.1,0-0.3,0-0.4c0.1,0,0.3-0.1,0.4-0.1c0,0,0,0,0,0l0-0.3l-0.5,0
		c0-0.2-0.1-0.4-0.1-0.6c0.1-0.1,0.3-0.1,0.4-0.2c0,0,0,0,0,0l-0.1-0.3L54,49.2c-0.1-0.2-0.2-0.3-0.3-0.5c0.1-0.1,0.2-0.2,0.3-0.3
		c0,0,0,0,0,0l-0.2-0.2l-0.4,0.2c-0.1-0.1-0.3-0.3-0.4-0.4c0.1-0.1,0.2-0.3,0.2-0.3c0,0,0,0,0,0L53,47.5l-0.3,0.4
		c-0.2-0.1-0.3-0.2-0.5-0.3c0-0.1,0.1-0.3,0.1-0.4c0,0,0,0,0,0L52,47l-0.2,0.4c-0.2-0.1-0.4-0.1-0.6-0.1c0-0.1,0-0.3,0-0.4
		c0,0,0,0,0,0l-0.3,0l-0.1,0.5c-0.2,0-0.4,0-0.6,0.1c0-0.1-0.1-0.3-0.1-0.4c0,0,0,0,0,0L49.9,47l0.1,0.5c-0.2,0.1-0.4,0.1-0.5,0.2
		c-0.1-0.1-0.2-0.3-0.2-0.3c0,0,0,0,0,0l-0.3,0.1l0.2,0.4c-0.1,0.1-0.2,0.2-0.3,0.2c0,0-0.1,0.1-0.1,0.1c-0.1-0.1-0.2-0.2-0.3-0.3
		c0,0,0,0,0,0L48,48.2l0.3,0.4c-0.1,0.2-0.2,0.3-0.3,0.5c-0.1,0-0.3-0.1-0.4-0.2c0,0,0,0,0,0l-0.1,0.3l0.4,0.3
		c-0.1,0.2-0.1,0.4-0.2,0.6c-0.1,0-0.3,0-0.4,0c0,0,0,0,0,0l-0.1,0.3l0.5,0.1c0,0.1,0,0.1,0,0.2c0,0.1,0,0.3,0,0.4
		c-0.1,0-0.3,0.1-0.4,0.1c0,0,0,0,0,0l0,0.3l0.5,0c0,0.2,0.1,0.4,0.1,0.6c-0.1,0.1-0.3,0.1-0.4,0.2c0,0,0,0,0,0l0.1,0.3l0.5-0.1
		c0.1,0.2,0.2,0.3,0.3,0.5c-0.1,0.1-0.2,0.2-0.3,0.3c0,0,0,0,0,0l0.2,0.2l0.4-0.3c0.1,0.1,0.3,0.3,0.4,0.4c-0.1,0.1-0.2,0.3-0.2,0.3
		c0,0,0,0,0,0l0.2,0.2l0.3-0.4c0.2,0.1,0.3,0.2,0.5,0.3c0,0.1-0.1,0.3-0.1,0.4c0,0,0,0,0,0l0.3,0.1l0.2-0.4c0.2,0.1,0.4,0.1,0.6,0.1
		c0,0.1,0,0.3,0,0.4c0,0,0,0,0,0l0.3,0l0.1-0.5c0.2,0,0.4,0,0.6-0.1c0,0.1,0.1,0.3,0.1,0.4c0,0,0,0,0,0l0.3-0.1L52,53.9
		c0.2-0.1,0.4-0.1,0.5-0.2c0.1,0.1,0.2,0.3,0.2,0.3c0,0,0,0,0,0l0.3-0.1l-0.2-0.4c0.1-0.1,0.2-0.2,0.3-0.3c0,0,0.1-0.1,0.1-0.1
		c0.1,0.1,0.2,0.2,0.3,0.3c0,0,0,0,0,0l0.2-0.2l-0.3-0.4c0.1-0.2,0.2-0.3,0.3-0.5c0.1,0,0.3,0.1,0.4,0.2c0,0,0,0,0,0l0.1-0.3L54,52
		c0.1-0.2,0.1-0.4,0.2-0.6c0.1,0,0.3,0,0.4,0.1c0,0,0,0,0,0l0.1-0.3L54.3,51.1z M54,50.9c0,0.7-0.3,1.3-0.8,1.8L52,51.5
		c0.2-0.2,0.3-0.4,0.3-0.7l1.7,0C54,50.8,54,50.9,54,50.9z M50.7,53.7c-0.7-0.1-1.3-0.3-1.8-0.8l1.2-1.2c0.2,0.2,0.4,0.3,0.7,0.3
		L50.7,53.7C50.8,53.7,50.8,53.7,50.7,53.7z M47.9,50.9l1.7,0c0,0.3,0.1,0.5,0.3,0.7l-1.2,1.2C48.2,52.2,47.9,51.6,47.9,50.9z
		 M47.9,50.5c0.1-0.7,0.3-1.3,0.8-1.8l1.2,1.2c-0.2,0.2-0.3,0.4-0.3,0.7L47.9,50.5C47.9,50.5,47.9,50.5,47.9,50.5z M50.9,51.7
		c-0.6,0-1-0.5-0.9-1.1c0-0.6,0.5-1,1.1-0.9s1,0.5,0.9,1.1C51.9,51.3,51.4,51.7,50.9,51.7z M51.2,47.7c0.7,0.1,1.3,0.3,1.8,0.8
		l-1.2,1.2c-0.2-0.2-0.4-0.3-0.7-0.3L51.2,47.7C51.1,47.7,51.1,47.7,51.2,47.7z M54,50.5l-1.7,0c0-0.3-0.1-0.5-0.3-0.7l1.2-1.2
		C53.6,49.1,53.9,49.8,54,50.5z M50.8,47.7l0,1.7c-0.3,0-0.5,0.1-0.7,0.3l-1.2-1.2C49.4,48,50.1,47.7,50.8,47.7z M51.1,53.7l0-1.7
		c0.3,0,0.5-0.1,0.7-0.3l1.2,1.2C52.5,53.4,51.8,53.7,51.1,53.7z"/>
	<path class="st111" d="M134,96.4c0-0.1,0-0.1,0-0.2c0-0.1,0-0.3,0-0.4c0.1,0,0.3-0.1,0.4-0.1c0,0,0.1,0,0.1,0l0-0.3l-0.5,0
		c0-0.2-0.1-0.4-0.1-0.6c0.1-0.1,0.3-0.1,0.4-0.2c0,0,0,0,0,0l-0.1-0.3l-0.5,0.1c-0.1-0.2-0.2-0.4-0.3-0.5c0.1-0.1,0.2-0.2,0.3-0.3
		c0,0,0,0,0,0l-0.2-0.2l-0.4,0.3c-0.1-0.2-0.3-0.3-0.4-0.4c0.1-0.1,0.2-0.3,0.2-0.4c0,0,0,0,0,0l-0.2-0.2l-0.3,0.4
		c-0.2-0.1-0.3-0.2-0.5-0.3c0-0.1,0.1-0.3,0.1-0.4c0,0,0,0,0,0l-0.3-0.1l-0.2,0.4c-0.2-0.1-0.4-0.1-0.6-0.1c0-0.1,0-0.3,0-0.4
		c0,0,0-0.1,0-0.1l-0.3,0l-0.1,0.5c-0.2,0-0.4,0-0.6,0.1c0-0.1-0.1-0.3-0.1-0.4c0,0,0,0,0,0l-0.3,0.1l0.1,0.5
		c-0.2,0.1-0.4,0.1-0.6,0.2c-0.1-0.1-0.2-0.3-0.2-0.3c0,0,0,0,0,0l-0.3,0.1l0.2,0.4c-0.1,0.1-0.2,0.2-0.3,0.3c0,0-0.1,0.1-0.1,0.1
		c-0.1-0.1-0.3-0.2-0.3-0.3c0,0,0,0,0,0l-0.2,0.2l0.3,0.4c-0.1,0.2-0.2,0.3-0.3,0.5c-0.1-0.1-0.3-0.1-0.4-0.2c0,0,0,0,0,0l-0.1,0.3
		l0.4,0.3c-0.1,0.2-0.1,0.4-0.2,0.6c-0.1,0-0.3,0-0.4-0.1c0,0-0.1,0-0.1,0l-0.1,0.3l0.5,0.1c0,0.1,0,0.1,0,0.2c0,0.1,0,0.3,0,0.4
		c-0.1,0-0.3,0.1-0.4,0.1c0,0-0.1,0-0.1,0l0,0.3l0.5,0c0,0.2,0.1,0.4,0.1,0.6c-0.1,0.1-0.3,0.1-0.4,0.2c0,0,0,0,0,0l0.1,0.3l0.5-0.1
		c0.1,0.2,0.2,0.4,0.3,0.5c-0.1,0.1-0.2,0.2-0.3,0.3c0,0,0,0,0,0l0.2,0.2l0.4-0.3c0.1,0.2,0.3,0.3,0.4,0.4c-0.1,0.1-0.2,0.3-0.2,0.4
		c0,0,0,0,0,0l0.2,0.2l0.3-0.4c0.2,0.1,0.4,0.2,0.5,0.3c0,0.1-0.1,0.3-0.1,0.4c0,0,0,0,0,0l0.3,0.1l0.2-0.4c0.2,0.1,0.4,0.1,0.6,0.1
		c0,0.1,0,0.3,0,0.4c0,0,0,0.1,0,0.1l0.3,0l0.1-0.5c0.2,0,0.4,0,0.6-0.1c0,0.1,0.1,0.3,0.1,0.4c0,0,0,0,0,0l0.3-0.1l-0.1-0.5
		c0.2-0.1,0.4-0.1,0.6-0.2c0.1,0.1,0.2,0.3,0.2,0.3c0,0,0,0,0,0l0.3-0.1l-0.2-0.4c0.1-0.1,0.2-0.2,0.3-0.3c0,0,0.1-0.1,0.1-0.1
		c0.1,0.1,0.3,0.2,0.3,0.3c0,0,0,0,0,0l0.2-0.2l-0.3-0.4c0.1-0.2,0.2-0.3,0.3-0.5c0.1,0.1,0.3,0.1,0.4,0.2c0,0,0,0,0,0l0.1-0.3
		l-0.4-0.3c0.1-0.2,0.1-0.4,0.2-0.6c0.1,0,0.3,0,0.4,0.1c0,0,0.1,0,0.1,0l0.1-0.3L134,96.4z M133.6,96.1c-0.1,0.7-0.3,1.3-0.8,1.8
		l-1.2-1.2c0.2-0.2,0.3-0.5,0.3-0.7l1.7,0C133.6,96.1,133.6,96.1,133.6,96.1z M130.3,99c-0.7-0.1-1.4-0.3-1.9-0.8l1.2-1.2
		c0.2,0.2,0.5,0.3,0.7,0.3L130.3,99C130.4,99,130.4,99,130.3,99z M127.5,96.1l1.7,0c0,0.3,0.1,0.5,0.3,0.7l-1.2,1.2
		C127.8,97.5,127.5,96.8,127.5,96.1z M127.5,95.7c0.1-0.7,0.3-1.4,0.8-1.9l1.2,1.2c-0.2,0.2-0.3,0.5-0.3,0.7L127.5,95.7
		C127.5,95.8,127.5,95.7,127.5,95.7z M130.5,96.9c-0.6,0-1-0.5-0.9-1.1c0-0.6,0.5-1,1.1-0.9s1,0.5,0.9,1.1
		C131.5,96.6,131,97,130.5,96.9z M130.8,92.8c0.7,0.1,1.4,0.3,1.8,0.8l-1.2,1.2c-0.2-0.2-0.5-0.3-0.7-0.3L130.8,92.8
		C130.7,92.8,130.7,92.8,130.8,92.8z M133.6,95.8l-1.7,0c0-0.3-0.1-0.5-0.3-0.7l1.2-1.2C133.3,94.3,133.6,95,133.6,95.8z
		 M130.4,92.8l0,1.7c-0.3,0-0.5,0.1-0.7,0.3l-1.2-1.2C129,93.2,129.7,92.9,130.4,92.8z M130.7,99l0-1.7c0.3,0,0.5-0.1,0.7-0.3
		l1.2,1.2C132.1,98.7,131.4,99,130.7,99z"/>
	<path class="st111" d="M167.9,87.7c0-0.1,0-0.1,0-0.2c0-0.1,0-0.3,0-0.4c0.1,0,0.3-0.1,0.4-0.1c0,0,0,0,0,0l0-0.3l-0.5,0
		c0-0.2-0.1-0.4-0.1-0.6c0.1-0.1,0.3-0.1,0.4-0.2c0,0,0,0,0,0l-0.1-0.3l-0.5,0.1c-0.1-0.2-0.2-0.3-0.3-0.5c0.1-0.1,0.2-0.2,0.3-0.3
		c0,0,0,0,0,0l-0.2-0.2L167,85c-0.1-0.1-0.3-0.3-0.4-0.4c0.1-0.1,0.2-0.3,0.2-0.3c0,0,0,0,0,0l-0.2-0.2l-0.3,0.4
		c-0.2-0.1-0.3-0.2-0.5-0.3c0-0.1,0.1-0.3,0.1-0.4c0,0,0,0,0,0l-0.3-0.1l-0.2,0.4c-0.2-0.1-0.4-0.1-0.6-0.1c0-0.1,0-0.3,0-0.4
		c0,0,0,0,0,0l-0.3,0l-0.1,0.5c-0.2,0-0.4,0-0.6,0.1c0-0.1-0.1-0.3-0.1-0.4c0,0,0,0,0,0l-0.3,0.1l0.1,0.5c-0.2,0.1-0.4,0.1-0.5,0.2
		c-0.1-0.1-0.2-0.3-0.2-0.3c0,0,0,0,0,0l-0.3,0.1l0.2,0.4c-0.1,0.1-0.2,0.2-0.3,0.2c0,0-0.1,0.1-0.1,0.1c-0.1-0.1-0.2-0.2-0.3-0.3
		c0,0,0,0,0,0l-0.2,0.2l0.3,0.4c-0.1,0.2-0.2,0.3-0.3,0.5c-0.1,0-0.3-0.1-0.4-0.2c0,0,0,0,0,0l-0.1,0.3l0.4,0.3
		c-0.1,0.2-0.1,0.4-0.2,0.6c-0.1,0-0.3,0-0.4,0c0,0,0,0,0,0l-0.1,0.3l0.5,0.1c0,0.1,0,0.1,0,0.2c0,0.1,0,0.3,0,0.4
		c-0.1,0-0.3,0.1-0.4,0.1c0,0,0,0,0,0l0,0.3l0.5,0c0,0.2,0.1,0.4,0.1,0.6c-0.1,0.1-0.3,0.1-0.4,0.2c0,0,0,0,0,0l0.1,0.3l0.5-0.1
		c0.1,0.2,0.2,0.3,0.3,0.5c-0.1,0.1-0.2,0.2-0.3,0.3c0,0,0,0,0,0l0.2,0.2l0.4-0.3c0.1,0.1,0.3,0.3,0.4,0.4c-0.1,0.1-0.2,0.3-0.2,0.3
		c0,0,0,0,0,0l0.2,0.2l0.3-0.4c0.2,0.1,0.3,0.2,0.5,0.3c0,0.1-0.1,0.3-0.1,0.4c0,0,0,0,0,0l0.3,0.1l0.2-0.4c0.2,0.1,0.4,0.1,0.6,0.1
		c0,0.1,0,0.3,0,0.4c0,0,0,0,0,0l0.3,0l0.1-0.5c0.2,0,0.4,0,0.6-0.1c0,0.1,0.1,0.3,0.1,0.4c0,0,0,0,0,0l0.3-0.1l-0.1-0.5
		c0.2-0.1,0.4-0.1,0.5-0.2c0.1,0.1,0.2,0.3,0.2,0.3c0,0,0,0,0,0l0.3-0.1l-0.2-0.4c0.1-0.1,0.2-0.2,0.3-0.3c0,0,0.1-0.1,0.1-0.1
		c0.1,0.1,0.2,0.2,0.3,0.3c0,0,0,0,0,0l0.2-0.2l-0.3-0.4c0.1-0.2,0.2-0.3,0.3-0.5c0.1,0,0.3,0.1,0.4,0.2c0,0,0,0,0,0l0.1-0.3
		l-0.4-0.3c0.1-0.2,0.1-0.4,0.2-0.6c0.1,0,0.3,0,0.4,0.1c0,0,0,0,0,0l0.1-0.3L167.9,87.7z M167.6,87.5c0,0.7-0.3,1.3-0.8,1.8
		l-1.2-1.2c0.2-0.2,0.3-0.4,0.3-0.7l1.7,0C167.6,87.4,167.6,87.5,167.6,87.5z M164.3,90.3c-0.7-0.1-1.3-0.3-1.8-0.8l1.2-1.2
		c0.2,0.2,0.4,0.3,0.7,0.3L164.3,90.3C164.4,90.3,164.3,90.3,164.3,90.3z M161.5,87.4l1.7,0c0,0.3,0.1,0.5,0.3,0.7l-1.2,1.2
		C161.8,88.8,161.5,88.2,161.5,87.4z M161.5,87.1c0.1-0.7,0.3-1.3,0.8-1.8l1.2,1.2c-0.2,0.2-0.3,0.4-0.3,0.7L161.5,87.1
		C161.5,87.1,161.5,87.1,161.5,87.1z M164.5,88.3c-0.6,0-1-0.5-0.9-1.1c0-0.6,0.5-1,1.1-0.9c0.6,0,1,0.5,0.9,1.1
		C165.5,87.9,165,88.3,164.5,88.3z M164.7,84.3c0.7,0.1,1.3,0.3,1.8,0.8l-1.2,1.2c-0.2-0.2-0.4-0.3-0.7-0.3L164.7,84.3
		C164.7,84.3,164.7,84.3,164.7,84.3z M167.6,87.1l-1.7,0c0-0.3-0.1-0.5-0.3-0.7l1.2-1.2C167.2,85.7,167.5,86.4,167.6,87.1z
		 M164.4,84.3l0,1.7c-0.3,0-0.5,0.1-0.7,0.3l-1.2-1.2C163,84.6,163.6,84.3,164.4,84.3z M164.7,90.3l0-1.7c0.3,0,0.5-0.1,0.7-0.3
		l1.2,1.2C166.1,90,165.4,90.3,164.7,90.3z"/>
	<path class="st111" d="M40.9,31.3c0-0.1,0-0.1,0-0.2c0-0.1,0-0.3,0-0.4c0.1,0,0.3-0.1,0.4-0.1c0,0,0.1,0,0.1,0l0-0.3l-0.5,0
		c0-0.2-0.1-0.4-0.1-0.6c0.1-0.1,0.3-0.1,0.4-0.2c0,0,0,0,0,0L41,29.3l-0.5,0.1c-0.1-0.2-0.2-0.4-0.3-0.5c0.1-0.1,0.2-0.2,0.3-0.3
		c0,0,0,0,0,0l-0.2-0.2L40,28.6c-0.1-0.2-0.3-0.3-0.4-0.4c0.1-0.1,0.2-0.3,0.2-0.4c0,0,0,0,0,0l-0.2-0.2L39.3,28
		c-0.2-0.1-0.3-0.2-0.5-0.3c0-0.1,0.1-0.3,0.1-0.4c0,0,0,0,0,0l-0.3-0.1l-0.2,0.4c-0.2-0.1-0.4-0.1-0.6-0.1c0-0.1,0-0.3,0-0.4
		c0,0,0-0.1,0-0.1l-0.3,0l-0.1,0.5c-0.2,0-0.4,0-0.6,0.1c0-0.1-0.1-0.3-0.1-0.4c0,0,0,0,0,0l-0.3,0.1l0.1,0.5
		c-0.2,0.1-0.4,0.1-0.6,0.2c-0.1-0.1-0.2-0.3-0.2-0.3c0,0,0,0,0,0l-0.3,0.1l0.2,0.4c-0.1,0.1-0.2,0.2-0.3,0.3c0,0-0.1,0.1-0.1,0.1
		c-0.1-0.1-0.3-0.2-0.3-0.3c0,0,0,0,0,0l-0.2,0.2l0.3,0.4c-0.1,0.2-0.2,0.3-0.3,0.5c-0.1-0.1-0.3-0.1-0.4-0.2c0,0,0,0,0,0l-0.1,0.3
		l0.4,0.3c-0.1,0.2-0.1,0.4-0.2,0.6c-0.1,0-0.3,0-0.4-0.1c0,0-0.1,0-0.1,0l-0.1,0.3l0.5,0.1c0,0.1,0,0.1,0,0.2c0,0.1,0,0.3,0,0.4
		c-0.1,0-0.3,0.1-0.4,0.1c0,0,0,0,0,0l0,0.3l0.5,0c0,0.2,0.1,0.4,0.1,0.6c-0.1,0.1-0.3,0.1-0.4,0.2c0,0,0,0,0,0l0.1,0.3l0.5-0.1
		c0.1,0.2,0.2,0.4,0.3,0.5c-0.1,0.1-0.2,0.2-0.3,0.3c0,0,0,0,0,0l0.2,0.2l0.4-0.3c0.1,0.1,0.3,0.3,0.4,0.4c-0.1,0.1-0.2,0.3-0.2,0.4
		c0,0,0,0,0,0l0.2,0.2l0.3-0.4c0.2,0.1,0.3,0.2,0.5,0.3c0,0.1-0.1,0.3-0.1,0.4c0,0,0,0,0,0l0.3,0.1l0.2-0.4c0.2,0.1,0.4,0.1,0.6,0.1
		c0,0.1,0,0.3,0,0.4c0,0,0,0.1,0,0.1l0.3,0l0.1-0.5c0.2,0,0.4,0,0.6-0.1c0,0.1,0.1,0.3,0.1,0.4c0,0,0,0,0,0l0.3-0.1l-0.1-0.5
		c0.2-0.1,0.4-0.1,0.6-0.2c0.1,0.1,0.2,0.3,0.2,0.3c0,0,0,0,0,0l0.3-0.1l-0.2-0.4c0.1-0.1,0.2-0.2,0.3-0.3c0,0,0.1-0.1,0.1-0.1
		c0.1,0.1,0.2,0.2,0.3,0.3c0,0,0,0,0,0l0.2-0.2l-0.3-0.4c0.1-0.2,0.2-0.3,0.3-0.5c0.1,0.1,0.3,0.1,0.4,0.2c0,0,0,0,0,0l0.1-0.3
		l-0.4-0.3c0.1-0.2,0.1-0.4,0.2-0.6c0.1,0,0.3,0,0.4,0.1c0,0,0.1,0,0.1,0l0.1-0.3L40.9,31.3z M40.5,31.1c-0.1,0.7-0.3,1.3-0.8,1.8
		l-1.2-1.2c0.2-0.2,0.3-0.5,0.3-0.7l1.7,0C40.5,31.1,40.5,31.1,40.5,31.1z M37.2,34c-0.7-0.1-1.4-0.3-1.9-0.8l1.2-1.2
		c0.2,0.2,0.4,0.3,0.7,0.3L37.2,34C37.3,34,37.3,34,37.2,34z M34.4,31.1l1.7,0c0,0.3,0.1,0.5,0.3,0.7L35.2,33
		C34.7,32.5,34.4,31.8,34.4,31.1z M34.4,30.7c0.1-0.7,0.3-1.4,0.8-1.8l1.2,1.2c-0.2,0.2-0.3,0.4-0.3,0.7L34.4,30.7
		C34.4,30.7,34.4,30.7,34.4,30.7z M37.4,31.9c-0.6,0-1-0.5-0.9-1.1s0.5-1,1.1-0.9c0.6,0,1,0.5,0.9,1.1C38.4,31.5,37.9,32,37.4,31.9z
		 M37.7,27.8c0.7,0.1,1.3,0.3,1.8,0.8l-1.2,1.2c-0.2-0.2-0.5-0.3-0.7-0.3L37.7,27.8C37.6,27.8,37.6,27.8,37.7,27.8z M40.5,30.7
		l-1.7,0c0-0.3-0.1-0.5-0.3-0.7l1.2-1.2C40.2,29.3,40.5,30,40.5,30.7z M37.3,27.8l0,1.7c-0.3,0-0.5,0.1-0.7,0.3l-1.2-1.2
		C35.9,28.2,36.5,27.9,37.3,27.8z M37.6,34l0-1.7c0.3,0,0.5-0.1,0.7-0.3l1.2,1.2C39,33.6,38.3,34,37.6,34z"/>
	<path class="st111" d="M84.3,24c0-0.1,0-0.1,0-0.2c0-0.2,0-0.3,0-0.5c0.2,0,0.4-0.1,0.5-0.1c0,0,0.1,0,0.1,0l0-0.4l-0.6,0
		c0-0.2-0.1-0.5-0.2-0.7c0.1-0.1,0.4-0.2,0.5-0.2c0,0,0.1,0,0.1,0l-0.1-0.3l-0.6,0.2c-0.1-0.2-0.2-0.4-0.4-0.6
		c0.1-0.1,0.3-0.3,0.4-0.3c0,0,0,0,0,0l-0.2-0.3l-0.5,0.3c-0.2-0.2-0.3-0.3-0.5-0.5c0.1-0.1,0.2-0.3,0.3-0.4c0,0,0-0.1,0-0.1
		l-0.3-0.2l-0.4,0.4c-0.2-0.1-0.4-0.2-0.6-0.3c0-0.1,0.1-0.4,0.1-0.5c0,0,0-0.1,0-0.1l-0.3-0.1l-0.2,0.5c-0.2-0.1-0.5-0.1-0.7-0.1
		c0-0.2,0-0.4,0-0.5c0,0,0-0.1,0-0.1l-0.4,0l-0.1,0.6c-0.3,0-0.5,0-0.7,0.1c0-0.1-0.1-0.4-0.2-0.5c0,0,0-0.1,0-0.1l-0.4,0.1l0.1,0.6
		c-0.2,0.1-0.5,0.2-0.7,0.3c-0.1-0.1-0.2-0.3-0.3-0.4c0,0,0-0.1,0-0.1l-0.3,0.2l0.2,0.5c-0.1,0.1-0.3,0.2-0.4,0.3
		c-0.1,0-0.1,0.1-0.2,0.2c-0.1-0.1-0.3-0.3-0.4-0.3c0,0,0,0,0,0l-0.3,0.3l0.4,0.4c-0.2,0.2-0.3,0.4-0.4,0.6
		c-0.1-0.1-0.4-0.2-0.5-0.2c0,0-0.1,0-0.1,0l-0.2,0.3l0.5,0.3c-0.1,0.2-0.2,0.4-0.2,0.7c-0.2,0-0.4,0-0.5-0.1c0,0-0.1,0-0.1,0
		l-0.1,0.4l0.6,0.2c0,0.1,0,0.1,0,0.2c0,0.2,0,0.3,0,0.5c-0.2,0-0.4,0.1-0.5,0.1c0,0-0.1,0-0.1,0l0,0.4l0.6,0c0,0.2,0.1,0.5,0.2,0.7
		c-0.1,0.1-0.4,0.2-0.5,0.2c0,0-0.1,0-0.1,0l0.1,0.3l0.6-0.2c0.1,0.2,0.2,0.4,0.4,0.6c-0.1,0.1-0.3,0.3-0.4,0.3c0,0,0,0,0,0l0.2,0.3
		l0.5-0.3c0.2,0.2,0.3,0.3,0.5,0.5c-0.1,0.1-0.2,0.3-0.3,0.4c0,0,0,0.1,0,0.1l0.3,0.2L78,27c0.2,0.1,0.4,0.2,0.6,0.3
		c0,0.1-0.1,0.4-0.1,0.5c0,0,0,0.1,0,0.1l0.3,0.1l0.2-0.5c0.2,0.1,0.5,0.1,0.7,0.1c0,0.2,0,0.4,0,0.5c0,0,0,0.1,0,0.1l0.4,0l0.1-0.6
		c0.2,0,0.5,0,0.7-0.1c0,0.1,0.1,0.4,0.2,0.5c0,0,0,0.1,0,0.1l0.4-0.1l-0.1-0.6c0.2-0.1,0.5-0.2,0.7-0.3c0.1,0.1,0.2,0.3,0.3,0.4
		c0,0,0,0.1,0,0.1l0.3-0.2l-0.2-0.5c0.1-0.1,0.3-0.2,0.4-0.3c0.1,0,0.1-0.1,0.2-0.1c0.1,0.1,0.3,0.3,0.4,0.3c0,0,0,0,0,0l0.3-0.3
		l-0.4-0.4c0.2-0.2,0.3-0.4,0.4-0.6c0.1,0.1,0.4,0.2,0.5,0.2c0,0,0.1,0,0.1,0l0.2-0.3L84,25.1c0.1-0.2,0.2-0.4,0.2-0.7
		c0.2,0,0.4,0,0.5,0.1c0,0,0.1,0,0.1,0l0.1-0.4L84.3,24z M83.9,23.7c-0.1,0.9-0.4,1.6-0.9,2.2l-1.5-1.4c0.2-0.2,0.3-0.5,0.4-0.9
		l2.1,0C83.9,23.6,83.9,23.7,83.9,23.7z M79.9,27.1c-0.9-0.1-1.6-0.4-2.2-1l1.5-1.5c0.2,0.2,0.5,0.3,0.9,0.4l0,2.1
		C80,27.1,80,27.1,79.9,27.1z M76.4,23.6l2.1,0c0,0.3,0.2,0.6,0.4,0.9l-1.5,1.5C76.9,25.3,76.5,24.5,76.4,23.6z M76.5,23.2
		c0.1-0.9,0.4-1.6,1-2.2l1.5,1.4c-0.2,0.2-0.3,0.5-0.4,0.9l-2.1,0C76.4,23.2,76.4,23.2,76.5,23.2z M80.1,24.7
		c-0.7,0-1.2-0.6-1.1-1.3s0.6-1.2,1.3-1.1c0.7,0,1.2,0.6,1.1,1.3S80.8,24.7,80.1,24.7z M80.4,19.7c0.9,0.1,1.6,0.4,2.2,0.9l-1.5,1.5
		c-0.2-0.2-0.5-0.3-0.9-0.4l0-2.1C80.4,19.7,80.4,19.7,80.4,19.7z M83.9,23.2l-2.1,0c0-0.3-0.2-0.6-0.4-0.9l1.5-1.5
		C83.5,21.5,83.9,22.3,83.9,23.2z M80,19.7l0,2.1c-0.3,0-0.6,0.2-0.9,0.4l-1.5-1.4C78.3,20.1,79.1,19.8,80,19.7z M80.4,27.1l0-2.1
		c0.3,0,0.6-0.2,0.9-0.4l1.5,1.4C82.1,26.7,81.3,27.1,80.4,27.1z"/>
</g>
</svg>
