<?xml version="1.0" encoding="utf-8"?>
<!-- Generator: Adobe Illustrator 26.0.1, SVG Export Plug-In . SVG Version: 6.00 Build 0)  -->
<svg version="1.1" id="Слой_1" xmlns="http://www.w3.org/2000/svg" xmlns:xlink="http://www.w3.org/1999/xlink" x="0px" y="0px"
	 viewBox="0 0 200 104" style="enable-background:new 0 0 200 104;" xml:space="preserve">
<style type="text/css">
	.st6658{fill:#2D5A93;}
</style>
<g>
	<path class="st6658" d="M89.4,57.9c0.4,0.1,1.2,0.4,1.5,0.5c0.1,0.1,0.1,0.1,0.1,0.1l0.4-1L90,56.5c0.2-0.7,0.4-1.5,0.6-2.2
		c0.5,0,1.3,0.1,1.6,0.1c0.1,0,0.2,0,0.2,0l0.1-1.1l-1.9-0.4c0-0.2,0-0.4,0-0.7c0-0.5,0-1-0.1-1.6c0.4-0.1,1.2-0.3,1.6-0.4
		c0.1,0,0.2-0.1,0.2-0.1l-0.1-1.1l-1.9,0.1c-0.1-0.7-0.4-1.5-0.7-2.2c0.4-0.2,1.1-0.6,1.4-0.8c0.1-0.1,0.1-0.1,0.1-0.1l-0.4-1
		L89,45.6c-0.4-0.7-0.8-1.3-1.3-1.9c0.4-0.4,0.9-0.9,1.1-1.2c0.1-0.1,0.1-0.1,0.1-0.1l-0.7-0.9l-1.5,1.1c-0.6-0.5-1.2-1-1.8-1.5
		c0.2-0.4,0.6-1.1,0.7-1.4c0.1-0.1,0.1-0.1,0.1-0.1l-1-0.6l-1.1,1.5c-0.7-0.4-1.4-0.7-2.2-0.9c0.1-0.4,0.2-1.2,0.3-1.6
		c0-0.1,0.1-0.2,0.1-0.2l-1.1-0.4l-0.7,1.7c-0.7-0.1-1.5-0.2-2.3-0.2c-0.1-0.5-0.1-1.3-0.1-1.6c0-0.1,0-0.2,0-0.2h-1.2l-0.1,1.9
		c-0.8,0.1-1.6,0.2-2.4,0.4c-0.1-0.4-0.4-1.2-0.6-1.5c0-0.1,0-0.2,0-0.2l-1.1,0.3l0.4,1.8c-0.7,0.3-1.4,0.7-2.1,1
		c-0.3-0.4-0.7-1-1-1.3c-0.1-0.1-0.1-0.1-0.1-0.1l-1,0.6l0.9,1.6c-0.4,0.4-0.8,0.8-1.2,1.2c-0.1,0.1-0.3,0.4-0.5,0.5
		c-0.4-0.3-1-0.7-1.3-1c-0.1-0.1-0.1-0.1-0.1-0.1L65.3,43l1.3,1.3c-0.4,0.6-0.8,1.3-1.2,2c-0.4-0.1-1.2-0.4-1.5-0.5
		c-0.1-0.1-0.1-0.1-0.1-0.1l-0.4,1l1.6,0.9c-0.2,0.7-0.4,1.5-0.6,2.2c-0.5,0-1.3-0.1-1.6-0.1c-0.1,0-0.2,0-0.2,0L62.3,51l1.8,0.4
		c0,0.2,0,0.4,0,0.7c0,0.5,0,1.1,0.1,1.6c-0.4,0.1-1.2,0.3-1.6,0.4c-0.1,0-0.2,0.1-0.2,0.1l0.1,1.1l1.9-0.1c0.1,0.7,0.4,1.5,0.7,2.2
		c-0.4,0.2-1.1,0.6-1.4,0.8c-0.1,0.1-0.1,0.1-0.1,0.1l0.5,1l1.7-0.6c0.4,0.7,0.8,1.3,1.3,1.9c-0.4,0.4-0.9,0.9-1.1,1.2
		C66,61.9,65.9,62,65.9,62l0.7,0.9l1.5-1.1c0.6,0.5,1.2,1,1.8,1.4c-0.2,0.4-0.6,1.1-0.7,1.4c-0.1,0.1-0.1,0.1-0.1,0.1l1,0.6l1.1-1.5
		c0.7,0.4,1.4,0.7,2.2,0.9c-0.1,0.4-0.2,1.2-0.3,1.6c0,0.1-0.1,0.2-0.1,0.2l1.1,0.3l0.7-1.7c0.7,0.1,1.5,0.2,2.3,0.2
		c0.1,0.5,0.1,1.3,0.1,1.6c0,0.1,0,0.2,0,0.2h1.2l0.1-1.9c0.7-0.1,1.6-0.2,2.3-0.4c0.1,0.4,0.4,1.2,0.6,1.5c0.1,0.1,0.1,0.1,0.1,0.1
		l1.1-0.3l-0.4-1.8c0.7-0.3,1.4-0.6,2.1-1c0.3,0.4,0.7,1,1,1.3c0.1,0.1,0.1,0.1,0.1,0.1l1-0.6l-0.9-1.6c0.4-0.3,0.8-0.7,1.2-1.1
		c0.1-0.1,0.3-0.3,0.4-0.5c0.4,0.3,1,0.7,1.3,1c0.1,0.1,0.1,0.1,0.1,0.1l0.7-0.9l-1.3-1.3C88.6,59.3,89,58.6,89.4,57.9z M85.7,43.4
		c1.9,1.9,3.3,4.4,3.7,7.2l-6.6,0.5c-0.2-1-0.7-1.9-1.3-2.7L85.7,43.4z M81.4,52.1c0,2.2-1.8,3.9-3.9,3.9c-2.2,0-3.9-1.8-3.9-3.9
		c0-2.2,1.8-3.9,3.9-3.9C79.6,48.2,81.4,50,81.4,52.1z M77.5,40.2c2.8,0,5.3,1,7.3,2.5l-4.3,5.1c-0.8-0.6-1.8-0.9-2.9-1L77,40.2
		C77.2,40.2,77.3,40.2,77.5,40.2z M76,40.3l0.5,6.6c-1,0.1-1.9,0.7-2.7,1.3l-5.1-4.3C70.6,42,73.1,40.7,76,40.3z M65.5,52.1
		c0-2.8,1-5.3,2.5-7.3l5.1,4.3c-0.6,0.8-0.9,1.8-1,2.9l-6.6,0.5C65.5,52.4,65.5,52.3,65.5,52.1z M69.3,60.8
		c-1.9-1.9-3.3-4.4-3.7-7.2l6.6-0.5c0.1,1,0.7,1.9,1.3,2.7L69.3,60.8z M77.5,64.1c-2.8,0-5.3-1-7.4-2.5l4.3-5.1
		c0.8,0.6,1.8,0.9,2.9,1l0.5,6.6C77.7,64.1,77.5,64.1,77.5,64.1z M78.9,64l-0.5-6.6c1-0.1,2-0.7,2.8-1.4l5.1,4.2
		C84.3,62.3,81.7,63.6,78.9,64z M86.9,59.4l-5.1-4.2c0.6-0.8,0.9-1.8,1-2.9l6.6-0.5c-0.1,0.1-0.1,0.2-0.1,0.4
		C89.4,54.9,88.4,57.4,86.9,59.4z"/>
	<path class="st6658" d="M59.1,20.3c-0.4-0.1-1-0.3-1.3-0.4c-0.1,0-0.1-0.1-0.1-0.1l-0.4,0.9l1.4,0.7c-0.2,0.7-0.4,1.3-0.4,1.9
		c-0.4,0-1.1,0-1.4-0.1c-0.1,0-0.1,0-0.1,0l-0.1,1l1.6,0.3c0,0.2,0,0.4,0,0.6c0,0.4,0.1,1,0.1,1.4c-0.4,0.1-1,0.3-1.3,0.4
		c-0.1,0-0.1,0.1-0.1,0.1l0.1,1l1.6-0.1c0.1,0.7,0.4,1.3,0.7,1.9c-0.4,0.2-0.9,0.6-1.2,0.7c-0.1,0.1-0.1,0.1-0.1,0.1l0.4,0.9
		l1.5-0.6c0.4,0.6,0.7,1.1,1.2,1.6c-0.3,0.3-0.7,0.8-1,1c0,0.1,0,0.1,0,0.1l0.7,0.7l1.3-1c0.5,0.4,1,0.9,1.6,1.2
		c-0.2,0.4-0.4,1-0.6,1.3C62.7,36,62.7,36,62.7,36l0.9,0.5l1-1.3c0.6,0.3,1.2,0.5,1.9,0.7c-0.1,0.4-0.1,1-0.2,1.3c0,0.1,0,0.1,0,0.1
		l1,0.2l0.5-1.5c0.7,0.1,1.3,0.1,2,0.1c0.1,0.4,0.1,1.1,0.1,1.4c0,0.1,0,0.1,0,0.1h1l0.1-1.6c0.7-0.1,1.3-0.2,1.9-0.4
		c0.1,0.4,0.4,1,0.5,1.3c0.1,0.1,0.1,0.1,0.1,0.1l1-0.3L74,35.5c0.6-0.2,1.2-0.6,1.8-1c0.3,0.3,0.7,0.8,0.9,1.1
		c0.1,0.1,0.1,0.1,0.1,0.1l0.8-0.6l-0.8-1.4c0.4-0.3,0.7-0.6,1-1c0.1-0.1,0.3-0.3,0.4-0.4c0.4,0.2,0.9,0.6,1.1,0.8
		c0.1,0.1,0.1,0.1,0.1,0.1l0.7-0.7L79,31.4c0.4-0.5,0.7-1.1,1-1.7c0.4,0.1,1,0.4,1.3,0.4c0.1,0,0.1,0.1,0.1,0.1l0.4-0.9l-1.4-0.7
		c0.2-0.7,0.4-1.3,0.4-1.9c0.4,0,1.1,0,1.4,0.1c0.1,0,0.1,0,0.1,0l0.1-1l-1.5-0.5c0-0.2,0-0.4,0-0.6c0-0.4-0.1-1-0.1-1.4
		c0.4-0.1,1-0.3,1.3-0.4c0.1,0,0.1-0.1,0.1-0.1l-0.1-1L80.7,22c-0.1-0.7-0.4-1.3-0.7-1.9c0.4-0.2,0.9-0.5,1.2-0.7
		c0.1-0.1,0.1-0.1,0.1-0.1L81,18.5l-1.5,0.6c-0.4-0.6-0.7-1.1-1.2-1.6c0.3-0.3,0.7-0.8,1-1c0.1-0.1,0.1-0.1,0.1-0.1l-0.7-0.7l-1.3,1
		c-0.5-0.4-1-0.9-1.6-1.2c0.2-0.4,0.4-1,0.6-1.3c0.1-0.1,0.1-0.1,0.1-0.1l-0.9-0.5l-1,1.3c-0.6-0.3-1.2-0.5-1.9-0.7
		c0.1-0.4,0.2-1,0.2-1.3c0-0.1,0-0.1,0-0.1l-1-0.2l-0.5,1.5c-0.7-0.1-1.3-0.1-2-0.1c-0.1-0.4-0.1-1.1-0.1-1.4c0-0.1,0-0.1,0-0.1h-1
		l-0.1,1.6c-0.7,0.1-1.3,0.2-2,0.4c-0.1-0.4-0.4-1-0.5-1.3c-0.1-0.1-0.1-0.1-0.1-0.1l-1,0.3l0.4,1.6c-0.6,0.3-1.2,0.6-1.8,1
		c-0.3-0.3-0.7-0.8-0.9-1c-0.1-0.1-0.1-0.1-0.1-0.1l-0.8,0.6l0.8,1.4c-0.4,0.3-0.7,0.6-1,1c-0.1,0.1-0.3,0.3-0.4,0.4
		c-0.4-0.2-0.9-0.6-1.2-0.8c-0.1-0.1-0.1-0.1-0.1-0.1l-0.7,0.7l1.1,1.1C59.6,19.1,59.4,19.7,59.1,20.3z M62.7,32.6
		c-1.8-1.6-3-3.7-3.4-6.2l5.7-0.6c0.1,0.9,0.6,1.7,1.3,2.3L62.7,32.6z M66.1,25c-0.1-1.9,1.5-3.4,3.4-3.5s3.4,1.5,3.5,3.4
		s-1.4,3.4-3.4,3.5C67.8,28.4,66.2,26.9,66.1,25z M69.8,35.2c-2.4,0.1-4.6-0.7-6.4-2.1l3.7-4.5c0.7,0.4,1.6,0.7,2.5,0.7l0.6,5.7
		C70,35.2,69.9,35.2,69.8,35.2z M71.1,35.1l-0.6-5.7c0.9-0.1,1.7-0.6,2.4-1.3l4.5,3.6C75.7,33.6,73.5,34.8,71.1,35.1z M79.9,24.7
		c0.1,2.4-0.7,4.6-2,6.3l-4.5-3.6c0.4-0.7,0.7-1.6,0.7-2.5l5.7-0.6C79.9,24.4,79.9,24.6,79.9,24.7z M76.3,17.2
		c1.9,1.6,3.1,3.7,3.4,6.2L74,24c-0.1-0.9-0.6-1.7-1.3-2.3L76.3,17.2z M69.3,14.6c2.4-0.1,4.6,0.7,6.4,2l-3.6,4.5
		c-0.7-0.4-1.6-0.7-2.5-0.7L69,14.6C69.1,14.6,69.3,14.6,69.3,14.6z M68.1,14.7l0.6,5.7c-0.9,0.1-1.7,0.6-2.3,1.3l-4.5-3.7
		C63.4,16.3,65.6,15.1,68.1,14.7z M61.3,18.8l4.5,3.7C65.3,23.2,65,24,65,24.9l-5.7,0.6c0-0.1,0-0.3,0-0.4
		C59.2,22.8,60,20.5,61.3,18.8z"/>
	<path class="st6658" d="M114.7,43.6c-0.4,0.1-1,0.4-1.3,0.4c-0.1,0-0.1,0.1-0.1,0.1l0.2,0.9l1.5-0.2c0.2,0.6,0.4,1.2,0.8,1.7
		c-0.3,0.2-0.8,0.6-1,0.7c-0.1,0.1-0.1,0.1-0.1,0.1l0.5,0.8l1.3-0.7c0.4,0.5,0.8,1,1.3,1.4c-0.2,0.3-0.6,0.8-0.8,1
		c-0.1,0.1-0.1,0.1-0.1,0.1l0.7,0.7l1.1-1c0.5,0.4,1,0.7,1.6,1c-0.1,0.4-0.4,1-0.4,1.3c0,0.1-0.1,0.1-0.1,0.1l0.8,0.4l0.8-1.3
		c0.6,0.2,1.2,0.4,1.9,0.5c0,0.4-0.1,1-0.1,1.3c0,0.1,0,0.1,0,0.1l1,0.1l0.4-1.5c0.7,0.1,1.3,0.1,1.9,0c0.1,0.4,0.2,1,0.3,1.3
		c0,0.1,0,0.1,0,0.1l1-0.1l-0.1-1.5c0.6-0.1,1.3-0.3,1.8-0.5c0.2,0.4,0.4,0.9,0.6,1.2c0.1,0.1,0.1,0.1,0.1,0.1l0.9-0.4l-0.4-1.5
		c0.4-0.2,0.7-0.4,1.1-0.7c0.1-0.1,0.3-0.2,0.4-0.3c0.3,0.3,0.7,0.7,0.9,1c0.1,0.1,0.1,0.1,0.1,0.1l0.7-0.6l-0.9-1.3
		c0.4-0.4,0.9-0.9,1.3-1.4c0.4,0.2,0.9,0.5,1.1,0.7c0.1,0.1,0.1,0.1,0.1,0.1l0.5-0.8l-1.2-1c0.3-0.5,0.6-1.1,0.8-1.7
		c0.4,0.1,1,0.2,1.3,0.3c0.1,0,0.1,0,0.1,0l0.3-0.9l-1.6-0.5c0.1-0.2,0.1-0.4,0.1-0.6c0.1-0.4,0.1-0.9,0.1-1.3c0.4,0,1-0.1,1.3-0.1
		c0.1,0,0.1,0,0.1,0v-1l-1.5-0.1c0-0.7-0.1-1.3-0.3-1.9c0.4-0.1,1-0.4,1.3-0.4c0.1,0,0.1-0.1,0.1-0.1l-0.2-0.9l-1.5,0.2
		c-0.2-0.6-0.4-1.2-0.8-1.7c0.3-0.2,0.8-0.6,1-0.7c0.1-0.1,0.1-0.1,0.1-0.1l-0.5-0.8l-1.3,0.7c-0.4-0.5-0.8-1-1.3-1.4
		c0.2-0.3,0.6-0.8,0.8-1c0.1-0.1,0.1-0.1,0.1-0.1l-0.7-0.7l-1.1,1c-0.5-0.4-1-0.7-1.6-1c0.1-0.4,0.4-1,0.4-1.3
		c0-0.1,0.1-0.1,0.1-0.1l-0.8-0.4l-0.8,1.3c-0.6-0.2-1.2-0.4-1.9-0.5c0-0.4,0.1-1,0.1-1.3c0-0.1,0-0.1,0-0.1l-1-0.1l-0.4,1.5
		c-0.7-0.1-1.3-0.1-1.9,0c-0.1-0.4-0.2-1-0.3-1.3c0-0.1,0-0.1,0-0.1l-1,0.1l0.1,1.5c-0.6,0.1-1.3,0.3-1.8,0.5
		c-0.2-0.4-0.4-0.9-0.6-1.2c-0.1-0.1-0.1-0.1-0.1-0.1l-0.9,0.4l0.4,1.5c-0.4,0.2-0.7,0.4-1.1,0.7c-0.1,0.1-0.3,0.2-0.4,0.4
		c-0.3-0.3-0.7-0.7-0.9-1c-0.1-0.1-0.1-0.1-0.1-0.1l-0.7,0.6l0.9,1.3c-0.4,0.4-0.9,0.9-1.3,1.4c-0.4-0.2-0.9-0.5-1.1-0.7
		C115.1,34,115,34,115,34l-0.5,0.8l1.2,1c-0.3,0.5-0.6,1.1-0.7,1.7c-0.4-0.1-1-0.2-1.3-0.3c-0.1,0-0.1,0-0.1,0l-0.3,0.9l1.4,0.6
		c-0.1,0.1-0.1,0.4-0.1,0.5c-0.1,0.4-0.1,0.9-0.1,1.3c-0.4,0-1,0.1-1.3,0.1c-0.1,0-0.1,0-0.1,0v1l1.5,0.1
		C114.4,42.5,114.6,43,114.7,43.6z M123.7,51c-0.1,0-0.2,0-0.3-0.1c-2.2-0.4-4.2-1.6-5.6-3.1l4.2-3.4c0.6,0.6,1.3,1,2.2,1.2
		L123.7,51z M124.5,51.1l0.5-5.4c0.9,0,1.7-0.3,2.5-0.7l3.5,4.2C129.2,50.5,126.9,51.2,124.5,51.1z M134.8,43
		c-0.4,2.2-1.5,4.2-3.1,5.5l-3.5-4.2c0.6-0.6,1-1.3,1.2-2.2l5.4,0.5C134.8,42.8,134.8,42.9,134.8,43z M132.8,35.4
		c1.4,1.9,2.2,4.1,2,6.4l-5.4-0.5c0-0.9-0.3-1.7-0.7-2.4L132.8,35.4z M126.6,31.6c0,0.1,0.1,0.1,0.2,0.1c2.2,0.4,4.2,1.5,5.6,3.1
		l-4.2,3.5c-0.6-0.6-1.3-1-2.2-1.2L126.6,31.6z M128.3,41.9c-0.3,1.7-2,2.9-3.8,2.6c-1.8-0.3-2.9-2-2.6-3.8c0.3-1.8,2-2.9,3.8-2.6
		C127.5,38.4,128.6,40.1,128.3,41.9z M125.6,31.5l-0.5,5.4c-0.9,0-1.7,0.3-2.4,0.7l-3.5-4.2C121,32.1,123.2,31.4,125.6,31.5z
		 M115.4,39.6c0.4-2.2,1.6-4.2,3.1-5.6l3.4,4.2c-0.6,0.6-1,1.3-1.2,2.2l-5.4-0.5C115.4,39.8,115.4,39.7,115.4,39.6z M120.7,41.3
		c0,0.9,0.2,1.7,0.7,2.4l-4.2,3.4c-1.3-1.8-2-4-1.9-6.3L120.7,41.3z"/>
	<path class="st6658" d="M140.4,62.9c-0.1-0.5-0.2-1-0.4-1.4c0.3-0.1,0.7-0.4,0.9-0.4c0.1,0,0.1-0.1,0.1-0.1l-0.2-0.7l-1.1,0.3
		c-0.2-0.4-0.4-0.9-0.7-1.3c0.2-0.2,0.6-0.5,0.7-0.7c0.1-0.1,0.1-0.1,0.1-0.1l-0.4-0.6l-1,0.6c-0.3-0.4-0.7-0.7-1-1
		c0.1-0.3,0.4-0.7,0.5-0.9c0.1-0.1,0.1-0.1,0.1-0.1l-0.6-0.4l-0.8,0.9c-0.4-0.3-0.8-0.5-1.3-0.7c0.1-0.3,0.2-0.7,0.3-1
		c0-0.1,0-0.1,0-0.1l-0.7-0.3l-0.5,1c-0.4-0.1-1-0.2-1.4-0.3c0-0.3,0-0.8,0-1c0-0.1,0-0.1,0-0.1l-0.7-0.1l-0.2,1.2
		c-0.5,0-1,0.1-1.5,0.1c-0.1-0.3-0.2-0.7-0.3-1c0-0.1,0-0.1,0-0.1l-0.7,0.1l0.1,1.2c-0.4,0.1-0.9,0.3-1.3,0.5
		c-0.1-0.2-0.4-0.7-0.6-0.9c-0.1-0.1-0.1-0.1-0.1-0.1l-0.7,0.4l0.4,1.1c-0.3,0.2-0.5,0.4-0.8,0.6c-0.1,0.1-0.2,0.2-0.4,0.3
		c-0.2-0.2-0.6-0.5-0.8-0.7c-0.1-0.1-0.1-0.1-0.1-0.1l-0.5,0.5l0.7,0.9c-0.3,0.4-0.6,0.7-0.8,1.2c-0.3-0.1-0.7-0.3-1-0.4
		c-0.1,0-0.1-0.1-0.1-0.1l-0.4,0.7l1,0.7c-0.2,0.4-0.4,0.9-0.4,1.4c-0.3-0.1-0.8-0.1-1-0.1c-0.1,0-0.1,0-0.1,0l-0.1,0.7l1.1,0.4
		c0,0.1,0,0.3-0.1,0.4c0,0.4,0,0.7,0,1c-0.3,0.1-0.8,0.1-1,0.1c-0.1,0-0.1,0-0.1,0l0.1,0.7h1.2c0.1,0.5,0.2,1,0.4,1.4
		c-0.3,0.1-0.7,0.4-0.9,0.4c-0.1,0-0.1,0.1-0.1,0.1l0.2,0.7l1.1-0.3c0.2,0.4,0.4,0.9,0.7,1.3c-0.2,0.2-0.6,0.5-0.7,0.7
		c-0.1,0.1-0.1,0.1-0.1,0.1l0.4,0.6l1-0.6c0.3,0.4,0.7,0.7,1,1c-0.1,0.3-0.4,0.7-0.5,0.9c-0.1,0.1-0.1,0.1-0.1,0.1l0.6,0.4l0.8-0.9
		c0.4,0.3,0.9,0.5,1.3,0.7c-0.1,0.3-0.2,0.7-0.3,1c0,0.1,0,0.1,0,0.1l0.7,0.3l0.5-1c0.4,0.1,1,0.2,1.4,0.3c0,0.3,0,0.8,0,1
		c0,0.1,0,0.1,0,0.1l0.7,0.1l0.2-1.2c0.5,0,1-0.1,1.5-0.1c0.1,0.3,0.2,0.7,0.3,1c0,0.1,0,0.1,0,0.1l0.7-0.1l-0.1-1.2
		c0.4-0.1,0.9-0.3,1.3-0.5c0.1,0.2,0.4,0.7,0.6,0.9c0.1,0.1,0.1,0.1,0.1,0.1l0.7-0.4l-0.4-1.1c0.3-0.2,0.6-0.4,0.8-0.6
		c0.1-0.1,0.2-0.2,0.3-0.3c0.2,0.2,0.6,0.5,0.8,0.7c0.1,0.1,0.1,0.1,0.1,0.1l0.5-0.5l-0.7-0.9c0.3-0.4,0.6-0.7,0.8-1.2
		c0.3,0.1,0.7,0.3,1,0.4c0.1,0,0.1,0.1,0.1,0.1l0.4-0.7l-1-0.7c0.2-0.4,0.4-0.9,0.4-1.4c0.3,0.1,0.8,0.1,1,0.1c0.1,0,0.1,0,0.1,0
		l0.1-0.7l-1-0.4c0-0.1,0-0.3,0.1-0.4c0-0.4,0-0.7,0-1c0.3-0.1,0.8-0.1,1-0.1c0.1,0,0.1,0,0.1,0l-0.1-0.7H140.4z M132.4,56.5
		c0.1,0.1,0.1,0.1,0.2,0.1c1.8,0.1,3.4,0.9,4.5,1.9l-3,3c-0.5-0.4-1.1-0.7-1.8-0.7V56.5z M131.6,56.5v4.2c-0.7,0.1-1.3,0.3-1.8,0.7
		l-3-3C128.1,57.3,129.8,56.6,131.6,56.5z M124.4,63.5c0.1-1.8,0.9-3.4,2-4.5l3,3c-0.4,0.5-0.7,1.1-0.7,1.8h-4.2
		C124.4,63.6,124.4,63.5,124.4,63.5z M124.4,64.4h4.2c0.1,0.7,0.3,1.3,0.7,1.8l-3,3C125.1,67.9,124.5,66.2,124.4,64.4z M131.6,71.7
		c-0.1,0-0.1,0-0.2,0c-1.8-0.1-3.4-0.9-4.5-2l3-3c0.5,0.4,1.1,0.7,1.8,0.7V71.7z M131.8,66.6c-1.4-0.1-2.4-1.3-2.3-2.7
		c0.1-1.4,1.3-2.4,2.7-2.3c1.4,0.1,2.4,1.3,2.3,2.7C134.4,65.7,133.1,66.7,131.8,66.6z M132.3,71.7v-4.2c0.7-0.1,1.3-0.3,1.8-0.7
		l3,3C135.8,70.9,134.1,71.7,132.3,71.7z M139.5,64.7c-0.1,1.7-0.9,3.3-1.9,4.5l-3-3c0.4-0.5,0.7-1.1,0.7-1.8h4.2
		C139.6,64.5,139.5,64.7,139.5,64.7z M135.4,63.8c-0.1-0.7-0.3-1.3-0.7-1.8l3-3c1.2,1.3,1.9,2.9,2,4.8H135.4z"/>
	<path class="st6658" d="M138.9,41.1c-0.2,0-0.6,0.1-0.8,0.1c-0.1,0-0.1,0-0.1,0l0.1,0.6h0.9c0.1,0.4,0.1,0.7,0.3,1.1
		c-0.2,0.1-0.5,0.3-0.7,0.4c-0.1,0-0.1,0.1-0.1,0.1l0.2,0.5l0.9-0.2c0.1,0.4,0.4,0.7,0.6,1c-0.1,0.1-0.4,0.4-0.6,0.5
		c-0.1,0.1-0.1,0.1-0.1,0.1l0.4,0.4l0.7-0.4c0.2,0.3,0.5,0.5,0.8,0.7c-0.1,0.2-0.3,0.5-0.4,0.7c0,0.1-0.1,0.1-0.1,0.1l0.4,0.4
		l0.6-0.7c0.3,0.2,0.7,0.4,1,0.5c-0.1,0.2-0.1,0.6-0.2,0.7c0,0.1,0,0.1,0,0.1l0.5,0.2l0.4-0.8c0.4,0.1,0.7,0.1,1.1,0.2
		c0,0.2,0,0.6,0,0.8c0,0.1,0,0.1,0,0.1l0.6,0.1l0.1-0.9c0.4,0,0.7-0.1,1.1-0.1c0.1,0.2,0.1,0.6,0.2,0.7c0,0.1,0,0.1,0,0.1l0.5-0.1
		l-0.1-0.9c0.4-0.1,0.7-0.2,1-0.4c0.1,0.2,0.4,0.5,0.4,0.7c0,0.1,0.1,0.1,0.1,0.1l0.5-0.3l-0.4-0.8c0.2-0.1,0.4-0.3,0.7-0.5
		c0.1-0.1,0.1-0.1,0.2-0.2c0.1,0.1,0.4,0.4,0.6,0.5c0.1,0.1,0.1,0.1,0.1,0.1l0.4-0.4l-0.6-0.7c0.2-0.3,0.4-0.6,0.7-0.9
		c0.2,0.1,0.6,0.2,0.7,0.3c0.1,0,0.1,0.1,0.1,0.1l0.3-0.5l-0.7-0.5c0.1-0.4,0.3-0.7,0.4-1c0.2,0,0.6,0.1,0.8,0.1c0.1,0,0.1,0,0.1,0
		l0.1-0.5l-1-0.2c0-0.1,0-0.2,0-0.4c0-0.3,0-0.5,0-0.8c0.2,0,0.6-0.1,0.8-0.1c0.1,0,0.1,0,0.1,0V40h-0.9c-0.1-0.4-0.1-0.7-0.3-1.1
		c0.2-0.1,0.5-0.2,0.7-0.3c0.1,0,0.1-0.1,0.1-0.1l-0.2-0.5l-0.9,0.2c-0.1-0.4-0.4-0.7-0.6-1c0.1-0.1,0.4-0.4,0.6-0.5
		c0.1-0.1,0.1-0.1,0.1-0.1l-0.4-0.4l-0.7,0.4c-0.2-0.3-0.5-0.5-0.8-0.8c0.1-0.2,0.3-0.5,0.4-0.7c0-0.1,0.1-0.1,0.1-0.1l-0.4-0.4
		l-0.6,0.7c-0.3-0.2-0.7-0.4-1-0.5c0.1-0.2,0.1-0.6,0.2-0.7c0-0.1,0-0.1,0-0.1l-0.5-0.2l-0.4,0.8c-0.4-0.1-0.7-0.1-1.1-0.2
		c0-0.2,0-0.6,0-0.8c0-0.1,0-0.1,0-0.1l-0.6-0.1l-0.1,0.9c-0.4,0-0.8,0.1-1.2,0.1c-0.1-0.2-0.1-0.6-0.2-0.7c0-0.1,0-0.1,0-0.1
		l-0.5,0.1l0.1,0.9c-0.4,0.1-0.7,0.2-1,0.4c-0.1-0.2-0.4-0.5-0.4-0.7c0-0.1-0.1-0.1-0.1-0.1l-0.5,0.3l0.4,0.8
		c-0.2,0.1-0.4,0.3-0.6,0.4c-0.1,0.1-0.1,0.1-0.3,0.2c-0.1-0.1-0.4-0.4-0.6-0.5c-0.1-0.1-0.1-0.1-0.1-0.1l-0.4,0.4l0.6,0.7
		c-0.2,0.3-0.4,0.6-0.7,0.9c-0.2-0.1-0.6-0.2-0.7-0.3c-0.1,0-0.1-0.1-0.1-0.1l-0.3,0.5l0.7,0.5c-0.1,0.4-0.3,0.7-0.4,1
		c-0.2,0-0.6-0.1-0.8-0.1c-0.1,0-0.1,0-0.1,0l-0.1,0.5l0.9,0.3c0,0.1,0,0.2,0,0.3C138.9,40.6,138.9,40.8,138.9,41.1z M141.1,45
		c-1-1-1.6-2.3-1.6-3.7h3.3c0.1,0.5,0.2,1,0.6,1.4L141.1,45z M145,46.8c-0.1,0.1-0.1,0.1-0.1,0c-1.3-0.1-2.6-0.7-3.5-1.6l2.3-2.3
		c0.4,0.3,0.8,0.5,1.3,0.6V46.8z M145.6,46.9v-3.3c0.5-0.1,1-0.2,1.4-0.6l2.3,2.3C148.3,46.3,147,46.8,145.6,46.9z M151.3,41.3
		c-0.1,0.1-0.1,0.1-0.1,0.1c-0.1,1.3-0.7,2.5-1.5,3.5l-2.3-2.3c0.3-0.4,0.5-0.8,0.6-1.3H151.3z M149.7,37.1c0.9,1,1.5,2.3,1.6,3.7
		H148c-0.1-0.5-0.2-1-0.6-1.3L149.7,37.1z M145.7,35.1c0,0.1,0.1,0.1,0.1,0.1c1.3,0.1,2.5,0.7,3.5,1.5l-2.3,2.3
		c-0.4-0.3-0.8-0.5-1.3-0.6V35.1z M145.5,39.1c1,0.1,1.9,1,1.8,2.1c-0.1,1-1,1.9-2.1,1.8c-1-0.1-1.9-1-1.8-2.1
		C143.5,39.8,144.4,39,145.5,39.1z M145.1,35.2v3.3c-0.5,0.1-1,0.2-1.3,0.6l-2.3-2.3C142.4,35.8,143.7,35.2,145.1,35.2z M139.5,40.6
		c0.1-1.3,0.7-2.5,1.5-3.5l2.3,2.3c-0.3,0.4-0.5,0.8-0.6,1.3h-3.3C139.5,40.7,139.5,40.7,139.5,40.6z"/>
	<path class="st6658" d="M42.4,15.4c0.2-0.1,0.4-0.3,0.6-0.4c0.1-0.1,0.1-0.1,0.2-0.2c0.1,0.1,0.4,0.4,0.5,0.4c0.1,0,0.1,0.1,0.1,0.1
		l0.4-0.4l-0.5-0.6c0.2-0.2,0.4-0.5,0.6-0.8c0.2,0.1,0.5,0.2,0.7,0.3c0.1,0,0.1,0,0.1,0l0.2-0.4l-0.7-0.4c0.1-0.3,0.2-0.6,0.3-1
		c0.2,0,0.5,0.1,0.7,0.1c0.1,0,0.1,0,0.1,0l0.1-0.5h-0.8c0-0.1,0-0.2,0-0.3c0-0.2,0-0.4,0-0.7c0.2,0,0.5-0.1,0.7-0.1
		c0.1,0,0.1,0,0.1,0V9.9h-0.8c-0.1-0.3-0.1-0.7-0.2-1c0.2-0.1,0.5-0.2,0.6-0.3c0.1,0,0.1,0,0.1,0L45,8.2l-0.7,0.2
		c-0.1-0.4-0.2-0.7-0.4-1C44,7.2,44.2,7,44.4,6.9c0.1,0,0.1-0.1,0.1-0.1l-0.3-0.4l-0.7,0.4c-0.2-0.2-0.4-0.4-0.7-0.7
		c0.1-0.1,0.3-0.4,0.4-0.6c0-0.1,0.1-0.1,0.1-0.1l-0.4-0.3l-0.5,0.6c-0.3-0.1-0.6-0.3-0.9-0.4c0.1-0.2,0.1-0.5,0.2-0.7
		c0-0.1,0-0.1,0-0.1l-0.4-0.1l-0.4,0.7c-0.3-0.1-0.7-0.1-1-0.2c0-0.2,0-0.5,0-0.7c0-0.1,0-0.1,0-0.1l-0.5-0.1L39.1,5
		c-0.4,0-0.7,0-1,0.1c-0.1-0.2-0.1-0.5-0.2-0.7c0-0.1,0-0.1,0-0.1h-0.4l0.1,0.8c-0.3,0.1-0.6,0.2-0.9,0.4c-0.1-0.1-0.3-0.4-0.4-0.6
		c0-0.1-0.1-0.1-0.1-0.1l-0.4,0.2L36,5.9c-0.2,0.1-0.4,0.3-0.5,0.4c-0.1,0.1-0.1,0.1-0.2,0.2c-0.1-0.1-0.4-0.4-0.5-0.4
		c-0.1,0-0.1-0.1-0.1-0.1l-0.4,0.4L34.8,7c-0.2,0.2-0.4,0.5-0.6,0.8c-0.2-0.1-0.5-0.2-0.7-0.3c-0.1,0-0.1,0-0.1,0l-0.2,0.4l0.7,0.4
		c-0.1,0.3-0.2,0.6-0.3,1c-0.2,0-0.5-0.1-0.7-0.1c-0.1,0-0.1,0-0.1,0l-0.1,0.5l0.7,0.2c0,0.1,0,0.2,0,0.3c0,0.2,0,0.4,0,0.7
		c-0.2,0-0.5,0.1-0.7,0.1c-0.1,0-0.1,0-0.1,0v0.5h0.8c0.1,0.3,0.1,0.7,0.2,1c-0.2,0.1-0.5,0.2-0.6,0.3c-0.1,0-0.1,0-0.1,0l0.1,0.4
		l0.7-0.2c0.1,0.3,0.3,0.6,0.5,0.9c-0.1,0.1-0.4,0.4-0.5,0.4c-0.1,0-0.1,0.1-0.1,0.1l0.3,0.4l0.7-0.4c0.2,0.2,0.4,0.4,0.7,0.7
		c-0.1,0.1-0.3,0.4-0.4,0.6c0,0.1-0.1,0.1-0.1,0.1l0.4,0.3l0.5-0.6c0.3,0.1,0.6,0.3,0.9,0.4c-0.1,0.2-0.1,0.5-0.2,0.7
		c0,0.1,0,0.1,0,0.1l0.4,0.1l0.4-0.7c0.3,0.1,0.7,0.1,1,0.1c0,0.2,0,0.5,0,0.7c0,0.1,0,0.1,0,0.1l0.5,0.1l0.1-0.8c0.4,0,0.7,0,1-0.1
		c0.1,0.2,0.1,0.5,0.2,0.7c0,0.1,0,0.1,0,0.1l0.5-0.1l-0.1-0.8c0.3-0.1,0.6-0.2,0.9-0.4c0.1,0.1,0.3,0.4,0.4,0.6
		c0,0.1,0.1,0.1,0.1,0.1l0.4-0.2L42.4,15.4z M44.3,11.1c-0.1,1.2-0.6,2.2-1.3,3.1l-2-2c0.3-0.3,0.4-0.7,0.5-1.2h2.8
		C44.3,11,44.3,11,44.3,11.1z M43,7.3c0.8,0.8,1.3,1.9,1.3,3.2h-2.8c-0.1-0.4-0.2-0.9-0.5-1.2L43,7.3z M39.5,5.6c0,0,0.1,0,0.1,0
		c1.2,0.1,2.2,0.6,3.1,1.3l-2,2c-0.3-0.3-0.7-0.4-1.2-0.5V5.6z M38.9,5.6v2.8c-0.4,0.1-0.9,0.2-1.2,0.5l-2-2
		C36.5,6.1,37.7,5.6,38.9,5.6z M34,10.3c0.1-1.2,0.6-2.2,1.3-3.1l2,2c-0.3,0.3-0.4,0.7-0.5,1.2H34C34,10.4,34,10.3,34,10.3z
		 M35.4,14.1c-0.8-0.9-1.3-2-1.3-3.2h2.8c0.1,0.4,0.2,0.9,0.5,1.2L35.4,14.1z M38.9,15.8c-0.1,0-0.1,0-0.1,0
		c-1.2-0.1-2.2-0.6-3.1-1.3l2-2c0.3,0.3,0.7,0.4,1.2,0.5V15.8z M39,12.3c-1-0.1-1.6-0.9-1.6-1.9c0.1-1,0.9-1.6,1.9-1.6
		c1,0.1,1.6,0.9,1.6,1.9C40.8,11.7,40,12.5,39,12.3z M39.4,15.8V13c0.4-0.1,0.9-0.2,1.2-0.5l2,2C41.8,15.3,40.6,15.8,39.4,15.8z"/>
	<path class="st6658" d="M46.2,13.9c-0.2,0-0.6-0.1-0.7-0.1c-0.1,0-0.1,0-0.1,0l-0.1,0.5l0.8,0.2c0,0.1,0,0.2,0,0.3c0,0.2,0,0.5,0,0.7
		c-0.2,0-0.5,0.1-0.7,0.1c-0.1,0-0.1,0-0.1,0v0.5H46c0.1,0.4,0.1,0.7,0.2,1c-0.2,0.1-0.5,0.2-0.7,0.3c-0.1,0-0.1,0.1-0.1,0.1
		l0.1,0.5l0.8-0.2c0.1,0.3,0.3,0.6,0.5,0.9c-0.1,0.1-0.4,0.4-0.5,0.4c-0.1,0-0.1,0.1-0.1,0.1l0.3,0.4l0.7-0.4
		c0.2,0.3,0.5,0.5,0.7,0.7c-0.1,0.1-0.3,0.4-0.4,0.6c0,0.1-0.1,0.1-0.1,0.1l0.4,0.3l0.6-0.6c0.3,0.1,0.6,0.4,0.9,0.4
		c-0.1,0.2-0.1,0.5-0.2,0.7c0,0.1,0,0.1,0,0.1l0.5,0.1l0.4-0.7c0.3,0.1,0.7,0.1,1,0.2c0,0.2,0,0.6,0,0.7c0,0.1,0,0.1,0,0.1l0.5,0.1
		l0.1-0.8c0.4,0,0.7,0,1-0.1c0.1,0.2,0.1,0.5,0.2,0.7c0,0.1,0,0.1,0,0.1l0.5-0.1l-0.1-0.8c0.3-0.1,0.7-0.2,1-0.4
		c0.1,0.1,0.3,0.4,0.4,0.6c0,0.1,0.1,0.1,0.1,0.1l0.4-0.2l-0.3-0.7c0.2-0.1,0.4-0.3,0.6-0.4c0.1-0.1,0.1-0.1,0.2-0.2
		c0.1,0.1,0.4,0.4,0.5,0.4c0.1,0,0.1,0.1,0.1,0.1l0.4-0.4l-0.5-0.7c0.2-0.3,0.4-0.5,0.6-0.8c0.2,0.1,0.5,0.2,0.7,0.3
		c0.1,0,0.1,0,0.1,0l0.2-0.4l-0.7-0.6c0.1-0.3,0.2-0.7,0.4-1c0.2,0,0.6,0.1,0.7,0.1c0.1,0,0.1,0,0.1,0l0.1-0.5l-0.9-0.2
		c0-0.1,0-0.2,0-0.3c0-0.2,0-0.5,0-0.7c0.2,0,0.6-0.1,0.7-0.1c0.1,0,0.1,0,0.1,0v-0.5h-0.8c-0.1-0.4-0.1-0.7-0.2-1
		c0.2-0.1,0.5-0.2,0.7-0.3c0.1,0,0.1-0.1,0.1-0.1l-0.2-0.5l-0.8,0.2c-0.1-0.3-0.3-0.6-0.5-0.9c0.1-0.1,0.4-0.4,0.5-0.4
		c0.1,0,0.1-0.1,0.1-0.1l-0.3-0.4l-0.7,0.4c-0.2-0.3-0.4-0.5-0.7-0.7c0.1-0.1,0.3-0.4,0.4-0.6c0-0.1,0.1-0.1,0.1-0.1l-0.4-0.3
		l-0.6,0.6c-0.3-0.1-0.6-0.4-0.9-0.4c0.1-0.2,0.1-0.5,0.2-0.7c0-0.1,0-0.1,0-0.1L54,8.8l-0.4,0.7c-0.3-0.1-0.7-0.1-1-0.2
		c0-0.2,0-0.6,0-0.7c0-0.1,0-0.1,0-0.1L52,8.5l-0.1,0.8c-0.4,0-0.7,0-1,0.1c-0.1-0.2-0.1-0.5-0.2-0.7c0-0.1,0-0.1,0-0.1l-0.5,0.1
		l0.1,0.8c-0.3,0.1-0.7,0.2-1,0.4c-0.1-0.1-0.3-0.4-0.4-0.6c0-0.1-0.1-0.1-0.1-0.1l-0.4,0.4l0.3,0.7c-0.2,0.1-0.4,0.3-0.6,0.4
		c-0.1,0.1-0.1,0.1-0.2,0.2c-0.1-0.1-0.4-0.4-0.5-0.4c-0.1,0-0.1-0.1-0.1-0.1l-0.4,0.4l0.5,0.7c-0.2,0.3-0.4,0.5-0.6,0.8
		c-0.2-0.1-0.5-0.2-0.7-0.3C46,12,46,12,46,12l-0.2,0.4l0.7,0.4C46.3,13.2,46.2,13.6,46.2,13.9z M51.8,20.7c-0.1,0-0.1,0-0.1,0
		c-1.3-0.1-2.4-0.6-3.2-1.4l2.1-2.1c0.4,0.3,0.7,0.4,1.3,0.5V20.7z M52.2,20.7v-3c0.4-0.1,0.9-0.2,1.3-0.5l2.1,2.1
		C54.7,20.2,53.5,20.7,52.2,20.7z M57.3,15.8c-0.1,1.3-0.6,2.3-1.4,3.2l-2.1-2.1c0.3-0.4,0.4-0.7,0.5-1.3h3
		C57.3,15.6,57.3,15.7,57.3,15.8z M55.9,11.7c0.9,0.9,1.4,2.1,1.4,3.4h-3c-0.1-0.4-0.2-0.9-0.5-1.3L55.9,11.7z M52.3,10
		c0.1,0,0.1,0,0.1,0c1.3,0.1,2.3,0.6,3.2,1.4l-2.1,2.1c-0.4-0.3-0.7-0.4-1.3-0.5V10z M52.1,13.5c1,0.1,1.7,1,1.6,1.9
		c-0.1,1-0.9,1.7-1.9,1.6c-1-0.1-1.7-1-1.6-1.9S51.2,13.5,52.1,13.5z M51.8,10v3c-0.4,0.1-0.9,0.2-1.3,0.5l-2.1-2.1
		C49.3,10.6,50.5,10,51.8,10z M46.7,15c0.1-1.3,0.6-2.4,1.4-3.2l2.1,2.1c-0.3,0.4-0.4,0.7-0.5,1.3h-3C46.6,15,46.6,15,46.7,15z
		 M49.6,15.5c0.1,0.4,0.2,0.9,0.5,1.3L48,18.9c-0.8-0.9-1.3-2-1.4-3.4H49.6z"/>
	<path class="st6658" d="M164.6,69.4c0.2,0,0.6,0.1,0.7,0.1c0.1,0,0.1,0,0.1,0l0.1-0.5l-0.9-0.4c0-0.1,0-0.2,0-0.3c0-0.2,0-0.5,0-0.7
		c0.2,0,0.6-0.1,0.7-0.1c0.1,0,0.1,0,0.1,0v-0.5h-0.9c-0.1-0.4-0.1-0.7-0.2-1c0.2-0.1,0.5-0.2,0.7-0.3c0.1,0,0.1-0.1,0.1-0.1
		l-0.2-0.5l-0.8,0.2c-0.1-0.3-0.4-0.7-0.5-1c0.1-0.1,0.4-0.4,0.6-0.5c0.1-0.1,0.1-0.1,0.1-0.1l-0.3-0.4l-0.7,0.4
		c-0.2-0.3-0.5-0.5-0.8-0.7c0.1-0.2,0.3-0.5,0.4-0.7c0-0.1,0.1-0.1,0.1-0.1l-0.4-0.3l-0.6,0.7c-0.3-0.2-0.7-0.4-1-0.5
		c0.1-0.2,0.1-0.6,0.2-0.7c0-0.1,0-0.1,0-0.1l-0.5-0.2l-0.4,0.8c-0.4-0.1-0.7-0.1-1-0.2c0-0.2,0-0.6,0-0.7c0-0.1,0-0.1,0-0.1
		l-0.5-0.1l-0.1,0.9c-0.4,0-0.7,0.1-1.1,0.1c-0.1-0.2-0.1-0.6-0.2-0.7c0-0.1,0-0.1,0-0.1l-0.5,0.1l0.1,0.9c-0.4,0.1-0.7,0.2-1,0.4
		c-0.1-0.2-0.3-0.5-0.4-0.7c0-0.1-0.1-0.1-0.1-0.1l-0.4,0.3l0.4,0.8c-0.2,0.1-0.4,0.3-0.6,0.4c-0.1,0.1-0.1,0.1-0.2,0.2
		c-0.1-0.1-0.4-0.4-0.6-0.5c-0.1,0-0.1-0.1-0.1-0.1l-0.4,0.4l0.6,0.7c-0.2,0.3-0.4,0.6-0.7,0.9c-0.2-0.1-0.5-0.2-0.7-0.3
		c-0.1,0-0.1-0.1-0.1-0.1l-0.3,0.4l0.7,0.5c-0.1,0.3-0.3,0.7-0.4,1c-0.2,0-0.6-0.1-0.7-0.1c-0.1,0-0.1,0-0.1,0l-0.1,0.5l0.8,0.3
		c0,0.1,0,0.2,0,0.3c0,0.3,0,0.5,0,0.8c-0.2,0-0.6,0.1-0.7,0.1c-0.1,0-0.1,0-0.1,0v0.5h0.9c0.1,0.4,0.1,0.7,0.3,1
		c-0.2,0.1-0.5,0.2-0.7,0.3c-0.1,0-0.1,0.1-0.1,0.1l0.2,0.5l0.8-0.2c0.1,0.3,0.4,0.7,0.5,1c-0.1,0.1-0.4,0.4-0.6,0.5
		c-0.1,0.1-0.1,0.1-0.1,0.1l0.3,0.4l0.7-0.4c0.2,0.3,0.5,0.5,0.8,0.7c-0.1,0.2-0.3,0.5-0.4,0.7c0,0.1-0.1,0.1-0.1,0.1l0.4,0.3
		l0.6-0.7c0.3,0.2,0.7,0.4,1,0.5c-0.1,0.2-0.1,0.6-0.2,0.7c0,0.1,0,0.1,0,0.1l0.5,0.2l0.4-0.8c0.4,0.1,0.7,0.1,1,0.2
		c0,0.2,0,0.6,0,0.7c0,0.1,0,0.1,0,0.1l0.5,0.1l0.1-0.9c0.4,0,0.7-0.1,1.1-0.1c0.1,0.2,0.1,0.6,0.2,0.7c0,0.1,0,0.1,0,0.1l0.5-0.1
		l-0.1-0.9c0.4-0.1,0.7-0.2,1-0.4c0.1,0.2,0.3,0.5,0.4,0.7c0,0.1,0.1,0.1,0.1,0.1l0.4-0.2l-0.4-0.8c0.2-0.1,0.4-0.3,0.6-0.4
		c0.1-0.1,0.1-0.1,0.2-0.2c0.1,0.1,0.4,0.4,0.6,0.5c0.1,0.1,0.1,0.1,0.1,0.1l0.4-0.4l-0.6-0.7c0.2-0.3,0.4-0.6,0.7-0.9
		c0.2,0.1,0.5,0.2,0.7,0.3c0.1,0,0.1,0.1,0.1,0.1L165,71l-0.7-0.5C164.4,70.2,164.6,69.8,164.6,69.4z M158.7,62.1
		c0.1-0.1,0.1-0.1,0.2-0.1c1.3,0.1,2.5,0.7,3.4,1.5l-2.2,2.2c-0.4-0.3-0.8-0.5-1.3-0.5V62.1z M158.2,62v3.1c-0.5,0.1-1,0.2-1.3,0.5
		l-2.2-2.2C155.6,62.6,156.8,62.1,158.2,62z M152.8,67.3c0.1-1.3,0.7-2.5,1.5-3.4l2.2,2.2c-0.3,0.4-0.5,0.8-0.6,1.3h-3.1
		C152.8,67.3,152.8,67.3,152.8,67.3z M154.2,71.5c-0.9-1-1.4-2.2-1.4-3.6h3.1c0.1,0.5,0.2,1,0.5,1.3L154.2,71.5z M158.2,73.4
		c-0.1,0-0.1,0-0.2,0c-1.3-0.1-2.5-0.7-3.4-1.5l2.2-2.2c0.4,0.3,0.8,0.5,1.3,0.6V73.4z M158.3,69.6c-1-0.1-1.8-1-1.7-2
		c0.1-1,1-1.8,2-1.7c1,0.1,1.8,1,1.7,2C160.2,68.9,159.3,69.6,158.3,69.6z M158.7,73.4v-3.1c0.5-0.1,1-0.2,1.3-0.5l2.2,2.2
		C161.3,72.8,160,73.3,158.7,73.4z M162.6,71.5l-2.2-2.2c0.3-0.4,0.5-0.8,0.5-1.3h3.1c0.1,0.1,0.1,0.1,0.1,0.2
		C164,69.4,163.4,70.6,162.6,71.5z M160.9,67.4c-0.1-0.5-0.2-1-0.5-1.3l2.2-2.2c0.8,1,1.4,2.2,1.4,3.6H160.9z"/>
	<path class="st6658" d="M151.7,63.2l0.5-0.3l-0.4-0.9c0.2-0.1,0.4-0.3,0.7-0.5c0.1-0.1,0.1-0.1,0.2-0.2c0.2,0.1,0.5,0.4,0.6,0.5
		c0.1,0.1,0.1,0.1,0.1,0.1l0.4-0.4l-0.6-0.7c0.2-0.3,0.5-0.6,0.7-1c0.2,0.1,0.6,0.3,0.7,0.4c0.1,0,0.1,0.1,0.1,0.1l0.3-0.5l-0.8-0.5
		c0.1-0.4,0.3-0.7,0.4-1.1c0.2,0,0.7,0.1,0.8,0.1c0.1,0,0.1,0,0.1,0l0.1-0.6l-1-0.2c0-0.1,0-0.2,0.1-0.4c0-0.3,0-0.5,0-0.8
		c0.2-0.1,0.7-0.1,0.8-0.1c0.1,0,0.1,0,0.1,0l-0.1-0.6h-1c-0.1-0.4-0.1-0.7-0.3-1.1c0.2-0.1,0.6-0.3,0.7-0.4c0.1,0,0.1-0.1,0.1-0.1
		l-0.2-0.5l-0.9,0.2c-0.1-0.4-0.4-0.7-0.6-1c0.2-0.1,0.4-0.4,0.6-0.5c0.1-0.1,0.1-0.1,0.1-0.1l-0.2-0.5l-0.8,0.5
		c-0.3-0.3-0.5-0.6-0.9-0.8c0.1-0.2,0.4-0.5,0.4-0.7c0-0.1,0.1-0.1,0.1-0.1l-0.4-0.4l-0.7,0.7c-0.3-0.2-0.7-0.4-1-0.5
		c0.1-0.2,0.1-0.6,0.2-0.8c0-0.1,0-0.1,0-0.1l-0.5-0.2l-0.4,0.8c-0.4-0.1-0.7-0.1-1.2-0.2c0-0.2,0-0.7,0-0.8c0-0.1,0-0.1,0-0.1
		l-0.6-0.1l-0.1,1c-0.4,0-0.8,0.1-1.2,0.1c-0.1-0.2-0.2-0.6-0.2-0.8c0-0.1,0-0.1,0-0.1l-0.6,0.1l0.1,1c-0.4,0.1-0.7,0.3-1.1,0.4
		c-0.1-0.2-0.4-0.5-0.4-0.7c0-0.1-0.1-0.1-0.1-0.1l-0.5,0.3l0.4,0.9c-0.2,0.1-0.4,0.3-0.7,0.5c-0.1,0.1-0.1,0.1-0.3,0.2
		c-0.2-0.1-0.5-0.4-0.6-0.5s-0.1-0.1-0.1-0.1l-0.4,0.4l0.6,0.7c-0.2,0.3-0.5,0.6-0.7,1c-0.2-0.1-0.6-0.2-0.7-0.3
		c-0.1,0-0.1-0.1-0.1-0.1l-0.3,0.5l0.8,0.5c-0.1,0.4-0.3,0.7-0.4,1.1c-0.2,0-0.7-0.1-0.8-0.1c-0.1,0-0.1,0-0.1,0l-0.1,0.6l0.9,0.3
		c0,0.1,0,0.2,0,0.4c0,0.3,0,0.6,0,0.8c-0.2,0.1-0.7,0.1-0.8,0.1c-0.1,0-0.1,0-0.1,0l0.1,0.6h1c0.1,0.4,0.1,0.7,0.3,1.1
		c-0.2,0.1-0.6,0.3-0.7,0.4c-0.1,0-0.1,0.1-0.1,0.1l0.2,0.5l0.9-0.2c0.1,0.4,0.4,0.7,0.6,1c-0.2,0.1-0.4,0.4-0.6,0.5
		c-0.1,0.1-0.1,0.1-0.1,0.1l0.4,0.4l0.8-0.5c0.3,0.3,0.5,0.6,0.9,0.8c-0.1,0.2-0.4,0.5-0.4,0.7c0,0.1-0.1,0.1-0.1,0.1l0.4,0.4
		l0.7-0.7c0.4,0.2,0.7,0.4,1,0.5c-0.1,0.2-0.1,0.6-0.2,0.8c0,0.1,0,0.1,0,0.1l0.5,0.2l0.4-0.9c0.4,0.1,0.7,0.1,1.2,0.2
		c0,0.2,0,0.7,0,0.8c0,0.1,0,0.1,0,0.1l0.6,0.1l0.1-1c0.4,0,0.8-0.1,1.2-0.1c0.1,0.2,0.2,0.6,0.2,0.8c0,0.1,0,0.1,0,0.1l0.6-0.1
		l-0.1-1c0.4-0.1,0.7-0.3,1.1-0.4C151.3,62.7,151.5,63,151.7,63.2C151.6,63.2,151.7,63.2,151.7,63.2z M154,56.7
		c-0.1,0-0.1,0.1-0.1,0.1c-0.1,1.4-0.7,2.7-1.6,3.7l-2.4-2.4c0.3-0.4,0.5-0.9,0.6-1.4H154z M152.3,52.3c1,1,1.6,2.3,1.6,3.8h-3.4
		c-0.1-0.5-0.3-1-0.6-1.4L152.3,52.3z M148.2,50.2c0,0,0.1,0.1,0.1,0.1c1.4,0.1,2.7,0.7,3.7,1.6l-2.4,2.4c-0.4-0.3-0.9-0.5-1.4-0.6
		V50.2z M147.6,50.2v3.4c-0.5,0.1-1,0.3-1.4,0.6l-2.4-2.4C144.7,50.9,146.1,50.3,147.6,50.2z M141.7,55.9c0.1-1.4,0.7-2.7,1.6-3.7
		l2.4,2.4c-0.3,0.4-0.5,0.9-0.6,1.4h-3.4C141.7,56,141.7,55.9,141.7,55.9z M143.3,60.4c-1-1-1.6-2.4-1.6-3.8h3.4
		c0.1,0.5,0.3,1,0.6,1.4L143.3,60.4z M147.5,62.5c-0.1-0.1-0.1-0.1-0.1-0.1c-1.4-0.1-2.7-0.7-3.7-1.6l2.4-2.4
		c0.4,0.3,0.9,0.5,1.4,0.6V62.5z M147.7,58.3c-1.1-0.1-1.9-1-1.9-2.2c0.1-1.1,1-1.9,2.2-1.9c1.1,0.1,1.9,1,1.9,2.2
		C149.7,57.6,148.8,58.5,147.7,58.3z M148,62.4V59c0.5-0.1,1-0.3,1.5-0.6l2.4,2.4C150.9,61.8,149.5,62.4,148,62.4z"/>
	<path class="st6658" d="M101.8,35.7l-0.3,0.3l0.4,0.6c-0.2,0.2-0.4,0.5-0.5,0.7c-0.1-0.1-0.4-0.2-0.6-0.3c-0.1,0-0.1,0-0.1,0l-0.2,0.4
		l0.6,0.4c-0.1,0.3-0.2,0.6-0.3,0.9c-0.2,0-0.5-0.1-0.7-0.1c-0.1,0-0.1,0-0.1,0l-0.1,0.4l0.7,0.2c0,0.1,0,0.1,0,0.3
		c0,0.2,0,0.4,0,0.7c-0.2,0-0.5,0.1-0.7,0.1c-0.1,0-0.1,0-0.1,0v0.4h0.7c0.1,0.3,0.1,0.6,0.2,0.9c-0.1,0.1-0.4,0.2-0.6,0.3
		c-0.1,0-0.1,0-0.1,0l0.1,0.4l0.7-0.2c0.1,0.3,0.3,0.5,0.4,0.8c-0.1,0.1-0.4,0.4-0.5,0.4l-0.1,0.1l0.3,0.4l0.7-0.4
		c0.2,0.2,0.4,0.4,0.7,0.7c-0.1,0.1-0.3,0.4-0.4,0.5c0,0.1-0.1,0.1-0.1,0.1l0.4,0.3l0.5-0.5c0.3,0.1,0.5,0.3,0.8,0.4
		c-0.1,0.2-0.1,0.5-0.1,0.6s0,0.1,0,0.1l0.4,0.1l0.3-0.7c0.3,0.1,0.6,0.1,0.9,0.1c0,0.2,0,0.5,0,0.7c0,0.1,0,0.1,0,0.1h0.4l0.1-0.7
		c0.3,0,0.6,0,0.9-0.1c0.1,0.2,0.1,0.4,0.2,0.6c0,0.1,0,0.1,0,0.1l0.4-0.1l-0.1-0.7c0.3-0.1,0.6-0.2,0.9-0.4
		c0.1,0.1,0.3,0.4,0.4,0.5c0,0.1,0.1,0.1,0.1,0.1l0.4-0.2l-0.3-0.7c0.1-0.1,0.4-0.2,0.5-0.4c0.1-0.1,0.1-0.1,0.2-0.1
		c0.1,0.1,0.4,0.3,0.5,0.4c0.1,0,0.1,0.1,0.1,0.1l0.3-0.3l-0.4-0.6c0.2-0.2,0.4-0.5,0.5-0.7c0.1,0.1,0.4,0.2,0.6,0.3
		c0.1,0,0.1,0,0.1,0l0.2-0.4l-0.6-0.4c0.1-0.3,0.2-0.6,0.3-0.9c0.2,0,0.5,0.1,0.7,0.1c0.1,0,0.1,0,0.1,0l0.1-0.4l-0.6-0.3
		c0-0.1,0-0.2,0-0.3c0-0.2,0-0.4,0-0.7c0.2,0,0.5-0.1,0.7-0.1c0.1,0,0.1,0,0.1,0v-0.4h-0.7c-0.1-0.3-0.1-0.6-0.2-0.9
		c0.1-0.1,0.4-0.2,0.6-0.3c0.1,0,0.1,0,0.1,0l-0.1-0.4l-0.7,0.2c-0.1-0.3-0.3-0.5-0.4-0.8c0.1-0.1,0.4-0.3,0.5-0.4l0.1-0.1l-0.3-0.4
		l-0.7,0.4c-0.2-0.2-0.4-0.4-0.7-0.7c0.1-0.1,0.3-0.4,0.4-0.5c0-0.1,0.1-0.1,0.1-0.1l-0.4-0.3l-0.5,0.5c-0.3-0.1-0.5-0.3-0.8-0.4
		c0.1-0.2,0.1-0.5,0.1-0.6s0-0.1,0-0.1l-0.4-0.1l-0.3,0.7c-0.3-0.1-0.6-0.1-0.9-0.1c0-0.2,0-0.5,0-0.7c0-0.1,0-0.1,0-0.1h-0.4
		l-0.1,0.7c-0.3,0-0.7,0-1,0.1c-0.1-0.2-0.1-0.4-0.2-0.6c0-0.1,0-0.1,0-0.1l-0.5,0.1l0.1,0.7c-0.3,0.1-0.6,0.2-0.9,0.4
		c-0.1-0.1-0.3-0.4-0.4-0.5c0-0.1-0.1-0.1-0.1-0.1l-0.4,0.2l0.3,0.7c-0.1,0.1-0.4,0.2-0.5,0.4c-0.1,0.1-0.1,0.1-0.2,0.2
		C102.3,36,102,35.9,101.8,35.7C101.8,35.7,101.8,35.7,101.8,35.7z M101.5,40.3h2.7c0.1,0.4,0.2,0.8,0.4,1.1l-1.9,1.9
		C102,42.5,101.5,41.4,101.5,40.3z M105.8,44.8c-1.1-0.1-2.1-0.5-2.9-1.3l1.9-1.9c0.3,0.2,0.7,0.4,1.1,0.4L105.8,44.8
		C105.9,44.8,105.9,44.8,105.8,44.8z M106.4,44.8v-2.7c0.4-0.1,0.8-0.2,1.1-0.4l1.9,1.9C108.7,44.4,107.6,44.8,106.4,44.8z
		 M111.1,40.4c-0.1,1.1-0.5,2.1-1.3,2.8l-1.9-1.9c0.2-0.3,0.4-0.7,0.4-1.1h2.7C111.1,40.4,111.1,40.4,111.1,40.4z M109.8,36.9
		c0.7,0.7,1.2,1.8,1.3,3h-2.7c-0.1-0.4-0.2-0.8-0.4-1.1L109.8,36.9z M106.5,35.3c0-0.1,0.1-0.1,0.1,0c1.1,0.1,2.1,0.5,2.8,1.3
		l-1.9,1.9c-0.3-0.2-0.7-0.4-1.1-0.4V35.3z M106.4,38.4c0.9,0.1,1.6,0.8,1.5,1.7c-0.1,0.9-0.8,1.6-1.7,1.5s-1.6-0.8-1.5-1.7
		S105.5,38.4,106.4,38.4z M106.1,35.2v2.7c-0.4,0.1-0.8,0.2-1.1,0.4l-1.9-1.9C103.8,35.7,104.9,35.3,106.1,35.2z M102.7,36.8
		l1.9,1.9c-0.2,0.3-0.4,0.7-0.4,1.1h-2.7v-0.1C101.5,38.6,102,37.6,102.7,36.8z"/>
	<path class="st6658" d="M157.7,56.7c-0.1,0.1-0.4,0.1-0.5,0.2h-0.1l0.1,0.4l0.6-0.1c0.1,0.2,0.2,0.4,0.4,0.7c-0.1,0.1-0.3,0.3-0.4,0.4
		l-0.1,0.1l0.2,0.3l0.5-0.3c0.1,0.2,0.4,0.4,0.5,0.5c-0.1,0.1-0.2,0.4-0.3,0.4v0.1l0.3,0.2l0.4-0.4c0.2,0.1,0.4,0.2,0.7,0.4
		c-0.1,0.1-0.1,0.4-0.1,0.5c0,0.1,0,0.1,0,0.1l0.4,0.1l0.3-0.5c0.2,0.1,0.5,0.1,0.7,0.1c0,0.1,0,0.4,0,0.5s0,0.1,0,0.1h0.4l0.1-0.6
		c0.2,0,0.5,0,0.7-0.1c0.1,0.1,0.1,0.4,0.1,0.5c0,0.1,0,0.1,0,0.1l0.4-0.1l-0.1-0.6c0.2-0.1,0.5-0.1,0.7-0.3
		c0.1,0.1,0.2,0.4,0.3,0.4v0.1l0.4-0.1l-0.2-0.6c0.1-0.1,0.3-0.2,0.4-0.3c0.1-0.1,0.1-0.1,0.1-0.1c0.1,0.1,0.3,0.3,0.4,0.4l0.1,0.1
		l0.3-0.3l-0.4-0.4c0.1-0.2,0.3-0.4,0.4-0.6c0.1,0.1,0.4,0.1,0.5,0.2h0.1l0.2-0.4l-0.5-0.4c0.1-0.2,0.2-0.4,0.2-0.7
		c0.1,0,0.4,0.1,0.5,0.1s0.1,0,0.1,0l0.1-0.4l-0.6-0.1c0-0.1,0-0.1,0-0.2c0-0.1,0-0.4,0-0.5c0.1,0,0.4-0.1,0.5-0.1s0.1,0,0.1,0v-0.4
		h-0.6c-0.1-0.2-0.1-0.5-0.1-0.7c0.1-0.1,0.4-0.1,0.5-0.2h0.1l-0.1-0.4l-0.6,0.1c-0.1-0.2-0.2-0.4-0.4-0.7c0.1-0.1,0.3-0.3,0.4-0.4
		l0.1-0.1l-0.2-0.3l-0.5,0.3c-0.1-0.2-0.4-0.4-0.5-0.5c0.1-0.1,0.2-0.4,0.3-0.4v-0.1l-0.3-0.2l-0.4,0.4c-0.2-0.1-0.4-0.2-0.7-0.4
		c0.1-0.1,0.1-0.4,0.1-0.5c0-0.1,0-0.1,0-0.1l-0.4-0.1l-0.3,0.5c-0.2-0.1-0.5-0.1-0.7-0.1c0-0.1,0-0.4,0-0.5s0-0.1,0-0.1h-0.4
		L162,51c-0.3,0-0.5,0-0.8,0.1c-0.1-0.1-0.1-0.4-0.1-0.5c0-0.1,0-0.1,0-0.1l-0.4,0.1l0.1,0.6c-0.2,0.1-0.4,0.1-0.7,0.3
		c-0.1-0.1-0.2-0.4-0.3-0.4v-0.1l-0.4,0.1l0.2,0.6c-0.1,0.1-0.3,0.2-0.4,0.3c-0.1,0.1-0.1,0.1-0.1,0.1c-0.1-0.1-0.3-0.3-0.4-0.4
		l-0.1-0.1l-0.3,0.3l0.4,0.4c-0.1,0.2-0.3,0.4-0.4,0.6c-0.1-0.1-0.4-0.1-0.5-0.2h-0.1l-0.1,0.4l0.5,0.4c-0.1,0.2-0.1,0.4-0.2,0.7
		c-0.1,0-0.4-0.1-0.5-0.1s-0.1,0-0.1,0l-0.1,0.4l0.6,0.1c0,0.1,0,0.1,0,0.2c0,0.1,0,0.4,0,0.5c-0.1,0-0.4,0.1-0.5,0.1s-0.1,0-0.1,0
		v0.4h0.6C157.6,56.2,157.6,56.5,157.7,56.7z M161.7,59.5L161.7,59.5c-1-0.1-1.8-0.4-2.5-1l1.6-1.6c0.2,0.2,0.6,0.4,0.9,0.4V59.5z
		 M162.1,59.5v-2.2c0.4,0,0.7-0.1,1-0.4l1.6,1.6C164,59.1,163.1,59.4,162.1,59.5z M165.9,55.9c-0.1,0.9-0.4,1.7-1,2.4l-1.6-1.6
		c0.2-0.2,0.4-0.6,0.4-0.9L165.9,55.9C165.9,55.8,165.9,55.8,165.9,55.9z M165.9,55.3h-2.2c0-0.4-0.1-0.7-0.4-1l1.6-1.6
		C165.5,53.6,165.8,54.4,165.9,55.3z M162.2,51.5C162.2,51.5,162.2,51.5,162.2,51.5c1,0.1,1.8,0.4,2.5,1l-1.6,1.6
		c-0.2-0.2-0.6-0.4-0.9-0.4V51.5z M163.2,55.6c0,0.7-0.7,1.3-1.4,1.2c-0.7-0.1-1.3-0.7-1.2-1.4s0.7-1.3,1.4-1.2
		C162.8,54.3,163.3,54.9,163.2,55.6z M161.7,51.5v2.2c-0.4,0-0.7,0.1-1,0.4l-1.6-1.6C159.9,52,160.8,51.6,161.7,51.5z M158,55.2
		c0.1-0.9,0.4-1.7,1-2.4l1.6,1.6c-0.2,0.2-0.4,0.6-0.4,0.9L158,55.2C158,55.3,158,55.3,158,55.2z M160.2,55.7c0,0.4,0.1,0.7,0.4,1
		l-1.6,1.6c-0.7-0.7-1-1.6-1-2.5H160.2z"/>
	<path class="st6658" d="M167.4,75.8c-0.1,0.1-0.2,0.3-0.3,0.4v0.1l0.3,0.2l0.4-0.4c0.2,0.1,0.4,0.2,0.7,0.3c-0.1,0.1-0.1,0.4-0.1,0.4
		v0.1l0.3,0.1l0.2-0.5c0.2,0.1,0.4,0.1,0.7,0.1c0,0.1,0,0.4,0,0.5c0,0.1,0,0.1,0,0.1h0.4l0.1-0.6c0.2,0,0.4,0,0.7-0.1
		c0.1,0.1,0.1,0.4,0.1,0.4v0.1l0.4-0.1l-0.1-0.6c0.2-0.1,0.4-0.1,0.7-0.3c0.1,0.1,0.2,0.3,0.3,0.4v0.1l0.3-0.1l-0.2-0.5
		c0.1-0.1,0.3-0.2,0.4-0.3s0.1-0.1,0.1-0.1c0.1,0.1,0.3,0.2,0.4,0.3l0.1,0.1l0.2-0.2l-0.4-0.4c0.1-0.1,0.3-0.4,0.4-0.6
		c0.1,0.1,0.4,0.1,0.4,0.2h0.1l0.1-0.3l-0.4-0.3c0.1-0.2,0.1-0.4,0.2-0.7c0.1,0,0.4,0.1,0.5,0.1c0.1,0,0.1,0,0.1,0l0.1-0.4l-0.5-0.2
		c0-0.1,0-0.1,0-0.2c0-0.1,0-0.3,0-0.5c0.1,0,0.4-0.1,0.5-0.1h0.1v-0.4H174c0-0.2-0.1-0.4-0.1-0.7c0.1-0.1,0.4-0.1,0.4-0.2h0.1
		l-0.1-0.4l-0.5,0.1c-0.1-0.2-0.2-0.4-0.4-0.6c0.1-0.1,0.3-0.2,0.4-0.3l0.1-0.1l-0.2-0.3l-0.5,0.3c-0.1-0.1-0.3-0.4-0.5-0.5
		c0.1-0.1,0.2-0.3,0.3-0.4v-0.1l-0.3-0.2l-0.4,0.4c-0.2-0.1-0.4-0.2-0.7-0.3c0.1-0.1,0.1-0.4,0.1-0.4v-0.1l-0.3-0.1l-0.2,0.5
		c-0.2-0.1-0.4-0.1-0.7-0.1c0-0.1,0-0.4,0-0.5c0-0.1,0-0.1,0-0.1h-0.4l-0.1,0.6c-0.2,0-0.5,0-0.7,0.1c-0.1-0.1-0.1-0.4-0.1-0.4v-0.1
		l-0.4,0.1l0.1,0.6c-0.2,0.1-0.4,0.1-0.7,0.3c-0.1-0.1-0.2-0.3-0.3-0.4v-0.1l-0.3,0.1l0.2,0.5c-0.1,0.1-0.3,0.2-0.4,0.3
		c-0.1,0.1-0.1,0.1-0.1,0.1c-0.1-0.1-0.3-0.2-0.4-0.3l-0.1-0.1l-0.2,0.2l0.4,0.4c-0.1,0.1-0.3,0.4-0.4,0.6c-0.1-0.1-0.4-0.1-0.4-0.2
		H166l-0.1,0.3l0.4,0.3c-0.1,0.2-0.1,0.4-0.2,0.7c-0.1,0-0.4-0.1-0.5-0.1c-0.1,0-0.1,0-0.1,0l-0.1,0.4l0.5,0.1c0,0.1,0,0.1,0,0.2
		c0,0.1,0,0.4,0,0.5c-0.1,0-0.4,0.1-0.5,0.1h-0.1v0.4h0.6c0,0.2,0.1,0.4,0.1,0.7c-0.1,0.1-0.4,0.1-0.4,0.2h-0.1l0.1,0.4l0.5-0.1
		c0.1,0.2,0.2,0.4,0.4,0.6c-0.1,0.1-0.3,0.2-0.4,0.3l-0.1,0.1l0.2,0.3l0.5-0.3C167,75.4,167.2,75.6,167.4,75.8z M169.8,76.3
		c-0.1-0.1-0.1-0.1-0.1-0.1c-0.8-0.1-1.6-0.4-2.2-1l1.5-1.4c0.2,0.2,0.5,0.3,0.9,0.4V76.3z M170.1,76.2v-2.1c0.3,0,0.7-0.1,0.9-0.4
		l1.5,1.4C171.8,75.8,171,76.2,170.1,76.2z M173.7,72.8c-0.1,0.8-0.4,1.6-1,2.2l-1.5-1.4c0.2-0.2,0.3-0.5,0.4-0.9h2.1
		C173.7,72.7,173.7,72.8,173.7,72.8z M172.6,69.9c0.7,0.7,1,1.5,1,2.4h-2.1c0-0.3-0.1-0.6-0.4-0.9L172.6,69.9z M170.1,68.8
		c0.1,0,0.1,0,0.1,0c0.8,0.1,1.6,0.4,2.2,1l-1.4,1.5c-0.2-0.2-0.5-0.3-0.9-0.4V68.8z M170.1,71.3c0.7,0.1,1.2,0.7,1.1,1.3
		s-0.7,1.2-1.3,1.1s-1.2-0.7-1.1-1.3S169.4,71.2,170.1,71.3z M169.8,68.8v2.1c-0.3,0-0.6,0.1-0.9,0.4l-1.4-1.4
		C168.1,69.2,168.9,68.8,169.8,68.8z M166.3,72.3c0.1-0.8,0.4-1.6,1-2.2l1.4,1.4c-0.2,0.2-0.3,0.5-0.4,0.9L166.3,72.3
		C166.3,72.3,166.3,72.3,166.3,72.3z M166.3,72.7h2.1c0,0.3,0.1,0.6,0.4,0.9l-1.5,1.4C166.7,74.3,166.3,73.5,166.3,72.7z"/>
	<path class="st6658" d="M88,23.9c-0.1-0.3-0.4-0.7-0.6-0.9h-0.1l-0.7,0.4l0.5,1.1c-0.3,0.2-0.6,0.4-0.8,0.7c-0.1,0.1-0.2,0.2-0.4,0.3
		c-0.2-0.2-0.7-0.5-0.8-0.7c-0.1-0.1-0.1-0.1-0.1-0.1l-0.6,0.5l0.8,1c-0.3,0.4-0.6,0.8-0.9,1.3c-0.3-0.1-0.7-0.3-1-0.4
		c-0.1,0-0.1-0.1-0.1-0.1L83,27.5l1,0.7c-0.2,0.4-0.4,1-0.5,1.4c-0.3-0.1-0.8-0.1-1-0.1c-0.1,0-0.1,0-0.1,0l-0.1,0.7l1.2,0.4
		c0,0.1,0,0.3-0.1,0.4c0,0.4,0,0.7,0,1.1c-0.3,0.1-0.8,0.1-1,0.1c-0.1,0-0.1,0-0.1,0l0.1,0.7h1.2c0.1,0.5,0.2,1,0.4,1.5
		c-0.3,0.1-0.7,0.4-1,0.4c-0.1,0-0.1,0.1-0.1,0.1l0.3,0.7l1.2-0.3c0.2,0.4,0.4,0.9,0.7,1.3c-0.2,0.2-0.6,0.5-0.8,0.7
		c-0.1,0.1-0.1,0.1-0.1,0.1l0.4,0.6l1-0.7c0.4,0.4,0.7,0.7,1.1,1c-0.1,0.3-0.4,0.7-0.6,0.9c-0.1,0.1-0.1,0.1-0.1,0.1l0.6,0.4
		l0.8-0.9c0.4,0.3,0.9,0.5,1.3,0.7c-0.1,0.3-0.2,0.8-0.3,1c0,0.1,0,0.1,0,0.1l0.7,0.3l0.5-1.1c0.5,0.1,1,0.2,1.5,0.3
		c0,0.3,0,0.8,0,1c0,0.1,0,0.1,0,0.1l0.7,0.1l0.2-1.2c0.5,0,1-0.1,1.5-0.1c0.1,0.3,0.2,0.8,0.3,1c0,0.1,0.1,0.1,0.1,0.1l0.7-0.1
		l-0.1-1.2c0.5-0.1,1-0.4,1.4-0.6c0.1,0.3,0.4,0.7,0.6,0.9c0.1,0.1,0.1,0.1,0.1,0.1l0.7-0.4l-0.5-1.1c0.3-0.2,0.6-0.4,0.9-0.7
		c0.1-0.1,0.2-0.2,0.3-0.3c0.2,0.2,0.6,0.5,0.8,0.7c0.1,0.1,0.1,0.1,0.1,0.1l0.5-0.5l-0.8-1c0.3-0.4,0.6-0.8,0.9-1.3
		c0.3,0.1,0.7,0.4,1,0.4c0.1,0,0.1,0.1,0.1,0.1l0.4-0.7l-1-0.7c0.2-0.4,0.4-1,0.5-1.4c0.3,0.1,0.8,0.1,1,0.1c0.1,0,0.1,0,0.1,0
		l0.1-0.7l-1-0.4c0-0.1,0-0.3,0.1-0.4c0-0.4,0-0.7,0-1c0.3-0.1,0.8-0.1,1-0.1c0.1,0,0.1,0,0.1,0l-0.1-0.7h-1.2
		c-0.1-0.5-0.2-1-0.4-1.5c0.3-0.1,0.7-0.4,1-0.4c0.1,0,0.1-0.1,0.1-0.1l-0.3-0.7l-1.2,0.3c-0.2-0.4-0.4-0.9-0.7-1.3
		c0.2-0.2,0.6-0.5,0.8-0.7c0.1-0.1,0.1-0.1,0.1-0.1l-0.4-0.6L98.6,26c-0.4-0.4-0.7-0.7-1.1-1c0.1-0.3,0.4-0.7,0.6-0.9
		c0.1-0.1,0.1-0.1,0.1-0.1l-0.6-0.4l-0.8,0.9c-0.4-0.3-0.9-0.5-1.3-0.7c0.1-0.3,0.2-0.8,0.3-1c0-0.1,0-0.1,0-0.1L95,22.3l-0.5,1.1
		c-0.5-0.1-1-0.2-1.5-0.3c0-0.3,0-0.8,0-1c0-0.1,0-0.1,0-0.1l-0.7-0.1L92,23c-0.5,0-1,0.1-1.6,0.1c-0.1-0.3-0.2-0.8-0.3-1
		c0-0.1-0.1-0.1-0.1-0.1l-0.7,0.1l0.1,1.2C88.9,23.4,88.5,23.7,88,23.9z M84.2,31.2c0.1-1.8,0.9-3.4,2.1-4.7l3.1,3.1
		c-0.4,0.5-0.7,1.1-0.7,1.9h-4.4C84.2,31.3,84.2,31.3,84.2,31.2z M86.2,37.1c-1.2-1.3-1.9-3.1-2-4.9h4.4c0.1,0.7,0.4,1.3,0.7,1.9
		L86.2,37.1z M91.8,39.8c-0.2-0.1-0.2-0.1-0.3-0.1c-1.9-0.1-3.4-0.9-4.7-2.1l3.1-3.1c0.5,0.4,1.1,0.7,1.9,0.8V39.8z M92.4,39.7v-4.4
		c0.7-0.1,1.3-0.4,1.9-0.7l3.1,3.1C96,38.9,94.3,39.6,92.4,39.7z M99.9,32.5c-0.1,1.8-0.9,3.4-2,4.7l-3.1-3.1
		c0.4-0.5,0.7-1.1,0.7-1.9h4.4C100,32.2,100,32.3,99.9,32.5z M97.9,26.4c1.2,1.4,2,3.1,2.1,5h-4.4c-0.1-0.7-0.4-1.3-0.7-1.9
		L97.9,26.4z M92.4,24c0.1,0,0.1,0,0.2,0c1.8,0.1,3.4,0.9,4.7,2l-3.1,3.1c-0.5-0.4-1.1-0.7-1.9-0.7V24z M92.3,29.2
		c1.4,0.1,2.5,1.3,2.4,2.8c-0.1,1.5-1.4,2.5-2.8,2.4s-2.5-1.3-2.4-2.8C89.6,30.2,90.8,29,92.3,29.2z M91.7,23.9v4.4
		c-0.7,0.1-1.3,0.4-1.9,0.7L86.8,26C88.1,24.8,89.8,24,91.7,23.9z"/>
	<path class="st6658" d="M112.6,76c0.3,0.4,0.7,1.1,1,1.4c0.1,0.1,0.1,0.1,0.1,0.1l1.1-0.6l-0.8-1.9c0.5-0.3,1-0.7,1.4-1
		c0.1-0.1,0.4-0.3,0.5-0.5c0.4,0.4,1,0.9,1.3,1.1c0.1,0.1,0.1,0.1,0.1,0.1l0.9-0.9l-1.3-1.6c0.5-0.7,1-1.3,1.4-2
		c0.4,0.2,1.3,0.5,1.6,0.7c0.1,0.1,0.2,0.1,0.2,0.1l0.6-1.1l-1.6-1.1c0.3-0.7,0.6-1.6,0.8-2.4c0.5,0.1,1.3,0.1,1.7,0.2
		c0.1,0,0.2,0,0.2,0l0.3-1.2l-2-0.6c0-0.2,0.1-0.5,0.1-0.7c0.1-0.6,0.1-1.2,0-1.7c0.5-0.1,1.3-0.2,1.7-0.3c0.1,0,0.2,0,0.2,0
		l-0.1-1.3h-2c-0.1-0.8-0.3-1.6-0.6-2.4c0.4-0.2,1.2-0.6,1.6-0.7c0.1-0.1,0.2-0.1,0.2-0.1l-0.4-1.2L119,57c-0.4-0.7-0.7-1.5-1.3-2.2
		c0.4-0.4,1-0.9,1.3-1.2c0.1-0.1,0.1-0.1,0.1-0.1l-0.7-1l-1.7,1c-0.6-0.6-1.2-1.2-1.8-1.7c0.3-0.4,0.7-1.1,0.9-1.5
		c0.1-0.1,0.1-0.1,0.1-0.1l-1-0.7l-1.3,1.5c-0.7-0.4-1.4-0.8-2.2-1.1c0.1-0.5,0.4-1.3,0.4-1.6c0-0.1,0.1-0.2,0.1-0.2l-1.2-0.4
		l-0.9,1.8c-0.8-0.2-1.6-0.4-2.5-0.4c0-0.5,0-1.3,0-1.7c0-0.1,0-0.2,0-0.2l-1.3-0.1l-0.3,1.9c-0.9,0-1.7,0.1-2.5,0.3
		c-0.1-0.5-0.4-1.3-0.5-1.6c-0.1-0.1-0.1-0.2-0.1-0.2l-1.2,0.3l0.3,2c-0.8,0.2-1.6,0.6-2.3,1c-0.3-0.4-0.7-1.1-1-1.4
		c-0.1-0.1-0.1-0.1-0.1-0.1l-1.1,0.6l0.8,1.9c-0.4,0.3-0.9,0.7-1.3,1c-0.2,0.1-0.4,0.4-0.6,0.5c-0.4-0.4-1-0.9-1.3-1.1
		c-0.1-0.1-0.1-0.1-0.1-0.1l-0.9,0.9l1.3,1.5c-0.5,0.7-1,1.3-1.4,2c-0.4-0.2-1.3-0.5-1.6-0.7c-0.1-0.1-0.2-0.1-0.2-0.1l-0.6,1.1
		l1.6,1.1c-0.3,0.7-0.6,1.6-0.7,2.4c-0.5-0.1-1.3-0.1-1.7-0.2c-0.1,0-0.2,0-0.2,0l-0.2,1.2l1.9,0.6c0,0.2-0.1,0.4-0.1,0.7
		c-0.1,0.6-0.1,1.2,0,1.8c-0.5,0.1-1.3,0.2-1.7,0.3c-0.1,0-0.2,0-0.2,0l0.1,1.3h2c0.1,0.8,0.4,1.6,0.6,2.4c-0.4,0.2-1.2,0.6-1.6,0.7
		c-0.1,0.1-0.2,0.1-0.2,0.1l0.4,1.2l1.9-0.5c0.4,0.7,0.8,1.5,1.3,2.2c-0.4,0.4-1,0.9-1.3,1.2C93,72.9,92.9,73,92.9,73l0.7,1l1.7-1
		c0.6,0.6,1.2,1.2,1.8,1.7c-0.3,0.4-0.7,1.1-0.9,1.5c-0.1,0.1-0.1,0.1-0.1,0.1l1,0.7l1.3-1.5c0.7,0.4,1.4,0.8,2.2,1.1
		c-0.1,0.5-0.4,1.3-0.4,1.6c0,0.1-0.1,0.2-0.1,0.2l1.2,0.4l0.8-1.8c0.8,0.2,1.6,0.4,2.5,0.4c0,0.5,0,1.3,0,1.7c0,0.1,0,0.2,0,0.2
		l1.3,0.1l0.3-2c0.8,0,1.6-0.1,2.5-0.2c0.1,0.5,0.4,1.3,0.5,1.6c0.1,0.1,0.1,0.2,0.1,0.2l1.2-0.3l-0.2-2
		C111.1,76.7,111.8,76.4,112.6,76z M118.8,64.1c-0.2,3-1.4,5.6-3.3,7.6l-5.1-5c0.7-0.8,1.1-1.9,1.3-3l7.2-0.1
		C118.8,63.8,118.8,63.9,118.8,64.1z M115.4,54.4c2,2.1,3.3,4.9,3.4,8l-7.2,0.1c-0.1-1.1-0.6-2.2-1.3-3L115.4,54.4z M107,50.3
		c3,0.2,5.6,1.4,7.7,3.3l-5,5.1c-0.8-0.7-1.9-1.1-3-1.3l-0.1-7.2C106.7,50.3,106.8,50.3,107,50.3z M105.4,50.3l0.1,7.2
		c-1.1,0.1-2.2,0.6-3,1.3l-5.1-5C99.5,51.7,102.3,50.4,105.4,50.3z M93.3,62.2c0.2-3,1.4-5.6,3.3-7.7l5.1,5c-0.7,0.8-1.1,1.9-1.3,3
		l-7.2,0.1C93.2,62.4,93.2,62.3,93.3,62.2z M96.6,71.7c-2-2.1-3.3-4.9-3.4-8l7.2-0.1c0.1,1.1,0.6,2.2,1.3,3L96.6,71.7z M105.4,76
		c-0.1-0.1-0.2-0.1-0.3-0.1c-3-0.2-5.7-1.4-7.7-3.3l5-5.1c0.8,0.7,1.9,1.1,3,1.3V76z M105.7,67.3c-2.3-0.1-4.1-2.2-3.9-4.5
		c0.1-2.3,2.2-4.1,4.5-3.9c2.3,0.1,4.1,2.2,3.9,4.5C110.1,65.8,108.1,67.6,105.7,67.3z M106.6,75.9v-7.2c1.1-0.1,2.2-0.6,3.1-1.3
		l5.1,5C112.6,74.6,109.7,75.8,106.6,75.9z"/>
	<path class="st6658" d="M61.2,68.1c0,0.1-0.1,0.3-0.1,0.4v0.1l0.3,0.1l0.2-0.4c0.2,0.1,0.4,0.1,0.6,0.1c0,0.1,0,0.3,0,0.4v0.1h0.3
		l0.1-0.4c0.2,0,0.4,0,0.6-0.1c0.1,0.1,0.1,0.3,0.1,0.4v0.1l0.3-0.1l-0.1-0.4c0.2-0.1,0.4-0.1,0.5-0.2c0.1,0.1,0.1,0.3,0.2,0.4v0.1
		l0.3-0.1l0.2-0.5c0.1-0.1,0.2-0.1,0.4-0.2c0.1-0.1,0.1-0.1,0.1-0.1c0.1,0.1,0.2,0.2,0.3,0.3h0.1l0.2-0.2L65.7,67
		c0.1-0.1,0.2-0.3,0.4-0.5c0.1,0.1,0.3,0.1,0.4,0.1h0.1l0.1-0.3l-0.6-0.1c0.1-0.1,0.1-0.4,0.2-0.6c0.1,0,0.3,0.1,0.4,0.1h0.1
		l0.1-0.3l-0.5-0.1c0-0.1,0-0.1,0-0.1c0-0.1,0-0.3,0-0.4c0.1,0,0.3-0.1,0.4-0.1h0.1v-0.3h-0.4c0-0.2-0.1-0.4-0.1-0.6
		c0.1-0.1,0.3-0.1,0.4-0.1h0.1l-0.2-0.3l-0.4,0.1c-0.1-0.1-0.2-0.4-0.3-0.5c0.1-0.1,0.2-0.2,0.3-0.3h0.1L66,62.3l-0.4,0.2
		c-0.1-0.1-0.3-0.3-0.4-0.4c0.1-0.1,0.1-0.3,0.2-0.4v-0.1l-0.2-0.1L64.9,62c-0.1-0.1-0.4-0.2-0.5-0.3c0-0.1,0.1-0.3,0.1-0.4v-0.1
		l-0.3-0.1l-0.2,0.4c-0.2-0.1-0.4-0.1-0.6-0.1c0-0.1,0-0.3,0-0.4V61H63l-0.1,0.4c-0.2,0-0.4,0-0.6,0.1c-0.1-0.1-0.1-0.3-0.1-0.4V61
		l-0.3,0.1l0.1,0.4c-0.2,0.1-0.4,0.1-0.5,0.2c-0.1-0.1-0.1-0.3-0.2-0.4v-0.1l-0.3,0.1l0.2,0.4c-0.1,0.1-0.2,0.1-0.3,0.2
		s-0.1,0.1-0.1,0.1c-0.1-0.1-0.2-0.2-0.3-0.3h-0.1L60,62.2l0.3,0.4c-0.1,0.1-0.2,0.3-0.4,0.5c-0.1-0.1-0.3-0.1-0.4-0.1h-0.1
		l-0.1,0.3l0.4,0.3c-0.1,0.1-0.1,0.4-0.2,0.6c-0.1,0-0.3-0.1-0.4-0.1H59l-0.1,0.3l0.4,0.1c0,0.1,0,0.1,0,0.1c0,0.1,0,0.3,0,0.4
		c-0.1,0-0.3,0.1-0.4,0.1h-0.1v0.3h0.4c0,0.2,0.1,0.4,0.1,0.6c-0.1,0.1-0.3,0.1-0.4,0.1H59l0.1,0.3l0.4-0.1c0.1,0.1,0.2,0.4,0.3,0.5
		c-0.1,0.1-0.2,0.2-0.3,0.3h-0.1l0.1,0.2l0.4-0.2c0.1,0.1,0.3,0.3,0.4,0.4c-0.1,0.1-0.1,0.3-0.2,0.4V68l0.2,0.1l0.3-0.4
		C60.8,67.9,61.1,68,61.2,68.1z M62.8,67.9L62.8,67.9c-0.8-0.1-1.4-0.4-1.9-0.8l1.2-1.2c0.2,0.1,0.4,0.3,0.7,0.3V67.9z M63.1,67.9
		v-1.7c0.3,0,0.5-0.1,0.7-0.3l1.2,1.2C64.5,67.6,63.8,67.9,63.1,67.9z M66,65c-0.1,0.7-0.4,1.3-0.7,1.9L64,65.7
		c0.1-0.2,0.3-0.4,0.3-0.7L66,65C66,65,66,65,66,65z M66,64.7h-1.7c0-0.3-0.1-0.5-0.3-0.7l1.2-1.2C65.7,63.2,66,63.9,66,64.7z
		 M63.1,61.8C63.1,61.8,63.1,61.8,63.1,61.8c0.8,0.1,1.4,0.4,1.9,0.8l-1.2,1.2c-0.2-0.1-0.4-0.3-0.7-0.3V61.8z M63,63.8
		c0.6,0.1,1,0.5,1,1.1c-0.1,0.6-0.6,1-1.1,1c-0.6-0.1-1-0.5-1-1.1C62,64.1,62.4,63.8,63,63.8z M62.8,61.8v1.7
		c-0.3,0-0.5,0.1-0.7,0.3l-1.2-1.2C61.4,62.1,62,61.8,62.8,61.8z M59.9,64.7c0.1-0.7,0.4-1.3,0.8-1.9l1.2,1.2
		c-0.1,0.2-0.3,0.4-0.3,0.7L59.9,64.7C59.9,64.7,59.9,64.7,59.9,64.7z M59.9,65h1.7c0,0.3,0.1,0.5,0.3,0.7l-1.3,1.1
		C60.2,66.4,59.9,65.7,59.9,65z"/>
	<path class="st6658" d="M32.8,8.2L32.8,8.2L33,7.9l-0.4-0.3c0.1-0.1,0.1-0.4,0.2-0.6c0.1,0,0.3,0.1,0.4,0.1h0.1l0.1-0.3l-0.6-0.1
		c0-0.1,0-0.1,0-0.1c0-0.1,0-0.3,0-0.4C33,6.1,33.2,6,33.3,6h0.1V5.7H33c0-0.2-0.1-0.4-0.1-0.6c0,0,0.2-0.1,0.3-0.1h0.1L33,4.7
		l-0.4,0.1c-0.1-0.2-0.2-0.4-0.3-0.5c0.1-0.1,0.2-0.2,0.3-0.3h0.1l-0.2-0.3L32.1,4c-0.1-0.1-0.3-0.3-0.4-0.4
		c0.1-0.1,0.1-0.3,0.2-0.4V3.1L31.6,3l-0.3,0.3c-0.2-0.1-0.4-0.1-0.6-0.2c0-0.1,0.1-0.3,0.1-0.4V2.7l-0.2-0.1L30.4,3
		c-0.1,0-0.4-0.1-0.5-0.1c0-0.1,0-0.3,0-0.4V2.4h-0.3l-0.1,0.5c-0.1,0-0.4,0-0.6,0c0-0.1-0.1-0.3-0.1-0.4V2.4l-0.4,0.1L28.4,3
		c-0.1,0.1-0.4,0.2-0.5,0.3c-0.1-0.1-0.2-0.3-0.2-0.4V2.8L27.4,3l0.2,0.4c-0.1,0-0.3,0.1-0.4,0.2c-0.1,0-0.1,0.1-0.1,0.1
		c-0.1-0.1-0.2-0.2-0.3-0.3h-0.1l-0.1,0.1l0.3,0.4c-0.1,0.1-0.3,0.4-0.4,0.5c-0.1-0.1-0.3-0.1-0.4-0.1H26L26,4.7l0.4,0.2
		c-0.1,0.2-0.1,0.4-0.2,0.6c-0.1,0-0.3-0.1-0.4-0.1h-0.1v0.3L26,5.9C26,5.9,26,6,26,6c0,0.1,0,0.3,0,0.4c-0.1,0-0.3,0.1-0.4,0.1
		h-0.1v0.3H26c0,0.2,0.1,0.4,0.1,0.6c0,0.1-0.1,0.1-0.2,0.1h-0.1l0.1,0.3l0.4-0.1c0.1,0.2,0.2,0.4,0.4,0.6c-0.1,0.1-0.2,0.2-0.3,0.2
		h-0.1l0.2,0.3l0.4-0.2c0.1,0.1,0.3,0.2,0.4,0.4c-0.1,0.1-0.1,0.3-0.2,0.4v0.1l0.2,0.1l0.3-0.4c0.1,0.1,0.4,0.2,0.5,0.3
		c0,0.1-0.1,0.3-0.1,0.4V10l0.3,0.1l0.1-0.4c0.2,0.1,0.4,0.1,0.6,0.1c0,0.1,0,0.3,0,0.4v0.1h0.3l0.1-0.4c0.2,0,0.4,0,0.6-0.1
		c0.1,0.1,0.1,0.3,0.1,0.4v0.1l0.3-0.1l-0.1-0.4c0.2-0.1,0.4-0.1,0.5-0.2c0.1,0.1,0.1,0.3,0.2,0.4v0.1l0.4-0.2l-0.2-0.4
		c0.1-0.1,0.2-0.1,0.4-0.2c0-0.1,0.1-0.1,0.1-0.1c0.1,0.1,0.3,0.2,0.3,0.3h0.1l0.2-0.2l-0.3-0.4c0.1-0.1,0.2-0.3,0.4-0.5
		C32.6,8,32.7,8.1,32.8,8.2z M31.8,4.1c0.4,0.6,0.7,1.3,0.8,1.9h-1.7c0-0.3-0.1-0.5-0.3-0.7L31.8,4.1z M29.6,3.2L29.6,3.2
		C30.4,3.3,31,3.6,31.6,4l-1.2,1.2c-0.2-0.1-0.4-0.3-0.7-0.3V3.2z M29.3,3.2v1.7c-0.3,0-0.5,0.1-0.7,0.3L27.4,4
		C27.9,3.6,28.6,3.3,29.3,3.2z M26.4,6.1c0.1-0.7,0.4-1.3,0.8-1.9l1.2,1.2c-0.1,0.2-0.3,0.4-0.3,0.7L26.4,6.1L26.4,6.1z M27.2,8.4
		c-0.5-0.5-0.8-1.2-0.8-1.9h1.7c0,0.3,0.1,0.5,0.3,0.7L27.2,8.4z M29.4,9.4c-0.1,0-0.1,0-0.1,0c-0.7-0.1-1.3-0.4-1.9-0.8l1.3-1.2
		c0.2,0.1,0.4,0.3,0.7,0.3V9.4z M29.4,7.3c-0.5,0-1-0.5-0.9-1c0.1-0.6,0.5-1,1.1-1s1,0.5,1,1.1C30.4,6.9,30,7.4,29.4,7.3z M29.6,9.4
		V7.7c0.3,0,0.5-0.1,0.7-0.3l1.2,1.2C31,9,30.4,9.4,29.6,9.4z M31.9,8.4l-1.3-1.3c0.1-0.2,0.3-0.4,0.3-0.7h1.7c0,0.1,0,0.1,0,0.1
		C32.5,7.2,32.2,7.9,31.9,8.4z"/>
	<path class="st6658" d="M98.6,45.4c0.1,0,0.3-0.1,0.4-0.1h0.1v-0.3h-0.4c0-0.1-0.1-0.4-0.1-0.5c0.1-0.1,0.3-0.1,0.4-0.1h0.1l-0.1-0.3
		l-0.4,0.1c-0.1-0.1-0.1-0.3-0.3-0.4c0.1-0.1,0.2-0.2,0.3-0.2l-0.1-0.2l-0.4,0.2c-0.1-0.1-0.3-0.3-0.4-0.4c0.1-0.1,0.1-0.2,0.2-0.3
		v-0.1l-0.2-0.1l-0.4,0.1c-0.1-0.1-0.3-0.1-0.5-0.2c0-0.1,0.1-0.3,0.1-0.4v-0.1l-0.3-0.1l-0.2,0.4c-0.1-0.1-0.3-0.1-0.4-0.1
		c0-0.1,0-0.3,0-0.4v-0.1h-0.3l-0.1,0.4c-0.2,0-0.4,0-0.6,0.1c0-0.1-0.1-0.3-0.1-0.4V42l-0.3,0.1l0.1,0.4c-0.1,0.1-0.4,0.1-0.5,0.2
		c-0.1-0.1-0.1-0.2-0.2-0.3v-0.1l-0.2,0.1l0.1,0.4c-0.1,0.1-0.2,0.1-0.3,0.2c-0.1,0.1-0.1,0.1-0.1,0.1C93,43.1,92.9,43,92.8,43
		l-0.1,0.2l0.3,0.4c-0.1,0.1-0.2,0.3-0.3,0.4c-0.1-0.1-0.3-0.1-0.4-0.1h-0.1l-0.1,0.2l0.4,0.2c-0.1,0.1-0.1,0.4-0.1,0.5
		c-0.1,0-0.3,0-0.4-0.1h-0.1l-0.1,0.3l0.4,0.1c0,0.1,0,0.1,0,0.1c0,0.1,0,0.3,0,0.4c-0.1,0-0.3,0.1-0.4,0.1h-0.1v0.3h0.4
		c0,0.1,0.1,0.4,0.1,0.5c-0.1,0.1-0.3,0.1-0.4,0.1h-0.1l0.1,0.3l0.4-0.1c0.1,0.1,0.1,0.3,0.3,0.4c-0.1,0.1-0.2,0.2-0.3,0.2l0.1,0.2
		l0.4-0.2c0.1,0.1,0.3,0.3,0.4,0.4c-0.1,0.1-0.1,0.2-0.2,0.3v0.1l0.2,0.1l0.3-0.3c0.1,0.1,0.3,0.1,0.5,0.2c0,0.1-0.1,0.3-0.1,0.4
		v0.1l0.3,0.1l0.2-0.4c0.1,0.1,0.4,0.1,0.5,0.1c0,0.1,0,0.3,0,0.4v0.1h0.3l0.1-0.4c0.2,0,0.4,0,0.5-0.1c0,0.1,0.1,0.3,0.1,0.4V49
		l0.3-0.1l-0.1-0.3c0.1-0.1,0.4-0.1,0.5-0.2c0.1,0.1,0.1,0.2,0.2,0.3v0.1l0.2-0.1l-0.1-0.4c0.1-0.1,0.2-0.1,0.3-0.2
		c0.1,0,0.1-0.1,0.1-0.1c0.1,0.1,0.2,0.2,0.3,0.2l0.2-0.2l-0.3-0.4c0.1-0.1,0.2-0.3,0.3-0.4c0.1,0.1,0.3,0.1,0.4,0.1h0.1l0.1-0.2
		l-0.4-0.2c0.1-0.1,0.1-0.4,0.1-0.5c0.1,0,0.3,0.1,0.4,0.1h0.1l0.1-0.3L98.6,46c0-0.1,0-0.1,0-0.1C98.6,45.7,98.6,45.6,98.6,45.4z
		 M95.6,42.7C95.6,42.7,95.6,42.7,95.6,42.7c0.7,0.1,1.3,0.3,1.8,0.7l-1.1,1.1c-0.2-0.1-0.4-0.2-0.7-0.3V42.7z M95.3,42.7v1.6
		c-0.2,0-0.5,0.1-0.7,0.3l-1.1-1.1C93.9,43,94.6,42.7,95.3,42.7z M92.5,45.4c0.1-0.7,0.3-1.3,0.7-1.7l1.1,1.1
		c-0.1,0.2-0.2,0.4-0.3,0.7L92.5,45.4L92.5,45.4z M93.3,47.4c-0.4-0.4-0.7-1-0.7-1.8h1.6c0,0.2,0.1,0.5,0.3,0.7L93.3,47.4z
		 M95.3,48.4L95.3,48.4c-0.7-0.1-1.3-0.3-1.8-0.7l1.1-1.1c0.2,0.1,0.4,0.2,0.7,0.3V48.4z M95.3,46.5c-0.5-0.1-0.9-0.5-0.9-1
		c0.1-0.5,0.5-0.9,1-0.9c0.5,0.1,0.9,0.5,0.9,1C96.3,46.1,95.9,46.5,95.3,46.5z M95.6,48.4v-1.6c0.2,0,0.5-0.1,0.7-0.3l1.1,1.1
		C96.9,48.1,96.2,48.4,95.6,48.4z M98.2,45.7c-0.1,0.7-0.3,1.3-0.7,1.7l-1.1-1.1c0.1-0.2,0.2-0.4,0.3-0.7L98.2,45.7L98.2,45.7z
		 M96.7,45.4c0-0.2-0.1-0.5-0.3-0.7l1.1-1.1c0.4,0.5,0.7,1.1,0.7,1.8H96.7z"/>
	<path class="st6658" d="M137.6,48.2h-0.3l-0.1,0.4c-0.2,0-0.4,0-0.6,0.1c0-0.1-0.1-0.3-0.1-0.4v-0.1l-0.3,0.1l0.1,0.4
		c-0.1,0.1-0.4,0.1-0.5,0.2c-0.1-0.1-0.1-0.2-0.2-0.3v-0.1l-0.2,0.1l0.1,0.4c-0.1,0.1-0.2,0.1-0.3,0.2c-0.1,0.1-0.1,0.1-0.1,0.1
		c-0.1-0.1-0.2-0.2-0.3-0.2l-0.2,0.2l0.3,0.4c-0.1,0.1-0.2,0.3-0.3,0.4c-0.1-0.1-0.3-0.1-0.4-0.1H134l-0.1,0.2l0.4,0.2
		c-0.1,0.1-0.1,0.4-0.1,0.5c-0.1,0-0.3,0-0.4-0.1h-0.1l-0.1,0.3l0.4,0.1c0,0.1,0,0.1,0,0.1c0,0.1,0,0.3,0,0.4
		c-0.1,0-0.3,0.1-0.4,0.1h-0.1v0.3h0.4c0,0.1,0.1,0.4,0.1,0.5c-0.1,0.1-0.3,0.1-0.4,0.1h-0.1l0.1,0.3l0.4-0.1
		c0.1,0.1,0.1,0.3,0.3,0.4c-0.1,0.1-0.2,0.2-0.3,0.2l0.1,0.2l0.4-0.2c0.1,0.1,0.3,0.3,0.4,0.4c-0.1,0.1-0.1,0.2-0.2,0.3v0.1l0.2,0.1
		l0.3-0.3c0.1,0.1,0.3,0.1,0.5,0.2c0,0.1-0.1,0.3-0.1,0.4v0.1l0.3,0.1l0.2-0.4c0.1,0.1,0.4,0.1,0.5,0.1c0,0.1,0,0.3,0,0.4v0.1h0.3
		l0.1-0.4c0.2,0,0.4,0,0.5-0.1c0,0.1,0.1,0.3,0.1,0.4v0.1l0.3-0.1l-0.1-0.4c0.1-0.1,0.4-0.1,0.5-0.2c0.1,0.1,0.1,0.2,0.2,0.3V55
		l0.2-0.1l-0.1-0.4c0.1-0.1,0.2-0.1,0.3-0.2c0.1,0,0.1-0.1,0.1-0.1c0.1,0.1,0.2,0.2,0.3,0.2l0.2-0.2l-0.3-0.4
		c0.1-0.1,0.2-0.3,0.3-0.4c0.1,0.1,0.3,0.1,0.4,0.1h0.1l0.1-0.2l-0.4-0.2c0.1-0.1,0.1-0.4,0.1-0.5c0.1,0,0.3,0.1,0.4,0.1h0.1
		l0.1-0.3l-0.4-0.2c0-0.1,0-0.1,0-0.1c0-0.1,0-0.2,0-0.4c0.1,0,0.3-0.1,0.4-0.1h0.1v-0.3h-0.4c0-0.1-0.1-0.4-0.1-0.5
		c0.1-0.1,0.3-0.1,0.4-0.1h0.1l-0.1-0.3l-0.4,0.1c-0.1-0.1-0.1-0.3-0.3-0.4c0.1-0.1,0.2-0.2,0.3-0.2l-0.1-0.2l-0.4,0.2
		c-0.1-0.1-0.3-0.3-0.4-0.4c0.1-0.1,0.1-0.2,0.2-0.3v-0.1l-0.2-0.1l-0.3,0.3c-0.1-0.1-0.3-0.1-0.5-0.2c0-0.1,0.1-0.3,0.1-0.4v-0.1
		l-0.3-0.1l-0.2,0.4c-0.1-0.1-0.4-0.1-0.5-0.1C137.6,48.5,137.6,48.3,137.6,48.2L137.6,48.2z M137.1,48.8v1.6
		c-0.2,0-0.5,0.1-0.7,0.3l-1.1-1.1C135.8,49.2,136.5,48.9,137.1,48.8z M134.4,51.5c0.1-0.7,0.3-1.3,0.7-1.7l1.1,1.1
		c-0.1,0.2-0.2,0.4-0.3,0.7L134.4,51.5C134.4,51.5,134.4,51.5,134.4,51.5z M134.4,51.8h1.6c0,0.2,0.1,0.5,0.3,0.7l-1.1,1.1
		C134.7,53.2,134.5,52.5,134.4,51.8z M137.1,54.5L137.1,54.5c-0.7-0.1-1.3-0.3-1.8-0.7l1.1-1.1c0.2,0.1,0.4,0.2,0.7,0.3V54.5z
		 M137.2,52.7c-0.5-0.1-0.9-0.5-0.9-1c0.1-0.5,0.5-0.9,1-0.9s0.9,0.5,0.9,1C138.2,52.3,137.7,52.7,137.2,52.7z M137.4,54.5V53
		c0.2,0,0.5-0.1,0.7-0.3l1.1,1.1C138.8,54.2,138.1,54.5,137.4,54.5z M140.1,51.9c-0.1,0.7-0.3,1.3-0.7,1.7l-1.1-1.1
		c0.1-0.2,0.2-0.4,0.3-0.7L140.1,51.9C140.1,51.8,140.1,51.8,140.1,51.9z M140.1,51.5h-1.6c0-0.2-0.1-0.5-0.3-0.7l1.1-1.1
		C139.8,50.2,140.1,50.9,140.1,51.5z M139.2,49.5l-1.1,1.1c-0.2-0.1-0.4-0.2-0.7-0.3v-1.6c0,0,0,0,0.1,0
		C138.2,48.9,138.8,49.1,139.2,49.5z"/>
	<path class="st6658" d="M103.4,30.5c0,0.1,0,0.2,0,0.3c-0.1,0-0.2,0.1-0.3,0.1V31h0.4c0,0.1,0.1,0.3,0.1,0.4c-0.1,0.1-0.2,0.1-0.3,0.1
		l0.1,0.2l0.4-0.1c0.1,0.1,0.1,0.2,0.2,0.4c-0.1,0.1-0.1,0.1-0.2,0.2l0.1,0.1l0.3-0.2c0.1,0.1,0.2,0.2,0.3,0.3
		c-0.1,0.1-0.1,0.2-0.1,0.2l0.1,0.1l0.2-0.3c0.1,0.1,0.2,0.1,0.4,0.2c0,0.1-0.1,0.2-0.1,0.3l0.2,0.1l0.1-0.3
		c0.1,0.1,0.3,0.1,0.4,0.1c0,0.1,0,0.2,0,0.3h0.2l0.1-0.4c0.1,0,0.3,0,0.4-0.1c0,0.1,0.1,0.2,0.1,0.3l0.2-0.1l-0.1-0.4
		c0.1-0.1,0.3-0.1,0.4-0.1c0.1,0.1,0.1,0.2,0.1,0.2l0.2-0.1l-0.1-0.3c0.1-0.1,0.1-0.1,0.2-0.2l0.1-0.1c0.1,0.1,0.1,0.1,0.2,0.2
		l0.1-0.1l-0.2-0.3c0.1-0.1,0.1-0.2,0.2-0.4c0.1,0,0.2,0.1,0.3,0.1l0.1-0.2l-0.3-0.2c0.1-0.1,0.1-0.3,0.1-0.4c0.1,0,0.2,0,0.3,0.1
		l0.1-0.2h-0.4c0-0.1,0-0.1,0-0.1s0-0.2,0-0.3c0.1,0,0.2-0.1,0.3-0.1v-0.2h-0.4c0-0.1-0.1-0.3-0.1-0.4c0.1-0.1,0.2-0.1,0.3-0.1
		l-0.1-0.2l-0.4,0.1c-0.1-0.1-0.1-0.2-0.2-0.4c0.1-0.1,0.1-0.1,0.2-0.2l-0.1-0.1l-0.3,0.1c-0.1-0.1-0.2-0.2-0.3-0.3
		c0.1-0.1,0.1-0.2,0.1-0.2l-0.1-0.1l-0.2,0.3c-0.1-0.1-0.2-0.1-0.4-0.2c0-0.1,0.1-0.2,0.1-0.3l-0.2-0.1l-0.1,0.3
		c-0.1-0.1-0.3-0.1-0.4-0.1c0-0.1,0-0.2,0-0.3h-0.2l-0.1,0.4c-0.1,0-0.3,0-0.4,0.1c0-0.1-0.1-0.2-0.1-0.3l-0.2,0.1l0.1,0.4
		c-0.1,0.1-0.3,0.1-0.4,0.1c-0.1-0.1-0.1-0.2-0.1-0.2l-0.2,0.1l0.1,0.3c-0.1,0.1-0.1,0.1-0.2,0.1l-0.1,0.1c-0.1-0.1-0.1-0.1-0.2-0.2
		l-0.1,0.1l0.2,0.3c-0.1,0.1-0.1,0.2-0.2,0.4c-0.1,0-0.2-0.1-0.3-0.1l-0.1,0.2l0.3,0.2c-0.1,0.1-0.1,0.3-0.1,0.4c-0.1,0-0.2,0-0.3,0
		l-0.1,0.2l0.4,0.1C103.4,30.4,103.4,30.4,103.4,30.5z M105.6,32.6c-0.5-0.1-1-0.2-1.3-0.6l0.9-0.9c0.1,0.1,0.3,0.2,0.5,0.2
		L105.6,32.6z M105.8,32.6v-1.3c0.2,0,0.4-0.1,0.5-0.2l0.9,0.9C106.9,32.4,106.4,32.6,105.8,32.6z M108,30.5c0,0.5-0.2,1-0.6,1.3
		l-0.9-0.9c0.1-0.1,0.2-0.3,0.2-0.5L108,30.5L108,30.5z M108,30.2h-1.3c0-0.2-0.1-0.4-0.2-0.5l0.9-0.9C107.8,29.2,108,29.7,108,30.2
		z M105.9,28.1c0.5,0.1,1,0.2,1.3,0.6l-0.9,0.9c-0.1-0.1-0.3-0.2-0.5-0.2L105.9,28.1z M105.8,29.6c0.4,0,0.7,0.4,0.7,0.8
		c0,0.4-0.4,0.7-0.8,0.7c-0.4,0-0.7-0.4-0.7-0.8C105,29.9,105.4,29.6,105.8,29.6z M105.6,28.1v1.3c-0.2,0-0.4,0.1-0.5,0.2l-0.9-0.9
		C104.7,28.4,105.1,28.1,105.6,28.1z M104.1,28.9l0.9,0.9c-0.1,0.1-0.2,0.3-0.2,0.5l-1.3-0.1C103.6,29.7,103.8,29.3,104.1,28.9z
		 M104.8,30.5c0,0.2,0.1,0.4,0.2,0.5l-0.9,0.9c-0.4-0.4-0.6-0.8-0.6-1.4H104.8z"/>
	<path class="st6658" d="M66.1,39.8c0.1,0,0.2-0.1,0.3-0.1v-0.2H66c0-0.1-0.1-0.3-0.1-0.4c0.1-0.1,0.2-0.1,0.3-0.1l-0.1-0.2l-0.3,0.1
		c-0.1-0.1-0.1-0.2-0.2-0.4c0.1-0.1,0.1-0.1,0.2-0.2l-0.1-0.1l-0.3,0.1c-0.1-0.1-0.2-0.2-0.3-0.3c0.1-0.1,0.1-0.2,0.1-0.2l-0.1-0.1
		l-0.2,0.3c-0.1-0.1-0.2-0.1-0.4-0.2c0-0.1,0.1-0.2,0.1-0.3l-0.2-0.1l-0.1,0.3c-0.1-0.1-0.3-0.1-0.4-0.1c0-0.1,0-0.2,0-0.3h-0.2
		l-0.1,0.4c-0.1,0-0.3,0-0.4,0.1c0-0.1-0.1-0.2-0.1-0.3l-0.1-0.1l0.1,0.4c-0.1,0.1-0.3,0.1-0.4,0.1c-0.1-0.1-0.1-0.2-0.1-0.2
		l-0.2,0.1l0.1,0.3C62.2,37.9,62.1,38,62,38L62,38.1c-0.1-0.1-0.1-0.1-0.2-0.2l-0.4,0.2l0.2,0.3c-0.1,0.1-0.1,0.2-0.2,0.4
		c-0.1,0-0.2-0.1-0.3-0.1L61,38.8l0.3,0.2c-0.1,0.1-0.1,0.3-0.1,0.4c-0.1,0-0.2,0-0.3,0l-0.1,0.2l0.4,0.1c0,0.1,0,0.1,0,0.1
		s0,0.2,0,0.3c-0.1,0-0.2,0.1-0.3,0.1v0.2h0.4c0,0.1,0.1,0.3,0.1,0.4C61.2,41,61.1,41,61,41.1l0.1,0.2l0.4-0.1
		c0.1,0.1,0.1,0.2,0.2,0.4c-0.1,0.1-0.1,0.1-0.2,0.2l0.1,0.1l0.3-0.2c0.1,0.1,0.2,0.2,0.3,0.3c-0.1,0.1-0.1,0.2-0.1,0.2l0.1,0.1
		l0.2-0.3c0.1,0.1,0.2,0.1,0.4,0.2c0,0.1-0.1,0.2-0.1,0.3l0.2,0.1l0.1-0.3c0.1,0.1,0.3,0.1,0.4,0.1c0,0.1,0,0.2,0,0.3h0.2l0.1-0.4
		c0.1,0,0.3,0,0.4-0.1c0,0.1,0.1,0.2,0.1,0.3l0.2-0.1l-0.2-0.3c0.1-0.1,0.3-0.1,0.4-0.1c0.1,0.1,0.1,0.2,0.1,0.2l0.2-0.1L64.9,42
		c0.1-0.1,0.1-0.1,0.2-0.2l0.1-0.1c0.1,0.1,0.1,0.1,0.2,0.2l0.1-0.1l-0.2-0.3c0.1-0.1,0.1-0.2,0.2-0.4c0.1,0,0.2,0.1,0.3,0.1L66,41
		l-0.1-0.1c0.1-0.1,0.1-0.3,0.1-0.4c0.1,0,0.2,0,0.3,0.1l0.1-0.2l-0.3-0.1c0-0.1,0-0.1,0-0.1S66.1,39.8,66.1,39.8z M63.7,37.7
		c0.5,0.1,1,0.2,1.3,0.6l-0.9,0.9c-0.1-0.1-0.3-0.2-0.5-0.2L63.7,37.7z M63.4,37.7v1.3c-0.2,0-0.4,0.1-0.5,0.2L62,38.3
		C62.4,37.9,62.9,37.7,63.4,37.7z M61.9,38.4l0.9,0.9c-0.1,0.1-0.2,0.3-0.2,0.5l-1.3-0.1C61.4,39.2,61.5,38.8,61.9,38.4z M61.3,40.1
		h1.3c0,0.2,0.1,0.4,0.2,0.5l-0.9,0.9C61.5,41,61.3,40.6,61.3,40.1z M63.4,42.2c-0.5-0.1-1-0.2-1.3-0.6l0.9-0.9
		c0.1,0.1,0.3,0.2,0.5,0.2L63.4,42.2z M62.9,39.8c0-0.4,0.4-0.7,0.8-0.7c0.4,0.1,0.7,0.4,0.7,0.8c-0.1,0.4-0.4,0.7-0.8,0.7
		C63.1,40.7,62.8,40.3,62.9,39.8z M63.7,42.2v-1.3c0.2,0,0.4-0.1,0.5-0.2l0.9,0.9C64.7,41.9,64.2,42.2,63.7,42.2z M65.8,40.1
		c0,0.5-0.2,1-0.6,1.3l-0.9-0.9c0.1-0.1,0.2-0.3,0.2-0.5L65.8,40.1L65.8,40.1z M64.6,39.8c0-0.2-0.1-0.4-0.2-0.5l0.9-0.9
		c0.3,0.4,0.5,0.9,0.6,1.4H64.6z"/>
	<path class="st6658" d="M122.8,76.7h0.2l0.1-0.4c0.1,0,0.3,0,0.4-0.1c0,0.1,0.1,0.2,0.1,0.3l0.2-0.1l-0.1-0.4c0.1-0.1,0.3-0.1,0.4-0.1
		c0.1,0.1,0.1,0.2,0.1,0.2l0.2-0.1l-0.1-0.3c0.1-0.1,0.1-0.1,0.2-0.2l0.1-0.1c0.1,0.1,0.2,0.1,0.2,0.2l0.1-0.1l-0.2-0.3
		c0.1-0.1,0.1-0.2,0.2-0.4c0.1,0.1,0.2,0.1,0.3,0.1l0.1-0.2l-0.3-0.2c0.1-0.1,0.1-0.3,0.1-0.4c0.1,0,0.2,0,0.3,0.1h0.1l0.1-0.2
		l-0.4-0.1c0-0.1,0-0.1,0-0.1s0-0.2,0-0.3c0.1,0,0.2-0.1,0.3-0.1h0.1v-0.2h-0.4c0-0.1-0.1-0.3-0.1-0.4c0.1-0.1,0.2-0.1,0.3-0.1
		l-0.1-0.2l-0.4,0.1c-0.1-0.1-0.1-0.3-0.2-0.4c0.1-0.1,0.1-0.1,0.2-0.2l-0.1-0.1l-0.3,0.2c-0.1-0.1-0.2-0.2-0.3-0.3
		c0.1-0.1,0.1-0.2,0.1-0.3l-0.1-0.1l-0.2,0.3c-0.1-0.1-0.2-0.1-0.4-0.2c0-0.1,0.1-0.2,0.1-0.3l-0.2-0.1l-0.1,0.3
		c-0.1-0.1-0.3-0.1-0.4-0.1c0-0.1,0-0.2,0-0.3v-0.1h-0.2l-0.1,0.4c-0.1,0-0.3,0-0.4,0.1c0-0.1-0.1-0.2-0.1-0.3l-0.2,0.1l0.1,0.4
		c-0.1,0.1-0.3,0.1-0.4,0.1c-0.1-0.1-0.1-0.2-0.1-0.2l-0.2,0.1l0.1,0.3c-0.1,0.1-0.1,0.1-0.2,0.2l-0.1,0.1c-0.1-0.1-0.2-0.1-0.2-0.2
		l-0.1,0.1l0.2,0.3c-0.1,0.1-0.1,0.2-0.2,0.4c-0.1-0.1-0.2-0.1-0.3-0.1l-0.1,0.2l0.3,0.2c0.1-0.3,0.2-0.6,0.5-0.8l0.9,0.9
		c-0.1,0.1-0.2,0.4-0.2,0.5l-1.3,0c0-0.1,0-0.2,0.1-0.3c0,0.1,0,0.1-0.1,0.2c-0.1,0-0.2,0-0.3-0.1h-0.1l-0.1,0.2l0.4,0.1
		c0,0.1,0,0.1,0,0.1s0,0.2,0,0.3c-0.1,0-0.2,0.1-0.3,0.1h-0.1v0.2h0.4c0,0.1,0.1,0.3,0.1,0.4c-0.1,0.1-0.2,0.1-0.3,0.1l0.1,0.2
		l0.4-0.1c0.1,0.1,0.1,0.3,0.2,0.4c-0.1,0.1-0.1,0.1-0.2,0.2l0.1,0.1l0.3-0.2c0.1,0.1,0.2,0.2,0.3,0.3c-0.1,0.1-0.1,0.2-0.1,0.3
		l0.1,0.1l0.2-0.3c0.1,0.1,0.3,0.1,0.4,0.2c0,0.1-0.1,0.2-0.1,0.3l0.2,0.1l0.1-0.3c0.1,0.1,0.3,0.1,0.4,0.1
		C122.8,76.4,122.8,76.6,122.8,76.7L122.8,76.7z M123,75.9v-1.3c0.2,0,0.4-0.1,0.5-0.2l0.9,0.9C124,75.7,123.5,75.9,123,75.9z
		 M125.1,73.7c-0.1,0.5-0.2,1-0.6,1.3l-0.9-0.9c0.1-0.1,0.2-0.4,0.2-0.5L125.1,73.7C125.1,73.7,125.1,73.7,125.1,73.7z M124.6,72.1
		c0.4,0.3,0.6,0.8,0.6,1.4h-1.3c0-0.2-0.1-0.4-0.2-0.5L124.6,72.1z M123.1,71.3c0.5,0.1,1,0.2,1.3,0.6l-0.9,0.9
		c-0.1-0.1-0.4-0.2-0.5-0.2L123.1,71.3z M121.3,71.9c0.4-0.3,0.9-0.5,1.4-0.6v1.3c-0.2,0-0.4,0.1-0.5,0.2L121.3,71.9z M120.6,73.7
		h1.3c0,0.2,0.1,0.4,0.2,0.5l-0.9,0.9C120.8,74.8,120.6,74.3,120.6,73.7z M121.3,75.3l0.9-0.9c0.1,0.1,0.4,0.2,0.5,0.2v1.3
		C122.2,75.8,121.6,75.7,121.3,75.3z M122.2,73.5c0-0.4,0.4-0.7,0.8-0.7c0.4,0.1,0.7,0.4,0.7,0.8c-0.1,0.4-0.4,0.7-0.8,0.7
		C122.4,74.3,122.1,74,122.2,73.5z"/>
	<path class="st6658" d="M120.7,72.8c0,0.1-0.1,0.2-0.1,0.3C120.7,73,120.7,72.9,120.7,72.8L120.7,72.8z"/>
	<path class="st6658" d="M146.1,66.4c0,0.1-0.1,0.2-0.1,0.2C146,66.6,146,66.5,146.1,66.4L146.1,66.4z"/>
	<path class="st6658" d="M150.7,67.3c0-0.1,0-0.2,0-0.3c0.1,0,0.2-0.1,0.3-0.1v-0.2h-0.4c0-0.1-0.1-0.3-0.1-0.4
		c0.1-0.1,0.2-0.1,0.3-0.1l-0.1-0.2l-0.4,0.1c-0.1-0.1-0.1-0.2-0.2-0.4c0.1-0.1,0.1-0.1,0.2-0.2l-0.1-0.1l-0.2,0.2
		c-0.1-0.1-0.2-0.2-0.3-0.3c0.1-0.1,0.1-0.2,0.1-0.2l-0.1-0.1l-0.2,0.3c-0.1-0.1-0.2-0.1-0.4-0.2c0-0.1,0.1-0.2,0.1-0.3l-0.2-0.1
		l-0.1,0.3c-0.1-0.1-0.3-0.1-0.4-0.1c0-0.1,0-0.2,0-0.3h-0.2l-0.1,0.4c-0.1,0-0.3,0-0.4,0.1c0-0.1-0.1-0.2-0.1-0.3l-0.2,0.1l0.1,0.4
		c-0.1,0.1-0.3,0.1-0.4,0.1c-0.1-0.1-0.1-0.2-0.1-0.2l-0.2,0.1l0.1,0.3c-0.1,0.1-0.1,0.1-0.2,0.1l-0.1,0.1c-0.1-0.1-0.1-0.1-0.2-0.2
		l-0.1,0.1l0.2,0.3c-0.1,0.1-0.1,0.2-0.2,0.4c-0.1,0-0.2-0.1-0.3-0.1l-0.1,0.2l0.3,0.2c0.1-0.3,0.2-0.5,0.5-0.7l0.9,0.9
		c-0.1,0.1-0.2,0.3-0.2,0.5l-1.3-0.1c0-0.1,0-0.2,0.1-0.4c0,0.1,0,0.1-0.1,0.2c-0.1,0-0.2,0-0.3,0l-0.1,0.2l0.4,0.1c0,0,0,0.1,0,0.1
		h1.3c0,0.2,0.1,0.4,0.2,0.5l-0.9,0.9c-0.4-0.4-0.6-0.8-0.6-1.4c0,0,0,0,0,0.1c0,0.1,0,0.2,0,0.3c-0.1,0-0.2,0.1-0.3,0.1v0.2h0.4
		c0,0.1,0.1,0.3,0.1,0.4c-0.1,0.1-0.2,0.1-0.3,0.1l0.1,0.2l0.4-0.1c0.1,0.1,0.1,0.2,0.2,0.4c-0.1,0.1-0.1,0.1-0.2,0.2l0.1,0.1
		l0.3-0.2c0.1,0.1,0.2,0.2,0.3,0.3c-0.1,0.1-0.1,0.2-0.1,0.2l0.1,0.1l0.2-0.3c0.1,0.1,0.2,0.1,0.4,0.2c0,0.1-0.1,0.2-0.1,0.3
		l0.2,0.1l0.1-0.3c0.1,0.1,0.3,0.1,0.4,0.1c0,0.1,0,0.2,0,0.3h0.2l0.1-0.4c0.1,0,0.3,0,0.4-0.1c0,0.1,0.1,0.2,0.1,0.3l0.2-0.1
		l-0.1-0.4c0.1-0.1,0.3-0.1,0.4-0.1c0.1,0.1,0.1,0.2,0.1,0.2l0.2-0.1l-0.1-0.3c0.1-0.1,0.1-0.1,0.2-0.2l0.1-0.1
		c0.1,0.1,0.1,0.1,0.2,0.2l0.1-0.1l-0.2-0.3c0.1-0.1,0.1-0.2,0.2-0.4c0.1,0,0.2,0.1,0.3,0.1l0.1-0.2l-0.3-0.2
		c0.1-0.1,0.1-0.3,0.1-0.4c0.1,0,0.2,0,0.3,0.1l0.1-0.2l-0.4-0.1C150.7,67.4,150.7,67.4,150.7,67.3z M148.3,65
		c0.5,0.1,1,0.2,1.3,0.6l-0.9,0.9c-0.1-0.1-0.3-0.2-0.5-0.2L148.3,65z M146.7,65.6c0.4-0.4,0.8-0.6,1.4-0.6v1.3
		c-0.2,0-0.4,0.1-0.5,0.2L146.7,65.6z M148,69.4c-0.5-0.1-1-0.2-1.3-0.6l0.9-0.9c0.1,0.1,0.3,0.2,0.5,0.2L148,69.4z M148.2,67.9
		c-0.4,0-0.7-0.4-0.7-0.8c0-0.4,0.4-0.7,0.8-0.7c0.4,0,0.7,0.4,0.7,0.8C148.9,67.6,148.5,67.9,148.2,67.9z M148.3,69.4v-1.3
		c0.2,0,0.4-0.1,0.5-0.2l0.9,0.9C149.4,69.2,148.8,69.4,148.3,69.4z M150.5,67.3c0,0.5-0.2,1-0.6,1.3l-0.9-0.9
		c0.1-0.1,0.2-0.3,0.2-0.5L150.5,67.3L150.5,67.3z M149.2,67c0-0.2-0.1-0.4-0.2-0.5l0.9-0.9c0.3,0.4,0.5,0.9,0.6,1.4H149.2z"/>
	<path class="st6658" d="M52.2,27.8l0.2-0.3c0.1,0.1,0.2,0.1,0.4,0.2c0,0.1-0.1,0.2-0.1,0.3l0.2,0.1l0.1-0.3c0.1,0.1,0.3,0.1,0.4,0.1
		c0,0.1,0,0.2,0,0.3v0.1h0.2l0.1-0.4c0.1,0,0.3,0,0.4-0.1c0,0.1,0.1,0.2,0.1,0.3l0.2-0.1l-0.1-0.4c0.1-0.1,0.3-0.1,0.4-0.1
		c0.1,0.1,0.1,0.2,0.1,0.2l0.2-0.1l-0.1-0.3c0.1-0.1,0.1-0.1,0.2-0.2l0.1-0.1c0.1,0.1,0.1,0.1,0.2,0.2l0.1-0.1l-0.2-0.3
		c0.1-0.1,0.1-0.2,0.2-0.4c0.1,0.1,0.2,0.1,0.3,0.1l0.1-0.2l-0.3-0.2c0.1-0.1,0.1-0.3,0.1-0.4c0.1,0,0.2,0,0.3,0.1h0.1l0.1-0.2
		l-0.4-0.1c0-0.1,0-0.1,0-0.1s0-0.2,0-0.3c0.1,0,0.2-0.1,0.3-0.1h0.1v-0.2h-0.4c0-0.1-0.1-0.3-0.1-0.4c0.1-0.1,0.2-0.1,0.3-0.1
		L56.1,24L55.8,24c-0.1-0.1-0.1-0.3-0.2-0.4c0.1-0.1,0.1-0.1,0.2-0.2l-0.1-0.1l-0.2,0.1c-0.1-0.1-0.2-0.2-0.3-0.3
		c0.1-0.1,0.1-0.2,0.1-0.3l-0.1-0.1L54.9,23c-0.1-0.1-0.2-0.1-0.4-0.2c0-0.1,0.1-0.2,0.1-0.3l-0.2-0.1l-0.1,0.3
		c-0.1-0.1-0.3-0.1-0.4-0.1c0-0.1,0-0.2,0-0.3v-0.1h-0.2l-0.1,0.4c-0.1,0-0.3,0-0.4,0.1c0-0.1-0.1-0.2-0.1-0.3l-0.2,0.1l0.1,0.4
		c-0.1,0.1-0.3,0.1-0.4,0.1c-0.1-0.1-0.1-0.2-0.1-0.2L52,22.9l0.1,0.3c-0.1,0.1-0.1,0.1-0.2,0.2l-0.1,0.1c-0.1-0.1-0.2-0.1-0.2-0.2
		l-0.1,0.1l0.2,0.3c-0.1,0.1-0.1,0.2-0.2,0.4c-0.1-0.1-0.2-0.1-0.3-0.1l-0.1,0.2l0.3,0.2c-0.1,0.1-0.1,0.3-0.1,0.4
		c-0.1,0-0.2,0-0.3-0.1h-0.1l-0.1,0.2l0.4,0.1c0,0.1,0,0.1,0,0.1c0,0.1,0,0.2,0,0.3c-0.1,0-0.2,0.1-0.3,0.1v0.2h0.4
		c0,0.1,0.1,0.3,0.1,0.4c-0.1,0.1-0.2,0.1-0.3,0.1l0.1,0.2l0.4-0.1c0.1,0.1,0.1,0.3,0.2,0.4c-0.1,0.1-0.1,0.1-0.2,0.2l0.1,0.1
		l0.3-0.2c0.1,0.1,0.2,0.2,0.3,0.3c-0.1,0.1-0.1,0.2-0.1,0.3L52.2,27.8z M53.6,27.5v-1.3c0.2,0,0.4-0.1,0.5-0.2l0.9,0.9
		C54.7,27.2,54.1,27.5,53.6,27.5z M55.8,25.3c-0.1,0.5-0.2,1-0.6,1.3l-0.9-0.9c0.1-0.1,0.2-0.4,0.2-0.5L55.8,25.3
		C55.8,25.3,55.8,25.3,55.8,25.3z M55.2,23.6c0.4,0.4,0.6,0.9,0.6,1.4h-1.3c0-0.2-0.1-0.4-0.2-0.5L55.2,23.6z M53.7,22.9
		c0.5,0.1,1,0.2,1.3,0.6l-0.9,0.9c-0.1-0.1-0.4-0.2-0.5-0.2L53.7,22.9z M53.6,24.4c0.4,0,0.7,0.4,0.7,0.8c-0.1,0.4-0.4,0.7-0.8,0.7
		c-0.4,0-0.7-0.4-0.7-0.8C52.9,24.6,53.2,24.3,53.6,24.4z M53.4,22.9v1.3c-0.2,0-0.4,0.1-0.5,0.2L52,23.4
		C52.3,23.2,52.8,22.9,53.4,22.9z M51.8,23.7l0.9,0.9c-0.1,0.1-0.2,0.3-0.2,0.5L51.2,25C51.3,24.5,51.5,24,51.8,23.7z M51.8,26.7
		c-0.4-0.4-0.6-0.9-0.6-1.4h1.3c0,0.2,0.1,0.4,0.2,0.5L51.8,26.7z M51.9,26.9l0.9-0.9c0.1,0.1,0.3,0.2,0.5,0.2v1.3
		C52.8,27.4,52.3,27.2,51.9,26.9z"/>
	<path class="st6658" d="M82.4,20.9c-0.1,0.1-0.3,0.1-0.4,0.1h-0.1l0.1,0.2l0.4-0.1c0.1,0.1,0.1,0.3,0.3,0.4c-0.1,0.1-0.2,0.2-0.3,0.2
		l0.1,0.2l0.4-0.2c0.1,0.1,0.2,0.2,0.4,0.4c-0.1,0.1-0.1,0.2-0.2,0.3v0.1l0.2,0.1l0.4-0.4c0.1,0.1,0.3,0.1,0.4,0.2
		c0,0.1-0.1,0.3-0.1,0.4v0.1l0.2,0.1l0.1-0.4c0.1,0.1,0.4,0.1,0.5,0.1c0,0.1,0,0.3,0,0.4v0.1h0.3l0.1-0.4c0.1,0,0.4,0,0.5-0.1
		c0,0.1,0.1,0.3,0.1,0.4v0.1l0.3-0.1l-0.1-0.4c0.1-0.1,0.4-0.1,0.5-0.2c0.1,0.1,0.1,0.2,0.2,0.3v0.1l0.2-0.1l-0.1-0.4
		c0.1-0.1,0.2-0.1,0.3-0.2c0.1,0,0.1-0.1,0.1-0.1c0.1,0.1,0.2,0.2,0.3,0.2l0.2-0.2l-0.3-0.3c0.1-0.1,0.2-0.3,0.3-0.4
		c0.1,0.1,0.3,0.1,0.4,0.1h0.1l0.1-0.2l-0.4-0.2c0.1-0.1,0.1-0.3,0.1-0.5c0.1,0,0.3,0,0.4,0.1h0.1l0.1-0.3L88.4,20
		c0-0.1,0-0.1,0-0.1c0-0.1,0-0.2,0-0.4c0.1,0,0.3-0.1,0.4-0.1h0.1v-0.3h-0.4c0-0.1-0.1-0.4-0.1-0.5c0.1-0.1,0.3-0.1,0.4-0.1h0.1
		l-0.1-0.2l-0.4,0.1c-0.1-0.1-0.1-0.3-0.3-0.4c0.1-0.1,0.2-0.2,0.3-0.2L88,17.5l-0.4,0.2c-0.1-0.1-0.2-0.2-0.4-0.4
		c0.1-0.1,0.1-0.2,0.2-0.3V17l-0.2-0.1L87,17.1c-0.1-0.1-0.3-0.1-0.4-0.2c0-0.1,0.1-0.3,0.1-0.4v-0.1l-0.2-0.1l-0.1,0.4
		c-0.1-0.1-0.4-0.1-0.5-0.1c0-0.1,0-0.3,0-0.4v-0.1h-0.3l-0.1,0.4c-0.2,0-0.4,0-0.5,0.1c0-0.1-0.1-0.3-0.1-0.4v-0.1l-0.3,0.1
		l0.1,0.4c-0.1,0.1-0.4,0.1-0.5,0.2c-0.1-0.1-0.1-0.2-0.2-0.3v-0.1l-0.2,0.1l0.1,0.4c-0.1,0.1-0.2,0.1-0.3,0.2
		c-0.1,0-0.1,0.1-0.1,0.1c-0.1-0.1-0.2-0.2-0.3-0.2l-0.2,0.2l0.3,0.3c-0.1,0.1-0.2,0.3-0.3,0.4c-0.1-0.1-0.3-0.1-0.4-0.1h-0.1
		l-0.1,0.2l0.4,0.2c-0.1,0.1-0.1,0.3-0.1,0.5c-0.1,0-0.3,0-0.4-0.1h-0.1l-0.1,0.3l0.4,0.1c0,0.1,0,0.1,0,0.1c0,0.1,0,0.2,0,0.4
		c-0.1,0-0.3,0.1-0.4,0.1h-0.1v0.3h0.4C82.2,20.5,82.3,20.8,82.4,20.9z M85.3,22.3c-0.1,0-0.1,0-0.1,0c-0.7-0.1-1.2-0.3-1.6-0.7
		l1.1-1.1c0.1,0.1,0.4,0.2,0.7,0.3V22.3z M85.3,20.5c-0.5,0-0.9-0.4-0.8-1c0.1-0.5,0.4-0.9,1-0.8c0.5,0,0.9,0.4,0.8,1
		C86.2,20.2,85.8,20.5,85.3,20.5z M85.5,22.3v-1.6c0.2,0,0.4-0.1,0.7-0.3l1.1,1C86.8,22,86.2,22.3,85.5,22.3z M88.1,19.8
		c-0.1,0.7-0.3,1.2-0.7,1.6l-1.1-1c0.1-0.1,0.2-0.4,0.3-0.7L88.1,19.8C88.1,19.7,88.1,19.8,88.1,19.8z M87.4,17.6
		c0.4,0.5,0.7,1.1,0.7,1.8h-1.6c0-0.2-0.1-0.4-0.3-0.7L87.4,17.6z M85.4,16.7c0.1,0.1,0.1,0.1,0.1,0.1c0.7,0.1,1.2,0.3,1.6,0.7
		L86,18.6c-0.1-0.1-0.4-0.2-0.7-0.3V16.7z M85.2,16.8v1.6c-0.2,0-0.4,0.1-0.7,0.3l-1.1-1C83.9,17.1,84.5,16.9,85.2,16.8z M82.6,19.4
		c0.1-0.7,0.3-1.2,0.7-1.6l1.1,1c-0.1,0.1-0.2,0.4-0.3,0.7L82.6,19.4C82.5,19.4,82.5,19.4,82.6,19.4z M84.1,19.7
		c0,0.2,0.1,0.4,0.3,0.7l-1.1,1.1c-0.4-0.5-0.7-1.1-0.7-1.8H84.1z"/>
	<polygon class="st6658" points="25.7,95.4 30.1,95.4 30.1,94.2 25.7,94.2 25.7,90.6 30.4,90.6 30.4,89.4 24.2,89.4 24.2,100.8 
		30.6,100.8 30.6,99.5 25.7,99.5 	"/>
	<path class="st6658" d="M39.7,94.1c0,1.8,0,3.2,0.2,4.7l0,0c-0.5-1.2-1.2-2.4-2.1-3.7l-3.7-5.8h-1.6v11.4h1.4v-4.9
		c0-1.9,0-3.3-0.1-4.7l0.1,0c0.6,1.2,1.3,2.5,2.1,3.8l3.6,5.8h1.5V89.4h-1.4V94.1z"/>
	<polygon class="st6658" points="42.4,90.6 45.9,90.6 45.9,100.8 47.3,100.8 47.3,90.6 50.8,90.6 50.8,89.4 42.4,89.4 	"/>
	<polygon class="st6658" points="53.6,95.4 58,95.4 58,94.2 53.6,94.2 53.6,90.6 58.3,90.6 58.3,89.4 52.1,89.4 52.1,100.8 58.5,100.8 
		58.5,99.5 53.6,99.5 	"/>
	<path class="st6658" d="M65.3,95.3L65.3,95.3c1.2-0.5,2.2-1.5,2.2-3c0-0.9-0.3-1.7-0.9-2.2c-0.7-0.6-1.7-0.9-3.3-0.9
		c-1,0-2.1,0.1-2.8,0.2v11.3h1.5v-4.9h1.4c1.3,0.1,2,0.6,2.3,2.2c0.3,1.4,0.6,2.4,0.8,2.7h1.5c-0.2-0.4-0.5-1.5-0.9-3.1
		C66.8,96.5,66.2,95.7,65.3,95.3z M63.4,94.7h-1.5v-4.2c0.2-0.1,0.7-0.1,1.5-0.1c1.6,0,2.6,0.7,2.6,2.1C66,93.9,65,94.7,63.4,94.7z"
		/>
	<path class="st6658" d="M72.4,89.3c-1.2,0-2.1,0.1-2.8,0.2v11.3h1.5v-4.6c0.3,0.1,0.7,0.1,1.2,0.1c1.4,0,2.7-0.4,3.5-1.3
		c0.6-0.6,0.9-1.4,0.9-2.4c0-1-0.4-1.8-1-2.4C74.9,89.6,73.9,89.3,72.4,89.3z M72.3,95.1c-0.5,0-0.9,0-1.2-0.1v-4.4
		c0.3-0.1,0.7-0.1,1.4-0.1c1.6,0,2.7,0.7,2.7,2.2C75.1,94.3,74.1,95.1,72.3,95.1z"/>
	<path class="st6658" d="M83.5,95.3L83.5,95.3c1.2-0.5,2.2-1.5,2.2-3c0-0.9-0.3-1.7-0.9-2.2c-0.7-0.6-1.7-0.9-3.3-0.9
		c-1,0-2.1,0.1-2.8,0.2v11.3h1.5v-4.9h1.4c1.3,0.1,1.9,0.6,2.3,2.2c0.3,1.4,0.6,2.4,0.8,2.7h1.5c-0.2-0.4-0.5-1.5-0.9-3.1
		C84.9,96.5,84.4,95.7,83.5,95.3z M81.6,94.7h-1.5v-4.2c0.2-0.1,0.7-0.1,1.5-0.1c1.6,0,2.6,0.7,2.6,2.1
		C84.2,93.9,83.2,94.7,81.6,94.7z"/>
	<rect x="87.7" y="89.4" class="st6658" width="1.5" height="11.4"/>
	<path class="st6658" d="M95.2,94.3c-1.6-0.6-2.3-1.1-2.3-2.2c0-0.8,0.6-1.7,2.2-1.7c1,0,1.8,0.3,2.2,0.5l0.4-1.2
		c-0.5-0.3-1.4-0.6-2.5-0.6c-2.2,0-3.7,1.3-3.7,3.1c0,1.6,1.2,2.6,3,3.2c1.5,0.6,2.2,1.2,2.2,2.3c0,1.2-0.9,2-2.4,2
		c-1,0-2-0.3-2.6-0.7l-0.4,1.2c0.6,0.4,1.8,0.7,2.9,0.7c2.7,0,4-1.5,4-3.3C98.1,96,97.1,95.1,95.2,94.3z"/>
	<polygon class="st6658" points="101.6,95.4 106.1,95.4 106.1,94.2 101.6,94.2 101.6,90.6 106.3,90.6 106.3,89.4 100.2,89.4 
		100.2,100.8 106.6,100.8 106.6,99.5 101.6,99.5 	"/>
	<path class="st6658" d="M117,96h2.3v3.4c-0.3,0.2-1,0.3-2,0.3c-2.7,0-4.4-1.7-4.4-4.6c0-2.9,1.8-4.6,4.6-4.6c1.2,0,1.9,0.2,2.5,0.5
		l0.4-1.2c-0.5-0.2-1.5-0.5-2.8-0.5c-3.8,0-6.2,2.5-6.2,5.9c0,1.8,0.6,3.3,1.6,4.3c1.1,1.1,2.5,1.5,4.3,1.5c1.5,0,2.8-0.4,3.5-0.6
		v-5.5H117V96z"/>
	<polygon class="st6658" points="124.5,95.4 129,95.4 129,94.2 124.5,94.2 124.5,90.6 129.2,90.6 129.2,89.4 123.1,89.4 123.1,100.8 
		129.5,100.8 129.5,99.5 124.5,99.5 	"/>
	<path class="st6658" d="M136,89.2c-3.1,0-5.3,2.4-5.3,6c0,3.5,2.1,5.8,5.1,5.8c2.9,0,5.3-2.1,5.3-6C141.2,91.6,139.1,89.2,136,89.2z
		 M135.9,99.8c-2.3,0-3.6-2.2-3.6-4.6c0-2.5,1.2-4.8,3.7-4.8c2.5,0,3.6,2.4,3.6,4.6C139.6,97.6,138.3,99.8,135.9,99.8z"/>
	<path class="st6658" d="M148,95.3L148,95.3c1.2-0.5,2.2-1.5,2.2-3c0-0.9-0.3-1.7-0.9-2.2c-0.7-0.6-1.7-0.9-3.3-0.9
		c-1,0-2.1,0.1-2.8,0.2v11.3h1.5v-4.9h1.4c1.3,0.1,1.9,0.6,2.3,2.2c0.3,1.4,0.6,2.4,0.8,2.7h1.5c-0.2-0.4-0.5-1.5-0.9-3.1
		C149.4,96.5,148.8,95.7,148,95.3z M146.1,94.7h-1.5v-4.2c0.2-0.1,0.7-0.1,1.5-0.1c1.6,0,2.6,0.7,2.6,2.1
		C148.6,93.9,147.6,94.7,146.1,94.7z"/>
	<path class="st6658" d="M157.2,96h2.3v3.4c-0.3,0.2-1,0.3-2,0.3c-2.7,0-4.4-1.7-4.4-4.6c0-2.9,1.8-4.6,4.6-4.6c1.2,0,1.9,0.2,2.5,0.5
		l0.4-1.2c-0.5-0.2-1.5-0.5-2.8-0.5c-3.8,0-6.2,2.5-6.2,5.9c0,1.8,0.6,3.3,1.6,4.3c1.1,1.1,2.5,1.5,4.3,1.5c1.5,0,2.8-0.4,3.5-0.6
		v-5.5h-3.8V96z"/>
	<rect x="163.2" y="89.4" class="st6658" width="1.5" height="11.4"/>
	<path class="st6658" d="M172.1,89.4h-1.8l-3.9,11.4h1.5l1.2-3.6h4.1l1.2,3.6h1.6L172.1,89.4z M169.4,96l1.1-3.3
		c0.2-0.7,0.4-1.4,0.6-2.1h0c0.2,0.7,0.3,1.3,0.6,2.1l1.1,3.3H169.4z"/>
</g>
</svg>
