<?xml version="1.0" encoding="utf-8"?>
<!-- Generator: Adobe Illustrator 24.0.2, SVG Export Plug-In . SVG Version: 6.00 Build 0)  -->
<svg version="1.1" id="Слой_1" xmlns="http://www.w3.org/2000/svg" xmlns:xlink="http://www.w3.org/1999/xlink" x="0px" y="0px"
	 viewBox="0 0 200 61" style="enable-background:new 0 0 200 61;" xml:space="preserve">
<style type="text/css">
	.st3434{fill:#005018;}
	.st743{fill:#58585C;}
	.st9999999{fill:#82BD00;}
</style>
<g>
	<path class="st3434" d="M48.4,55.9c2.1,0,4,0,5.9,0c1.9,0,3.8,0,5.9,0c0,1.6,0,3.2,0,4.9c-19.1,0-38.2,0-57.5,0c0-1.5,0-3.1,0-4.8
		c3.8,0,7.7,0,11.8,0c0-3.4,0-6.6,0-9.8c0-0.4-0.5-0.8-0.8-1.1c-2.8-2.8-5.7-5.6-8.4-8.5C0.9,31.8-1.2,26.3,0.7,20
		c0.7-2.4,1.9-4.9,3.6-6.8c4-4.4,8.4-8.5,12.9-13c4.8,4.9,9.6,9.9,14.2,14.6c4.6-4.7,9.4-9.6,14.4-14.7c2.6,2.6,5.1,4.9,7.5,7.3
		c2.1,2.1,4.3,4.2,6,6.5c5.3,7.4,4.6,16.1-1.8,22.7c-2.7,2.8-5.5,5.5-8.2,8.3c-0.4,0.4-0.8,1.2-0.8,1.8
		C48.3,49.8,48.4,52.8,48.4,55.9z M43.4,55.8c0-2.1-0.2-4.2,0-6.2c0.3-2.6-0.6-4.4-2.5-6.1c-3.3-3-6.3-6.2-9.5-9.4
		c-2.4,2.4-4.7,4.7-6.9,7c-1.7,1.7-3.9,3.1-4.8,5.1c-0.8,2-0.2,4.6-0.3,7c0,0.9,0,1.8,0,2.7c3.2,0,6.2,0,9.3,0c0-2.1,0-4.1,0-6.2
		c1.8,0,3.5,0,5.3,0c0,2.1,0,4.2,0,6.2C37.3,55.8,40.2,55.8,43.4,55.8z"/>
	<g>
		<g>
			<path class="st743" d="M200,30.8c-0.2-1.3-1.1-2.4-1.5-3.7c-0.3-1-0.9-1.2-2-0.8c0,0.4,0,0.8,0.1,1.1c0.4,0.7,0.9,1.4,1.3,2.2
				c0.5,1,0.7,2.2-0.2,3c-0.6,0.5-1.6,0.8-2.3,0.7c-1.2-0.2-1.5-1.2-1.6-2.4c0-0.7-0.1-1.5-0.1-2.2c0-2,0-4-0.1-6
				c0-0.3-0.5-0.7-0.8-1c-0.3,0.3-0.8,0.5-0.8,0.8c-0.1,3-0.1,6,0,9c0.1,2.3,2,3.6,4.5,3.4C198.7,34.7,200.3,33.1,200,30.8z"/>
			<path class="st743" d="M124.2,18.1c-0.2-1.3-0.8-2.2-1.9-2.7c-1.3-0.5-2.6-0.9-4-1.4c-2.9-0.9-4.2-2.8-3.8-5.8c0.1-1,0.4-2,1.6-1.9
				c1.1,0.1,1.4,1,1.4,1.9c0,1,0,1.9,0,2.9c0.7,0,1.2,0,1.9,0c0-1.2-0.2-2.4,0.1-3.4c0.1-0.6,0.9-1.3,1.4-1.3c0.5,0,1.2,0.7,1.4,1.3
				c0.3,0.7,0.2,1.5,0.1,2.2c-0.1,1.2,0.4,1.6,1.8,1.2c0-1.1-0.1-2.3,0.1-3.3c0.1-0.5,0.7-1.1,1.2-1.3c0.3-0.1,1,0.3,1.4,0.7
				c0.3,0.4,0.4,1,0.4,1.5c0,1.3-0.1,2.7-0.2,4c1.2,0.5,1.8-0.1,1.9-1.2c0.1-1.2,0.3-2.5,0.1-3.8c-0.4-2.2-2.4-3.3-4.2-2.3
				c-0.6,0.3-1,0.9-1.2,1.1c-0.9-0.5-1.8-1.3-2.6-1.3c-0.9,0-1.7,0.9-2.7,1.4c-0.5-1.1-1.6-1.7-3-1.4c-1.4,0.3-2.2,1.4-2.5,3
				c-0.4,3,0.4,4.6,3.1,6.1c0.2,0.1,0.3,0.2,0.5,0.4c-1.5,0.3-1.5,0.3-1.1,1.4c0.4-0.1,0.7-0.2,1.1-0.2c2.1-0.1,4.3-0.4,5.6,1.6
				C122.7,18.3,123.3,18.3,124.2,18.1z"/>
			<path class="st743" d="M110.3,16.2c0.9-1.7,0.4-3.1-1.5-4.6c1.7-0.7,2.3-2,2.1-3.7c-0.2-1.3-0.8-2.3-2.1-2.7
				c-1.6-0.5-2.9-0.2-3.9,1.2c-2.8-2.4-5.7-1.8-6.6,1.5c-0.5,1.6,0,3,1.1,4.1c1.2,1.1,2.7,1.3,4.2,0.7c1.6-0.6,2.2-1.9,2.2-3.6
				c0-0.4-0.1-0.8,0-1.1c0.3-0.6,0.6-1.5,1.1-1.5c0.6-0.1,1.5,0.3,1.8,0.8c1,1.3,0.3,3-1.2,3.7c-0.3,0.1-0.6,0.5-0.8,0.8
				c-0.1,0.1,0.3,0.6,0.6,0.7c1,0.6,1.6,1.4,1.3,2.5c-0.2,1.2-0.9,2-2.1,2.1c-1.2,0.1-2.6,0.2-3.1-1.2c-0.4-1.1-1-1.2-2-0.9
				c-0.1,1.9,0.8,2.9,2.7,3.4C106.9,18.9,109.4,18,110.3,16.2z M102.1,11.6c-1.1,0-2-1.2-2-2.8c0-1.5,0.9-2.6,2.1-2.5
				c1.2,0,2,1,2,2.6C104.1,10.5,103.3,11.6,102.1,11.6z"/>
			<path class="st743" d="M141.6,47.8c-1.2-0.4-2-0.9-1.6-2.4c-0.7,0-1.2,0-1.8,0c0,0.6,0.1,1.1,0.1,1.7c-0.2,0.1-0.3,0.2-0.5,0.2
				c-5.6,1.2-5.7,8.7-3,11.5c1.6,1.8,3.8,2.2,6.1,1.6c2.4-0.7,3.6-2.4,4-4.8C145.6,52.2,144.3,48.8,141.6,47.8z M142.6,57
				c-0.6,1.5-1.7,2.3-3.3,2.4c-1.5,0.1-2.7-0.5-3.4-1.9c-1.2-2.4-1.2-4.9,0.1-7.3c0.4-0.7,1.3-1.1,1.9-1.6c0.1,0.1,0.2,0.2,0.3,0.3
				c0,1.6,0,3.3,0,5c0.5,0,1,0,1.6,0c0-1.7,0-3.4,0-5.1c1.4,0,2.2,0.9,2.6,2C143.3,52.8,143.4,54.9,142.6,57z"/>
			<path class="st743" d="M157.4,26.3c-1.5-0.6-2.6-0.2-3.9,1.3c-1.2-1.7-2.1-1.9-4.4-1c0.3-1.9,1.4-3,3.2-3.3
				c0.9-0.1,1.9-0.2,2.8-0.3c1.2,0,1.3-0.5,1-1.7c-1.4,0.2-2.8,0.3-4.2,0.5c-2.5,0.4-3.7,2.2-4.3,4.5c-0.5,2.3-0.3,4.7,0.4,6.9
				c0.4,1.4,0.6,1.5,1.7,1.2c-0.1-2-0.3-3.9-0.2-5.7c0-0.5,0.9-1.3,1.4-1.3c0.5,0,1.2,0.8,1.4,1.4c0.3,1.1,0.3,2.3,0.4,3.4
				c0.5,0,0.9,0,1.4,0c0.1-1.2,0-2.4,0.3-3.5c0.1-0.5,0.9-1.3,1.3-1.3c0.5,0,1.2,0.7,1.4,1.2c0.3,0.7,0.3,1.7,0.2,2.5
				c-0.1,1.1-0.4,2.2-0.7,3.4c1.2,0.4,1.9,0.1,2.1-1.2c0.2-1.2,0.4-2.4,0.5-3.6C159.4,28.3,158.9,26.9,157.4,26.3z"/>
			<path class="st743" d="M134.5,29.5c0,1.7-0.3,3.3-0.4,5.1c1,0.4,1.7-0.1,1.9-1.3c0.2-1.4,0.5-2.9,0.3-4.3c-0.2-2.1-2.1-3.3-4.1-2.7
				c-0.7,0.2-1.3,0.8-2.1,1.2c-1.1-1.4-2.7-1.6-4.4-1c-1.6,0.6-2.2,2-2.4,3.5c-0.4,2.5,1.4,4.8,3.7,4.9c2.6,0.2,4.3-1.5,4.3-4.2
				c0-0.6-0.1-1.3,0-1.8c0.1-0.5,0.5-1.1,0.9-1.2c0.4-0.2,1.2,0,1.5,0.3C134.2,28.3,134.5,29,134.5,29.5z M129,32.4
				c-0.4,0.5-1.1,1-1.6,1c-0.6,0-1.3-0.5-1.6-1c-0.8-1.3-0.7-2.7,0-4c0.7-1.3,2.5-1.3,3.2,0c0.3,0.6,0.4,1.4,0.6,2.1
				C129.4,31.2,129.3,31.9,129,32.4z"/>
			<path class="st743" d="M127.3,47.3c-0.7,0.1-1.4,0.6-2.3,1c0-0.9,0-1.7,0-2.5c0.1-1.3,0.7-1.9,2.1-1.9c0.7,0,1.5,0.2,2.2,0.2
				c1.1,0.1,1.6-0.3,1.2-1.5c-0.1,0-0.3-0.1-0.4-0.1c-1.3,0-2.5-0.1-3.8,0c-1.8,0-3,1-3.1,2.8c-0.1,2.3-0.2,4.6,0,6.9
				c0.2,2.3,1.7,3.7,3.8,3.7c2.2,0.1,3.8-1.1,4.3-3.2C132.2,49.6,130.1,46.8,127.3,47.3z M127.3,54.7c-1.3,0-2.2-1.3-2.2-3
				c0-1.8,0.9-3.1,2.4-3c1.4,0,2.3,1.2,2.3,3C129.7,53.3,128.6,54.7,127.3,54.7z"/>
			<path class="st743" d="M108.9,52.4c1.6-1.5,1.8-2.6,1-3.8c-0.9-1.2-2.9-1.7-4.4-1c-1.4,0.6-1.8,1.6-1.5,3.1c0.5,0,1-0.1,1.5-0.1
				c0.1-0.2,0.1-0.3,0.1-0.5c0-0.9,0.4-1.6,1.3-1.5c0.6,0.1,1.5,0.6,1.5,1c0,0.6-0.4,1.4-0.9,1.9c-0.3,0.4-1,0.4-1.6,0.5
				c-2.4,0.7-3.7,2.7-3.2,5c0.4,2.3,2.5,3.8,4.8,3.6c2.6-0.2,4-1.9,4-4.5C111.6,54.4,110.6,53.2,108.9,52.4z M107.2,59.4
				c-1.5,0-2.7-1.3-2.7-3c0-1.7,1.1-3.1,2.6-3.1c1.5,0,2.6,1.3,2.6,3C109.7,58.1,108.7,59.4,107.2,59.4z"/>
			<path class="st743" d="M100.5,26.8c-1.5-1.2-3-1-5,0.6c0-0.9,0-1.6,0-2.3c0.1-2,0.8-2.6,2.8-2.4c0.7,0.1,1.4,0.3,2.1,0.2
				c0.3,0,0.6-0.5,0.9-0.7c-0.3-0.3-0.6-0.7-0.9-0.7c-1.2-0.1-2.3-0.1-3.5-0.1c-2,0.1-2.9,1-3,3c-0.1,2.2,0,4.3,0,6.5
				c0,2.1,1.2,3.5,3.1,3.9c1.8,0.4,3.9-0.6,4.6-2.2C102.5,30.6,102,28,100.5,26.8z M97.8,33.5c-1.3,0-2.4-1.5-2.3-3.1
				c0.1-1.7,1-2.9,2.4-3c1.4,0,2.3,1.2,2.3,3.1C100.1,32.3,99.2,33.5,97.8,33.5z"/>
			<path class="st743" d="M80.7,31.3c1.6-1.6,1.8-2.6,1-3.8c-0.9-1.2-2.9-1.7-4.5-1C76,27,75.5,28,75.8,29.5c0.5,0,1-0.1,1.5-0.1
				c0-1.1,0.4-2.1,1.5-2c0.5,0,1.3,0.8,1.4,1.4c0.3,1.2-0.6,1.7-1.7,2c-0.4,0.1-0.8,0.2-1.2,0.3c-2.2,0.8-3.4,3-2.8,5.2
				c0.5,2.2,2.8,3.7,5,3.3c2.5-0.4,3.9-2.1,3.9-4.5C83.3,33.2,82.4,32,80.7,31.3z M78.9,38.2c-1.5,0-2.5-1.2-2.6-2.9
				c0-1.7,1.1-3.1,2.5-3.2c1.5-0.1,2.7,1.2,2.7,3C81.5,37,80.5,38.2,78.9,38.2z"/>
			<path class="st743" d="M109.8,32.4c0.6-0.6,1.3-1.2,1.6-1.9c0.7-1.7-0.5-3.7-2.3-4.2c-2.2-0.6-4.7,0.4-5.1,2.3
				c-0.3,1.4,0,1.7,1.5,1.4c0-0.2,0.1-0.4,0.1-0.7c0.2-1.2,0.9-1.8,2.1-1.8c1.1,0,1.8,0.6,1.9,1.7c0.1,1.2-0.1,2.1-1.5,2.5
				c-0.4,0.1-0.7,0.5-1.1,0.8c0.4,0.2,0.8,0.5,1.2,0.7c1.1,0.4,1.8,1.6,1.6,3c-0.2,1.3-1.1,2-2.3,2c-1.6,0-2.3-1-2.2-3.3
				c-1.7-0.2-2.1,0.3-1.8,1.9c0.4,1.7,1.8,2.8,3.8,2.9c1.9,0.1,3.6-1,4.2-2.7C112.3,35.2,111.6,33.6,109.8,32.4z"/>
			<path class="st743" d="M165.6,26.2c-2.1-0.2-3.7,0.7-4.2,2.3c-0.2,0.5-0.2,1.3,0.1,1.7c0.1,0.3,1,0.1,1.5,0.2c0-0.5,0-0.8,0.1-1
				c0.1-1.2,0.8-1.9,2-1.9c1.3,0,2,0.8,2,1.9c0.1,2.2,0.1,4.5,0,6.8c-0.1,1.3-0.9,2-2.1,2c-1.3,0-2-0.8-2.1-2c-0.1-0.6,0-1.1,0-1.7
				c-1.7-0.4-1.8-0.2-1.9,1.2c-0.1,2.2,1.4,3.8,3.6,4.1c2.2,0.2,4.2-1.1,4.4-3.4c0.2-2.3,0.2-4.6,0-6.9
				C168.9,27.5,167.5,26.3,165.6,26.2z"/>
			<path class="st743" d="M177.4,26.6c-0.9-0.4-1.1-1-1.1-1.8c0-1.8-2.2-3.4-4.5-2.9c0.9,0.9,1.5,1.5,2.2,2.1c1,0.9,0.8,1.9-0.3,2.3
				c-1.7,0.6-2.5,1.9-2.8,3.6c-0.3,2.2,1,4.3,3.1,4.9c2.1,0.6,4.4-0.4,5.2-2.5C180.1,30.1,179.4,27.6,177.4,26.6z M175.3,33.5
				c-1.4,0-2.5-1.3-2.5-3c0-1.7,1-3.1,2.4-3.1c1.4,0,2.5,1.2,2.5,3C177.7,32.2,176.7,33.5,175.3,33.5z"/>
			<path class="st743" d="M94.5,7.4c0.3,0.3,0.3,0.9,0.3,1.3c-0.1,1.5-0.4,3-0.6,4.6c1,0.4,1.8,0,1.9-1.2c0.2-1.2,0.4-2.5,0.4-3.7
				c0-1.7-1-3-2.4-3.4c-1.3-0.4-2.4,0.1-3.6,1.7c-0.5-1.5-1.7-1.9-3.1-1.8c-1.4,0.2-2.4,1.4-2.5,3c-0.1,1.4,0.1,2.9,0.3,4.3
				c0.2,1.2,0.9,1.7,2.1,1.2C87.2,12.8,87,12.4,87,12c-0.1-1.4-0.3-2.8-0.2-4.3c0-0.9,0.6-1.5,1.6-1.4c1,0.1,1.3,0.8,1.4,1.7
				c0,0.7,0.1,1.3,0.1,2c-0.1,1.3,0.5,1.5,1.6,1.2c0.1-1.2,0-2.4,0.3-3.5c0.1-0.5,0.8-1.2,1.2-1.2C93.5,6.4,94.1,7,94.5,7.4z"/>
			<path class="st743" d="M156,47.3c-1.5-0.3-2.8,0-3.5,1.8c-0.7-1.8-1.9-2.1-3.4-1.8c-1.4,0.3-2.2,1.3-2.3,2.7
				c-0.1,1.5,0.1,3,0.3,4.5c0.2,1.2,1,1.4,2.1,1c-0.2-0.5-0.4-1-0.5-1.5c-0.1-1.3-0.3-2.7-0.2-4c0-0.9,0.6-1.7,1.6-1.5
				c1,0.1,1.4,0.9,1.4,1.8c0,1,0,1.9,0,3c0.7,0,1.2,0,1.9,0c0-1.2-0.1-2.3,0.1-3.3c0.1-0.6,0.8-1.4,1.2-1.4c0.6,0,1.2,0.6,1.6,1.1
				c0.3,0.4,0.4,1.1,0.3,1.6c-0.1,1.4-0.4,2.8-0.6,4.2c1.2,0.4,1.9,0,2-1.2c0.2-1.4,0.4-2.9,0.3-4.3C158.2,48.8,157.6,47.6,156,47.3
				z"/>
			<path class="st743" d="M117.9,47.3c-2.2-0.3-3.9,0.6-4.4,2.4c-0.1,0.5-0.2,1.2,0.1,1.6c0.2,0.3,0.9,0.2,1.5,0.2
				c0-0.6,0-0.9,0.1-1.2c0.2-1.1,0.9-1.6,1.9-1.7c1,0,2,0.5,2,1.5c0.1,2.5,0.1,5,0,7.4c0,0.9-0.7,1.6-1.8,1.7
				c-1.1,0.1-1.9-0.4-2.2-1.3c-0.2-0.7-0.2-1.5-0.4-2.3c-1.3-0.5-1.6-0.4-1.8,0.6c-0.4,2.3,1.2,4.3,3.6,4.6c2.5,0.3,4.3-1.2,4.4-3.6
				c0.1-2.2,0.1-4.3,0-6.5C121.1,48.9,119.8,47.6,117.9,47.3z"/>
			<path class="st743" d="M77.9,13.6c1.6,0.4,3.6-0.2,4.4-1.4c1-1.4,1-3.2,0-4.7c-0.5-0.8-1-1.7-1.5-2.6c-0.4,0-0.9,0-1.8,0
				c0.4,0.9,0.7,1.7,1,2.4c0.3,0.6,0.8,1.2,1,1.8c0.5,1.3-0.2,2.7-1.4,3.1c-1.3,0.4-2.5-0.2-2.9-1.7c-0.2-0.7-0.2-1.4-0.2-2.1
				c0-2.7,0-5.3,0-8c-0.6,0-1.1,0-1.6,0c0,3.3-0.1,6.5,0,9.7C75.1,12.1,76.1,13.2,77.9,13.6z"/>
			<path class="st743" d="M144,13.6c1.6,0.4,3.6-0.2,4.4-1.4c1-1.5,0.9-3,0.1-4.5c-0.5-0.9-1.1-1.8-1.7-2.8c-0.4,0-0.8,0-1.3,0.1
				c0,0.3-0.1,0.5-0.1,0.6c0.5,1,1,2,1.5,3c0.5,1,0.7,2.2-0.3,3c-0.5,0.5-1.5,0.7-2.2,0.6c-1.2-0.2-1.6-1.2-1.6-2.3
				c0-1.5-0.1-3.1-0.1-4.6c0-1.6,0-3.2,0-4.8c-0.7,0-1.1,0-1.7,0c0,3.3-0.1,6.6,0,9.9C141.1,12.1,142.2,13.2,144,13.6z"/>
			<path class="st743" d="M81.4,48.3c-0.4-1.1-1.1-1.3-2.3-0.8c0.3,0.7,0.6,1.4,0.9,2c0.3,0.6,0.7,1.1,1,1.7c0.6,1.3,0.1,2.8-1.2,3.3
				c-1.3,0.5-2.5-0.1-3-1.7c-0.2-0.6-0.2-1.2-0.2-1.8c0-2.4,0-4.8,0-7.2c0-0.4-0.5-0.7-0.7-1c-0.3,0.3-0.9,0.6-0.9,0.9
				c0,3,0,5.9,0.1,8.9c0.1,1.8,1.1,3,2.7,3.3c1.7,0.4,3.3,0.1,4.5-1.3c1-1.2,1.1-3.1,0.2-4.6C82.1,49.4,81.6,48.9,81.4,48.3z"/>
			<path class="st743" d="M133.1,13.4c-0.1-1.7-0.5-3.4-0.4-5c0.1-1.9,2.2-2.9,3.3-1.6c0.7,0.7,1,2,1.1,3c0.1,1.2-0.4,2.4-0.7,4
				c0.8-0.4,1.7-0.5,1.8-0.9c0.4-1.6,0.7-3.2,0.6-4.8c-0.2-2-2.1-3.3-4-3.2c-2,0.1-3.7,1.5-3.9,3.4c-0.1,1.3,0.1,2.6,0.3,3.9
				C131.4,13.4,132.1,13.8,133.1,13.4z"/>
			<path class="st743" d="M118.2,26.2c-2.7-0.3-4.3,0.9-4.7,3.6c-0.2,1.2,0.1,2.4,0.4,3.6c0.3,1.4,0.6,1.5,2.1,1
				c-0.6-1.8-1.3-3.6-0.4-5.6c0.6-1.3,2.1-1.8,3.1-0.9c0.6,0.6,1,1.5,1,2.3c0,1.4-0.3,2.9-0.5,4.3c1.5,0.3,1.5,0.3,2-1.2
				c0.2-0.9,0.4-1.8,0.4-2.8C121.7,28,120.3,26.4,118.2,26.2z"/>
			<path class="st743" d="M184.8,26.2c-2,0.2-3.4,1.6-3.5,3.7c0,1.2,0.2,2.3,0.4,3.5c0.2,1.2,0.9,1.6,1.9,1.3
				c-0.2-1.6-0.4-3.2-0.4-4.7c0-1.5,0.9-2.3,2.1-2.4c1.2,0,2.2,0.7,2.2,2.2c0.1,1.6-0.2,3.2-0.4,5.1c0.5-0.2,1.5-0.4,1.6-0.8
				c0.3-1.6,0.7-3.3,0.6-4.9C188.9,27,187.1,26,184.8,26.2z"/>
			<path class="st743" d="M86.8,34.6c1.6,0.6,3.9-0.1,4.8-1.4c1-1.5,0.6-3.4-0.8-4.8c-0.5-0.5-1.1-0.8-1.4-1.4c-0.5-1-1.2-1-2.5-0.6
				c0.7,0.9,1.2,1.7,1.7,2.4c0.4,0.5,1.1,0.9,1.3,1.4c0.2,0.8,0.2,1.8-0.2,2.4c-0.3,0.5-1.5,0.8-2,0.6C87,33,86.6,32,86.2,31.4
				c-0.1-0.2-0.1-0.6-0.1-1c-0.6,0-1.1,0-1.6,0C84.1,32.6,84.8,33.9,86.8,34.6z"/>
			<path class="st743" d="M89.6,48.1c-0.6-1-1.2-1.1-2.5-0.5c0.7,1,1.4,1.8,2,2.6c0.4,0.5,1.1,1.1,1.2,1.7c0.1,0.7-0.1,1.7-0.6,2.3
				c-0.3,0.4-1.4,0.6-1.8,0.4c-0.6-0.3-1-1.2-1.5-1.8c-0.2-0.2-0.1-0.6-0.1-1c-0.5-0.1-1-0.2-1.6-0.3c-0.4,2.3,0.2,3.6,1.9,4.4
				c1.7,0.7,4.1,0.2,5-1.1c1-1.4,0.9-3.1-0.4-4.6C90.8,49.3,90,48.8,89.6,48.1z"/>
			<path class="st743" d="M99,48.2c-0.6-1-1.2-1.1-2.5-0.6c0.6,0.8,1.1,1.6,1.7,2.3c0.5,0.7,1.2,1.3,1.6,2.1c0.5,1.2-0.3,2.5-1.5,2.7
				c-1.1,0.2-2.4-0.7-2.4-1.9c0-1.4-0.7-1.4-1.7-1.3c-0.7,1.6,0.2,3.5,1.7,4.2c1.7,0.8,4,0.4,5.1-0.8c1.1-1.3,1.1-3.1-0.1-4.6
				C100.2,49.4,99.4,48.9,99,48.2z"/>
			<path class="st743" d="M142.9,26.8c-0.5-0.9-1.1-0.8-2.2-0.4c0.4,0.7,0.8,1.4,1.2,2c0.5,0.6,1.3,1.1,1.6,1.8
				c0.3,0.7,0.2,1.8-0.2,2.4c-0.3,0.5-1.5,0.8-2,0.6c-0.6-0.2-1.1-1.1-1.5-1.7c-0.2-0.3-0.1-0.7-0.1-1.2c-1.5-0.2-2,0.2-1.7,1.5
				c0.3,1.5,1.6,2.7,3.2,3c1.7,0.2,3.5-0.5,4.2-1.8c0.7-1.3,0.5-3.2-0.6-4.3C144.1,28.1,143.3,27.6,142.9,26.8z"/>
		</g>
	</g>
	<g>
		<polygon class="st9999999" points="14.5,24 14.7,9.5 7.7,16.9 		"/>
		<path class="st9999999" d="M14.7,38.8v-7.6L5.4,22C3.6,32.1,14.7,38.8,14.7,38.8z"/>
		<polygon class="st9999999" points="26.2,16.9 19.2,9.5 19.5,24 		"/>
		<path class="st9999999" d="M28.5,22l-9.3,9.2v7.6C19.2,38.8,30.3,32.1,28.5,22z"/>
	</g>
	<g>
		<polygon class="st9999999" points="43.6,24 43.9,9.5 36.9,16.9 		"/>
		<path class="st9999999" d="M43.9,38.8v-7.6L34.6,22C32.8,32.1,43.9,38.8,43.9,38.8z"/>
		<polygon class="st9999999" points="55.4,16.9 48.4,9.5 48.6,24 		"/>
		<path class="st9999999" d="M57.7,22l-9.3,9.2v7.6C48.4,38.8,59.5,32.1,57.7,22z"/>
	</g>
</g>
</svg>
