<?xml version="1.0" encoding="utf-8"?>
<!-- Generator: Adobe Illustrator 24.0.2, SVG Export Plug-In . SVG Version: 6.00 Build 0)  -->
<svg version="1.1" id="Слой_1" xmlns="http://www.w3.org/2000/svg" xmlns:xlink="http://www.w3.org/1999/xlink" x="0px" y="0px"
	 viewBox="0 0 166 50" style="enable-background:new 0 0 166 50;" xml:space="preserve">
<style type="text/css">
	.st3{fill-rule:evenodd;clip-rule:evenodd;fill:#FF9900;}
	.st4{fill-rule:evenodd;clip-rule:evenodd;fill:#221F1F;}
</style>
<g>
	<path class="st3" d="M103,39.1C93.4,46.2,79.4,50,67.3,50c-16.9,0-32-6.2-43.5-16.6c-0.9-0.8-0.1-1.9,1-1.3
		c12.4,7.2,27.7,11.6,43.6,11.6c10.7,0,22.4-2.2,33.2-6.8C103.2,36.2,104.6,37.9,103,39.1"/>
	<path class="st3" d="M107,34.5c-1.2-1.6-8.1-0.7-11.2-0.4c-0.9,0.1-1.1-0.7-0.2-1.3c5.5-3.9,14.5-2.8,15.6-1.5
		c1.1,1.3-0.3,10.4-5.4,14.7c-0.8,0.7-1.6,0.3-1.2-0.6C105.6,42.6,108.2,36.1,107,34.5"/>
	<g>
		<path class="st4" d="M114.4,21.8c-2.9-1.7-6.4-2.1-9.6-2.1l8.7-12.5c0.8-1.1,1.3-1.8,1.3-2.4V1.7c0-0.6-0.4-1-1-1H96.9
			c0,0,0,0-0.1,0c-0.5,0-0.9,0.4-0.9,1v3.8h0c0,0.6,0.4,0.9,1,0.9h8.8L95.6,20.9c-0.6,0.9-0.6,2-0.6,2.6v3.8c0,0.5,0.6,1.2,1.2,0.9
			c5.7-3,12.6-2.7,17.8,0c0.6,0.3,1.2-0.3,1.2-0.9v-4C115.2,22.8,115,22.2,114.4,21.8z"/>
		<path class="st4" d="M55.7,0.3c-3,0-5.8,1.6-7.1,4.9c-1.4-3.3-3.5-4.9-6.7-4.9c-3.2,0-5.5,1.6-6.8,4.9h-0.1V1.7
			c0-0.5-0.4-0.9-0.9-0.9h-4.8c-0.5,0-1,0.4-1,0.9v26.3c0,0.5,0.4,0.8,0.9,0.9h5.1l0,0c0.5,0,1-0.4,1-1v-14c0-3-0.1-7.3,3.5-7.3
			c3.6,0,3.2,4.3,3.2,7.3l0,14c0,0.5,0.4,0.9,0.9,1h5.1c0.5,0,1-0.4,1-1v-14c0-1.5-0.1-3.7,0.5-5s1.8-2.2,3.1-2.2
			c1.5,0,2.6,0.5,3,2.3c0.2,1.1,0.1,3.8,0.1,4.9v14c0,0.5,0.4,0.9,0.9,1h5.1c0.5,0,1-0.4,1-1l0-16.6c0-2.8,0.3-6-1.3-8.3
			C60.2,1.2,57.8,0.3,55.7,0.3z"/>
		<path class="st4" d="M129.3,0.3L129.3,0.3c-7.4,0-11.6,6.4-11.6,14.6c0,8.2,4.1,14.7,11.6,14.7c7.2,0,11.7-6.4,11.7-14.4
			C141,6.8,136.9,0.3,129.3,0.3z M129.3,24.1c-4,0-4-6.9-4-10.1s0.2-8.4,4-8.4l0,0c1.6,0,2.8,0.7,3.4,2.5c0.7,2.1,0.8,4.8,0.8,7
			C133.4,18.6,133.2,24.1,129.3,24.1z"/>
		<path class="st4" d="M150.9,29L150.9,29C150.9,29,150.9,29,150.9,29L150.9,29z"/>
		<path class="st4" d="M164.6,3.4c-1.4-2.3-3.7-3.1-6-3.1c-3.5,0-5.6,1.7-7,5.3h-0.1v-4c-0.1-0.4-0.5-0.7-0.9-0.7h-4.8
			c-0.5,0-0.9,0.4-1,0.9l0,26.4c0,0.5,0.4,0.9,0.9,1h5.1c0.5,0,1-0.4,1-1V13.9c0-1.8,0.1-3.4,0.8-5c0.6-1.3,1.7-2.1,3-2.1
			c3.5,0,3.2,4.2,3.2,7.1v14.3c0,0.4,0.4,0.8,0.9,0.8h5.1c0.5,0,0.9-0.4,1-0.8V11.6C165.9,9,165.9,5.5,164.6,3.4z"/>
		<path class="st4" d="M89.7,19.4v-8c0-3.4,0.2-6.5-2.3-8.8c-2-1.9-5.2-2.6-7.7-2.6c-4.9,0-10.3,1.8-11.5,7.9
			c-0.1,0.6,0.3,1,0.8,1.1l5,0.5c0.5,0,0.8-0.5,0.9-0.9C75.3,6.4,77,5.4,79,5.4c1.1,0,2.3,0.4,2.9,1.3c0.7,1.1,0.6,2.5,0.6,3.7v0.7
			c-3,0.3-6.9,0.6-9.7,1.8c-3.2,1.4-5.5,4.2-5.5,8.4c0,5.3,3.4,8,7.7,8c3.6,0,5.6-0.9,8.5-3.7c0.9,1.3,1.2,2,2.9,3.4
			c0.4,0.2,0.9,0.2,1.2-0.1l0,0l0,0l3.9-3.4c0.4-0.3,0.3-0.9,0-1.4C90.7,22.8,89.7,21.8,89.7,19.4z M81.5,21.8
			c-0.8,1.4-2.1,2.3-3.6,2.3c-2,0-3.1-1.5-3.1-3.7c0-4.4,3.9-5.2,7.6-5.2v1.1l0,0C82.5,18.4,82.5,20,81.5,21.8z"/>
		<path class="st4" d="M22.4,19.4v-8c0-3.4,0.2-6.5-2.3-8.8c-2-1.9-5.2-2.6-7.7-2.6C7.5,0,2.1,1.8,0.9,7.9C0.8,8.5,1.3,8.9,1.7,9
			l5,0.5c0.5,0,0.8-0.5,0.9-0.9C8,6.5,9.7,5.5,11.7,5.5c1.1,0,2.3,0.4,2.9,1.3c0.7,1.1,0.6,2.5,0.6,3.7v0.7c-3,0.3-6.9,0.6-9.7,1.8
			c-3.2,1.4-5.5,4.2-5.5,8.4c0,5.3,3.4,8,7.7,8c3.7,0,5.6-0.9,8.5-3.7c1,1.3,1.2,2,2.9,3.4c0.4,0.2,0.9,0.2,1.2-0.1h0l0,0l3.9-3.4
			c0.4-0.3,0.3-0.9,0-1.4C23.4,22.9,22.4,21.8,22.4,19.4z M14.2,21.8c-0.8,1.4-2.1,2.3-3.6,2.3c-2,0-3.1-1.5-3.1-3.7
			c0-4.4,3.9-5.2,7.6-5.2v1.1l0,0C15.2,18.4,15.3,20.1,14.2,21.8z"/>
	</g>
</g>
</svg>
