<?xml version="1.0" encoding="utf-8"?>
<!-- Generator: Adobe Illustrator 24.0.2, SVG Export Plug-In . SVG Version: 6.00 Build 0)  -->
<svg version="1.1" id="Слой_1" xmlns="http://www.w3.org/2000/svg" xmlns:xlink="http://www.w3.org/1999/xlink" x="0px" y="0px"
	 viewBox="0 0 155 50" style="enable-background:new 0 0 155 50;" xml:space="preserve">
<style type="text/css">
	.st5{fill-rule:evenodd;clip-rule:evenodd;fill:#00A082;}
</style>
<g>
	<path class="st5" d="M29.2,30.4h-9.6c-1.5,0-2.7,1.2-2.7,2.6c0,1.5,1.2,2.6,2.7,2.6h6.8V42c-2.1,1.6-5.1,2.6-8.3,2.6
		c-7,0-11.7-5.1-11.7-12.1v-0.1c0-6.5,4.8-12,11.2-12c3.7,0,6.2,1.1,8.4,2.7c0.5,0.3,1.1,0.7,1.9,0.7c1.7,0,3-1.4,3-3
		c0-1-0.5-1.9-1.2-2.4c-3.2-2.2-6.6-3.4-11.8-3.4C7.4,14.9,0,22.9,0,32.4v0.1C0,42.4,7.1,50,17.9,50c5.2,0,9.3-1.7,12.3-3.7
		c1.4-0.9,2.1-2.1,2.1-3.8v-9.1C32.3,31.8,31,30.4,29.2,30.4z"/>
	<path class="st5" d="M40.7,13.7c-1.7,0-3,1.3-3,2.9v30.1c0,1.7,1.3,2.9,3,2.9c1.7,0,3-1.3,3-2.9V16.7
		C43.7,15.1,42.4,13.7,40.7,13.7z"/>
	<path class="st5" d="M62.2,23.3c-8,0-13.9,6.1-13.9,13.4v0.1C48.3,44,54.2,50,62.1,50c8,0,14-6.1,14-13.3v-0.1
		C76.1,29.2,70.2,23.3,62.2,23.3z M70.1,36.8L70.1,36.8c0,4.4-3.1,8.1-7.9,8.1c-4.6,0-7.9-3.7-7.9-8.2v-0.1c0-4.5,3.1-8.2,7.8-8.2
		C66.8,28.4,70.1,32.1,70.1,36.8L70.1,36.8z"/>
	<path class="st5" d="M100.5,23.5c-1.6,0-2.4,1-2.8,2l-6.8,17.1l-6.7-17c-0.5-1.2-1.3-2.1-3-2.1c-1.6,0-3,1.4-3,2.8
		c0,0.5,0.2,1,0.3,1.5l8.7,19.6c0.7,1.6,1.8,2.6,3.4,2.6H91v0c1.6,0,2.7-1.1,3.4-2.6l8.7-19.6c0.1-0.3,0.3-0.9,0.3-1.4
		C103.4,24.7,102.1,23.5,100.5,23.5z"/>
	<path class="st5" d="M119.5,23.3c-8,0-13.9,6.1-13.9,13.4v0.1c0,7.3,5.9,13.2,13.8,13.2c8,0,14-6.1,14-13.3v-0.1
		C133.3,29.2,127.4,23.3,119.5,23.3z M127.3,36.8L127.3,36.8c0,4.4-3.1,8.1-7.9,8.1c-4.6,0-7.9-3.7-7.9-8.2v-0.1
		c0-4.5,3.1-8.2,7.8-8.2C124,28.4,127.3,32.1,127.3,36.8L127.3,36.8z"/>
	<path class="st5" d="M143.3,0c-6.5,0-11.7,5.2-11.7,11.5c0,2.4,0.8,4.7,2.2,6.7l0.3,0.4l6.1,8.5c0,0,0.7,1.2,2.4,1.2h1.5
		c1.6,0,2.4-1.2,2.4-1.2l6.1-8.5l0.3-0.4c1.4-1.9,2.2-4.3,2.2-6.7C155,5.2,149.7,0,143.3,0z M148.1,14.9l-0.3,0.4l-4.5,6.2l-4.5-6.2
		l-0.3-0.5c-0.7-1-1.1-2.2-1.1-3.4c0-3.2,2.7-5.9,5.9-5.9c3.3,0,5.9,2.6,5.9,5.9C149.2,12.8,148.8,13.9,148.1,14.9L148.1,14.9z"/>
	<path class="st5" d="M143.3,30.4c-1.9,0-3.3,1.4-3.3,3.1v0h0c0,1.7,1.4,3.1,3.2,3.1c1.9,0,3.3-1.4,3.3-3.1v0
		C146.5,31.8,145.1,30.4,143.3,30.4z"/>
</g>
</svg>
