<?xml version="1.0" encoding="utf-8"?>
<!-- Generator: Adobe Illustrator 24.0.2, SVG Export Plug-In . SVG Version: 6.00 Build 0)  -->
<svg version="1.1" id="Слой_1" xmlns="http://www.w3.org/2000/svg" xmlns:xlink="http://www.w3.org/1999/xlink" x="0px" y="0px"
	 viewBox="0 0 138 50" style="enable-background:new 0 0 138 50;" xml:space="preserve">
<style type="text/css">
	.st6{fill:#4CB2E2;}
</style>
<g>
	<g>
		<path class="st6" d="M125.8,22.3c0.1-0.8,0.4-1,1.2-1c2.4,0,4.8-0.1,7.2-0.2c0.7,0,1.5-0.3,2.2-0.6c1.1-0.5,1.7-2.1,1.3-3.1
			c-0.4-1.1-1.4-1.1-2.3-1.2c-2.8-0.1-5.6-0.3-8.5-0.4c0.5-2.5,0.9-4.8,1.4-7.2c0.3-1.4-0.3-2.5-1.8-2.7c-1.7-0.2-3.4-0.2-5.2-0.2
			c-1.1,0-1.8,0.7-2,1.7c-0.2,0.8-0.3,1.6-0.5,2.4c-0.4,1.9-0.7,3.7-1.1,5.6c-1.6,0-3,0-4.4,0c-1.3,0-1.8,0.4-2.1,1.6
			c-0.2,0.9-0.3,1.8-0.4,2.7c-0.1,1.6,0.4,2.2,2,2.2c1.2,0,2.4,0,3.7,0c-0.3,1.8-0.6,3.6-0.8,5.5c-0.4,3.6-1,7.1-2.9,10.2
			c-1.4,2.3-2.9,4.5-5.4,5.8c-2.8,1.4-5,0.1-5.4-2.9c0-0.2-0.1-0.4,0-0.6c0.1-2.7,0.1-5.4,0.5-8c0.6-4.7,1.5-9.3,3-13.8
			c0.9-2.7,1.9-5.5,2.5-8.3c0.5-2.3,0.8-4.7,0.9-7.1c0.1-1.4-0.6-2.2-1.9-2.3c-1.6-0.2-3.2-0.3-4.8-0.2c-2.4,0.2-3.1,0.9-3.6,3.3
			c-1.1,5.6-2.1,11.3-3.2,16.9c-0.1,0.4-0.2,0.9-0.5,1.1c-1.4,1.2-2.8,2.5-4.3,3.6c-0.8,0.6-1.8,0.7-2.8,1.1
			c-0.1-0.8-0.1-1.3-0.2-1.7c-0.4-3.2-1.5-6-4.2-8c-0.5-0.4-0.3-0.7-0.3-1.2c0.1-0.5,0-1.1,0-1.7c-0.6,0.1-1.1,0.2-1.7,0.4
			c-0.2,0.1-0.4,0.3-0.6,0.4c-0.4,0.1-0.9,0.3-1.2,0.2c-6-1.2-11.5,0-16,4.3c-6.4,6.1-8.2,13.8-6.7,22.3c0.8,4.1,3.2,7.1,7.4,8.2
			c6.4,1.7,12.2,0.5,16.9-4.4c3.3-3.4,4.9-7.6,6-12.1c0.2-0.6,0.5-0.9,1-1.1c1.7-0.8,3.4-1.7,5-2.6c0.2-0.1,0.4-0.3,0.7-0.5
			c-0.1,0.7-0.2,1.3-0.3,1.8c-0.6,3.9-1.3,7.7-1,11.7c0.3,3.9,2.3,6.6,5.7,7.4c1.4,0.3,2.9,0.5,4.3,0.4c3.9-0.2,6.9-2.2,9.5-5
			c0.9-0.9,1.7-2,2.6-3.1c0.1,0.4,0.1,0.6,0.2,0.9c0.7,3.2,2.1,5.8,5.5,6.8c1.9,0.5,3.8,0.6,5.7,0.2c5.2-1.2,8.4-4.8,10.7-9.4
			c0.3-0.6,0.2-1.1-0.4-1.6c-1.4-1.1-2.3-1-3.2,0.5c-1.2,1.8-2.5,3.6-4.6,4.3c-2.6,0.9-4.7-0.2-5.1-2.8c-0.1-0.8-0.2-1.6-0.1-2.4
			C124.1,33,125,27.6,125.8,22.3z M78.8,31c-0.6,3.4-1.5,6.7-3.3,9.6c-0.7,1.1-1.5,2.2-2.5,3c-2.2,1.9-5.1,1.3-6.2-1.4
			c-0.7-1.6-0.8-3.5-1.2-5.2c0.5-5.1,1.2-10,3.9-14.4c1.1-1.8,2.5-3.1,4.7-3.4c0.2,0,0.5-0.1,0.7-0.1c1.5,0,1.5,0.2,1.4,1.6
			c-0.2,1.2-0.2,2.5-0.2,3.7c0,2.1,0.8,3.9,2.3,5.4C78.7,30.1,78.9,30.7,78.8,31z"/>
		<path class="st6" d="M57.2,3.1c-0.1-1.8-1.2-2.8-3-3C52.5,0,50.7,0,48.9,0c-1.8,0.1-2.4,0.8-2.4,2.6c0,1.3,0.2,2.5,0.2,3.8
			c0.3,9.5-0.3,18.8-2.6,28.1c-0.6,2.6-1.4,5.1-3,7.3c-1.4,1.9-3,1.8-4-0.3c-0.7-1.4-1.2-3-1.5-4.6c-1.3-7-1-14.1-0.8-21.1
			c0.1-2.3,0.2-4.7,0.2-7c0-1.4-0.4-1.8-1.8-2c-0.9-0.1-1.8-0.1-2.7-0.2c-2.3-0.1-3.7,1-4.6,3.2c-3.7,8.7-7.7,17.4-11.6,26
			c-1.1,2.4-2.3,4.7-3.4,7.1c-0.1,0-0.2-0.1-0.3-0.1c-0.2-1.9-0.4-3.8-0.5-5.8c-0.4-8.5,0.5-17,2-25.4c0.4-1.9,0.8-3.9,1.1-5.8
			c0.3-1.6-0.3-2.3-1.9-2.2c-1.3,0-2.5,0.1-3.8,0.2C4.8,4.3,3.4,5.5,2.9,8.2c-1.7,8.4-2.8,16.9-2.7,25.5c0,4.1,0.4,8.2,1.3,12.3
			c0.4,1.9,1.5,3,3.4,3.3c1.5,0.2,2.9,0.4,4.4,0.6c3,0.4,5.1-0.8,6.5-3.5c3.1-6.2,6.1-12.5,9.2-18.7c0.2-0.3,0.3-0.6,0.6-1.2
			c0.2,2.6,0.3,4.9,0.6,7.2c0.4,3.6,1,7.2,2.6,10.5c1.7,3.5,4.4,5.5,8.4,5.5c3.1,0,5.4-1.7,7.4-3.8c2.7-3,4.6-6.5,6.1-10.2
			C54,27.9,56,19.6,57,11C57.3,8.4,57.3,5.7,57.2,3.1z"/>
	</g>
</g>
</svg>
