<?xml version="1.0" encoding="utf-8"?>
<!-- Generator: Adobe Illustrator 24.0.2, SVG Export Plug-In . SVG Version: 6.00 Build 0)  -->
<svg version="1.1" id="Слой_1" xmlns="http://www.w3.org/2000/svg" xmlns:xlink="http://www.w3.org/1999/xlink" x="0px" y="0px"
	 viewBox="0 0 300 200" style="enable-background:new 0 0 300 200;" xml:space="preserve">
<style type="text/css">
	.st0{fill:#B22234;}
	.st1{fill:#FFFFFF;}
	.st2{fill:#3C3B6E;}
</style>
<g>
	<rect x="0" class="st0" width="300" height="200"/>
	<g>
		<path d="M0,23.1h300 M300,53.8H0 M0,84.6h300 M300,115.4H0 M0,146.2h300 M300,176.9H0"/>
		<path class="st1" d="M300,184.6H0v-15.4h300V184.6z M300,153.8H0v-15.4h300V153.8z M300,123.1H0v-15.4h300V123.1z M300,92.3H0
			V76.9h300V92.3z M300,61.5H0V46.2h300V61.5z M300,30.8H0V15.4h300V30.8z"/>
	</g>
	<rect x="0" class="st2" width="120" height="107.7"/>
	<g>
		<g id="s18">
			<g id="s9">
				<g id="s5">
					<g id="s4">
						<path id="s" class="st1" d="M10,4.6l2.9,11.1L5.4,8.9h9.2l-7.5,6.9L10,4.6z"/>
						<g>
							<path id="s_1_" class="st1" d="M10,26.2l2.9,11.1l-7.5-6.9h9.2l-7.5,6.9L10,26.2z"/>
						</g>
						<g>
							<path id="s_2_" class="st1" d="M10,47.7l2.9,11.1l-7.5-6.9h9.2l-7.5,6.9L10,47.7z"/>
						</g>
						<g>
							<path id="s_3_" class="st1" d="M10,69.2l2.9,11.1l-7.5-6.9h9.2l-7.5,6.9L10,69.2z"/>
						</g>
					</g>
					<g>
						<path id="s_4_" class="st1" d="M10,90.8l2.9,11.1L5.4,95h9.2l-7.5,6.9L10,90.8z"/>
					</g>
				</g>
				<g>
					<g id="s4_1_">
						<path id="s_5_" class="st1" d="M20,15.4l2.9,11.1l-7.5-6.9h9.2l-7.5,6.9L20,15.4z"/>
						<g>
							<path id="s_6_" class="st1" d="M20,36.9l2.9,11.1l-7.5-6.9h9.2l-7.5,6.9L20,36.9z"/>
						</g>
						<g>
							<path id="s_7_" class="st1" d="M20,58.5l2.9,11.1l-7.5-6.9h9.2l-7.5,6.9L20,58.5z"/>
						</g>
						<g>
							<path id="s_8_" class="st1" d="M20,80l2.9,11.1l-7.5-6.9h9.2l-7.5,6.9L20,80z"/>
						</g>
					</g>
				</g>
			</g>
			<g>
				<g id="s9_1_">
					<g id="s5_1_">
						<g id="s4_2_">
							<path id="s_9_" class="st1" d="M30,4.6l2.9,11.1l-7.5-6.9h9.2l-7.5,6.9L30,4.6z"/>
							<g>
								<path id="s_10_" class="st1" d="M30,26.2l2.9,11.1l-7.5-6.9h9.2l-7.5,6.9L30,26.2z"/>
							</g>
							<g>
								<path id="s_11_" class="st1" d="M30,47.7l2.9,11.1l-7.5-6.9h9.2l-7.5,6.9L30,47.7z"/>
							</g>
							<g>
								<path id="s_12_" class="st1" d="M30,69.2l2.9,11.1l-7.5-6.9h9.2l-7.5,6.9L30,69.2z"/>
							</g>
						</g>
						<g>
							<path id="s_13_" class="st1" d="M30,90.8l2.9,11.1L25.4,95h9.2l-7.5,6.9L30,90.8z"/>
						</g>
					</g>
					<g>
						<g id="s4_3_">
							<path id="s_14_" class="st1" d="M40,15.4l2.9,11.1l-7.5-6.9h9.2l-7.5,6.9L40,15.4z"/>
							<g>
								<path id="s_15_" class="st1" d="M40,36.9l2.9,11.1l-7.5-6.9h9.2l-7.5,6.9L40,36.9z"/>
							</g>
							<g>
								<path id="s_16_" class="st1" d="M40,58.5l2.9,11.1l-7.5-6.9h9.2l-7.5,6.9L40,58.5z"/>
							</g>
							<g>
								<path id="s_17_" class="st1" d="M40,80l2.9,11.1l-7.5-6.9h9.2l-7.5,6.9L40,80z"/>
							</g>
						</g>
					</g>
				</g>
			</g>
		</g>
		<g>
			<g id="s18_1_">
				<g id="s9_2_">
					<g id="s5_2_">
						<g id="s4_4_">
							<path id="s_18_" class="st1" d="M50,4.6l2.9,11.1l-7.5-6.9h9.2l-7.5,6.9L50,4.6z"/>
							<g>
								<path id="s_19_" class="st1" d="M50,26.2l2.9,11.1l-7.5-6.9h9.2l-7.5,6.9L50,26.2z"/>
							</g>
							<g>
								<path id="s_20_" class="st1" d="M50,47.7l2.9,11.1l-7.5-6.9h9.2l-7.5,6.9L50,47.7z"/>
							</g>
							<g>
								<path id="s_21_" class="st1" d="M50,69.2l2.9,11.1l-7.5-6.9h9.2l-7.5,6.9L50,69.2z"/>
							</g>
						</g>
						<g>
							<path id="s_22_" class="st1" d="M50,90.8l2.9,11.1L45.4,95h9.2l-7.5,6.9L50,90.8z"/>
						</g>
					</g>
					<g>
						<g id="s4_5_">
							<path id="s_23_" class="st1" d="M60,15.4l2.9,11.1l-7.5-6.9h9.2l-7.5,6.9L60,15.4z"/>
							<g>
								<path id="s_24_" class="st1" d="M60,36.9l2.9,11.1l-7.5-6.9h9.2l-7.5,6.9L60,36.9z"/>
							</g>
							<g>
								<path id="s_25_" class="st1" d="M60,58.5l2.9,11.1l-7.5-6.9h9.2l-7.5,6.9L60,58.5z"/>
							</g>
							<g>
								<path id="s_26_" class="st1" d="M60,80l2.9,11.1l-7.5-6.9h9.2l-7.5,6.9L60,80z"/>
							</g>
						</g>
					</g>
				</g>
				<g>
					<g id="s9_3_">
						<g id="s5_3_">
							<g id="s4_6_">
								<path id="s_27_" class="st1" d="M70,4.6l2.9,11.1l-7.5-6.9h9.2l-7.5,6.9L70,4.6z"/>
								<g>
									<path id="s_28_" class="st1" d="M70,26.2l2.9,11.1l-7.5-6.9h9.2l-7.5,6.9L70,26.2z"/>
								</g>
								<g>
									<path id="s_29_" class="st1" d="M70,47.7l2.9,11.1l-7.5-6.9h9.2l-7.5,6.9L70,47.7z"/>
								</g>
								<g>
									<path id="s_30_" class="st1" d="M70,69.2l2.9,11.1l-7.5-6.9h9.2l-7.5,6.9L70,69.2z"/>
								</g>
							</g>
							<g>
								<path id="s_31_" class="st1" d="M70,90.8l2.9,11.1L65.4,95h9.2l-7.5,6.9L70,90.8z"/>
							</g>
						</g>
						<g>
							<g id="s4_7_">
								<path id="s_32_" class="st1" d="M80,15.4l2.9,11.1l-7.5-6.9h9.2l-7.5,6.9L80,15.4z"/>
								<g>
									<path id="s_33_" class="st1" d="M80,36.9l2.9,11.1l-7.5-6.9h9.2l-7.5,6.9L80,36.9z"/>
								</g>
								<g>
									<path id="s_34_" class="st1" d="M80,58.5l2.9,11.1l-7.5-6.9h9.2l-7.5,6.9L80,58.5z"/>
								</g>
								<g>
									<path id="s_35_" class="st1" d="M80,80l2.9,11.1l-7.5-6.9h9.2l-7.5,6.9L80,80z"/>
								</g>
							</g>
						</g>
					</g>
				</g>
			</g>
		</g>
		<g>
			<g id="s9_4_">
				<g id="s5_4_">
					<g id="s4_8_">
						<path id="s_36_" class="st1" d="M90,4.6l2.9,11.1l-7.5-6.9h9.2l-7.5,6.9L90,4.6z"/>
						<g>
							<path id="s_37_" class="st1" d="M90,26.2l2.9,11.1l-7.5-6.9h9.2l-7.5,6.9L90,26.2z"/>
						</g>
						<g>
							<path id="s_38_" class="st1" d="M90,47.7l2.9,11.1l-7.5-6.9h9.2l-7.5,6.9L90,47.7z"/>
						</g>
						<g>
							<path id="s_39_" class="st1" d="M90,69.2l2.9,11.1l-7.5-6.9h9.2l-7.5,6.9L90,69.2z"/>
						</g>
					</g>
					<g>
						<path id="s_40_" class="st1" d="M90,90.8l2.9,11.1L85.4,95h9.2l-7.5,6.9L90,90.8z"/>
					</g>
				</g>
				<g>
					<g id="s4_9_">
						<path id="s_41_" class="st1" d="M100,15.4l2.9,11.1l-7.5-6.9h9.2l-7.5,6.9L100,15.4z"/>
						<g>
							<path id="s_42_" class="st1" d="M100,36.9l2.9,11.1l-7.5-6.9h9.2l-7.5,6.9L100,36.9z"/>
						</g>
						<g>
							<path id="s_43_" class="st1" d="M100,58.5l2.9,11.1l-7.5-6.9h9.2l-7.5,6.9L100,58.5z"/>
						</g>
						<g>
							<path id="s_44_" class="st1" d="M100,80l2.9,11.1l-7.5-6.9h9.2l-7.5,6.9L100,80z"/>
						</g>
					</g>
				</g>
			</g>
		</g>
		<g>
			<g id="s5_5_">
				<g id="s4_10_">
					<path id="s_45_" class="st1" d="M110,4.6l2.9,11.1l-7.5-6.9h9.2l-7.5,6.9L110,4.6z"/>
					<g>
						<path id="s_46_" class="st1" d="M110,26.2l2.9,11.1l-7.5-6.9h9.2l-7.5,6.9L110,26.2z"/>
					</g>
					<g>
						<path id="s_47_" class="st1" d="M110,47.7l2.9,11.1l-7.5-6.9h9.2l-7.5,6.9L110,47.7z"/>
					</g>
					<g>
						<path id="s_48_" class="st1" d="M110,69.2l2.9,11.1l-7.5-6.9h9.2l-7.5,6.9L110,69.2z"/>
					</g>
				</g>
				<g>
					<path id="s_49_" class="st1" d="M110,90.8l2.9,11.1l-7.5-6.9h9.2l-7.5,6.9L110,90.8z"/>
				</g>
			</g>
		</g>
	</g>
</g>
</svg>
