<?xml version="1.0" encoding="utf-8"?>
<!-- Generator: Adobe Illustrator 24.0.2, SVG Export Plug-In . SVG Version: 6.00 Build 0)  -->
<svg version="1.1" id="Слой_1" xmlns="http://www.w3.org/2000/svg" xmlns:xlink="http://www.w3.org/1999/xlink" x="0px" y="0px"
	 viewBox="0 0 50 50" style="enable-background:new 0 0 50 50;" xml:space="preserve">
<path d="M39.8,0H10.2C4.5,0,0,4.5,0,10.2v29.7C0,45.5,4.5,50,10.2,50h29.7C45.5,50,50,45.5,50,39.8V10.2C50,4.5,45.5,0,39.8,0z
	 M16.4,40.2c-1.9,0-3.8,0-5.7,0c-0.2,0-0.3-0.1-0.3-0.3c0-3.3,0-6.5,0-9.8c0-3.3,0-6.5,0-9.8c0-0.3,0-0.3,0.3-0.3c1.9,0,3.7,0,5.6,0
	c0.4,0,0.4,0,0.4,0.4c0,5.5,0,11,0,16.5c0,1,0,2,0,3C16.7,40.1,16.6,40.2,16.4,40.2z M13.5,17.2c-2,0-3.6-1.6-3.6-3.6
	c0-2,1.6-3.6,3.6-3.6c2,0,3.6,1.6,3.6,3.6C17.1,15.6,15.5,17.2,13.5,17.2z M40.1,39.8c0,0.4,0,0.4-0.4,0.4c-1.8,0-3.6,0-5.5,0
	c-0.3,0-0.3,0-0.3-0.3c0-3.6,0-7.3,0-10.9c0-1.2-0.4-2.3-1.5-3c-0.7-0.5-1.5-0.6-2.3-0.6c-1,0-2,0.3-2.7,1c-0.7,0.7-1.1,1.6-1.2,2.6
	c0,0.3,0,0.6,0,1c0,3.3,0,6.6,0,9.9c0,0.3,0,0.3-0.3,0.3c-1.8,0-3.7,0-5.5,0c-0.3,0-0.3,0-0.3-0.3c0-6.5,0-13,0-19.5
	c0-0.3,0-0.3,0.3-0.3c1.7,0,3.5,0,5.2,0c0.2,0,0.3,0.1,0.3,0.3c0,0.8,0,1.5,0,2.3c0,0.1,0,0.1,0,0.2c0.7-0.9,1.5-1.5,2.5-2.1
	c2.1-1.2,4.4-1.4,6.7-0.7c2.2,0.7,3.7,2.2,4.5,4.3c0.4,1,0.6,2,0.6,3.1C40.1,31.6,40.1,35.7,40.1,39.8z"/>
</svg>
