<?xml version="1.0" encoding="utf-8"?>
<!-- Generator: Adobe Illustrator 26.0.1, SVG Export Plug-In . SVG Version: 6.00 Build 0)  -->
<svg version="1.1" id="Слой_1" xmlns="http://www.w3.org/2000/svg" xmlns:xlink="http://www.w3.org/1999/xlink" x="0px" y="0px"
	 viewBox="0 0 190 56" style="enable-background:new 0 0 190 56;" xml:space="preserve">
<style type="text/css">
	.st0{fill:#F04D23;}
	.st1{fill:#FFFFFF;}
</style>
<path class="st0" d="M185.6,0c-1.7,0-3.2,0.6-4.4,1.5v31.4c1.2,1,2.7,1.5,4.4,1.5c1.7,0,3.2-0.6,4.4-1.5V1.6
	C188.8,0.6,187.3,0,185.6,0z"/>
<path class="st0" d="M50.9,8.6c1-1.2,1.6-2.7,1.6-4.3S51.9,1.2,50.9,0H30.6v34.5h20.3c1-1.2,1.6-2.7,1.6-4.3c0-1.6-0.6-3.1-1.6-4.3
	H39.4v-4.3h11.6c1-1.2,1.6-2.7,1.6-4.3c0-1.6-0.6-3.1-1.6-4.3H39.4V8.7L50.9,8.6L50.9,8.6z"/>
<path class="st0" d="M109.4,1v24.8H105V1.1c-1.2-0.7-2.7-1.1-4.4-1.1c-1.7,0-3.2,0.4-4.4,1.1v24.8c1.1,4.9,5.6,8.6,10.9,8.6
	s9.8-3.7,10.9-8.6V1c-1.2-0.6-2.7-1-4.4-1C112.1,0,110.6,0.4,109.4,1z"/>
<path class="st0" d="M133.2,0c-1.7,0-3.2,0.6-4.4,1.5l-8.8,31.4c1.2,1,2.7,1.5,4.4,1.5c1.7,0,3.2-0.6,4.4-1.5l4.4-15.7l4.4,15.7
	c1.2,1,2.7,1.5,4.4,1.5c1.7,0,3.2-0.6,4.4-1.5l-8.8-31.4C136.4,0.6,134.9,0,133.2,0z"/>
<path class="st0" d="M166.5,1.6v15.7l-2.7-10.7c-1-3.9-4.5-6.5-8.5-6.5H149v32.9c1.2,1,2.7,1.5,4.4,1.5c1.7,0,3.2-0.6,4.4-1.5V17.2
	l2.7,10.7c1,3.9,4.5,6.5,8.5,6.5h6.3V1.6c-1.2-1-2.7-1.5-4.4-1.5C169.2,0,167.7,0.6,166.5,1.6z"/>
<path class="st0" d="M76.8,5.9l-2.4,7l-2.4-7.2C70.8,2.3,67.5,0,63.9,0h-7v32.9c1.2,1,2.7,1.5,4.4,1.5s3.2-0.6,4.4-1.5v-20L70,25.8
	c1.2,1,2.7,1.5,4.4,1.5s3.2-0.6,4.4-1.5l4.4-12.9v20c1.2,1,2.7,1.5,4.4,1.5s3.2-0.6,4.4-1.5V0H85C81.3,0,78,2.4,76.8,5.9z"/>
<path class="st0" d="M17.5,8.6h7.2c1-1.2,1.6-2.7,1.6-4.3S25.7,1.2,24.7,0h-7C8,0,0,7.7,0,17.2c0,9.5,7.8,17.3,17.5,17.3h8.8V21.6
	c0-4.8-4-8.7-8.8-8.7h-2.7c-1,1.2-1.6,2.7-1.6,4.3c0,1.6,0.6,3.1,1.6,4.3h2.8v4.3c-4.8,0-8.8-3.9-8.8-8.6
	C8.8,12.5,12.7,8.6,17.5,8.6z"/>
<path class="st1" d="M60.8,43.1c-1.4,0-2.5,1.1-2.5,2.5v0.8h1.7v-0.8c0-0.5,0.4-0.8,0.8-0.8c0.5,0,0.8,0.4,0.8,0.8v1.3
	c0,0.5-0.4,0.8-0.8,0.8c-1.4,0-2.5,1.1-2.5,2.5v3.3c0,1.4,1.1,2.5,2.5,2.5s2.5-1.1,2.5-2.5v-3.3c0-0.6-0.2-1.2-0.6-1.7
	c0.4-0.4,0.6-1,0.6-1.7v-1.3C63.3,44.2,62.2,43.1,60.8,43.1z M61.6,53.5c0,0.5-0.4,0.8-0.8,0.8c-0.5,0-0.8-0.4-0.8-0.8v-3.3
	c0-0.5,0.4-0.8,0.8-0.8c0.5,0,0.8,0.4,0.8,0.8V53.5z"/>
<path class="st1" d="M84.4,43.1c-1.4,0-2.5,1.1-2.5,2.5v0.8h1.7v-0.8c0-0.5,0.4-0.8,0.8-0.8s0.8,0.4,0.8,0.8v3.9
	c-0.3-0.1-0.5-0.1-0.8-0.1c-1.4,0-2.5,1.1-2.5,2.5v1.7c0,1.4,1.1,2.5,2.5,2.5c1.4,0,2.5-1.1,2.5-2.5v-1.7v-6.3
	C87,44.2,85.8,43.1,84.4,43.1z M85.3,53.5c0,0.5-0.4,0.8-0.8,0.8c-0.5,0-0.8-0.4-0.8-0.8v-1.7c0-0.5,0.4-0.8,0.8-0.8
	c0.5,0,0.8,0.4,0.8,0.8V53.5z"/>
<path class="st1" d="M72.6,43.1c-1.4,0-2.5,1.1-2.5,2.5v0.8h1.7v-0.8c0-0.5,0.4-0.8,0.8-0.8s0.8,0.4,0.8,0.8v7.9
	c0,0.5-0.4,0.8-0.8,0.8s-0.8-0.4-0.8-0.8V51h-1.7v2.5c0,1.4,1.1,2.5,2.5,2.5c1.4,0,2.5-1.1,2.5-2.5v-7.9
	C75.1,44.2,74,43.1,72.6,43.1z"/>
<path class="st1" d="M131.7,43.1c-1.4,0-2.5,1.1-2.5,2.5V56h1.7V45.6c0-0.5,0.4-0.8,0.8-0.8s0.8,0.4,0.8,0.8V56h1.7V45.6
	C134.3,44.2,133.1,43.1,131.7,43.1z"/>
<path class="st1" d="M109.3,45.4l-1.4-1c-0.4-0.3-0.7-0.8-0.7-1.3h-1.7c0,1,0.5,2,1.4,2.7l1.4,1c0.4,0.3,0.7,0.8,0.7,1.3v5.4
	c0,0.4-0.3,0.8-0.8,0.9c-0.5,0-0.9-0.4-0.9-0.8V51h-1.7v2.5c0,1.4,1.1,2.5,2.5,2.5c1.4,0,2.6-1.1,2.6-2.5v-5.4
	C110.6,47,110.1,46,109.3,45.4z"/>
<path class="st1" d="M119.9,49.3c-0.3,0-0.6,0.1-0.9,0.1v-4.8h3.4v-1.7h-3.4c-0.9,0-1.7,0.7-1.7,1.7v8.7c0,1.4,1.1,2.5,2.5,2.5
	c1.4,0,2.6-1.1,2.6-2.5v-1.6C122.4,50.5,121.3,49.3,119.9,49.3z M120.7,53.5c0,0.5-0.4,0.8-0.8,0.8c-0.5,0-0.8-0.4-0.8-0.8v-1.7
	c0-0.5,0.4-0.8,0.8-0.8c0.5,0,0.8,0.4,0.8,0.8V53.5z"/>
<path class="st1" d="M96.5,43.1c-0.6,0-1.1,0.2-1.5,0.5c-0.4-0.3-0.9-0.5-1.5-0.5h-0.6v1.7h0.6c0.3,0,0.6,0.3,0.6,0.6v1h1.7v-1
	c0-0.3,0.3-0.6,0.6-0.6c0.3,0,0.6,0.3,0.6,0.6v8.1c0,0.5-0.4,0.8-0.8,0.8s-0.8-0.4-0.8-0.8V51h-1.7v2.5c0,1.4,1.1,2.5,2.5,2.5
	c1.4,0,2.5-1.1,2.5-2.5v-8.1C98.8,44.1,97.7,43.1,96.5,43.1z"/>
<path class="st1" d="M145.4,49.5c-0.3-0.2-0.6-0.4-0.9-0.5c0.1-0.3,0.2-0.7,0.3-1c-0.3,0-0.7,0.1-1,0.3c-0.1-0.3-0.3-0.6-0.5-0.9
	c-0.2,0.3-0.4,0.6-0.5,0.9c-0.3-0.1-0.7-0.2-1-0.3c0,0.3,0.1,0.7,0.3,1c-0.3,0.1-0.6,0.3-0.9,0.5c0.3,0.2,0.6,0.4,0.9,0.5
	c-0.1,0.3-0.2,0.7-0.3,1c0.3,0,0.7-0.1,1-0.3c0.1,0.3,0.3,0.6,0.5,0.9c0.2-0.3,0.4-0.6,0.5-0.9c0.3,0.1,0.7,0.2,1,0.3
	c0-0.3-0.1-0.7-0.3-1C144.8,49.9,145.1,49.7,145.4,49.5z"/>
<path class="st1" d="M50.6,49c0.1-0.3,0.2-0.7,0.3-1c-0.3,0-0.7,0.1-1,0.3c-0.1-0.3-0.3-0.6-0.5-0.9c-0.2,0.3-0.4,0.6-0.5,0.9
	c-0.3-0.1-0.7-0.2-1-0.3c0,0.3,0.1,0.7,0.3,1c-0.3,0.1-0.6,0.3-0.9,0.5c0.3,0.2,0.6,0.4,0.9,0.5c-0.1,0.3-0.2,0.7-0.3,1
	c0.3,0,0.7-0.1,1-0.3c0.1,0.3,0.3,0.6,0.5,0.9c0.2-0.3,0.4-0.6,0.5-0.9c0.3,0.1,0.7,0.2,1,0.3c0-0.3-0.1-0.7-0.3-1
	c0.3-0.1,0.6-0.3,0.9-0.5C51.2,49.3,50.9,49.1,50.6,49z"/>
</svg>
