<?xml version="1.0" encoding="utf-8"?>
<!-- Generator: Adobe Illustrator 26.0.1, SVG Export Plug-In . SVG Version: 6.00 Build 0)  -->
<svg version="1.1" id="Слой_1" xmlns="http://www.w3.org/2000/svg" xmlns:xlink="http://www.w3.org/1999/xlink" x="0px" y="0px"
	 viewBox="0 0 500 500" style="enable-background:new 0 0 500 500;" xml:space="preserve">
<path d="M250,500L250,500c-13.8,0-25-11.2-25-25V25c0-13.8,11.2-25,25-25h0c13.8,0,25,11.2,25,25v450C275,488.8,263.8,500,250,500z"
	/>
<path d="M0,250L0,250c0-13.8,11.2-25,25-25h450c13.8,0,25,11.2,25,25v0c0,13.8-11.2,25-25,25H25C11.2,275,0,263.8,0,250z"/>
</svg>
