<?xml version="1.0" encoding="utf-8"?>
<!-- Generator: Adobe Illustrator 26.0.1, SVG Export Plug-In . SVG Version: 6.00 Build 0)  -->
<svg version="1.1" id="Слой_1" xmlns="http://www.w3.org/2000/svg" xmlns:xlink="http://www.w3.org/1999/xlink" x="0px" y="0px"
	 viewBox="0 0 1072 542" style="enable-background:new 0 0 1072 542;" xml:space="preserve">
<style type="text/css">
	.st0{fill:#26BDBB;}
</style>
<g>
	<path class="st0" d="M1064.5,484.1c-14.2-10.5-29.6-19.3-43.1-30.2c-5.4-4.3-9.2-12.7-10.1-19.5c-1.1-7.7-3-12.4-11.1-10.7
		c-12.7,2.6-10.3-7.7-11.4-13.5c-1.3-7.1-5.8-17.6,4.1-20.4c10.9-3,17.8-10.1,25.1-16.9c3-3,2.8-9.9,2.8-15c0-0.9-7.1-1.3-10.9-2.4
		c-3-0.9-6.4-1.7-8.4-3.9c-3.2-3.2-5.8-7.5-7.9-10.5c-9.2,1.1-17.6,5.8-25.5-2.6c-2.4-2.6-9-4.3-12-2.8c-8.8,4.1-11.1-1.9-12-7.3
		c-1.5-8.6-6.4-8.6-12.9-8.8c-4.1-0.2-8.6-1.7-12-3.9c-5.8-3.9-10.7-9.2-16.7-12.9c-7.3-4.5-10.1-9.4-4.7-16.1
		c4.3-5.1,11.4-8.2,18-12.7c1.1-9.2,2.4-20.8,3.6-31.3c-8.8-3-18.7-4.1-24.9-9.2c-10.3-8.4-21-4.9-31.1-3.4
		c-5.8,0.9-10.1,4.9-14.6-5.6c-0.9,5.6-1.3,7.7-1.7,9.9c-0.6,3.4-0.2,8.2-2.4,10.3c-6.4,6.2-7.7,12.2-3.2,20.2
		c1.1,1.7-0.2,6.2-1.9,7.9c-6.9,6.9-14.2,13.1-20.4,18.7c1.5-7.5,5.8-15.2,15.7-18.9c4.9-1.7,5.4-4.3,3.2-9
		c-1.7-3.9-3.6-11.2-1.9-12.4c8.1-6,7.7-14.6,8.6-22.7c0.4-4.3-0.6-9-2.1-13.1c-0.9-2.6-3.2-4.9-5.4-6.9c-6-4.9-8.8-16.3-18.2-13.7
		c-10.1,2.6-15.7-1.1-22.1-7.3c-3.6-3.6-9.4-4.7-12.2,1.1c-3.4,6.4-6,13.5-7.7,20.8c-1.7,7.1-5.8,6.2-8.6,2.1
		c-3.6-4.9-5.1-11.4-8.4-16.7c-1.7-3.2-4.7-7.5-7.5-7.7c-7.7-1.1-15.9-0.4-24.2-0.4c0,3.2,0,6.2,0,9.4c-31.7-4.1-35.4-0.6-36.7,10.5
		c3.9,0.6,7.5,1.5,11.4,1.9c14.6,1.5,23.4,10.1,27.7,23.6c5.1,16.7-6.2,29.2-9.6,43.5c-0.2,1.3-4.1,1.9-6.4,2.4
		c-2.1,0.6-4.5,0.6-6,0.9c-1.1,4.7-1.9,8.6-2.8,12.2c-0.6,0-1.3-0.2-1.9-0.2c0-3,0-6.2,0-9c-7.5-1.5-14.6-2.8-21.4-4.5
		c-6.4-1.5-11.6-4.1-15.9-10.5c-8.1-12.7-34.5-16.5-46.7-7.7c-1.9,1.3-2.8,3.9-4.3,5.6c-3.9,4.5-6.9,10.1-11.6,13.1
		c-7.1,4.7-14.8,7.9-12.4,18.9c0.6,3.4-0.9,7.9-2.8,10.9c-4.7,7.9-10.9,14.8-15.4,22.7c-3.9,7.1-6.4,14.8-10.1,23.2
		c4.9,2.4,12,5.6,19.1,8.8c-3,0-6.6,0.6-8.8-0.9c-4.7-3.2-8.4-2.8-13.3-0.6c-14.1,6.4-28.3,13.7-43.3,17.8
		c-12.2,3.2-25.5,1.5-38.4,3.2c-7.7,1.1-15.7-3.9-23.4,2.4c-2.1,1.7-7.7-1.1-11.8-1.7c-2.8-0.4-7.9-1.7-8.1-1.1
		c-3.4,8.8-10.3,6.2-14.4,5.4c-8.8,18.2,2.4,30.2,12,41.8c4.9,0.6,9.6,2.1,14.4,3.6c1.7,0.4,3.4,1.3,5.1,1.1c4.5-0.2,9-1.1,13.5-1.5
		c-1.1,4.3-2.6,8.8-2.8,13.1c0,2.1,2.6,6.2,4.1,6.2c9.4-0.4,17.6,3.9,22.5,12.7c2.4,4.1,4.9,8.8,8.6,11.4
		c7.3,5.4,15.4,9.4,23.2,14.4c1.5,0.9,3.4,4.1,2.8,4.7c-4.7,6.4,1.7,10.3,3.2,15.2c2.1,7.3,6.4,7.9,12.2,4.9c7.9-4.1,14.8-1.3,21,3
		c3,2.1,4.9,5.8,7.5,8.8c0.2-0.9,0.4-1.7,0.6-2.6c11.4,1.5,22.5,3.2,33.9,4.5c2.8,0.4,6.4,0.2,8.8-1.3c7.1-4.9,14.4-8.8,23.4-7.9
		c6.6,0.6,7.9-3,5.8-8.6c-0.6-1.7-1.3-3.2-1.7-4.9c2.8,4.1,5.6,8.2,8.4,12.2c4.1-0.9,9.2-3,14.4-3.2c7.5-0.2,14.4,0.2,13.1-11.4
		c4.9,0.6,9,1.1,13.1,1.9c3.4,0.9,8.1,4.1,9.9,3c7.1-4.9,10.9-0.2,16.1,3c5.1,3.4,9.6,5.4,16.1-0.2c5.1-4.3,13.5-4.7,20.4-6.6
		c1.1-0.2,2.8,1.1,4.1,1.5c6,1.1,12.2,1.9,17.4,2.8c1.7-7.5,2.8-12.2,3.9-17.8c5.6,3,9,5.6,12.9,6.9c2.6,0.9,6.2,0.9,8.6-0.4
		c18.2-10.5,34.3-23.6,48.7-38.8c8.1-8.6,7.9-11.2-3-15.9c-7.5-3.2-11.1-10.1-8.8-15.9c3.2,4.1,6.2,8.4,9.9,12.2
		c3.6,3.9,7.9,6.9,11.6,10.7c2.8,3,4.7,6.9,7.5,9.9c3.9,4.3,7.9,4.5,12.4,0.4c0.9-0.9,4.5,0.4,6.2,1.7c6,4.1,11.4,9.4,17.8,12.4
		c5.4,2.6,12.2,1.9,18.2,3.4c2.1,0.4,4.1,2.1,5.6,3.6c0.4,0.6-0.2,3-0.9,3.9c-6.4,7.7-6.6,10.7,1.9,15.4
		c9.9,5.6,20.4,10.7,31.1,13.9c6.6,1.9,15.9,2.8,21-0.4c6.6-4.3,10.3,0,14.8,1.3c5.1,1.5,9.9,4.5,14.4,7.3
		c5.6,3.6,11.1,10.9,16.5,10.7c8.8-0.2,16.5-1.3,21.9,8.8c4.7-9,8.6-17.6,19.7-9.4c0.9-2.8,1.5-4.5,1.9-6.2
		c2.2-7.9,3.2-16.3,6.4-23.8C1074.1,494.8,1070.5,488.4,1064.5,484.1z M596.9,443.3c2.4-3.6,4.9-7.3,7.5-11.2
		c-1.3,3.4-2.6,6.6-4.5,12C598.8,444,598,443.5,596.9,443.3z M603.8,409.4c0.4-5.6,4.3-8.4,10.3-6.2c3.2,1.1,6.2,2.6,9,5.6
		c-2.6-0.4-5.6-0.2-7.5-1.7c-7.3-4.9-9.2-0.4-9.9,5.6c-0.6,6.2-0.9,12.2-1.1,18.4C604.2,423.8,603.3,416.5,603.8,409.4z
		 M607.4,446.1c-1.9-0.2-3.9-0.6-5.8-1.3c5.6-0.6,10.3-0.9,14.6-2.1c6.6-1.9,10.1,0.4,11.8,4.1C621.3,446.8,614.3,446.8,607.4,446.1
		z M637.8,504.9c-0.2-4.5-0.2-9.2-0.4-13.7c-0.2-3.9,1.3-9.2-0.9-11.4c-6-6.7-5.4-13.3-3.4-22.1
		C636.6,473.8,646.2,488.4,637.8,504.9z M627.5,400c0.2-6.9-2.8-9.7-13.5-9.7c-14.6,0-22.9-9.2-30.4-19.7c-1.3-1.7-0.9-4.9-1.1-7.5
		c3.2,9.4,11.8,14.4,18.2,20.8c1.3,1.3,3.6,1.9,5.8,2.4c7.1,1.5,14.4,2.1,21,4.5c6.6,2.4,12.6,6.2,19.7,9.9
		C640.2,400.4,634,400.2,627.5,400z M815.1,305c0.9,0.2,1.5,0.2,2.4,0.4c0,2.6,0.9,5.4-0.2,7.5c-4.1,8.6-3.9,16.1,0.9,24.7
		c1.7,3-1.3,8.6-2.4,12.9c-0.9-0.6-2.6-1.9-2.6-1.9c5.6-8.2-1.1-16.3-2.8-23C807.9,315.5,816.9,312.5,815.1,305z M731.3,374.5
		c-1.5,0.9-1.7,3.4-2.8,5.1c-1.7,2.8-3.4,5.8-4.9,8.6c0.2-4.5-0.4-9.4,1.3-13.1c1.5-3.2,6.2-4.7,10.7-7.7c-1.3-3.4-3-8.2-4.9-12.9
		C740.3,361.4,740.5,368.9,731.3,374.5z M728.5,344.6c0.6,3,1.1,6,1.7,8.8c-1.7-2.8-4.1-5.6-4.3-8.6c-0.6-7.3-3.4-11.2-11.1-10.5
		c-0.9,0-1.9-0.6-4.3-1.5C725.3,331.3,726.2,332,728.5,344.6z M690.4,309.9c-2.6-7.9,3.2-9.7,6.2-11.6c-1.1,6-3,13.1-3.6,20.2
		c-0.6,8.4,1.5,15,13.9,13.9c-4.3,3.4-6.9,5.4-9.4,7.5c-7.3-3.6-11.6-8.2-7.5-17.4C691.7,318.9,691.4,313.8,690.4,309.9z M682.2,400
		c-3.6,0.9-7.7-0.6-11.8-2.1c9.4-1.3,18.9-2.4,28.5-3.6C693.4,396.3,687.8,398.7,682.2,400z M763.3,410.3c-0.4,0-0.9,0.6-1.3,0.6
		c-3.9-0.2-7.7-0.2-11.4-1.1c-3.9-1.1-9-2.1-11.1-4.9c-5.1-6.9-9.6-9.4-18-4.7c-8.4,4.7-15.2-0.9-21.7-6c1.5-0.2,3.6-1.1,4.7-0.2
		c11.4,7.9,13.3,7.5,17.6-4.3c0.2-0.4,0.9-0.4,1.3-0.6c0.2,1.3,0.4,3,0.9,3.2c8.8,2.4,15.7,6.9,20.6,14.8c0.4,0.9,4.3,0.6,5.6-0.2
		c5.1-4.3,9.9-9,15-13.9c-1.5,4.1-3,7.9-4.3,12c-0.9-0.2-1.7-0.2-2.8-0.4C760,406.4,761.5,408.4,763.3,410.3z M772.3,416.5
		c10.5,0,21,0,31.5,0C793.3,426.4,782.8,419.3,772.3,416.5z M804,416.3c-1.3-1.9-2.6-5.1-4.3-5.6c-13.9-1.9-19.7-11.4-23.8-23.4
		c-0.6-1.7-3.9-2.8-6-3.2c-0.6-0.2-2.4,2.8-3,4.5c-0.4,1.1-0.9,2.4-1.3,3.4c-2.4-3-4.3-5.4-6.4-7.9c14.8-5.6,16.3-4.9,24.2,9.2
		c1.1-4.9,2.1-10.1,3.4-16.3c1.1,2.4,2.8,4.5,2.6,6.2c-3.6,22.1-3.4,22.3,18.9,23.2C806.6,410.3,805.3,413.3,804,416.3z
		 M792.2,374.7c5.6-0.6,11.1-1.1,15.9-1.7c0.4-3.4-0.4-7.9,1.5-9.4c3.4-3.2,7.9-6.6,13.7-2.4c1.9,1.5,5.6,0.6,8.4,0.6
		c0-0.9,0-1.5,0-2.4c-4.9-3-10.1-6-15-9c4.1,1.1,8.4,1.7,12.2,3.2c2.8,1.1,5.1,3.6,6.9,6c0.4,0.6-1.9,4.5-3.4,4.9
		c-3,0.9-7.5,1.7-9.2,0.2c-4.3-3.6-7.3-3.4-10.5,0.9c3.4,8.8,7.1,18,10.9,27.7c-3.9-5.1-7.5-10.1-11.8-14.8
		C808.3,375.3,799.1,376.8,792.2,374.7z M832.7,426.6c0.2-7.1,2.8-16.3-0.6-20.6c-3-3.9-6-7.9-8.8-11.8c6-4.3,6.6-1.3,10.1,3.4
		c5.6,7.7,0.9,15.2,3.6,22.5C837.7,421.4,834.4,424.2,832.7,426.6z"/>
	<path class="st0" d="M277,278.4c3-1.3,6.4-1.5,7.7-3.4c6.2-9.7,16.5-12.7,26.4-16.5c12.4-5.1,19.1-16.5,26.6-26.4
		c2.6-3.4,5.4-11.6,3.6-13.1c-9.9-9.4-4.7-22.1-8.4-32.6c-0.6-2.1-0.6-5.6,0.6-6.9c7.9-8.8,3-17.2-0.9-25.1
		c-4.1-8.8-2.8-12.4,6.4-14.8c3.2-0.9,6.4-1.5,9.9-1.9c14.4-2.1,25.9-15.2,25.9-29.8c0-5.1,0-10.5,0-15.2c-5.6,0-10.9,0.9-16.1-0.2
		c-7.1-1.5-13.9-4.5-21-6.4c-1.9-0.4-4.5,1.5-6.9,2.1c-4.3,1.1-8.6,2.8-12.9,2.6c-6.4-0.4-12.9-3.2-19.3-3.2
		c-10.7-0.2-20.2-3.4-28.7-9.7c-4.3-3.2-9.4-5.6-13.5-9c-3.4-2.8-7.1-6.4-8.8-10.3c-1.9-4.3-4.5-5.8-7.1-2.4
		c-5.4,6.6-9.4,3.6-15.4,0.6c-10.7-5.4-20.8-13.7-34.5-8.4c-2.4,0.9-6.9-3.4-10.3-5.4c-3.2-1.9-6.2-5.8-9.4-6
		c-7.7-0.4-13.3-3-16.9-10.1c-0.6-1.5-2.6-2.6-4.1-3.2c-9.9-4.5-19.7-8.6-29.4-13.5c-5.8-3-10.3-3.9-15.9,0.2
		c-7.1,5.4-14.4,5.1-21.9,0c-2.8-1.9-6.6-2.1-10.1-3C65.4,5.9,57,5.9,50.2,2.7C39.7-2.2,30,1,19.9,2.3c-1.7,0-3.4,2.4-4.3,3.9
		c-2.1,3.6-4.1,7.3-5.8,11.2C6.2,25,3,33,0,40C10.9,45.4,19.7,51.4,29.6,54c13.7,3.9,16.9,13.3,16.9,25.3c0,7.9,2.4,14.2,7.9,17.4
		c6.2-0.9,11.6-3.2,13.9-1.5C78,102,93,99,99.3,111.9c0.4,0.9,2.1,1.3,3.2,1.3c7.1,0.6,14.2,2.6,21,1.7c18.7-1.9,33.2,3.2,42.9,19.9
		c1.1,1.7,5.4,3.2,7.3,2.6c7.9-2.8,12.7,0.9,15,7.3c3.2,9,4.3,18.9,7.9,27.7c2.1,5.1,7.7,13.1,11.1,12.9
		c15.4-1.5,27.4,7.3,40.9,11.4c3.9,1.1,7.7,6,9.6,10.1c4.3,9.2,8.1,18.9,10.7,28.7C272.5,249.4,274.2,263.6,277,278.4z"/>
	<path class="st0" d="M352.5,141.3c-3.2,0.4-6.6,1.1-9.9,1.5c-7.1,1.1-8.6,3.9-6,11.4c3.2,8.8,11.4,18.2,0.6,27.7
		c-0.9,0.6-0.2,2.8-0.2,4.3c0.4,6,0.6,12,1.7,18c0.4,2.8,1.5,5.8,3.4,7.9c6,6.6,5.8,18.2-0.9,24.5c-3.6,3.4-6.4,8.2-10.5,11.2
		c-9,6.7-18.9,12.2-28.1,18.7c-7.9,5.6-15.4,11.6-23.2,17.6c-0.4,0.4-0.4,1.7-0.2,2.6c0.9,8.4,1.5,16.7,2.8,24.9
		c0.4,2.6,2.6,5.8,4.7,6.6c1.5,0.6,4.5-1.9,6.9-3c3.4-1.7,6.9-3.9,10.5-4.9c4.3-1.3,9.2-0.4,13.3-2.1c15.2-5.8,28.3-0.9,41.8,5.8
		c4.5,2.1,11.4,0,16.9-1.3c1.1-0.2,0.9-5.6,1.5-8.6c1.7-6.4,2.6-13.3,5.6-19.3c6.9-13.9,14.4-27.7,22.1-41.2
		c3.9-6.9,7.1-16.9,12.9-18.9c12.9-4.3,6.4-10.5,2.8-15c-5.6-6.6-5.4-12,0.6-18.9c-4.1-2.6-7.3-4.9-10.7-7.1c-5.6-3-12.4-4.7-16.3-9
		c-3-3.2-3.2-9.9-2.8-14.6c0.4-4.5,3-9.2,9.9-8.4c1.7,0.2,4.9-1.7,5.1-3.2c1.7-10.1,7.5-7.1,14.2-5.6c10.9,2.6,22.9,7.1,33,4.5
		c9.4-2.4,15.9,0.2,23.8,2.1c6.4,1.5,13.5,1.5,20.2,0.6c2.4-0.2,4.1-5.1,6.2-7.7c1.1-1.3,2.6-2.4,4.9-4.7
		c-5.8-3.9-11.8-6.2-14.8-10.5c-3.2-4.5-3.9-10.9-5.8-16.5c-0.4-0.9-1.7-1.7-2.8-2.1c-6-3.2-11.8-6.4-17.8-9.7
		c-8.8-4.7-17.4-3.4-24.7,3.4c-1.5,1.5-4.9,3-6.2,2.1c-12.4-6.2-24.4-13.1-36.7-19.7c-1.5-0.9-3.4-1.5-4.9-1.3
		c-8.8,1.1-16.7,10.3-16.9,19.3c-0.2,3.6,0,7.3-0.2,10.9C377.6,125.8,364.5,139.6,352.5,141.3z"/>
	<path class="st0" d="M502.6,158.5c-6.9-0.6-11.1-1.3-15.4-1.7c-2.8-0.2-6.2,1.1-7.9-0.2c-8.8-6.2-17.6-4.5-27.7-3.6
		c-10.5,1.1-21.7-3.4-32.4-5.6c-1.9-0.4-3.9-0.6-6-1.1c0,3.2,0,5.6,0,8.6c-3.6,1.1-6.9,1.1-9.2,2.8c-3,1.9-6.6,4.7-7.7,7.7
		c-0.6,2.1,2.6,6.2,5.1,7.9c4.3,2.8,9.2,4.3,13.9,6.2c8.8,3.6,11.1,9.7,8.1,18.2c-0.6,1.9,0.2,4.5,1.1,6.6
		c3.6,9.7,13.5,16.9,10.3,29.4c-0.4,1.7,4.1,4.5,6.2,6.9c6-6.6,13.1-3.9,20.6-4.1c9,0,15.9,1.9,22.1,6.7c3.2,2.6,4.3,8.2,6.2,12.2
		c0.2,1.9,2.8,1.7,4.7,2.8c12.6,6.9,22.3,2.6,31.5-7.3c4.9-5.4,11.4-9.9,20.2-7.1c6,1.9,12.4,2.6,18.7,3.2
		c6.4,0.4,12.2-0.9,15.7-8.4c-2.4-0.9-4.7-1.1-6.2-2.4c-3.9-3.2-9.4-6.4-10.5-10.5c-2.6-11.2-3-22.5-4.5-33.9c-0.6-4.1-1.1-8.6-3-12
		c-2.4-4.7-1.5-6.9,3-9.2c4.9-2.6,9.2-6,13.7-9.2c-0.2-1.3-0.4-2.6-0.6-3.9c-10.1-1.1-20.4-1.1-30-3.4c-8.6-1.9-16.7-5.8-24.4-10.1
		c-6.9-3.9-9.2-0.4-11.6,4.5C504.9,152.9,503.2,156.7,502.6,158.5z"/>
	<path class="st0" d="M563.4,200.3c0.4,4.7,0.9,9.7,1.9,14.4c1.9,9,3.4,17.8,15.2,19.7c4.9,0.9,7.1,5.1,3.4,10.5
		c-3.9,5.4-3,10.3,2.1,14.4c5.4,4.3,21,5.6,24.4,2.6c20.6-17.6,43.1-15,58.5,2.1c9,10.1,19.3,11.8,31.5,10.9
		c9.2-0.6,14.6-1.9,20.4-12.4c13.5-25.1,5.1-47.2-23.2-51.1c-13.1-1.9-13.9-3.2-8.1-15.4c0.4-0.9,0.6-1.5,1.7-3.6
		c-5.4-3.4-10.9-7.1-16.3-10.5c-9.2-6-22.1-6.4-30.4,0.4c-6.9,5.8-13.7,6.4-21.9,4.5c-3.2-0.9-6.6-0.6-9.9-1.3
		c-4.9-1.3-11.6-1.5-14.4-4.7c-2.6-3-1.3-9.7-1.9-16.7c-11.6,3.2-23.8,6.4-34.7,9.4C562.4,184.4,562.8,192.3,563.4,200.3z"/>
	<path class="st0" d="M420.7,418.7c-6.2-5.8-8.8-12-6-20.2c4.1-12-7.7-13.3-13.1-18.7c-1.5-1.5-6-0.2-9.2,0l0.2-0.2h-0.1
		c2.2-6.9,6-6.8,10.6-3c12,9.9,21,10.3,32.2,0.9c4.9-4.1,4.1-18.4-1.5-20.8c-5.3-2.1-10.5-4.5-15.8-6.5c3.4,1.2,6.9,2.2,10.2,3.3
		c10.9,3.6,13.5,5.1,13.3,16.9c-0.2,10.7,6,14.6,15.7,9.7c2.4-1.1,5.1-2.8,7.5-2.6c9.6,1.5,19.1,1.9,29.2,0.9
		c12.7-1.5,25.1-1.5,36.9-7.1c9.2-4.3,18.4-8.4,24.2-11.2c7.3-13.9,13.1-24.9,19.1-36c0.4-1.1,2.1-1.5,2.6-2.4
		c3.9-7.3,10.3-14.6,10.5-22.1c0.2-10.1,2.6-17.4,10.3-23.2c3-2.1,6.9-3.2,10.3-4.7c-6.2-3.9-13.3-4.5-19.1-7.5
		c-5.8-3-10.5-8.4-15.2-12.4c-6.4-1.1-13.3-1.5-19.7-3.2c-11.6-3.2-21-1.1-29.2,8.4c-3.4,3.9-9.4,6.4-14.8,7.1
		c-5.4,0.6-11.1-1.5-16.9-2.6c-10.9-1.9-11.1-2.4-7.5-12.7c-6.4-6.2-13.1-11.6-23.2-7.7c-1.7,0.6-4.5,0-5.8-1.3
		c-4.3-3.9-6.6-2.6-10.3,1.3c-6.4,6.6-12.2,4.3-13.9-4.5c-0.6-3.2-0.6-6.6-0.9-10.3c-9.2-0.4-13.5,5.4-16.7,12
		c-3.2,6.7-4.7,14.2-8.4,20.4c-5.1,9.2-10.9,18.2-17.6,26.4c-5.8,7.1-6.9,13.9-4.3,22.5c1.3,4.7,0.9,9.7-6,10.7
		c-1.9,0.2-4.9,2.8-4.9,4.5c0,1.9,2.1,5.4,4.1,5.8c3.9,0.9,8.4-0.2,12.4,0.6c3.9,0.6,10.3,1.9,10.9,4.3c2.8,9.6,9.5,13.8,16.9,16.5
		c-3.2-1.2-6.3-2.2-9.6-3c-5.8-1.3-7.9-3.2-8.6-9c-0.6-5.1-2.8-9-9.9-4.9c-5.8,3.4-16.5-1.5-20.2-7.7c-1.3-2.1-3.6-3.9-5.8-4.9
		c-3-1.7-6.2-3.2-9.6-3.9c-8.8-2.1-18.4-6.7-26.6-5.1c-10.5,1.9-22.3,1.1-31.5,9.9c-4.1,3.9-5.1,6.4-3.9,11.2
		c2.4,7.9,4.1,16.3,6.9,24c0.9,2.8,4.1,6,6.6,6.4c4.5,0.9,9.6-0.6,14.2,0c3.6,0.4,7.3,2.4,10.3,4.5c3.2,2.4,5.1,6.9,8.6,8.2
		c5.8,2.1,12.2,2.4,18.2,3.4c10.5,1.9,20.8,5.1,31.3,1.1c1.1-0.4,2.4-0.3,3.7-0.2c-7.5,2.7-15.1,5.4-22.4,8.2
		c-4.9-8.4-13.1-8.6-22.7-1.3c-6.6-6.4-13.5-13.1-20.4-19.7c-0.9-0.9-2.1-1.5-3.2-1.5c-5.6-0.2-11.4-0.9-16.7,0.2
		c-2.4,0.4-5.6,3.6-6.2,6.2c-1.5,4.9-0.2,10.5-2.1,15.2c-4.5,10.5-7.5,24.7-15.9,29.4c-12.2,7.1-15.4,15.4-15.7,29.2
		c5.8,1.5,11.8,3.2,17.8,4.9c2.6,0.9,5.6,1.1,7.9,2.6c13.7,8.8,13.5,8.6,25.5-3c2.8-2.8,8.8-6.4,10.7-5.1c8.8,5.4,17.8,0,26.4,1.9
		c15.9,3.6,31.5,8.6,47.2,12.7c3,0.6,8.4,0.4,9.6-1.5c4.7-6.9,10.1-13.3,12.4-22.1C426,428.3,425.6,423.2,420.7,418.7z"/>
</g>
</svg>
