<?xml version="1.0" encoding="utf-8"?>
<!-- Generator: Adobe Illustrator 26.0.1, SVG Export Plug-In . SVG Version: 6.00 Build 0)  -->
<svg version="1.1" id="Слой_1" xmlns="http://www.w3.org/2000/svg" xmlns:xlink="http://www.w3.org/1999/xlink" x="0px" y="0px"
	 viewBox="0 0 100 87.3" style="enable-background:new 0 0 100 87.3;" xml:space="preserve">
<path d="M98.2,39.4L60.8,1.9c-2.3-2.3-6.1-2.6-8.5-0.3c-2.4,2.3-2.5,6.2-0.1,8.5l27.5,27.5c0,0,0,0,0,0l-74,0
	c-3.1,0-5.7,2.5-5.7,5.7v0c0,3.4,2.8,6.2,6.2,6.2h73.6c0,0,0,0,0,0L52.4,76.9c-2.3,2.3-2.6,6.1-0.3,8.5c2.3,2.4,6.2,2.5,8.5,0.1
	l37.7-37.7C100.6,45.5,100.6,41.7,98.2,39.4z"/>
</svg>
